<svg version="1.1" xmlns="http://www.w3.org/2000/svg" xmlns:xlink="http://www.w3.org/1999/xlink"
        width="100" height="100"
        viewBox="0 0 100 100">
    <symbol overflow="visible" preserveAspectRatio="xMinYMin" id="rest.whole" viewBox="0 -1200 1078 1000">
        <path fill="blue" d="M0 -24c0 1 12 5 36 13c24 7 36 11 39 11s3 -33 3 -100c0 -1 -12 -5 -36 -13s-36 -12 -39 -12s-3 34 -3 101z" transform="scale(1, -1) translate(0, 1200)"></path>
    </symbol>
    <symbol overflow="visible" preserveAspectRatio="xMinYMin" id="note.wholeBlack" viewBox="0 -1200 1420 1000">
        <path d="M204 141c24 0 48 -2 72 -7c23 -5 46 -12 69 -21c22 -10 40 -24 54 -41c14 -18 21 -38 21 -61c0 -29 -12 -55 -37 -79s-55 -42 -90 -55c-35 -12 -70 -18 -104 -18c-54 0 -99 12 -134 37c-36 25 -54 59 -54 104c0 25 11 49 32 71s47 39 78 52c31 12 62 18 93 18z" transform="scale(1, -1) translate(0, 1200)"></path>
    </symbol>

    <g>
        <line stroke="black" stroke-width="1" x1="0" y1="10" x2="100" y2="10"></line>
        <line stroke="black" stroke-width="1" x1="0" y1="30" x2="100" y2="30"></line>
        <line stroke="black" stroke-width="1" x1="0" y1="50" x2="100" y2="50"></line>
        <line stroke="black" stroke-width="1" x1="0" y1="70" x2="100" y2="70"></line>
        <line stroke="black" stroke-width="1" x1="0" y1="90" x2="100" y2="90"></line>
    </g>

    <use fill="blue" height="87.5px" style="opacity:1.0" xlink:href="#note.wholeBlack" x="20" y="50"></use>
    <use height="87.5px" style="opacity:1.0" xlink:href="#rest.whole" x="50" y="50" fill="black"></use>

</svg>
