<?xml version="1.0" encoding="UTF-8" standalone="no"?><svg xmlns="http://www.w3.org/2000/svg" xmlns:xlink="http://www.w3.org/1999/xlink" contentScriptType="application/ecmascript" contentStyleType="text/css" height="181px" preserveAspectRatio="none" style="width:373px;height:181px;" version="1.1" viewBox="0 0 373 181" width="373px" zoomAndPan="magnify"><defs><filter height="300%" id="f124pfzzaor5ri" width="300%" x="-1" y="-1"><feGaussianBlur result="blurOut" stdDeviation="2.0"/><feColorMatrix in="blurOut" result="blurOut2" type="matrix" values="0 0 0 0 0 0 0 0 0 0 0 0 0 0 0 0 0 0 .4 0"/><feOffset dx="4.0" dy="4.0" in="blurOut2" result="blurOut3"/><feBlend in="SourceGraphic" in2="blurOut3" mode="normal"/></filter></defs><g><!--MD5=[df2bed7f92c71626a0b31269ff497796]
entity AppComponent--><rect fill="#FEFECE" filter="url(#f124pfzzaor5ri)" height="46.4883" style="stroke:#A80036;stroke-width:1.5;" width="149" x="8.5" y="7"/><rect fill="#FEFECE" height="10" style="stroke:#A80036;stroke-width:1.5;" width="15" x="137.5" y="12"/><rect fill="#FEFECE" height="2" style="stroke:#A80036;stroke-width:1.5;" width="4" x="135.5" y="14"/><rect fill="#FEFECE" height="2" style="stroke:#A80036;stroke-width:1.5;" width="4" x="135.5" y="18"/><text fill="#000000" font-family="sans-serif" font-size="14" lengthAdjust="spacingAndGlyphs" textLength="109" x="23.5" y="40.5352">AppComponent</text><!--MD5=[baa823340bfa0ea26d6c60a6d9ed704e]
entity LayoutComponent--><rect fill="#FEFECE" filter="url(#f124pfzzaor5ri)" height="46.4883" style="stroke:#A80036;stroke-width:1.5;" width="166" x="193" y="7"/><rect fill="#FEFECE" height="10" style="stroke:#A80036;stroke-width:1.5;" width="15" x="339" y="12"/><rect fill="#FEFECE" height="2" style="stroke:#A80036;stroke-width:1.5;" width="4" x="337" y="14"/><rect fill="#FEFECE" height="2" style="stroke:#A80036;stroke-width:1.5;" width="4" x="337" y="18"/><text fill="#000000" font-family="sans-serif" font-size="14" lengthAdjust="spacingAndGlyphs" textLength="126" x="208" y="40.5352">LayoutComponent</text><!--MD5=[953a8c67cfe21abaf9bf45dad8506ca8]
entity Router--><ellipse cx="29" cy="142" fill="#FEFECE" filter="url(#f124pfzzaor5ri)" rx="8" ry="8" style="stroke:#A80036;stroke-width:1.5;"/><text fill="#000000" font-family="sans-serif" font-size="14" lengthAdjust="spacingAndGlyphs" textLength="46" x="6" y="172.5352">Router</text><!--MD5=[0682b4c1926bf9e2e6c54329a83ef1ee]
entity AuthStore--><ellipse cx="137" cy="142" fill="#FEFECE" filter="url(#f124pfzzaor5ri)" rx="8" ry="8" style="stroke:#A80036;stroke-width:1.5;"/><text fill="#000000" font-family="sans-serif" font-size="14" lengthAdjust="spacingAndGlyphs" textLength="69" x="102.5" y="172.5352">AuthStore</text><!--MD5=[a2e2d0c054aa5ffa88a181f2f5c6dba3]
link AppComponent to LayoutComponent--><path d="M169.64,30 C169.64,30 176.76,30 179.74,30 " fill="none" id="AppComponent-LayoutComponent" style="stroke:#A80036;stroke-width:1.0;"/><polygon fill="#A80036" points="192.78,30,183.78,26,187.78,30,183.78,34,192.78,30" style="stroke:#A80036;stroke-width:1.0;"/><line style="stroke:#A80036;stroke-width:1.0;" x1="187.78" x2="179.78" y1="30" y2="30"/><polygon fill="#A80036" points="157.64,30,163.64,34,169.64,30,163.64,26,157.64,30" style="stroke:#A80036;stroke-width:1.0;"/><!--MD5=[cde5594f42771cca64b2cf4bc3f95f7b]
link AppComponent to Router--><path d="M66.7827,64.0324 C66.7827,64.0324 46.45,105.45 38.79,121.06 " fill="none" id="AppComponent-Router" style="stroke:#A80036;stroke-width:1.0;"/><polygon fill="#A80036" points="33,132.86,40.5563,126.5431,35.203,128.3715,33.3747,123.0183,33,132.86" style="stroke:#A80036;stroke-width:1.0;"/><line style="stroke:#A80036;stroke-width:1.0;" x1="35.203" x2="38.725" y1="128.3715" y2="121.185"/><polygon fill="#A80036" points="72.07,53.26,65.8356,56.8838,66.7827,64.0324,73.0171,60.4086,72.07,53.26" style="stroke:#A80036;stroke-width:1.0;"/><!--MD5=[70a93a8e6e61220b655737499a359380]
link AppComponent to AuthStore--><path d="M99.2173,64.0324 C99.2173,64.0324 119.55,105.45 127.21,121.06 " fill="none" id="AppComponent-AuthStore" style="stroke:#A80036;stroke-width:1.0;"/><polygon fill="#A80036" points="133,132.86,132.6253,123.0183,130.797,128.3715,125.4437,126.5431,133,132.86" style="stroke:#A80036;stroke-width:1.0;"/><line style="stroke:#A80036;stroke-width:1.0;" x1="130.797" x2="127.275" y1="128.3715" y2="121.185"/><polygon fill="#A80036" points="93.93,53.26,92.9829,60.4086,99.2173,64.0324,100.1644,56.8838,93.93,53.26" style="stroke:#A80036;stroke-width:1.0;"/><!--MD5=[ea24a65d898306fdf6bc3fe26a4d9349]
@startuml appcomponent_class
[AppComponent] *-> [LayoutComponent]
[AppComponent] *- -> Router
[AppComponent] *- -> AuthStore
@enduml

PlantUML version 1.2020.22(Sun Dec 06 10:36:27 CET 2020)
(GPL source distribution)
Java Runtime: Java(TM) SE Runtime Environment
JVM: Java HotSpot(TM) 64-Bit Server VM
Default Encoding: UTF-8
Language: es
Country: ES
--></g></svg>