<?xml version="1.0" encoding="UTF-8" standalone="no"?><svg xmlns="http://www.w3.org/2000/svg" xmlns:xlink="http://www.w3.org/1999/xlink" contentScriptType="application/ecmascript" contentStyleType="text/css" height="411px" preserveAspectRatio="none" style="width:2249px;height:411px;" version="1.1" viewBox="0 0 2249 411" width="2249px" zoomAndPan="magnify"><defs><filter height="300%" id="f1n2301dyh5kyl" width="300%" x="-1" y="-1"><feGaussianBlur result="blurOut" stdDeviation="2.0"/><feColorMatrix in="blurOut" result="blurOut2" type="matrix" values="0 0 0 0 0 0 0 0 0 0 0 0 0 0 0 0 0 0 .4 0"/><feOffset dx="4.0" dy="4.0" in="blurOut2" result="blurOut3"/><feBlend in="SourceGraphic" in2="blurOut3" mode="normal"/></filter></defs><g><!--MD5=[e334534ad32e89b82e48e42f684e3dfe]
entity Auth Store--><rect fill="#FEFECE" filter="url(#f1n2301dyh5kyl)" height="46.4883" style="stroke:#A80036;stroke-width:1.5;" width="113" x="1342" y="119"/><rect fill="#FEFECE" height="10" style="stroke:#A80036;stroke-width:1.5;" width="15" x="1435" y="124"/><rect fill="#FEFECE" height="2" style="stroke:#A80036;stroke-width:1.5;" width="4" x="1433" y="126"/><rect fill="#FEFECE" height="2" style="stroke:#A80036;stroke-width:1.5;" width="4" x="1433" y="130"/><text fill="#000000" font-family="sans-serif" font-size="14" lengthAdjust="spacingAndGlyphs" textLength="73" x="1357" y="152.5352">Auth Store</text><!--MD5=[25d7ca3480ba1647dc4e51d0d61d7fd0]
entity AuthLogIn--><ellipse cx="1059.5" cy="30" fill="#FEFECE" filter="url(#f1n2301dyh5kyl)" rx="8" ry="8" style="stroke:#A80036;stroke-width:1.5;"/><text fill="#000000" font-family="sans-serif" font-size="14" lengthAdjust="spacingAndGlyphs" textLength="71" x="1024" y="60.5352">AuthLogIn</text><!--MD5=[88861b83ccf7240513652910c10d48a3]
entity AuthLogOut--><ellipse cx="1186.5" cy="30" fill="#FEFECE" filter="url(#f1n2301dyh5kyl)" rx="8" ry="8" style="stroke:#A80036;stroke-width:1.5;"/><text fill="#000000" font-family="sans-serif" font-size="14" lengthAdjust="spacingAndGlyphs" textLength="83" x="1145" y="60.5352">AuthLogOut</text><!--MD5=[8b0b9220cc3cdf6981234141987b2ed7]
entity AuthGetStatus--><ellipse cx="1327.5" cy="30" fill="#FEFECE" filter="url(#f1n2301dyh5kyl)" rx="8" ry="8" style="stroke:#A80036;stroke-width:1.5;"/><text fill="#000000" font-family="sans-serif" font-size="14" lengthAdjust="spacingAndGlyphs" textLength="98" x="1278.5" y="60.5352">AuthGetStatus</text><!--MD5=[10f02f8b27cfe4d13a880e1d1b368ed1]
entity AuthRefresh--><ellipse cx="1469.5" cy="30" fill="#FEFECE" filter="url(#f1n2301dyh5kyl)" rx="8" ry="8" style="stroke:#A80036;stroke-width:1.5;"/><text fill="#000000" font-family="sans-serif" font-size="14" lengthAdjust="spacingAndGlyphs" textLength="85" x="1427" y="60.5352">AuthRefresh</text><!--MD5=[2d23b45d9101a4c5d6b2d00ea4939bf8]
entity AuthRefreshLogged--><ellipse cx="1630.5" cy="30" fill="#FEFECE" filter="url(#f1n2301dyh5kyl)" rx="8" ry="8" style="stroke:#A80036;stroke-width:1.5;"/><text fill="#000000" font-family="sans-serif" font-size="14" lengthAdjust="spacingAndGlyphs" textLength="136" x="1562.5" y="60.5352">AuthRefreshLogged</text><!--MD5=[53977ea8772849c0585ed116cccc458b]
entity AuthResetPassword--><ellipse cx="1816.5" cy="30" fill="#FEFECE" filter="url(#f1n2301dyh5kyl)" rx="8" ry="8" style="stroke:#A80036;stroke-width:1.5;"/><text fill="#000000" font-family="sans-serif" font-size="14" lengthAdjust="spacingAndGlyphs" textLength="135" x="1749" y="60.5352">AuthResetPassword</text><!--MD5=[b2ec50a45b81dfb3e3fab65ca86495e8]
entity selectAuthIsAuthenticated--><ellipse cx="961.5" cy="254" fill="#FEFECE" filter="url(#f1n2301dyh5kyl)" rx="8" ry="8" style="stroke:#A80036;stroke-width:1.5;"/><text fill="#000000" font-family="sans-serif" font-size="14" lengthAdjust="spacingAndGlyphs" textLength="179" x="872" y="284.5352">selectAuthIsAuthenticated</text><!--MD5=[b330f15eedca17304af658e2741b4509]
entity selectAuthUsername--><ellipse cx="264.5" cy="254" fill="#FEFECE" filter="url(#f1n2301dyh5kyl)" rx="8" ry="8" style="stroke:#A80036;stroke-width:1.5;"/><text fill="#000000" font-family="sans-serif" font-size="14" lengthAdjust="spacingAndGlyphs" textLength="141" x="194" y="284.5352">selectAuthUsername</text><!--MD5=[1226e6680f1dc09bc97ecf8c2b331229]
entity selectAuthErrorMessage--><ellipse cx="1184.5" cy="254" fill="#FEFECE" filter="url(#f1n2301dyh5kyl)" rx="8" ry="8" style="stroke:#A80036;stroke-width:1.5;"/><text fill="#000000" font-family="sans-serif" font-size="14" lengthAdjust="spacingAndGlyphs" textLength="166" x="1101.5" y="284.5352">selectAuthErrorMessage</text><!--MD5=[729fc70d399c84d6ea08683a6c4c8838]
entity selectAuthAccessToken--><ellipse cx="1398.5" cy="254" fill="#FEFECE" filter="url(#f1n2301dyh5kyl)" rx="8" ry="8" style="stroke:#A80036;stroke-width:1.5;"/><text fill="#000000" font-family="sans-serif" font-size="14" lengthAdjust="spacingAndGlyphs" textLength="161" x="1318" y="284.5352">selectAuthAccessToken</text><!--MD5=[aa59b11c24f4670b9ee9e44ec325e58b]
entity selectAuthResetPWDStatus--><ellipse cx="1619.5" cy="254" fill="#FEFECE" filter="url(#f1n2301dyh5kyl)" rx="8" ry="8" style="stroke:#A80036;stroke-width:1.5;"/><text fill="#000000" font-family="sans-serif" font-size="14" lengthAdjust="spacingAndGlyphs" textLength="181" x="1529" y="284.5352">selectAuthResetPWDStatus</text><!--MD5=[41759b446247c7d8f5b1bb57cf81c2a1]
entity selectAuthRole--><ellipse cx="1988.5" cy="254" fill="#FEFECE" filter="url(#f1n2301dyh5kyl)" rx="8" ry="8" style="stroke:#A80036;stroke-width:1.5;"/><text fill="#000000" font-family="sans-serif" font-size="14" lengthAdjust="spacingAndGlyphs" textLength="102" x="1937.5" y="284.5352">selectAuthRole</text><!--MD5=[a33ae3cb694ccab51e1045e31633d864]
entity selectAuthIsAdmin--><ellipse cx="2154.5" cy="254" fill="#FEFECE" filter="url(#f1n2301dyh5kyl)" rx="8" ry="8" style="stroke:#A80036;stroke-width:1.5;"/><text fill="#000000" font-family="sans-serif" font-size="14" lengthAdjust="spacingAndGlyphs" textLength="128" x="2090.5" y="284.5352">selectAuthIsAdmin</text><!--MD5=[73beb7004811069b740cb7bbf48f80cb]
entity LogIn--><rect fill="#FEFECE" filter="url(#f1n2301dyh5kyl)" height="46.4883" style="stroke:#A80036;stroke-width:1.5;" width="78" x="377.5" y="231"/><rect fill="#FEFECE" height="10" style="stroke:#A80036;stroke-width:1.5;" width="15" x="435.5" y="236"/><rect fill="#FEFECE" height="2" style="stroke:#A80036;stroke-width:1.5;" width="4" x="433.5" y="238"/><rect fill="#FEFECE" height="2" style="stroke:#A80036;stroke-width:1.5;" width="4" x="433.5" y="242"/><text fill="#000000" font-family="sans-serif" font-size="14" lengthAdjust="spacingAndGlyphs" textLength="38" x="392.5" y="264.5352">LogIn</text><!--MD5=[14c1e844828ef229616f4eadbabaf63a]
entity LoginComponent--><rect fill="#FEFECE" filter="url(#f1n2301dyh5kyl)" height="46.4883" style="stroke:#A80036;stroke-width:1.5;" width="159" x="456" y="349"/><rect fill="#FEFECE" height="10" style="stroke:#A80036;stroke-width:1.5;" width="15" x="595" y="354"/><rect fill="#FEFECE" height="2" style="stroke:#A80036;stroke-width:1.5;" width="4" x="593" y="356"/><rect fill="#FEFECE" height="2" style="stroke:#A80036;stroke-width:1.5;" width="4" x="593" y="360"/><text fill="#000000" font-family="sans-serif" font-size="14" lengthAdjust="spacingAndGlyphs" textLength="119" x="471" y="382.5352">LoginComponent</text><!--MD5=[8192fe1c602d939e833010343ebfe8f2]
entity LogOut--><rect fill="#FEFECE" filter="url(#f1n2301dyh5kyl)" height="46.4883" style="stroke:#A80036;stroke-width:1.5;" width="90" x="490.5" y="231"/><rect fill="#FEFECE" height="10" style="stroke:#A80036;stroke-width:1.5;" width="15" x="560.5" y="236"/><rect fill="#FEFECE" height="2" style="stroke:#A80036;stroke-width:1.5;" width="4" x="558.5" y="238"/><rect fill="#FEFECE" height="2" style="stroke:#A80036;stroke-width:1.5;" width="4" x="558.5" y="242"/><text fill="#000000" font-family="sans-serif" font-size="14" lengthAdjust="spacingAndGlyphs" textLength="50" x="505.5" y="264.5352">LogOut</text><!--MD5=[2a0ec225006a02ef76ade56bceff3857]
entity Refresh--><rect fill="#FEFECE" filter="url(#f1n2301dyh5kyl)" height="46.4883" style="stroke:#A80036;stroke-width:1.5;" width="92" x="1926.5" y="7"/><rect fill="#FEFECE" height="10" style="stroke:#A80036;stroke-width:1.5;" width="15" x="1998.5" y="12"/><rect fill="#FEFECE" height="2" style="stroke:#A80036;stroke-width:1.5;" width="4" x="1996.5" y="14"/><rect fill="#FEFECE" height="2" style="stroke:#A80036;stroke-width:1.5;" width="4" x="1996.5" y="18"/><text fill="#000000" font-family="sans-serif" font-size="14" lengthAdjust="spacingAndGlyphs" textLength="52" x="1941.5" y="40.5352">Refresh</text><!--MD5=[df2bed7f92c71626a0b31269ff497796]
entity AppComponent--><rect fill="#FEFECE" filter="url(#f1n2301dyh5kyl)" height="46.4883" style="stroke:#A80036;stroke-width:1.5;" width="149" x="1898" y="119"/><rect fill="#FEFECE" height="10" style="stroke:#A80036;stroke-width:1.5;" width="15" x="2027" y="124"/><rect fill="#FEFECE" height="2" style="stroke:#A80036;stroke-width:1.5;" width="4" x="2025" y="126"/><rect fill="#FEFECE" height="2" style="stroke:#A80036;stroke-width:1.5;" width="4" x="2025" y="130"/><text fill="#000000" font-family="sans-serif" font-size="14" lengthAdjust="spacingAndGlyphs" textLength="109" x="1913" y="152.5352">AppComponent</text><!--MD5=[f9750f0fe9285ab68e4b44db499bf24a]
entity ResetPassword--><rect fill="#FEFECE" filter="url(#f1n2301dyh5kyl)" height="46.4883" style="stroke:#A80036;stroke-width:1.5;" width="142" x="1752.5" y="231"/><rect fill="#FEFECE" height="10" style="stroke:#A80036;stroke-width:1.5;" width="15" x="1874.5" y="236"/><rect fill="#FEFECE" height="2" style="stroke:#A80036;stroke-width:1.5;" width="4" x="1872.5" y="238"/><rect fill="#FEFECE" height="2" style="stroke:#A80036;stroke-width:1.5;" width="4" x="1872.5" y="242"/><text fill="#000000" font-family="sans-serif" font-size="14" lengthAdjust="spacingAndGlyphs" textLength="102" x="1767.5" y="264.5352">ResetPassword</text><!--MD5=[3bb30cd1f416657b0c78e34f239a2775]
entity ResetPasswordComponent--><rect fill="#FEFECE" filter="url(#f1n2301dyh5kyl)" height="46.4883" style="stroke:#A80036;stroke-width:1.5;" width="223" x="1619" y="349"/><rect fill="#FEFECE" height="10" style="stroke:#A80036;stroke-width:1.5;" width="15" x="1822" y="354"/><rect fill="#FEFECE" height="2" style="stroke:#A80036;stroke-width:1.5;" width="4" x="1820" y="356"/><rect fill="#FEFECE" height="2" style="stroke:#A80036;stroke-width:1.5;" width="4" x="1820" y="360"/><text fill="#000000" font-family="sans-serif" font-size="14" lengthAdjust="spacingAndGlyphs" textLength="183" x="1634" y="382.5352">ResetPasswordComponent</text><!--MD5=[baa823340bfa0ea26d6c60a6d9ed704e]
entity LayoutComponent--><rect fill="#FEFECE" filter="url(#f1n2301dyh5kyl)" height="46.4883" style="stroke:#A80036;stroke-width:1.5;" width="166" x="878.5" y="349"/><rect fill="#FEFECE" height="10" style="stroke:#A80036;stroke-width:1.5;" width="15" x="1024.5" y="354"/><rect fill="#FEFECE" height="2" style="stroke:#A80036;stroke-width:1.5;" width="4" x="1022.5" y="356"/><rect fill="#FEFECE" height="2" style="stroke:#A80036;stroke-width:1.5;" width="4" x="1022.5" y="360"/><text fill="#000000" font-family="sans-serif" font-size="14" lengthAdjust="spacingAndGlyphs" textLength="126" x="893.5" y="382.5352">LayoutComponent</text><!--MD5=[cd43d75518aa8eb75eaad7161c8e92e6]
entity RegisterComponent--><rect fill="#FEFECE" filter="url(#f1n2301dyh5kyl)" height="46.4883" style="stroke:#A80036;stroke-width:1.5;" width="177" x="7" y="349"/><rect fill="#FEFECE" height="10" style="stroke:#A80036;stroke-width:1.5;" width="15" x="164" y="354"/><rect fill="#FEFECE" height="2" style="stroke:#A80036;stroke-width:1.5;" width="4" x="162" y="356"/><rect fill="#FEFECE" height="2" style="stroke:#A80036;stroke-width:1.5;" width="4" x="162" y="360"/><text fill="#000000" font-family="sans-serif" font-size="14" lengthAdjust="spacingAndGlyphs" textLength="137" x="22" y="382.5352">RegisterComponent</text><!--MD5=[0bf0ec6fa312a0f582bf523f940bbcbb]
entity AvatarComponent--><rect fill="#FEFECE" filter="url(#f1n2301dyh5kyl)" height="46.4883" style="stroke:#A80036;stroke-width:1.5;" width="165" x="219" y="349"/><rect fill="#FEFECE" height="10" style="stroke:#A80036;stroke-width:1.5;" width="15" x="364" y="354"/><rect fill="#FEFECE" height="2" style="stroke:#A80036;stroke-width:1.5;" width="4" x="362" y="356"/><rect fill="#FEFECE" height="2" style="stroke:#A80036;stroke-width:1.5;" width="4" x="362" y="360"/><text fill="#000000" font-family="sans-serif" font-size="14" lengthAdjust="spacingAndGlyphs" textLength="125" x="234" y="382.5352">AvatarComponent</text><!--MD5=[d8905590bb65a677ecdaecf075a431c8]
entity selectAuthAuthErrorMessage--><ellipse cx="722.5" cy="254" fill="#FEFECE" filter="url(#f1n2301dyh5kyl)" rx="8" ry="8" style="stroke:#A80036;stroke-width:1.5;"/><text fill="#000000" font-family="sans-serif" font-size="14" lengthAdjust="spacingAndGlyphs" textLength="199" x="623" y="284.5352">selectAuthAuthErrorMessage</text><!--MD5=[3ebf45ff5522ad8d6ecef77d839b9bf4]
entity TokenInterceptorService--><ellipse cx="1398.5" cy="372" fill="#FEFECE" filter="url(#f1n2301dyh5kyl)" rx="8" ry="8" style="stroke:#A80036;stroke-width:1.5;"/><text fill="#000000" font-family="sans-serif" font-size="14" lengthAdjust="spacingAndGlyphs" textLength="167" x="1315" y="402.5352">TokenInterceptorService</text><!--MD5=[826ab927a0742f468322359ed8b39d35]
entity HomeComponent--><rect fill="#FEFECE" filter="url(#f1n2301dyh5kyl)" height="46.4883" style="stroke:#A80036;stroke-width:1.5;" width="161" x="2074" y="349"/><rect fill="#FEFECE" height="10" style="stroke:#A80036;stroke-width:1.5;" width="15" x="2215" y="354"/><rect fill="#FEFECE" height="2" style="stroke:#A80036;stroke-width:1.5;" width="4" x="2213" y="356"/><rect fill="#FEFECE" height="2" style="stroke:#A80036;stroke-width:1.5;" width="4" x="2213" y="360"/><text fill="#000000" font-family="sans-serif" font-size="14" lengthAdjust="spacingAndGlyphs" textLength="121" x="2089" y="382.5352">HomeComponent</text><!--MD5=[bc0751fee534c27e48ded623d7831d01]
link AuthLogIn to Auth Store--><path d="M1068.67,35.81 C1080.28,41.77 1101,52.01 1119.5,59 C1194.95,87.51 1284.88,112.37 1341.83,127.03 " fill="none" id="AuthLogIn-Auth Store" style="stroke:#A80036;stroke-width:1.0;"/><!--MD5=[54353f87a141d5e895a7adb101014b77]
link AuthLogOut to Auth Store--><path d="M1195.61,35.73 C1222.79,49.83 1304.61,92.28 1355.66,118.77 " fill="none" id="AuthLogOut-Auth Store" style="stroke:#A80036;stroke-width:1.0;"/><!--MD5=[e569cc872c01ff4a6ecb2f1b02af1015]
link AuthGetStatus to Auth Store--><path d="M1332.84,39.27 C1343.61,55.96 1368.27,94.16 1384.11,118.71 " fill="none" id="AuthGetStatus-Auth Store" style="stroke:#A80036;stroke-width:1.0;"/><!--MD5=[bdf8dbdfd072e17b614ec82d519021d8]
link AuthRefresh to Auth Store--><path d="M1464.16,39.27 C1453.39,55.96 1428.73,94.16 1412.89,118.71 " fill="none" id="AuthRefresh-Auth Store" style="stroke:#A80036;stroke-width:1.0;"/><!--MD5=[2e77cf7b89f1f9632a19c3bf9844b092]
link AuthRefreshLogged to Auth Store--><path d="M1621.41,35.31 C1592.5,49.02 1501.34,92.24 1444.95,118.98 " fill="none" id="AuthRefreshLogged-Auth Store" style="stroke:#A80036;stroke-width:1.0;"/><!--MD5=[6647201dd291e551fb84a3fb5714a584]
link AuthResetPassword to Auth Store--><path d="M1807.3,33.92 C1790.65,39.17 1754.38,50.46 1723.5,59 C1629.84,84.9 1520.07,111.91 1455.07,127.55 " fill="none" id="AuthResetPassword-Auth Store" style="stroke:#A80036;stroke-width:1.0;"/><!--MD5=[d60ef33ca7db3c2828e50d5b74781dbd]
link Auth Store to selectAuthIsAuthenticated--><path d="M1341.82,157.27 C1236.74,183.72 1018.07,238.76 970.68,250.69 " fill="none" id="Auth Store-selectAuthIsAuthenticated" style="stroke:#A80036;stroke-width:1.0;"/><!--MD5=[a19b1a69935ac66ffd03794d52dd53b8]
link Auth Store to selectAuthUsername--><path d="M1341.93,143.35 C1184.74,145.21 729.82,156.58 359.5,225 C327.21,230.97 290.22,243.62 273.52,249.66 " fill="none" id="Auth Store-selectAuthUsername" style="stroke:#A80036;stroke-width:1.0;"/><!--MD5=[dcbbc8a3c9cea8dbd34e618d951772bb]
link Auth Store to selectAuthErrorMessage--><path d="M1355.45,165.13 C1303.94,191.6 1221.21,234.13 1193.72,248.26 " fill="none" id="Auth Store-selectAuthErrorMessage" style="stroke:#A80036;stroke-width:1.0;"/><!--MD5=[0138ca80e08fb5181faab34d59de1227]
link Auth Store to selectAuthAccessToken--><path d="M1398.5,165.26 C1398.5,189.87 1398.5,228.23 1398.5,244.86 " fill="none" id="Auth Store-selectAuthAccessToken" style="stroke:#A80036;stroke-width:1.0;"/><!--MD5=[a3d65b79c4d8022485fc0f59becd8e81]
link Auth Store to selectAuthResetPWDStatus--><path d="M1442.96,165.13 C1496.4,191.73 1582.4,234.53 1610.38,248.46 " fill="none" id="Auth Store-selectAuthResetPWDStatus" style="stroke:#A80036;stroke-width:1.0;"/><!--MD5=[3e58da177b95cc2c31945a05caeb13cd]
link Auth Store to selectAuthRole--><path d="M1455.14,148.39 C1550.64,158.28 1749.23,182.33 1912.5,225 C1937.26,231.47 1965.23,242.89 1979.33,248.96 " fill="none" id="Auth Store-selectAuthRole" style="stroke:#A80036;stroke-width:1.0;"/><!--MD5=[9013b414f66f78d67e07c5e17b6abb78]
link Auth Store to selectAuthIsAdmin--><path d="M1455.3,146.47 C1571.15,154.33 1842.59,176.66 2065.5,225 C2095.26,231.45 2129.31,243.53 2145.3,249.49 " fill="none" id="Auth Store-selectAuthIsAdmin" style="stroke:#A80036;stroke-width:1.0;"/><!--MD5=[b90fc5d589d032344ec965f6fce50d50]
reverse link LogIn to LoginComponent--><path d="M442.99,280.82 C463.99,301.29 493.01,329.58 512.92,348.99 " fill="none" id="LogIn-backto-LoginComponent" style="stroke:#A80036;stroke-width:1.0;stroke-dasharray:7.0,7.0;"/><polygon fill="#A80036" points="439.16,277.09,442.8065,286.239,442.738,280.5825,448.3945,280.5141,439.16,277.09" style="stroke:#A80036;stroke-width:1.0;"/><!--MD5=[a710a1a2a1446a4fb72b6281e3438e00]
reverse link LogOut to LoginComponent--><path d="M535.5,282.1 C535.5,302.46 535.5,329.99 535.5,348.99 " fill="none" id="LogOut-backto-LoginComponent" style="stroke:#A80036;stroke-width:1.0;stroke-dasharray:7.0,7.0;"/><polygon fill="#A80036" points="535.5,277.09,531.5,286.09,535.5,282.09,539.5,286.09,535.5,277.09" style="stroke:#A80036;stroke-width:1.0;"/><!--MD5=[d772d2bea5c092e6880046f13a24514f]
reverse link Refresh to AppComponent--><path d="M1972.5,58.35 C1972.5,76.98 1972.5,101.34 1972.5,118.77 " fill="none" id="Refresh-backto-AppComponent" style="stroke:#A80036;stroke-width:1.0;stroke-dasharray:7.0,7.0;"/><polygon fill="#A80036" points="1972.5,53.26,1968.5,62.26,1972.5,58.26,1976.5,62.26,1972.5,53.26" style="stroke:#A80036;stroke-width:1.0;"/><!--MD5=[96f2853ac85638323b88cdfc62bdce08]
reverse link ResetPassword to ResetPasswordComponent--><path d="M1802.6,281.07 C1786.2,301.52 1763.64,329.66 1748.15,348.99 " fill="none" id="ResetPassword-backto-ResetPasswordComponent" style="stroke:#A80036;stroke-width:1.0;stroke-dasharray:7.0,7.0;"/><polygon fill="#A80036" points="1805.79,277.09,1797.0382,281.6073,1802.6613,280.9902,1803.2785,286.6132,1805.79,277.09" style="stroke:#A80036;stroke-width:1.0;"/><!--MD5=[f420b7dafb7521eded04de2c45b8392a]
reverse link selectAuthIsAuthenticated to LoginComponent--><path d="M947.11,258.92 C895.82,272.88 719.5,320.9 615,349.35 " fill="none" id="selectAuthIsAuthenticated-backto-LoginComponent" style="stroke:#A80036;stroke-width:1.0;stroke-dasharray:7.0,7.0;"/><polygon fill="#A80036" points="952.21,257.53,942.4743,256.0414,947.3865,258.8468,944.5812,263.759,952.21,257.53" style="stroke:#A80036;stroke-width:1.0;"/><!--MD5=[b1c4d4b4a906c8251fef79ca30ac2fc7]
reverse link selectAuthIsAuthenticated to LayoutComponent--><path d="M961.5,268.4 C961.5,288.05 961.5,324.92 961.5,348.69 " fill="none" id="selectAuthIsAuthenticated-backto-LayoutComponent" style="stroke:#A80036;stroke-width:1.0;stroke-dasharray:7.0,7.0;"/><polygon fill="#A80036" points="961.5,263.34,957.5,272.34,961.5,268.34,965.5,272.34,961.5,263.34" style="stroke:#A80036;stroke-width:1.0;"/><!--MD5=[b6970863cca682ca38e91c634f9d0cd3]
reverse link selectAuthUsername to LoginComponent--><path d="M278.57,261.02 C316.15,277.11 420.36,321.71 483.92,348.92 " fill="none" id="selectAuthUsername-backto-LoginComponent" style="stroke:#A80036;stroke-width:1.0;stroke-dasharray:7.0,7.0;"/><polygon fill="#A80036" points="273.52,258.86,280.2166,266.0819,278.1157,260.8296,283.368,258.7287,273.52,258.86" style="stroke:#A80036;stroke-width:1.0;"/><!--MD5=[4e08dc6f6ffbd50c4ca8948fab1e5a44]
reverse link selectAuthUsername to RegisterComponent--><path d="M251.18,264.14 C224.79,282.25 165.22,323.15 127.89,348.77 " fill="none" id="selectAuthUsername-backto-RegisterComponent" style="stroke:#A80036;stroke-width:1.0;stroke-dasharray:7.0,7.0;"/><polygon fill="#A80036" points="255.41,261.24,245.7246,263.0269,251.2852,264.066,250.2462,269.6266,255.41,261.24" style="stroke:#A80036;stroke-width:1.0;"/><!--MD5=[3e1ec8a1da3b2ee9f074a72046ea25d3]
reverse link selectAuthUsername to AvatarComponent--><path d="M268.7,268.15 C274.94,287.74 286.77,324.82 294.39,348.69 " fill="none" id="selectAuthUsername-backto-AvatarComponent" style="stroke:#A80036;stroke-width:1.0;stroke-dasharray:7.0,7.0;"/><polygon fill="#A80036" points="267.16,263.34,266.0965,273.1313,268.6854,268.1016,273.7151,270.6906,267.16,263.34" style="stroke:#A80036;stroke-width:1.0;"/><!--MD5=[a8bede79e9f0307047ba4fb8a06aaaf7]
reverse link selectAuthAuthErrorMessage to LoginComponent--><path d="M708.91,263.43 C680.29,281.18 612.99,322.93 571.15,348.88 " fill="none" id="selectAuthAuthErrorMessage-backto-LoginComponent" style="stroke:#A80036;stroke-width:1.0;stroke-dasharray:7.0,7.0;"/><polygon fill="#A80036" points="713.48,260.59,703.7207,261.9148,709.2256,263.2169,707.9236,268.7218,713.48,260.59" style="stroke:#A80036;stroke-width:1.0;"/><!--MD5=[0163d462968bf6ab169dab5753ef803a]
reverse link selectAuthAccessToken to TokenInterceptorService--><path d="M1398.5,268.36 C1398.5,292.54 1398.5,342.91 1398.5,362.73 " fill="none" id="selectAuthAccessToken-backto-TokenInterceptorService" style="stroke:#A80036;stroke-width:1.0;stroke-dasharray:7.0,7.0;"/><polygon fill="#A80036" points="1398.5,263.34,1394.5,272.34,1398.5,268.34,1402.5,272.34,1398.5,263.34" style="stroke:#A80036;stroke-width:1.0;"/><!--MD5=[41f675d175c9aa283590d82c5c29b5b0]
reverse link selectAuthResetPWDStatus to ResetPasswordComponent--><path d="M1631.38,267.41 C1649.92,286.79 1686.02,324.51 1709.16,348.69 " fill="none" id="selectAuthResetPWDStatus-backto-ResetPasswordComponent" style="stroke:#A80036;stroke-width:1.0;stroke-dasharray:7.0,7.0;"/><polygon fill="#A80036" points="1627.48,263.34,1630.8096,272.609,1630.9358,266.9535,1636.5912,267.0797,1627.48,263.34" style="stroke:#A80036;stroke-width:1.0;"/><!--MD5=[5825def4bbfa49227a6816ed8534b716]
reverse link selectAuthIsAdmin to HomeComponent--><path d="M2154.5,268.4 C2154.5,288.05 2154.5,324.92 2154.5,348.69 " fill="none" id="selectAuthIsAdmin-backto-HomeComponent" style="stroke:#A80036;stroke-width:1.0;stroke-dasharray:7.0,7.0;"/><polygon fill="#A80036" points="2154.5,263.34,2150.5,272.34,2154.5,268.34,2158.5,272.34,2154.5,263.34" style="stroke:#A80036;stroke-width:1.0;"/><!--MD5=[449b8b8f8375b7fb184fb7ae36b59152]
@startuml auth_store_component
    ' Auth
    [Auth Store]
    AuthLogIn - - [Auth Store]
    AuthLogOut - - [Auth Store]
    AuthGetStatus - - [Auth Store]
    AuthRefresh - - [Auth Store]
    AuthRefreshLogged - - [Auth Store]
    AuthResetPassword - - [Auth Store]
    [Auth Store] - - selectAuthIsAuthenticated
    [Auth Store] - - selectAuthUsername
    [Auth Store] - - selectAuthErrorMessage
    [Auth Store] - - selectAuthAccessToken
    [Auth Store] - - selectAuthResetPWDStatus
    [Auth Store] - - selectAuthRole
    [Auth Store] - - selectAuthIsAdmin

    [LogIn] <.. [LoginComponent]
    [LogOut] <.. [LoginComponent]
    [Refresh] <.. [AppComponent]

    [ResetPassword] <.. [ResetPasswordComponent]
    selectAuthIsAuthenticated <.. [LoginComponent]
    selectAuthIsAuthenticated <.. [LayoutComponent]
    selectAuthUsername <.. [LoginComponent]
    selectAuthUsername <.. [RegisterComponent]
    selectAuthUsername <.. [AvatarComponent]
    selectAuthAuthErrorMessage <.. [LoginComponent]
    selectAuthAccessToken <.. TokenInterceptorService
    selectAuthResetPWDStatus <.. [ResetPasswordComponent]
    selectAuthIsAdmin <.. [HomeComponent]
@enduml

@startuml auth_store_component
    [Auth Store]
    AuthLogIn - - [Auth Store]
    AuthLogOut - - [Auth Store]
    AuthGetStatus - - [Auth Store]
    AuthRefresh - - [Auth Store]
    AuthRefreshLogged - - [Auth Store]
    AuthResetPassword - - [Auth Store]
    [Auth Store] - - selectAuthIsAuthenticated
    [Auth Store] - - selectAuthUsername
    [Auth Store] - - selectAuthErrorMessage
    [Auth Store] - - selectAuthAccessToken
    [Auth Store] - - selectAuthResetPWDStatus
    [Auth Store] - - selectAuthRole
    [Auth Store] - - selectAuthIsAdmin

    [LogIn] <.. [LoginComponent]
    [LogOut] <.. [LoginComponent]
    [Refresh] <.. [AppComponent]

    [ResetPassword] <.. [ResetPasswordComponent]
    selectAuthIsAuthenticated <.. [LoginComponent]
    selectAuthIsAuthenticated <.. [LayoutComponent]
    selectAuthUsername <.. [LoginComponent]
    selectAuthUsername <.. [RegisterComponent]
    selectAuthUsername <.. [AvatarComponent]
    selectAuthAuthErrorMessage <.. [LoginComponent]
    selectAuthAccessToken <.. TokenInterceptorService
    selectAuthResetPWDStatus <.. [ResetPasswordComponent]
    selectAuthIsAdmin <.. [HomeComponent]
@enduml

PlantUML version 1.2020.22(Sun Dec 06 10:36:27 CET 2020)
(GPL source distribution)
Java Runtime: Java(TM) SE Runtime Environment
JVM: Java HotSpot(TM) 64-Bit Server VM
Default Encoding: UTF-8
Language: es
Country: ES
--></g></svg>