<?xml version="1.0" encoding="UTF-8" standalone="no"?><svg xmlns="http://www.w3.org/2000/svg" xmlns:xlink="http://www.w3.org/1999/xlink" contentScriptType="application/ecmascript" contentStyleType="text/css" height="380px" preserveAspectRatio="none" style="width:605px;height:380px;" version="1.1" viewBox="0 0 605 380" width="605px" zoomAndPan="magnify"><defs><filter height="300%" id="fv4vnawkonakn" width="300%" x="-1" y="-1"><feGaussianBlur result="blurOut" stdDeviation="2.0"/><feColorMatrix in="blurOut" result="blurOut2" type="matrix" values="0 0 0 0 0 0 0 0 0 0 0 0 0 0 0 0 0 0 .4 0"/><feOffset dx="4.0" dy="4.0" in="blurOut2" result="blurOut3"/><feBlend in="SourceGraphic" in2="blurOut3" mode="normal"/></filter></defs><g><!--MD5=[3cc0b95240027026783440ad6f5438b6]
class ServerStatusState--><rect codeLine="2" fill="#FEFECE" filter="url(#fv4vnawkonakn)" height="60.9551" id="ServerStatusState" style="stroke:#A80036;stroke-width:1.5;" width="130" x="7" y="116"/><ellipse cx="22" cy="132" fill="#ADD1B2" rx="11" ry="11" style="stroke:#A80036;stroke-width:1.0;"/><path d="M24.4731,138.1431 Q23.8921,138.4419 23.2529,138.5913 Q22.6138,138.7407 21.9082,138.7407 Q19.4014,138.7407 18.0815,137.0889 Q16.7617,135.437 16.7617,132.3159 Q16.7617,129.1865 18.0815,127.5347 Q19.4014,125.8828 21.9082,125.8828 Q22.6138,125.8828 23.2612,126.0322 Q23.9087,126.1816 24.4731,126.4805 L24.4731,129.2031 Q23.8423,128.6221 23.2488,128.3523 Q22.6553,128.0825 22.0244,128.0825 Q20.6797,128.0825 19.9949,129.1492 Q19.3101,130.2158 19.3101,132.3159 Q19.3101,134.4077 19.9949,135.4744 Q20.6797,136.541 22.0244,136.541 Q22.6553,136.541 23.2488,136.2712 Q23.8423,136.0015 24.4731,135.4204 Z " fill="#000000"/><text fill="#000000" font-family="sans-serif" font-size="12" lengthAdjust="spacingAndGlyphs" textLength="98" x="36" y="136.5352">ServerStatusState</text><line style="stroke:#A80036;stroke-width:1.5;" x1="8" x2="136" y1="148" y2="148"/><text fill="#000000" font-family="sans-serif" font-size="11" lengthAdjust="spacingAndGlyphs" textLength="71" x="13" y="162.6348">status: string</text><line style="stroke:#A80036;stroke-width:1.5;" x1="8" x2="136" y1="168.9551" y2="168.9551"/><!--MD5=[d55567f5dba94e6c969cc17046e67b81]
class APIRestServerError--><rect codeLine="6" fill="#FEFECE" filter="url(#fv4vnawkonakn)" height="112.7754" id="APIRestServerError" style="stroke:#A80036;stroke-width:1.5;" width="166" x="178" y="254"/><ellipse cx="204.7" cy="270" fill="#ADD1B2" rx="11" ry="11" style="stroke:#A80036;stroke-width:1.0;"/><path d="M207.1731,276.1431 Q206.5921,276.4419 205.9529,276.5913 Q205.3138,276.7407 204.6082,276.7407 Q202.1014,276.7407 200.7815,275.0889 Q199.4617,273.437 199.4617,270.3159 Q199.4617,267.1865 200.7815,265.5347 Q202.1014,263.8828 204.6082,263.8828 Q205.3138,263.8828 205.9612,264.0322 Q206.6087,264.1816 207.1731,264.4805 L207.1731,267.2031 Q206.5423,266.6221 205.9488,266.3523 Q205.3553,266.0825 204.7244,266.0825 Q203.3797,266.0825 202.6949,267.1492 Q202.0101,268.2158 202.0101,270.3159 Q202.0101,272.4077 202.6949,273.4744 Q203.3797,274.541 204.7244,274.541 Q205.3553,274.541 205.9488,274.2712 Q206.5423,274.0015 207.1731,273.4204 Z " fill="#000000"/><text fill="#000000" font-family="sans-serif" font-size="12" lengthAdjust="spacingAndGlyphs" textLength="108" x="221.3" y="274.5352">APIRestServerError</text><line style="stroke:#A80036;stroke-width:1.5;" x1="179" x2="343" y1="286" y2="286"/><text fill="#000000" font-family="sans-serif" font-size="11" lengthAdjust="spacingAndGlyphs" textLength="109" x="184" y="300.6348">status[0..1]: number</text><text fill="#000000" font-family="sans-serif" font-size="11" lengthAdjust="spacingAndGlyphs" textLength="113" x="184" y="313.5898">message[0..1]: string</text><text fill="#000000" font-family="sans-serif" font-size="11" lengthAdjust="spacingAndGlyphs" textLength="154" x="184" y="326.5449">detailedMessage[0..1]: string</text><text fill="#000000" font-family="sans-serif" font-size="11" lengthAdjust="spacingAndGlyphs" textLength="81" x="184" y="339.5">url[0..1]: string</text><text fill="#000000" font-family="sans-serif" font-size="11" lengthAdjust="spacingAndGlyphs" textLength="82" x="184" y="352.4551">caller[0..1]: any</text><line style="stroke:#A80036;stroke-width:1.5;" x1="179" x2="343" y1="358.7754" y2="358.7754"/><!--MD5=[4746884cb759284db3f4306ffa8bfab4]
class CoreState--><rect fill="#FEFECE" filter="url(#fv4vnawkonakn)" height="48" id="CoreState" style="stroke:#A80036;stroke-width:1.5;" width="87" x="171.5" y="7"/><ellipse cx="186.5" cy="23" fill="#ADD1B2" rx="11" ry="11" style="stroke:#A80036;stroke-width:1.0;"/><path d="M188.9731,29.1431 Q188.3921,29.4419 187.7529,29.5913 Q187.1138,29.7407 186.4082,29.7407 Q183.9014,29.7407 182.5815,28.0889 Q181.2617,26.437 181.2617,23.3159 Q181.2617,20.1865 182.5815,18.5347 Q183.9014,16.8828 186.4082,16.8828 Q187.1138,16.8828 187.7612,17.0322 Q188.4087,17.1816 188.9731,17.4805 L188.9731,20.2031 Q188.3423,19.6221 187.7488,19.3523 Q187.1553,19.0825 186.5244,19.0825 Q185.1797,19.0825 184.4949,20.1492 Q183.8101,21.2158 183.8101,23.3159 Q183.8101,25.4077 184.4949,26.4744 Q185.1797,27.541 186.5244,27.541 Q187.1553,27.541 187.7488,27.2712 Q188.3423,27.0015 188.9731,26.4204 Z " fill="#000000"/><text fill="#000000" font-family="sans-serif" font-size="12" lengthAdjust="spacingAndGlyphs" textLength="55" x="200.5" y="27.5352">CoreState</text><line style="stroke:#A80036;stroke-width:1.5;" x1="172.5" x2="257.5" y1="39" y2="39"/><line style="stroke:#A80036;stroke-width:1.5;" x1="172.5" x2="257.5" y1="47" y2="47"/><!--MD5=[88c6a60789b4f95c00d2e52f7438e725]
class RouterReducerState--><rect fill="#FEFECE" filter="url(#fv4vnawkonakn)" height="48" id="RouterReducerState" style="stroke:#A80036;stroke-width:1.5;" width="146" x="294" y="7"/><ellipse cx="309" cy="23" fill="#ADD1B2" rx="11" ry="11" style="stroke:#A80036;stroke-width:1.0;"/><path d="M311.4731,29.1431 Q310.8921,29.4419 310.2529,29.5913 Q309.6138,29.7407 308.9082,29.7407 Q306.4014,29.7407 305.0815,28.0889 Q303.7617,26.437 303.7617,23.3159 Q303.7617,20.1865 305.0815,18.5347 Q306.4014,16.8828 308.9082,16.8828 Q309.6138,16.8828 310.2612,17.0322 Q310.9087,17.1816 311.4731,17.4805 L311.4731,20.2031 Q310.8423,19.6221 310.2488,19.3523 Q309.6553,19.0825 309.0244,19.0825 Q307.6797,19.0825 306.9949,20.1492 Q306.3101,21.2158 306.3101,23.3159 Q306.3101,25.4077 306.9949,26.4744 Q307.6797,27.541 309.0244,27.541 Q309.6553,27.541 310.2488,27.2712 Q310.8423,27.0015 311.4731,26.4204 Z " fill="#000000"/><text fill="#000000" font-family="sans-serif" font-size="12" lengthAdjust="spacingAndGlyphs" textLength="114" x="323" y="27.5352">RouterReducerState</text><line style="stroke:#A80036;stroke-width:1.5;" x1="295" x2="439" y1="39" y2="39"/><line style="stroke:#A80036;stroke-width:1.5;" x1="295" x2="439" y1="47" y2="47"/><!--MD5=[30f36b0fd4fb79eade58e4963c840ccc]
class UserState--><rect fill="#FEFECE" filter="url(#fv4vnawkonakn)" height="48" id="UserState" style="stroke:#A80036;stroke-width:1.5;" width="86" x="172" y="122.5"/><ellipse cx="187" cy="138.5" fill="#ADD1B2" rx="11" ry="11" style="stroke:#A80036;stroke-width:1.0;"/><path d="M189.4731,144.6431 Q188.8921,144.9419 188.2529,145.0913 Q187.6138,145.2407 186.9082,145.2407 Q184.4014,145.2407 183.0815,143.5889 Q181.7617,141.937 181.7617,138.8159 Q181.7617,135.6865 183.0815,134.0347 Q184.4014,132.3828 186.9082,132.3828 Q187.6138,132.3828 188.2612,132.5322 Q188.9087,132.6816 189.4731,132.9805 L189.4731,135.7031 Q188.8423,135.1221 188.2488,134.8523 Q187.6553,134.5825 187.0244,134.5825 Q185.6797,134.5825 184.9949,135.6492 Q184.3101,136.7158 184.3101,138.8159 Q184.3101,140.9077 184.9949,141.9744 Q185.6797,143.041 187.0244,143.041 Q187.6553,143.041 188.2488,142.7712 Q188.8423,142.5015 189.4731,141.9204 Z " fill="#000000"/><text fill="#000000" font-family="sans-serif" font-size="12" lengthAdjust="spacingAndGlyphs" textLength="54" x="201" y="143.0352">UserState</text><line style="stroke:#A80036;stroke-width:1.5;" x1="173" x2="257" y1="154.5" y2="154.5"/><line style="stroke:#A80036;stroke-width:1.5;" x1="173" x2="257" y1="162.5" y2="162.5"/><!--MD5=[e67c8c7c5111c7a7067c96bd73441441]
class FontsState--><rect fill="#FEFECE" filter="url(#fv4vnawkonakn)" height="48" id="FontsState" style="stroke:#A80036;stroke-width:1.5;" width="90" x="293" y="122.5"/><ellipse cx="308" cy="138.5" fill="#ADD1B2" rx="11" ry="11" style="stroke:#A80036;stroke-width:1.0;"/><path d="M310.4731,144.6431 Q309.8921,144.9419 309.2529,145.0913 Q308.6138,145.2407 307.9082,145.2407 Q305.4014,145.2407 304.0815,143.5889 Q302.7617,141.937 302.7617,138.8159 Q302.7617,135.6865 304.0815,134.0347 Q305.4014,132.3828 307.9082,132.3828 Q308.6138,132.3828 309.2612,132.5322 Q309.9087,132.6816 310.4731,132.9805 L310.4731,135.7031 Q309.8423,135.1221 309.2488,134.8523 Q308.6553,134.5825 308.0244,134.5825 Q306.6797,134.5825 305.9949,135.6492 Q305.3101,136.7158 305.3101,138.8159 Q305.3101,140.9077 305.9949,141.9744 Q306.6797,143.041 308.0244,143.041 Q308.6553,143.041 309.2488,142.7712 Q309.8423,142.5015 310.4731,141.9204 Z " fill="#000000"/><text fill="#000000" font-family="sans-serif" font-size="12" lengthAdjust="spacingAndGlyphs" textLength="58" x="322" y="143.0352">FontsState</text><line style="stroke:#A80036;stroke-width:1.5;" x1="294" x2="382" y1="154.5" y2="154.5"/><line style="stroke:#A80036;stroke-width:1.5;" x1="294" x2="382" y1="162.5" y2="162.5"/><!--MD5=[aaf384f187476d24e9b455e244750d0f]
class SVGSet--><rect fill="#FEFECE" filter="url(#fv4vnawkonakn)" height="48" id="SVGSet" style="stroke:#A80036;stroke-width:1.5;" width="72" x="379" y="286.5"/><ellipse cx="394" cy="302.5" fill="#ADD1B2" rx="11" ry="11" style="stroke:#A80036;stroke-width:1.0;"/><path d="M396.4731,308.6431 Q395.8921,308.9419 395.2529,309.0913 Q394.6138,309.2407 393.9082,309.2407 Q391.4014,309.2407 390.0815,307.5889 Q388.7617,305.937 388.7617,302.8159 Q388.7617,299.6865 390.0815,298.0347 Q391.4014,296.3828 393.9082,296.3828 Q394.6138,296.3828 395.2612,296.5322 Q395.9087,296.6816 396.4731,296.9805 L396.4731,299.7031 Q395.8423,299.1221 395.2488,298.8523 Q394.6553,298.5825 394.0244,298.5825 Q392.6797,298.5825 391.9949,299.6492 Q391.3101,300.7158 391.3101,302.8159 Q391.3101,304.9077 391.9949,305.9744 Q392.6797,307.041 394.0244,307.041 Q394.6553,307.041 395.2488,306.7712 Q395.8423,306.5015 396.4731,305.9204 Z " fill="#000000"/><text fill="#000000" font-family="sans-serif" font-size="12" lengthAdjust="spacingAndGlyphs" textLength="40" x="408" y="307.0352">SVGSet</text><line style="stroke:#A80036;stroke-width:1.5;" x1="380" x2="450" y1="318.5" y2="318.5"/><line style="stroke:#A80036;stroke-width:1.5;" x1="380" x2="450" y1="326.5" y2="326.5"/><!--MD5=[37798cb43e29fd175293ef8e25f167e7]
link CoreState to RouterReducerState--><path codeLine="14" d="M270.64,31 C270.64,31 277.76,31 280.74,31 " fill="none" id="CoreState-RouterReducerState" style="stroke:#A80036;stroke-width:1.0;"/><polygon fill="#A80036" points="293.77,31,284.77,27,288.77,31,284.77,35,293.77,31" style="stroke:#A80036;stroke-width:1.0;"/><line style="stroke:#A80036;stroke-width:1.0;" x1="288.77" x2="280.77" y1="31" y2="31"/><polygon fill="#A80036" points="258.64,31,264.64,35,270.64,31,264.64,27,258.64,31" style="stroke:#A80036;stroke-width:1.0;"/><text fill="#000000" font-family="sans-serif" font-size="13" lengthAdjust="spacingAndGlyphs" textLength="24" x="261.9129" y="27.8913">0..1</text><!--MD5=[da306dc3208677611c14581d0be3258a]
link CoreState to UserState--><path codeLine="15" d="M215,67.24 C215,67.24 215,95.96 215,108.97 " fill="none" id="CoreState-UserState" style="stroke:#A80036;stroke-width:1.0;"/><polygon fill="#A80036" points="215,122.29,219,113.29,215,117.29,211,113.29,215,122.29" style="stroke:#A80036;stroke-width:1.0;"/><line style="stroke:#A80036;stroke-width:1.0;" x1="215" x2="215" y1="117.29" y2="109.29"/><polygon fill="#A80036" points="215,55.24,211,61.24,215,67.24,219,61.24,215,55.24" style="stroke:#A80036;stroke-width:1.0;"/><!--MD5=[765a1bff6b8032f19d2a44b9e202ff5d]
link CoreState to ServerStatusState--><path codeLine="16" d="M176.3149,62.6928 C176.3149,62.6928 137.81,93.27 119.74,107.61 " fill="none" id="CoreState-ServerStatusState" style="stroke:#A80036;stroke-width:1.0;"/><polygon fill="#A80036" points="109.41,115.81,118.9481,113.3554,113.3288,112.7047,113.9795,107.0854,109.41,115.81" style="stroke:#A80036;stroke-width:1.0;"/><line style="stroke:#A80036;stroke-width:1.0;" x1="113.3288" x2="119.595" y1="112.7047" y2="107.725"/><polygon fill="#A80036" points="185.72,55.24,178.5332,55.8314,176.3149,62.6928,183.5017,62.1014,185.72,55.24" style="stroke:#A80036;stroke-width:1.0;"/><!--MD5=[59782098b3e711b8616d4b4e66755303]
link CoreState to FontsState--><path codeLine="17" d="M249.0112,63.3755 C249.0112,63.3755 286.33,97.82 302.96,113.17 " fill="none" id="CoreState-FontsState" style="stroke:#A80036;stroke-width:1.0;"/><polygon fill="#A80036" points="312.85,122.29,308.946,113.248,309.1745,118.9002,303.5223,119.1287,312.85,122.29" style="stroke:#A80036;stroke-width:1.0;"/><line style="stroke:#A80036;stroke-width:1.0;" x1="309.1745" x2="303.295" y1="118.9002" y2="113.475"/><polygon fill="#A80036" points="240.19,55.24,241.8887,62.2482,249.0112,63.3755,247.3124,56.3674,240.19,55.24" style="stroke:#A80036;stroke-width:1.0;"/><!--MD5=[f5dcd9d890840e918a7c98a929854682]
link FontsState to SVGSet--><path codeLine="19" d="M354.1846,181.5465 C354.1846,181.5465 385.4,247.23 398.27,274.31 " fill="none" id="FontsState-SVGSet" style="stroke:#A80036;stroke-width:1.0;"/><polygon fill="#A80036" points="403.99,286.33,403.746,276.4842,401.8467,281.8127,396.5182,279.9134,403.99,286.33" style="stroke:#A80036;stroke-width:1.0;"/><line style="stroke:#A80036;stroke-width:1.0;" x1="401.8467" x2="398.41" y1="281.8127" y2="274.59"/><polygon fill="#A80036" points="349.03,170.71,347.9951,177.8465,354.1846,181.5465,355.2195,174.4101,349.03,170.71" style="stroke:#A80036;stroke-width:1.0;"/><text fill="#000000" font-family="sans-serif" font-size="13" lengthAdjust="spacingAndGlyphs" textLength="222" x="375" y="220.5684">svgAgnosticOrSemanticSymbolsSet</text><!--MD5=[43fd965e8739032973e68f771b47879d]
link FontsState to APIRestServerError--><path codeLine="20" d="M321.8154,181.5465 C321.8154,181.5465 302.82,221.51 293.11,241.95 " fill="none" id="FontsState-APIRestServerError" style="stroke:#A80036;stroke-width:1.0;"/><polygon fill="#A80036" points="287.47,253.81,294.9481,247.4008,289.6177,249.2948,287.7238,243.9644,287.47,253.81" style="stroke:#A80036;stroke-width:1.0;"/><line style="stroke:#A80036;stroke-width:1.0;" x1="289.6177" x2="293.05" y1="249.2948" y2="242.075"/><polygon fill="#A80036" points="326.97,170.71,320.7805,174.4101,321.8154,181.5465,328.0049,177.8465,326.97,170.71" style="stroke:#A80036;stroke-width:1.0;"/><!--MD5=[9b6023691b0d7b2ebd41f2b0fa519388]
@startuml corestore_class

class ServerStatusState {
    status: string
}

class APIRestServerError {
  status[0..1]: number
  message[0..1]: string
  detailedMessage[0..1]: string
  url[0..1]: string
  caller[0..1]: any
} 

CoreState *-> "0..1" RouterReducerState
CoreState *- -> UserState
CoreState *- -> ServerStatusState
CoreState *- -> FontsState

FontsState *- -> SVGSet: "svgAgnosticOrSemanticSymbolsSet"
FontsState *- -> APIRestServerError

@enduml

PlantUML version 1.2020.22(Sun Dec 06 10:36:27 CET 2020)
(GPL source distribution)
Java Runtime: Java(TM) SE Runtime Environment
JVM: Java HotSpot(TM) 64-Bit Server VM
Default Encoding: UTF-8
Language: es
Country: ES
--></g></svg>