<?xml version="1.0" encoding="UTF-8" standalone="no"?><svg xmlns="http://www.w3.org/2000/svg" xmlns:xlink="http://www.w3.org/1999/xlink" contentScriptType="application/ecmascript" contentStyleType="text/css" height="405px" preserveAspectRatio="none" style="width:2010px;height:405px;" version="1.1" viewBox="0 0 2010 405" width="2010px" zoomAndPan="magnify"><defs><filter height="300%" id="f1r32qsjilbwpk" width="300%" x="-1" y="-1"><feGaussianBlur result="blurOut" stdDeviation="2.0"/><feColorMatrix in="blurOut" result="blurOut2" type="matrix" values="0 0 0 0 0 0 0 0 0 0 0 0 0 0 0 0 0 0 .4 0"/><feOffset dx="4.0" dy="4.0" in="blurOut2" result="blurOut3"/><feBlend in="SourceGraphic" in2="blurOut3" mode="normal"/></filter></defs><g><!--MD5=[9d69cb6c1bf4fa6c0bba20039287ca0d]
entity Core Store--><rect fill="#FEFECE" filter="url(#f1r32qsjilbwpk)" height="46.4883" style="stroke:#A80036;stroke-width:1.5;" width="113" x="849.2" y="7"/><rect fill="#FEFECE" height="10" style="stroke:#A80036;stroke-width:1.5;" width="15" x="942.2" y="12"/><rect fill="#FEFECE" height="2" style="stroke:#A80036;stroke-width:1.5;" width="4" x="940.2" y="14"/><rect fill="#FEFECE" height="2" style="stroke:#A80036;stroke-width:1.5;" width="4" x="940.2" y="18"/><text fill="#000000" font-family="sans-serif" font-size="14" lengthAdjust="spacingAndGlyphs" textLength="73" x="864.2" y="40.5352">Core Store</text><!--MD5=[1366fe0ee3dbbe891fe6a18555e01f78]
entity CoreGetUsersPermissions--><ellipse cx="902.7" cy="366" fill="#FEFECE" filter="url(#f1r32qsjilbwpk)" rx="8" ry="8" style="stroke:#A80036;stroke-width:1.5;"/><text fill="#000000" font-family="sans-serif" font-size="14" lengthAdjust="spacingAndGlyphs" textLength="176" x="814.7" y="396.5352">CoreGetUsersPermissions</text><!--MD5=[401f039ea73beb33e6c1b34c4f582d3a]
entity CoreGetUsers--><ellipse cx="1204.7" cy="366" fill="#FEFECE" filter="url(#f1r32qsjilbwpk)" rx="8" ry="8" style="stroke:#A80036;stroke-width:1.5;"/><text fill="#000000" font-family="sans-serif" font-size="14" lengthAdjust="spacingAndGlyphs" textLength="94" x="1157.7" y="396.5352">CoreGetUsers</text><!--MD5=[85c58c2a6d669b85262c674acb199898]
entity CoreGetUser--><ellipse cx="163.7" cy="366" fill="#FEFECE" filter="url(#f1r32qsjilbwpk)" rx="8" ry="8" style="stroke:#A80036;stroke-width:1.5;"/><text fill="#000000" font-family="sans-serif" font-size="14" lengthAdjust="spacingAndGlyphs" textLength="87" x="120.2" y="396.5352">CoreGetUser</text><!--MD5=[0dbee2693137dd4efeb03bbb4a80f871]
entity CoreGetSVGSet--><ellipse cx="1532.7" cy="366" fill="#FEFECE" filter="url(#f1r32qsjilbwpk)" rx="8" ry="8" style="stroke:#A80036;stroke-width:1.5;"/><text fill="#000000" font-family="sans-serif" font-size="14" lengthAdjust="spacingAndGlyphs" textLength="104" x="1480.7" y="396.5352">CoreGetSVGSet</text><!--MD5=[dbb96745d4823d6d10baa8aeb34cf18a]
entity selectCoreLoggedInUser--><ellipse cx="400.7" cy="142" fill="#FEFECE" filter="url(#f1r32qsjilbwpk)" rx="8" ry="8" style="stroke:#A80036;stroke-width:1.5;"/><text fill="#000000" font-family="sans-serif" font-size="14" lengthAdjust="spacingAndGlyphs" textLength="167" x="317.2" y="172.5352">selectCoreLoggedInUser</text><!--MD5=[9eec5cc7fe11996a7e74d5adbfb937a8]
entity selectCoreUserPermissions--><ellipse cx="1111.7" cy="142" fill="#FEFECE" filter="url(#f1r32qsjilbwpk)" rx="8" ry="8" style="stroke:#A80036;stroke-width:1.5;"/><text fill="#000000" font-family="sans-serif" font-size="14" lengthAdjust="spacingAndGlyphs" textLength="185" x="1019.2" y="172.5352">selectCoreUserPermissions</text><!--MD5=[7b914bf70a4fe3df5a96b4afb69c2f5d]
entity selectCoreUserList--><ellipse cx="905.7" cy="142" fill="#FEFECE" filter="url(#f1r32qsjilbwpk)" rx="8" ry="8" style="stroke:#A80036;stroke-width:1.5;"/><text fill="#000000" font-family="sans-serif" font-size="14" lengthAdjust="spacingAndGlyphs" textLength="126" x="842.7" y="172.5352">selectCoreUserList</text><!--MD5=[f29adaf39e69478adc1ad4457c298741]
entity selectCoreServerStatus--><ellipse cx="636.7" cy="142" fill="#FEFECE" filter="url(#f1r32qsjilbwpk)" rx="8" ry="8" style="stroke:#A80036;stroke-width:1.5;"/><text fill="#000000" font-family="sans-serif" font-size="14" lengthAdjust="spacingAndGlyphs" textLength="157" x="558.2" y="172.5352">selectCoreServerStatus</text><!--MD5=[3844c63b4ecafbe54a6aeb4f9dfc3050]
entity selectCoreSVGAgnosticOrSemanticSymbolSet--><ellipse cx="1550.7" cy="142" fill="#FEFECE" filter="url(#f1r32qsjilbwpk)" rx="8" ry="8" style="stroke:#A80036;stroke-width:1.5;"/><text fill="#000000" font-family="sans-serif" font-size="14" lengthAdjust="spacingAndGlyphs" textLength="309" x="1396.2" y="172.5352">selectCoreSVGAgnosticOrSemanticSymbolSet</text><!--MD5=[ba4a44f7397835fa22bf3b8f4f24c905]
entity CollectionsComponent--><rect fill="#FEFECE" filter="url(#f1r32qsjilbwpk)" height="46.4883" style="stroke:#A80036;stroke-width:1.5;" width="197" x="302.2" y="231"/><rect fill="#FEFECE" height="10" style="stroke:#A80036;stroke-width:1.5;" width="15" x="479.2" y="236"/><rect fill="#FEFECE" height="2" style="stroke:#A80036;stroke-width:1.5;" width="4" x="477.2" y="238"/><rect fill="#FEFECE" height="2" style="stroke:#A80036;stroke-width:1.5;" width="4" x="477.2" y="242"/><text fill="#000000" font-family="sans-serif" font-size="14" lengthAdjust="spacingAndGlyphs" textLength="157" x="317.2" y="264.5352">CollectionsComponent</text><!--MD5=[272ac7de08c5251926a4bd8a2d10d21a]
entity TrainingSetsComponent--><rect fill="#FEFECE" filter="url(#f1r32qsjilbwpk)" height="46.4883" style="stroke:#A80036;stroke-width:1.5;" width="207" x="60.2" y="231"/><rect fill="#FEFECE" height="10" style="stroke:#A80036;stroke-width:1.5;" width="15" x="247.2" y="236"/><rect fill="#FEFECE" height="2" style="stroke:#A80036;stroke-width:1.5;" width="4" x="245.2" y="238"/><rect fill="#FEFECE" height="2" style="stroke:#A80036;stroke-width:1.5;" width="4" x="245.2" y="242"/><text fill="#000000" font-family="sans-serif" font-size="14" lengthAdjust="spacingAndGlyphs" textLength="167" x="75.2" y="264.5352">TrainingSetsComponent</text><!--MD5=[316567a3f2e738998be9c182246a3ecf]
entity PermissionsComponent--><rect fill="#FEFECE" filter="url(#f1r32qsjilbwpk)" height="46.4883" style="stroke:#A80036;stroke-width:1.5;" width="203" x="993.2" y="231"/><rect fill="#FEFECE" height="10" style="stroke:#A80036;stroke-width:1.5;" width="15" x="1176.2" y="236"/><rect fill="#FEFECE" height="2" style="stroke:#A80036;stroke-width:1.5;" width="4" x="1174.2" y="238"/><rect fill="#FEFECE" height="2" style="stroke:#A80036;stroke-width:1.5;" width="4" x="1174.2" y="242"/><text fill="#000000" font-family="sans-serif" font-size="14" lengthAdjust="spacingAndGlyphs" textLength="163" x="1008.2" y="264.5352">PermissionsComponent</text><!--MD5=[2b72f5e2812545f539da8308634fc81e]
entity AgnosticRepresentationComponent--><rect fill="#FEFECE" filter="url(#f1r32qsjilbwpk)" height="46.4883" style="stroke:#A80036;stroke-width:1.5;" width="285" x="1711.2" y="231"/><rect fill="#FEFECE" height="10" style="stroke:#A80036;stroke-width:1.5;" width="15" x="1976.2" y="236"/><rect fill="#FEFECE" height="2" style="stroke:#A80036;stroke-width:1.5;" width="4" x="1974.2" y="238"/><rect fill="#FEFECE" height="2" style="stroke:#A80036;stroke-width:1.5;" width="4" x="1974.2" y="242"/><text fill="#000000" font-family="sans-serif" font-size="14" lengthAdjust="spacingAndGlyphs" textLength="245" x="1726.2" y="264.5352">AgnosticRepresentationComponent</text><!--MD5=[6ddf60f339fe9311142de673beb799b2]
entity SemanticRepresentationComponent--><rect fill="#FEFECE" filter="url(#f1r32qsjilbwpk)" height="46.4883" style="stroke:#A80036;stroke-width:1.5;" width="287" x="1389.2" y="231"/><rect fill="#FEFECE" height="10" style="stroke:#A80036;stroke-width:1.5;" width="15" x="1656.2" y="236"/><rect fill="#FEFECE" height="2" style="stroke:#A80036;stroke-width:1.5;" width="4" x="1654.2" y="238"/><rect fill="#FEFECE" height="2" style="stroke:#A80036;stroke-width:1.5;" width="4" x="1654.2" y="242"/><text fill="#000000" font-family="sans-serif" font-size="14" lengthAdjust="spacingAndGlyphs" textLength="247" x="1404.2" y="264.5352">SemanticRepresentationComponent</text><!--MD5=[77a0cbb5ec64df0441d391bf83777a53]
entity ServerStateComponent--><rect fill="#FEFECE" filter="url(#f1r32qsjilbwpk)" height="46.4883" style="stroke:#A80036;stroke-width:1.5;" width="198" x="534.7" y="231"/><rect fill="#FEFECE" height="10" style="stroke:#A80036;stroke-width:1.5;" width="15" x="712.7" y="236"/><rect fill="#FEFECE" height="2" style="stroke:#A80036;stroke-width:1.5;" width="4" x="710.7" y="238"/><rect fill="#FEFECE" height="2" style="stroke:#A80036;stroke-width:1.5;" width="4" x="710.7" y="242"/><text fill="#000000" font-family="sans-serif" font-size="14" lengthAdjust="spacingAndGlyphs" textLength="158" x="549.7" y="264.5352">ServerStateComponent</text><!--MD5=[a2bf4673e10988bcc27c706bd9bc6f23]
entity CoreGetServerStatus--><ellipse cx="633.7" cy="366" fill="#FEFECE" filter="url(#f1r32qsjilbwpk)" rx="8" ry="8" style="stroke:#A80036;stroke-width:1.5;"/><text fill="#000000" font-family="sans-serif" font-size="14" lengthAdjust="spacingAndGlyphs" textLength="141" x="563.2" y="396.5352">CoreGetServerStatus</text><!--MD5=[ec15840031ecd94a22aad89dddc7eadd]
link CoreGetUsersPermissions to Core Store--><path d="M895.66,356.98 C868.73,325.3 775.87,206.14 816.7,113 C827.59,88.18 850.1,67.55 869.76,53.19 " fill="none" id="CoreGetUsersPermissions-Core Store" style="stroke:#A80036;stroke-width:1.0;"/><!--MD5=[160664f37de11a1a03a7febf3caeae88]
link CoreGetUsers to Core Store--><path d="M1209.03,356.92 C1226.57,322.96 1288.61,190.01 1228.7,113 C1196.29,71.33 1045.94,47.4 962.28,37.09 " fill="none" id="CoreGetUsers-Core Store" style="stroke:#A80036;stroke-width:1.0;"/><!--MD5=[40058a0a58f11d524067ea1ea3b4c5c3]
link CoreGetUser to Core Store--><path d="M154.55,361.05 C120.65,345.83 6,289.01 42.7,231 C130.44,92.34 671.46,45.88 849.19,34.26 " fill="none" id="CoreGetUser-Core Store" style="stroke:#A80036;stroke-width:1.0;"/><!--MD5=[d376d2315f88f999874033af6f25f75c]
link CoreGetSVGSet to Core Store--><path d="M1523.34,361.78 C1496.89,352.33 1420.38,322.42 1371.7,277 C1308.42,217.96 1337.53,162.75 1266.7,113 C1174.14,47.98 1038.22,33.61 962.31,30.97 " fill="none" id="CoreGetSVGSet-Core Store" style="stroke:#A80036;stroke-width:1.0;"/><!--MD5=[a4e429af52a855ffc7483e29508c6738]
link Core Store to selectCoreLoggedInUser--><path d="M848.76,43.4 C730.1,69.25 462.99,127.43 409.96,138.98 " fill="none" id="Core Store-selectCoreLoggedInUser" style="stroke:#A80036;stroke-width:1.0;"/><!--MD5=[17591edb8aec1663b65f85780bed7eaa]
link Core Store to selectCoreUserPermissions--><path d="M947.39,53.26 C996.77,79.63 1075.7,121.78 1102.48,136.07 " fill="none" id="Core Store-selectCoreUserPermissions" style="stroke:#A80036;stroke-width:1.0;"/><!--MD5=[d727d97e19ff22e956d3d4133627f135]
link Core Store to selectCoreUserList--><path d="M905.7,53.26 C905.7,77.87 905.7,116.23 905.7,132.86 " fill="none" id="Core Store-selectCoreUserList" style="stroke:#A80036;stroke-width:1.0;"/><!--MD5=[523492b21221d7ced6c636fb1a3c9715]
link Core Store to selectCoreServerStatus--><path d="M851.59,53.13 C785.31,80.23 677.9,124.15 645.95,137.22 " fill="none" id="Core Store-selectCoreServerStatus" style="stroke:#A80036;stroke-width:1.0;"/><!--MD5=[0d3fbea640c68a22b7e18a727ba13feb]
link Core Store to selectCoreSVGAgnosticOrSemanticSymbolSet--><path d="M962.38,40.67 C1106.24,65.2 1478.66,128.71 1541.6,139.45 " fill="none" id="Core Store-selectCoreSVGAgnosticOrSemanticSymbolSet" style="stroke:#A80036;stroke-width:1.0;"/><!--MD5=[f47c3bb4d3e8eb6cdaf2dff6b4875079]
link CollectionsComponent to CoreGetUser--><path d="M353.03,277.13 C298.14,302.6 211.24,342.93 177.62,358.54 " fill="none" id="CollectionsComponent-to-CoreGetUser" style="stroke:#A80036;stroke-width:1.0;stroke-dasharray:7.0,7.0;"/><polygon fill="#A80036" points="173.06,360.66,182.9076,360.5026,177.596,358.5565,179.5421,353.245,173.06,360.66" style="stroke:#A80036;stroke-width:1.0;"/><!--MD5=[1b1596b461b9c60477ad72369d89d7ee]
link TrainingSetsComponent to CoreGetUser--><path d="M163.7,277.26 C163.7,299.56 163.7,333.16 163.7,351.64 " fill="none" id="TrainingSetsComponent-to-CoreGetUser" style="stroke:#A80036;stroke-width:1.0;stroke-dasharray:7.0,7.0;"/><polygon fill="#A80036" points="163.7,356.86,167.7,347.86,163.7,351.86,159.7,347.86,163.7,356.86" style="stroke:#A80036;stroke-width:1.0;"/><!--MD5=[539f04a0cc63e5e37815771984563c19]
link PermissionsComponent to CoreGetUsersPermissions--><path d="M1055.85,277.26 C1012.76,301.95 945.52,340.47 916.64,357.01 " fill="none" id="PermissionsComponent-to-CoreGetUsersPermissions" style="stroke:#A80036;stroke-width:1.0;stroke-dasharray:7.0,7.0;"/><polygon fill="#A80036" points="912.03,359.66,921.828,358.6608,916.3695,357.1762,917.854,351.7177,912.03,359.66" style="stroke:#A80036;stroke-width:1.0;"/><!--MD5=[e37c48a799d4cdec09c6e5bca15b77ac]
link PermissionsComponent to CoreGetUsers--><path d="M1116.96,277.26 C1139.84,300.14 1174.61,334.9 1192.74,353.04 " fill="none" id="PermissionsComponent-to-CoreGetUsers" style="stroke:#A80036;stroke-width:1.0;stroke-dasharray:7.0,7.0;"/><polygon fill="#A80036" points="1196.56,356.86,1193.0059,347.6748,1193.0173,353.3316,1187.3605,353.343,1196.56,356.86" style="stroke:#A80036;stroke-width:1.0;"/><!--MD5=[ffee188917174f72146433b200de2d88]
link AgnosticRepresentationComponent to CoreGetSVGSet--><path d="M1789.13,277.13 C1711.88,303.6 1587.8,346.12 1546.54,360.26 " fill="none" id="AgnosticRepresentationComponent-to-CoreGetSVGSet" style="stroke:#A80036;stroke-width:1.0;stroke-dasharray:7.0,7.0;"/><polygon fill="#A80036" points="1541.71,361.91,1551.522,362.7612,1546.4375,360.2818,1548.9169,355.1973,1541.71,361.91" style="stroke:#A80036;stroke-width:1.0;"/><!--MD5=[d185811c91ace9697bf6e978c0f003e8]
link SemanticRepresentationComponent to CoreGetSVGSet--><path d="M1532.7,277.26 C1532.7,299.56 1532.7,333.16 1532.7,351.64 " fill="none" id="SemanticRepresentationComponent-to-CoreGetSVGSet" style="stroke:#A80036;stroke-width:1.0;stroke-dasharray:7.0,7.0;"/><polygon fill="#A80036" points="1532.7,356.86,1536.7,347.86,1532.7,351.86,1528.7,347.86,1532.7,356.86" style="stroke:#A80036;stroke-width:1.0;"/><!--MD5=[209b2fe3b97aa562cdeef13f00f9a43c]
link ServerStateComponent to CoreGetServerStatus--><path d="M633.7,277.26 C633.7,299.56 633.7,333.16 633.7,351.64 " fill="none" id="ServerStateComponent-to-CoreGetServerStatus" style="stroke:#A80036;stroke-width:1.0;stroke-dasharray:7.0,7.0;"/><polygon fill="#A80036" points="633.7,356.86,637.7,347.86,633.7,351.86,629.7,347.86,633.7,356.86" style="stroke:#A80036;stroke-width:1.0;"/><!--MD5=[a53a3433b97e05627f7816a2b907465e]
reverse link selectCoreLoggedInUser to CollectionsComponent--><path d="M400.7,156.5 C400.7,175 400.7,208.47 400.7,230.71 " fill="none" id="selectCoreLoggedInUser-backto-CollectionsComponent" style="stroke:#A80036;stroke-width:1.0;stroke-dasharray:7.0,7.0;"/><polygon fill="#A80036" points="400.7,151.27,396.7,160.27,400.7,156.27,404.7,160.27,400.7,151.27" style="stroke:#A80036;stroke-width:1.0;"/><!--MD5=[1f42a2a375293ab53585e7a5dd869170]
reverse link selectCoreLoggedInUser to TrainingSetsComponent--><path d="M386.78,149.46 C353.14,165.08 266.22,205.42 211.34,230.89 " fill="none" id="selectCoreLoggedInUser-backto-TrainingSetsComponent" style="stroke:#A80036;stroke-width:1.0;stroke-dasharray:7.0,7.0;"/><polygon fill="#A80036" points="391.7,147.18,381.8524,147.3374,387.164,149.2835,385.2179,154.595,391.7,147.18" style="stroke:#A80036;stroke-width:1.0;"/><!--MD5=[e17d034165ddac7cadf31ec24061ba5a]
reverse link selectCoreUserPermissions to PermissionsComponent--><path d="M1109.62,156.5 C1106.76,175 1101.59,208.47 1098.15,230.71 " fill="none" id="selectCoreUserPermissions-backto-PermissionsComponent" style="stroke:#A80036;stroke-width:1.0;stroke-dasharray:7.0,7.0;"/><polygon fill="#A80036" points="1110.43,151.27,1105.09,159.5455,1109.659,156.2102,1112.9943,160.7792,1110.43,151.27" style="stroke:#A80036;stroke-width:1.0;"/><!--MD5=[ab9ad96c0e2bbbfee88e4656fc7917c9]
reverse link selectCoreUserList to PermissionsComponent--><path d="M919.36,150.95 C947.81,167.51 1014.28,206.19 1056.72,230.89 " fill="none" id="selectCoreUserList-backto-PermissionsComponent" style="stroke:#A80036;stroke-width:1.0;stroke-dasharray:7.0,7.0;"/><polygon fill="#A80036" points="914.82,148.31,920.5818,156.2976,919.1399,150.8276,924.6099,149.3857,914.82,148.31" style="stroke:#A80036;stroke-width:1.0;"/><!--MD5=[a1d4f13ecf6902663b63d2f01c2e35f9]
reverse link selectCoreServerStatus to ServerStateComponent--><path d="M636.34,156.5 C635.83,175 634.92,208.47 634.31,230.71 " fill="none" id="selectCoreServerStatus-backto-ServerStateComponent" style="stroke:#A80036;stroke-width:1.0;stroke-dasharray:7.0,7.0;"/><polygon fill="#A80036" points="636.48,151.27,632.25,160.1642,636.3515,156.2683,640.2473,160.3698,636.48,151.27" style="stroke:#A80036;stroke-width:1.0;"/><!--MD5=[91ec554f11c090a06943ac9983f923d6]
reverse link selectCoreSVGAgnosticOrSemanticSymbolSet to AgnosticRepresentationComponent--><path d="M1564.67,148.07 C1604.56,162.55 1720.76,204.74 1793.1,231 " fill="none" id="selectCoreSVGAgnosticOrSemanticSymbolSet-backto-AgnosticRepresentationComponent" style="stroke:#A80036;stroke-width:1.0;stroke-dasharray:7.0,7.0;"/><polygon fill="#A80036" points="1559.77,146.29,1566.8545,153.1318,1564.4673,148.0033,1569.5958,145.6161,1559.77,146.29" style="stroke:#A80036;stroke-width:1.0;"/><!--MD5=[5c79018a7e805247b4fb3762c945af0d]
reverse link selectCoreSVGAgnosticOrSemanticSymbolSet to SemanticRepresentationComponent--><path d="M1548.49,156.5 C1545.47,175 1539.99,208.47 1536.35,230.71 " fill="none" id="selectCoreSVGAgnosticOrSemanticSymbolSet-backto-SemanticRepresentationComponent" style="stroke:#A80036;stroke-width:1.0;stroke-dasharray:7.0,7.0;"/><polygon fill="#A80036" points="1549.35,151.27,1543.9597,159.5128,1548.5489,156.2054,1551.8563,160.7946,1549.35,151.27" style="stroke:#A80036;stroke-width:1.0;"/><!--MD5=[479ee05b18a3f7fc3fbc4c3b5fdacf70]
@startuml core_store_component
    [Core Store]
    CoreGetUsersPermissions - - [Core Store]
    CoreGetUsers - - [Core Store]
    CoreGetUser - - [Core Store]
    CoreGetSVGSet - - [Core Store]

    [Core Store] - - selectCoreLoggedInUser
    [Core Store] - - selectCoreUserPermissions
    [Core Store] - - selectCoreUserList
    [Core Store] - - selectCoreServerStatus
    [Core Store] - - selectCoreSVGAgnosticOrSemanticSymbolSet

    [CollectionsComponent] ..> CoreGetUser
    [TrainingSetsComponent] ..> CoreGetUser

    [PermissionsComponent] ..> CoreGetUsersPermissions
    [PermissionsComponent] ..> CoreGetUsers

    [AgnosticRepresentationComponent] ..> CoreGetSVGSet
    [SemanticRepresentationComponent] ..> CoreGetSVGSet

    [ServerStateComponent] ..> CoreGetServerStatus

    selectCoreLoggedInUser <.. [CollectionsComponent]
    selectCoreLoggedInUser <.. [TrainingSetsComponent]
    
    selectCoreUserPermissions <.. [PermissionsComponent]
    selectCoreUserList <.. [PermissionsComponent]

    selectCoreServerStatus <.. [ServerStateComponent]
    selectCoreSVGAgnosticOrSemanticSymbolSet <.. [AgnosticRepresentationComponent]
    selectCoreSVGAgnosticOrSemanticSymbolSet <.. [SemanticRepresentationComponent]
    
@enduml

PlantUML version 1.2020.22(Sun Dec 06 10:36:27 CET 2020)
(GPL source distribution)
Java Runtime: Java(TM) SE Runtime Environment
JVM: Java HotSpot(TM) 64-Bit Server VM
Default Encoding: UTF-8
Language: es
Country: ES
--></g></svg>