<?xml version="1.0" encoding="UTF-8" standalone="no"?><svg xmlns="http://www.w3.org/2000/svg" xmlns:xlink="http://www.w3.org/1999/xlink" contentScriptType="application/ecmascript" contentStyleType="text/css" height="629px" preserveAspectRatio="none" style="width:1440px;height:629px;" version="1.1" viewBox="0 0 1440 629" width="1440px" zoomAndPan="magnify"><defs><filter height="300%" id="f18wg30ru55r49" width="300%" x="-1" y="-1"><feGaussianBlur result="blurOut" stdDeviation="2.0"/><feColorMatrix in="blurOut" result="blurOut2" type="matrix" values="0 0 0 0 0 0 0 0 0 0 0 0 0 0 0 0 0 0 .4 0"/><feOffset dx="4.0" dy="4.0" in="blurOut2" result="blurOut3"/><feBlend in="SourceGraphic" in2="blurOut3" mode="normal"/></filter></defs><g><!--MD5=[2ae7d9225e4ac2a7555ccf901a15ae0b]
entity Documents Store--><rect fill="#FEFECE" filter="url(#f18wg30ru55r49)" height="46.4883" style="stroke:#A80036;stroke-width:1.5;" width="157" x="658" y="231"/><rect fill="#FEFECE" height="10" style="stroke:#A80036;stroke-width:1.5;" width="15" x="795" y="236"/><rect fill="#FEFECE" height="2" style="stroke:#A80036;stroke-width:1.5;" width="4" x="793" y="238"/><rect fill="#FEFECE" height="2" style="stroke:#A80036;stroke-width:1.5;" width="4" x="793" y="242"/><text fill="#000000" font-family="sans-serif" font-size="14" lengthAdjust="spacing" textLength="117" x="673" y="264.5352">Documents Store</text><!--MD5=[d0c6382265c41ba5dbaf70c668335d90]
entity DocumentsGetCollection--><ellipse cx="90.5" cy="590" fill="#FEFECE" filter="url(#f18wg30ru55r49)" rx="8" ry="8" style="stroke:#A80036;stroke-width:1.5;"/><text fill="#000000" font-family="sans-serif" font-size="14" lengthAdjust="spacing" textLength="169" x="6" y="620.5352">DocumentsGetCollection</text><!--MD5=[d99f40d7433642f34cbf5836f7818191]
entity DocumentsCreateSubcollection--><ellipse cx="332.5" cy="590" fill="#FEFECE" filter="url(#f18wg30ru55r49)" rx="8" ry="8" style="stroke:#A80036;stroke-width:1.5;"/><text fill="#000000" font-family="sans-serif" font-size="14" lengthAdjust="spacing" textLength="214" x="225.5" y="620.5352">DocumentsCreateSubcollection</text><!--MD5=[499305e9813f6c099c95d59aab24af83]
entity DocumentsDeleteSubcollection--><ellipse cx="596.5" cy="590" fill="#FEFECE" filter="url(#f18wg30ru55r49)" rx="8" ry="8" style="stroke:#A80036;stroke-width:1.5;"/><text fill="#000000" font-family="sans-serif" font-size="14" lengthAdjust="spacing" textLength="212" x="490.5" y="620.5352">DocumentsDeleteSubcollection</text><!--MD5=[477184b973ef61e9d769dfda5fe5e3a1]
entity DocumentsMoveDocumentsToSubcollection--><ellipse cx="903.5" cy="590" fill="#FEFECE" filter="url(#f18wg30ru55r49)" rx="8" ry="8" style="stroke:#A80036;stroke-width:1.5;"/><text fill="#000000" font-family="sans-serif" font-size="14" lengthAdjust="spacing" textLength="300" x="753.5" y="620.5352">DocumentsMoveDocumentsToSubcollection</text><!--MD5=[9c2f41fad86034e89b0b5424a058c8e2]
entity DocumentsMoveDocumentsToNewSubcollection--><ellipse cx="1268.5" cy="590" fill="#FEFECE" filter="url(#f18wg30ru55r49)" rx="8" ry="8" style="stroke:#A80036;stroke-width:1.5;"/><text fill="#000000" font-family="sans-serif" font-size="14" lengthAdjust="spacing" textLength="329" x="1104" y="620.5352">DocumentsMoveDocumentsToNewSubcollection</text><!--MD5=[4614ca1baeb46e36a87d2a060d51b911]
entity DocumentsResetDocumentsServerError--><ellipse cx="736.5" cy="142" fill="#FEFECE" filter="url(#f18wg30ru55r49)" rx="8" ry="8" style="stroke:#A80036;stroke-width:1.5;"/><text fill="#000000" font-family="sans-serif" font-size="14" lengthAdjust="spacing" textLength="269" x="602" y="172.5352">DocumentsResetDocumentsServerError</text><!--MD5=[efc37d79fe36f02fc013910c8bbf02d9]
entity selectDocumentsCollection--><ellipse cx="368.5" cy="366" fill="#FEFECE" filter="url(#f18wg30ru55r49)" rx="8" ry="8" style="stroke:#A80036;stroke-width:1.5;"/><text fill="#000000" font-family="sans-serif" font-size="14" lengthAdjust="spacing" textLength="185" x="276" y="396.5352">selectDocumentsCollection</text><!--MD5=[cbf5abfcccd11f77d5126f2fcb59139a]
entity selectDocumentsChangedCollectionID--><ellipse cx="641.5" cy="366" fill="#FEFECE" filter="url(#f18wg30ru55r49)" rx="8" ry="8" style="stroke:#A80036;stroke-width:1.5;"/><text fill="#000000" font-family="sans-serif" font-size="14" lengthAdjust="spacing" textLength="261" x="511" y="396.5352">selectDocumentsChangedCollectionID</text><!--MD5=[32e9430aae83f5a726b87b0344d288cb]
entity selectDocumentsServerError--><ellipse cx="1132.5" cy="366" fill="#FEFECE" filter="url(#f18wg30ru55r49)" rx="8" ry="8" style="stroke:#A80036;stroke-width:1.5;"/><text fill="#000000" font-family="sans-serif" font-size="14" lengthAdjust="spacing" textLength="194" x="1035.5" y="396.5352">selectDocumentsServerError</text><!--MD5=[ba4a44f7397835fa22bf3b8f4f24c905]
entity CollectionsComponent--><rect fill="#FEFECE" filter="url(#f18wg30ru55r49)" height="46.4883" style="stroke:#A80036;stroke-width:1.5;" width="197" x="638" y="7"/><rect fill="#FEFECE" height="10" style="stroke:#A80036;stroke-width:1.5;" width="15" x="815" y="12"/><rect fill="#FEFECE" height="2" style="stroke:#A80036;stroke-width:1.5;" width="4" x="813" y="14"/><rect fill="#FEFECE" height="2" style="stroke:#A80036;stroke-width:1.5;" width="4" x="813" y="18"/><text fill="#000000" font-family="sans-serif" font-size="14" lengthAdjust="spacing" textLength="157" x="653" y="40.5352">CollectionsComponent</text><!--MD5=[9e6984b4734760fd47dcf0061bb686ff]
entity DocumentsComponent--><rect fill="#FEFECE" filter="url(#f18wg30ru55r49)" height="46.4883" style="stroke:#A80036;stroke-width:1.5;" width="198" x="497.5" y="455"/><rect fill="#FEFECE" height="10" style="stroke:#A80036;stroke-width:1.5;" width="15" x="675.5" y="460"/><rect fill="#FEFECE" height="2" style="stroke:#A80036;stroke-width:1.5;" width="4" x="673.5" y="462"/><rect fill="#FEFECE" height="2" style="stroke:#A80036;stroke-width:1.5;" width="4" x="673.5" y="466"/><text fill="#000000" font-family="sans-serif" font-size="14" lengthAdjust="spacing" textLength="158" x="512.5" y="488.5352">DocumentsComponent</text><!--MD5=[87d28caea404d47be53cd1cf19631035]
link DocumentsGetCollection to Documents Store--><path d="M92.06,580.72 C99.28,544.79 133.07,401.28 222.5,337 C290.78,287.92 531.48,266.86 657.79,259.02 " fill="none" id="DocumentsGetCollection-Documents Store" style="stroke:#A80036;stroke-width:1.0;"/><!--MD5=[a5fd250c74637951846dd5a866ffad71]
link DocumentsCreateSubcollection to Documents Store--><path d="M325.06,580.97 C294.65,547.23 184.56,415 250.5,337 C301.74,276.39 533.9,260.56 657.88,256.44 " fill="none" id="DocumentsCreateSubcollection-Documents Store" style="stroke:#A80036;stroke-width:1.0;"/><!--MD5=[9f2541dbdaa266c26454907a7b5305d6]
link DocumentsDeleteSubcollection to Documents Store--><path d="M605.68,584.29 C640.22,565.94 762.29,495.2 797.5,395 C806.05,370.68 805.6,361.47 797.5,337 C789.91,314.09 773.17,292.38 759.14,277.06 " fill="none" id="DocumentsDeleteSubcollection-Documents Store" style="stroke:#A80036;stroke-width:1.0;"/><!--MD5=[2d16dec4a1e02120487b31d5d857c5c7]
link DocumentsMoveDocumentsToSubcollection to Documents Store--><path d="M902.61,580.95 C898.67,548.16 880.56,422.43 826.5,337 C811.47,313.24 787.76,292.04 768.45,277.15 " fill="none" id="DocumentsMoveDocumentsToSubcollection-Documents Store" style="stroke:#A80036;stroke-width:1.0;"/><!--MD5=[592eaa12798bc2091f9c5d46859296fe]
link DocumentsMoveDocumentsToNewSubcollection to Documents Store--><path d="M1259.44,583.31 C1201.31,546.82 879.73,344.92 771.82,277.17 " fill="none" id="DocumentsMoveDocumentsToNewSubcollection-Documents Store" style="stroke:#A80036;stroke-width:1.0;"/><!--MD5=[3afaa8f6a3ed522468c3b2ee5a1160a1]
link DocumentsResetDocumentsServerError to Documents Store--><path d="M736.5,151.27 C736.5,167.96 736.5,206.16 736.5,230.71 " fill="none" id="DocumentsResetDocumentsServerError-Documents Store" style="stroke:#A80036;stroke-width:1.0;"/><!--MD5=[1891ca20126f5984292146ea3d27a54b]
link Documents Store to selectDocumentsCollection--><path d="M662.47,277.13 C569.28,304.98 416.65,350.61 377.75,362.24 " fill="none" id="Documents Store-selectDocumentsCollection" style="stroke:#A80036;stroke-width:1.0;"/><!--MD5=[613a7299a563821d21d145a6f215b2ef]
link Documents Store to selectDocumentsChangedCollectionID--><path d="M717.28,277.26 C696.02,301.87 662.89,340.23 648.53,356.86 " fill="none" id="Documents Store-selectDocumentsChangedCollectionID" style="stroke:#A80036;stroke-width:1.0;"/><!--MD5=[ce8d44c12646959f6e73bd363b19201d]
link Documents Store to selectDocumentsServerError--><path d="M815.21,276.86 C916.03,304.87 1082.65,351.15 1123.33,362.45 " fill="none" id="Documents Store-selectDocumentsServerError" style="stroke:#A80036;stroke-width:1.0;"/><!--MD5=[c5d6f8040c9affda430a120d93779f19]
link CollectionsComponent to DocumentsResetDocumentsServerError--><path d="M736.5,53.26 C736.5,75.56 736.5,109.16 736.5,127.64 " fill="none" id="CollectionsComponent-to-DocumentsResetDocumentsServerError" style="stroke:#A80036;stroke-width:1.0;stroke-dasharray:7.0,7.0;"/><polygon fill="#A80036" points="736.5,132.86,740.5,123.86,736.5,127.86,732.5,123.86,736.5,132.86" style="stroke:#A80036;stroke-width:1.0;"/><!--MD5=[190878a0093254cdf4ad171146dacbfb]
link DocumentsComponent to DocumentsGetCollection--><path d="M497.1,498.16 C416.62,514.01 300.46,537.62 199.5,561 C165.25,568.93 125.3,579.54 104.58,585.15 " fill="none" id="DocumentsComponent-to-DocumentsGetCollection" style="stroke:#A80036;stroke-width:1.0;stroke-dasharray:7.0,7.0;"/><polygon fill="#A80036" points="99.51,586.53,109.2446,588.0259,104.3345,585.2168,107.1435,580.3067,99.51,586.53" style="stroke:#A80036;stroke-width:1.0;"/><!--MD5=[85d7a0d1e69a01e16ed427360423a185]
link DocumentsComponent to DocumentsCreateSubcollection--><path d="M543.39,501.13 C481.4,526.96 382.72,568.07 346.46,583.18 " fill="none" id="DocumentsComponent-to-DocumentsCreateSubcollection" style="stroke:#A80036;stroke-width:1.0;stroke-dasharray:7.0,7.0;"/><polygon fill="#A80036" points="341.57,585.22,351.4158,585.4659,346.1883,583.304,348.3502,578.0766,341.57,585.22" style="stroke:#A80036;stroke-width:1.0;"/><!--MD5=[b50bb446bb665e4b51b78696943cc493]
link DocumentsComponent to DocumentsDeleteSubcollection--><path d="M596.5,501.26 C596.5,523.56 596.5,557.16 596.5,575.64 " fill="none" id="DocumentsComponent-to-DocumentsDeleteSubcollection" style="stroke:#A80036;stroke-width:1.0;stroke-dasharray:7.0,7.0;"/><polygon fill="#A80036" points="596.5,580.86,600.5,571.86,596.5,575.86,592.5,571.86,596.5,580.86" style="stroke:#A80036;stroke-width:1.0;"/><!--MD5=[9d6d01f4843f454645b85ac31de1f9f5]
link DocumentsComponent to DocumentsMoveDocumentsToSubcollection--><path d="M658.26,501.13 C731.65,527.43 849.25,569.56 889.48,583.98 " fill="none" id="DocumentsComponent-to-DocumentsMoveDocumentsToSubcollection" style="stroke:#A80036;stroke-width:1.0;stroke-dasharray:7.0,7.0;"/><polygon fill="#A80036" points="894.42,585.75,887.2923,578.9533,889.7119,584.0665,884.5987,586.4862,894.42,585.75" style="stroke:#A80036;stroke-width:1.0;"/><!--MD5=[980f11c022e5570303679932766a67b0]
link DocumentsComponent to DocumentsMoveDocumentsToNewSubcollection--><path d="M695.66,495.23 C861.11,522.31 1182.47,574.92 1254.11,586.65 " fill="none" id="DocumentsComponent-to-DocumentsMoveDocumentsToNewSubcollection" style="stroke:#A80036;stroke-width:1.0;stroke-dasharray:7.0,7.0;"/><polygon fill="#A80036" points="1259.2,587.48,1250.9547,582.0934,1254.2642,586.6811,1249.6765,589.9907,1259.2,587.48" style="stroke:#A80036;stroke-width:1.0;"/><!--MD5=[f6237c3bfa1f394dab033ba5f278206d]
reverse link selectDocumentsCollection to DocumentsComponent--><path d="M382.54,373.77 C415.32,389.59 498.09,429.52 550.55,454.83 " fill="none" id="selectDocumentsCollection-backto-DocumentsComponent" style="stroke:#A80036;stroke-width:1.0;stroke-dasharray:7.0,7.0;"/><polygon fill="#A80036" points="377.72,371.45,384.0966,378.9559,382.2258,373.6174,387.5644,371.7466,377.72,371.45" style="stroke:#A80036;stroke-width:1.0;"/><!--MD5=[3b6612a0982f42feeb6dbdab7ee2e9ed]
reverse link selectDocumentsChangedCollectionID to DocumentsComponent--><path d="M636.17,380.02 C628.65,398.42 614.8,432.27 605.62,454.71 " fill="none" id="selectDocumentsChangedCollectionID-backto-DocumentsComponent" style="stroke:#A80036;stroke-width:1.0;stroke-dasharray:7.0,7.0;"/><polygon fill="#A80036" points="638.12,375.27,631.0019,382.0768,636.2213,379.8955,638.4027,385.1148,638.12,375.27" style="stroke:#A80036;stroke-width:1.0;"/><!--MD5=[067e1b927c606fdf71fa9f4fa77160e3]
@startuml documents_store_component
    [Documents Store]
    DocumentsGetCollection - - [Documents Store]
    DocumentsCreateSubcollection - - [Documents Store]
    DocumentsDeleteSubcollection - - [Documents Store]
    DocumentsMoveDocumentsToSubcollection - - [Documents Store]
    DocumentsMoveDocumentsToNewSubcollection - - [Documents Store]
    DocumentsResetDocumentsServerError - - [Documents Store]

    [Documents Store] - - selectDocumentsCollection
    [Documents Store] - - selectDocumentsChangedCollectionID
    [Documents Store] - - selectDocumentsServerError

    [CollectionsComponent] ..> DocumentsResetDocumentsServerError
    [DocumentsComponent] ..> DocumentsGetCollection
    [DocumentsComponent] ..> DocumentsCreateSubcollection
    [DocumentsComponent] ..> DocumentsDeleteSubcollection
    [DocumentsComponent] ..> DocumentsMoveDocumentsToSubcollection
    [DocumentsComponent] ..> DocumentsMoveDocumentsToNewSubcollection

    selectDocumentsCollection <.. [DocumentsComponent]
    selectDocumentsChangedCollectionID <.. [DocumentsComponent]
@enduml

PlantUML version 1.2021.00(Sun Jan 10 11:25:05 CET 2021)
(GPL source distribution)
Java Runtime: Java(TM) SE Runtime Environment
JVM: Java HotSpot(TM) 64-Bit Server VM
Default Encoding: UTF-8
Language: es
Country: ES
--></g></svg>