<?xml version="1.0" encoding="UTF-8" standalone="no"?><svg xmlns="http://www.w3.org/2000/svg" xmlns:xlink="http://www.w3.org/1999/xlink" contentScriptType="application/ecmascript" contentStyleType="text/css" height="405px" preserveAspectRatio="none" style="width:244px;height:405px;" version="1.1" viewBox="0 0 244 405" width="244px" zoomAndPan="magnify"><defs><filter height="300%" id="f16ad8blmrxzj3" width="300%" x="-1" y="-1"><feGaussianBlur result="blurOut" stdDeviation="2.0"/><feColorMatrix in="blurOut" result="blurOut2" type="matrix" values="0 0 0 0 0 0 0 0 0 0 0 0 0 0 0 0 0 0 .4 0"/><feOffset dx="4.0" dy="4.0" in="blurOut2" result="blurOut3"/><feBlend in="SourceGraphic" in2="blurOut3" mode="normal"/></filter></defs><g><!--MD5=[790d6364cd2823c662464510b0a53bd1]
entity Document Store--><rect fill="#FEFECE" filter="url(#f16ad8blmrxzj3)" height="46.4883" style="stroke:#A80036;stroke-width:1.5;" width="150" x="80" y="7"/><rect fill="#FEFECE" height="10" style="stroke:#A80036;stroke-width:1.5;" width="15" x="210" y="12"/><rect fill="#FEFECE" height="2" style="stroke:#A80036;stroke-width:1.5;" width="4" x="208" y="14"/><rect fill="#FEFECE" height="2" style="stroke:#A80036;stroke-width:1.5;" width="4" x="208" y="18"/><text fill="#000000" font-family="sans-serif" font-size="14" lengthAdjust="spacing" textLength="110" x="95" y="40.5352">Document Store</text><!--MD5=[93c1070ebe93501c0320faec14d4226f]
entity TODOAction--><ellipse cx="155" cy="366" fill="#FEFECE" filter="url(#f16ad8blmrxzj3)" rx="8" ry="8" style="stroke:#A80036;stroke-width:1.5;"/><text fill="#000000" font-family="sans-serif" font-size="14" lengthAdjust="spacing" textLength="85" x="112.5" y="396.5352">TODOAction</text><!--MD5=[6c4f47123b64865f8a95a87f7c384300]
entity selectDocumentTODO--><ellipse cx="87" cy="142" fill="#FEFECE" filter="url(#f16ad8blmrxzj3)" rx="8" ry="8" style="stroke:#A80036;stroke-width:1.5;"/><text fill="#000000" font-family="sans-serif" font-size="14" lengthAdjust="spacing" textLength="150" x="12" y="172.5352">selectDocumentTODO</text><!--MD5=[2beef7d2c3a5ddcaf61ad2e4fcd25161]
entity TODOComponent--><rect fill="#FEFECE" filter="url(#f16ad8blmrxzj3)" height="46.4883" style="stroke:#A80036;stroke-width:1.5;" width="162" x="7" y="231"/><rect fill="#FEFECE" height="10" style="stroke:#A80036;stroke-width:1.5;" width="15" x="149" y="236"/><rect fill="#FEFECE" height="2" style="stroke:#A80036;stroke-width:1.5;" width="4" x="147" y="238"/><rect fill="#FEFECE" height="2" style="stroke:#A80036;stroke-width:1.5;" width="4" x="147" y="242"/><text fill="#000000" font-family="sans-serif" font-size="14" lengthAdjust="spacing" textLength="122" x="22" y="264.5352">TODOComponent</text><!--MD5=[c6168793d78fb9e8a8b4533a7883a952]
link TODOAction to Document Store--><path d="M159.19,356.53 C166.54,341.15 181.5,307.39 187,277 C191.88,250.02 191.53,131.25 188,113 C183.92,91.91 174.43,69.36 166.67,53.26 " fill="none" id="TODOAction-Document Store" style="stroke:#A80036;stroke-width:1.0;"/><!--MD5=[5dd3313ca18f5dc6b7850b8b7621edb0]
link Document Store to selectDocumentTODO--><path d="M141.24,53.26 C126.03,77.87 102.31,116.23 92.03,132.86 " fill="none" id="Document Store-selectDocumentTODO" style="stroke:#A80036;stroke-width:1.0;"/><!--MD5=[922302df28520dc13b470dae37ec4c99]
link TODOComponent to TODOAction--><path d="M101.56,277.26 C115.38,299.95 136.31,334.32 147.43,352.58 " fill="none" id="TODOComponent-to-TODOAction" style="stroke:#A80036;stroke-width:1.0;stroke-dasharray:7.0,7.0;"/><polygon fill="#A80036" points="150.04,356.86,148.7535,347.0955,147.4299,352.5954,141.93,351.2717,150.04,356.86" style="stroke:#A80036;stroke-width:1.0;"/><!--MD5=[048c78b325dbcb2a2a1e838abf0ca2d7]
reverse link selectDocumentTODO to TODOComponent--><path d="M87.12,156.5 C87.29,175 87.6,208.47 87.8,230.71 " fill="none" id="selectDocumentTODO-backto-TODOComponent" style="stroke:#A80036;stroke-width:1.0;stroke-dasharray:7.0,7.0;"/><polygon fill="#A80036" points="87.08,151.27,83.1573,160.304,87.1229,156.2698,91.157,160.2354,87.08,151.27" style="stroke:#A80036;stroke-width:1.0;"/><!--MD5=[139531a4e9300b4b57a33af1135a7967]
@startuml document_store_component
    [Document Store]
    TODOAction - - [Document Store]

    [Document Store] - - selectDocumentTODO

    [TODOComponent] ..> TODOAction

    selectDocumentTODO <.. [TODOComponent]
@enduml

PlantUML version 1.2021.00(Sun Jan 10 11:25:05 CET 2021)
(GPL source distribution)
Java Runtime: Java(TM) SE Runtime Environment
JVM: Java HotSpot(TM) 64-Bit Server VM
Default Encoding: UTF-8
Language: es
Country: ES
--></g></svg>