<?xml version="1.0" encoding="UTF-8" standalone="no"?><svg xmlns="http://www.w3.org/2000/svg" xmlns:xlink="http://www.w3.org/1999/xlink" contentScriptType="application/ecmascript" contentStyleType="text/css" height="387px" preserveAspectRatio="none" style="width:479px;height:387px;" version="1.1" viewBox="0 0 479 387" width="479px" zoomAndPan="magnify"><defs><filter height="300%" id="f1lqh9a2ss1wld" width="300%" x="-1" y="-1"><feGaussianBlur result="blurOut" stdDeviation="2.0"/><feColorMatrix in="blurOut" result="blurOut2" type="matrix" values="0 0 0 0 0 0 0 0 0 0 0 0 0 0 0 0 0 0 .4 0"/><feOffset dx="4.0" dy="4.0" in="blurOut2" result="blurOut3"/><feBlend in="SourceGraphic" in2="blurOut3" mode="normal"/></filter></defs><g><!--MD5=[5c0a2248d10a2d65f9310b69ba390337]
entity Home Store--><rect fill="#FEFECE" filter="url(#f1lqh9a2ss1wld)" height="46.4883" style="stroke:#A80036;stroke-width:1.5;" width="120" x="112.5" y="103"/><rect fill="#FEFECE" height="10" style="stroke:#A80036;stroke-width:1.5;" width="15" x="212.5" y="108"/><rect fill="#FEFECE" height="2" style="stroke:#A80036;stroke-width:1.5;" width="4" x="210.5" y="110"/><rect fill="#FEFECE" height="2" style="stroke:#A80036;stroke-width:1.5;" width="4" x="210.5" y="114"/><text fill="#000000" font-family="sans-serif" font-size="14" lengthAdjust="spacing" textLength="80" x="127.5" y="136.5352">Home Store</text><!--MD5=[77239d8f7552c1c7fae854dc4a82ce1f]
entity GetLastDocuments--><ellipse cx="69.5" cy="14" fill="#FEFECE" filter="url(#f1lqh9a2ss1wld)" rx="8" ry="8" style="stroke:#A80036;stroke-width:1.5;"/><text fill="#000000" font-family="sans-serif" font-size="14" lengthAdjust="spacing" textLength="127" x="6" y="44.5352">GetLastDocuments</text><!--MD5=[d07fcea7b4d6ab670b730d1ebf73e35b]
entity UpdateLastDocuments--><ellipse cx="317.5" cy="14" fill="#FEFECE" filter="url(#f1lqh9a2ss1wld)" rx="8" ry="8" style="stroke:#A80036;stroke-width:1.5;"/><text fill="#000000" font-family="sans-serif" font-size="14" lengthAdjust="spacing" textLength="153" x="241" y="44.5352">UpdateLastDocuments</text><!--MD5=[8a24367e812bfa62580b7e2ca5d0a033]
entity selectHomeLastDocuments--><ellipse cx="192.5" cy="238" fill="#FEFECE" filter="url(#f1lqh9a2ss1wld)" rx="8" ry="8" style="stroke:#A80036;stroke-width:1.5;"/><text fill="#000000" font-family="sans-serif" font-size="14" lengthAdjust="spacing" textLength="183" x="101" y="268.5352">selectHomeLastDocuments</text><!--MD5=[826ab927a0742f468322359ed8b39d35]
entity HomeComponent--><rect fill="#FEFECE" filter="url(#f1lqh9a2ss1wld)" height="46.4883" style="stroke:#A80036;stroke-width:1.5;" width="161" x="36" y="327"/><rect fill="#FEFECE" height="10" style="stroke:#A80036;stroke-width:1.5;" width="15" x="177" y="332"/><rect fill="#FEFECE" height="2" style="stroke:#A80036;stroke-width:1.5;" width="4" x="175" y="334"/><rect fill="#FEFECE" height="2" style="stroke:#A80036;stroke-width:1.5;" width="4" x="175" y="338"/><text fill="#000000" font-family="sans-serif" font-size="14" lengthAdjust="spacing" textLength="121" x="51" y="360.5352">HomeComponent</text><!--MD5=[9e6984b4734760fd47dcf0061bb686ff]
entity DocumentsComponent--><rect fill="#FEFECE" filter="url(#f1lqh9a2ss1wld)" height="46.4883" style="stroke:#A80036;stroke-width:1.5;" width="198" x="267.5" y="103"/><rect fill="#FEFECE" height="10" style="stroke:#A80036;stroke-width:1.5;" width="15" x="445.5" y="108"/><rect fill="#FEFECE" height="2" style="stroke:#A80036;stroke-width:1.5;" width="4" x="443.5" y="110"/><rect fill="#FEFECE" height="2" style="stroke:#A80036;stroke-width:1.5;" width="4" x="443.5" y="114"/><text fill="#000000" font-family="sans-serif" font-size="14" lengthAdjust="spacing" textLength="158" x="282.5" y="136.5352">DocumentsComponent</text><!--MD5=[c6635406ef9208703d0a26844acd19a1]
link GetLastDocuments to Home Store--><path d="M77.24,23.27 C92.87,39.96 128.64,78.16 151.63,102.71 " fill="none" id="GetLastDocuments-Home Store" style="stroke:#A80036;stroke-width:1.0;"/><!--MD5=[714f6512efce0bd3e0e83f29a93af148]
link UpdateLastDocuments to Home Store--><path d="M308.43,21.88 C287.47,37.78 234.95,77.63 201.67,102.87 " fill="none" id="UpdateLastDocuments-Home Store" style="stroke:#A80036;stroke-width:1.0;"/><!--MD5=[b6b7cf087ff72496a0e220ac6d2f615a]
link Home Store to selectHomeLastDocuments--><path d="M176.55,149.26 C181.02,173.87 188,212.23 191.02,228.86 " fill="none" id="Home Store-selectHomeLastDocuments" style="stroke:#A80036;stroke-width:1.0;"/><!--MD5=[bcf1dc5c6d05a38df22e4cf0d1772c45]
reverse link GetLastDocuments to HomeComponent--><path d="M67.84,28.01 C63.46,65.71 53.36,177.95 75.5,267 C80.84,288.47 92.47,310.8 101.98,326.73 " fill="none" id="GetLastDocuments-backto-HomeComponent" style="stroke:#A80036;stroke-width:1.0;stroke-dasharray:7.0,7.0;"/><polygon fill="#A80036" points="68.44,23.01,63.3904,31.4659,67.8409,27.974,71.3328,32.4244,68.44,23.01" style="stroke:#A80036;stroke-width:1.0;"/><!--MD5=[907314f8f1f243ea405d93f5829b4665]
reverse link UpdateLastDocuments to DocumentsComponent--><path d="M323.3,28.02 C331.5,46.42 346.58,80.27 356.57,102.71 " fill="none" id="UpdateLastDocuments-backto-DocumentsComponent" style="stroke:#A80036;stroke-width:1.0;stroke-dasharray:7.0,7.0;"/><polygon fill="#A80036" points="321.18,23.27,321.2,33.1188,323.22,27.8349,328.5039,29.8549,321.18,23.27" style="stroke:#A80036;stroke-width:1.0;"/><!--MD5=[284f7098b34819481345880dd3e7075e]
reverse link selectHomeLastDocuments to HomeComponent--><path d="M183.82,251.56 C171.19,269.84 147.53,304.08 131.9,326.71 " fill="none" id="selectHomeLastDocuments-backto-HomeComponent" style="stroke:#A80036;stroke-width:1.0;stroke-dasharray:7.0,7.0;"/><polygon fill="#A80036" points="186.79,247.27,178.383,252.4005,183.9477,251.3835,184.9646,256.9482,186.79,247.27" style="stroke:#A80036;stroke-width:1.0;"/><!--MD5=[6f17bb91603895b7bc0dfd14523a539f]
@startuml home_store_component
    [Home Store]
    GetLastDocuments - - [Home Store]
    UpdateLastDocuments - - [Home Store]
    [Home Store] - - selectHomeLastDocuments

    [GetLastDocuments] <.. [HomeComponent]
    [UpdateLastDocuments] <.. [DocumentsComponent]

    selectHomeLastDocuments <.. [HomeComponent]
@enduml

PlantUML version 1.2021.00(Sun Jan 10 11:25:05 CET 2021)
(GPL source distribution)
Java Runtime: Java(TM) SE Runtime Environment
JVM: Java HotSpot(TM) 64-Bit Server VM
Default Encoding: UTF-8
Language: es
Country: ES
--></g></svg>