<?xml version="1.0" encoding="UTF-8" standalone="no"?><svg xmlns="http://www.w3.org/2000/svg" xmlns:xlink="http://www.w3.org/1999/xlink" contentScriptType="application/ecmascript" contentStyleType="text/css" height="318px" preserveAspectRatio="none" style="width:820px;height:318px;" version="1.1" viewBox="0 0 820 318" width="820px" zoomAndPan="magnify"><defs><filter height="300%" id="f3nong4gxax63" width="300%" x="-1" y="-1"><feGaussianBlur result="blurOut" stdDeviation="2.0"/><feColorMatrix in="blurOut" result="blurOut2" type="matrix" values="0 0 0 0 0 0 0 0 0 0 0 0 0 0 0 0 0 0 .4 0"/><feOffset dx="4.0" dy="4.0" in="blurOut2" result="blurOut3"/><feBlend in="SourceGraphic" in2="blurOut3" mode="normal"/></filter></defs><g><line style="stroke:#A80036;stroke-width:1.0;stroke-dasharray:5.0,5.0;" x1="23" x2="23" y1="88.4883" y2="234.4199"/><line style="stroke:#A80036;stroke-width:1.0;stroke-dasharray:5.0,5.0;" x1="154.5" x2="154.5" y1="88.4883" y2="234.4199"/><line style="stroke:#A80036;stroke-width:1.0;stroke-dasharray:5.0,5.0;" x1="277" x2="277" y1="88.4883" y2="234.4199"/><line style="stroke:#A80036;stroke-width:1.0;stroke-dasharray:5.0,5.0;" x1="463" x2="463" y1="88.4883" y2="234.4199"/><line style="stroke:#A80036;stroke-width:1.0;stroke-dasharray:5.0,5.0;" x1="627" x2="627" y1="88.4883" y2="234.4199"/><line style="stroke:#A80036;stroke-width:1.0;stroke-dasharray:5.0,5.0;" x1="755" x2="755" y1="88.4883" y2="234.4199"/><text fill="#000000" font-family="sans-serif" font-size="14" lengthAdjust="spacingAndGlyphs" textLength="31" x="5" y="85.5352">User</text><ellipse cx="23.5" cy="15" fill="#FEFECE" filter="url(#f3nong4gxax63)" rx="8" ry="8" style="stroke:#A80036;stroke-width:2.0;"/><path d="M23.5,23 L23.5,50 M10.5,31 L36.5,31 M23.5,50 L10.5,65 M23.5,50 L36.5,65 " fill="none" filter="url(#f3nong4gxax63)" style="stroke:#A80036;stroke-width:2.0;"/><text fill="#000000" font-family="sans-serif" font-size="14" lengthAdjust="spacingAndGlyphs" textLength="31" x="5" y="246.9551">User</text><ellipse cx="23.5" cy="259.9082" fill="#FEFECE" filter="url(#f3nong4gxax63)" rx="8" ry="8" style="stroke:#A80036;stroke-width:2.0;"/><path d="M23.5,267.9082 L23.5,294.9082 M10.5,275.9082 L36.5,275.9082 M23.5,294.9082 L10.5,309.9082 M23.5,294.9082 L36.5,309.9082 " fill="none" filter="url(#f3nong4gxax63)" style="stroke:#A80036;stroke-width:2.0;"/><rect fill="#FEFECE" filter="url(#f3nong4gxax63)" height="46.9766" style="stroke:#A80036;stroke-width:1.5;" width="54" x="125.5" y="36.5117"/><text fill="#000000" font-family="sans-serif" font-size="14" font-style="italic" lengthAdjust="spacingAndGlyphs" textLength="40" x="132.5" y="57.0469">«URL»</text><text fill="#000000" font-family="sans-serif" font-size="14" lengthAdjust="spacingAndGlyphs" textLength="7" x="149" y="73.5352">/</text><rect fill="#FEFECE" filter="url(#f3nong4gxax63)" height="46.9766" style="stroke:#A80036;stroke-width:1.5;" width="54" x="125.5" y="233.4199"/><text fill="#000000" font-family="sans-serif" font-size="14" font-style="italic" lengthAdjust="spacingAndGlyphs" textLength="40" x="132.5" y="253.9551">«URL»</text><text fill="#000000" font-family="sans-serif" font-size="14" lengthAdjust="spacingAndGlyphs" textLength="7" x="149" y="270.4434">/</text><rect fill="#FEFECE" filter="url(#f3nong4gxax63)" height="30.4883" style="stroke:#A80036;stroke-width:1.5;" width="147" x="202" y="53"/><text fill="#000000" font-family="sans-serif" font-size="14" lengthAdjust="spacingAndGlyphs" textLength="133" x="209" y="73.5352">AppRoutingModule</text><rect fill="#FEFECE" filter="url(#f3nong4gxax63)" height="30.4883" style="stroke:#A80036;stroke-width:1.5;" width="147" x="202" y="233.4199"/><text fill="#000000" font-family="sans-serif" font-size="14" lengthAdjust="spacingAndGlyphs" textLength="133" x="209" y="253.9551">AppRoutingModule</text><rect fill="#FEFECE" filter="url(#f3nong4gxax63)" height="30.4883" style="stroke:#A80036;stroke-width:1.5;" width="196" x="363" y="53"/><text fill="#000000" font-family="sans-serif" font-size="14" lengthAdjust="spacingAndGlyphs" textLength="182" x="370" y="73.5352">DocumentsRoutingModule</text><rect fill="#FEFECE" filter="url(#f3nong4gxax63)" height="30.4883" style="stroke:#A80036;stroke-width:1.5;" width="196" x="363" y="233.4199"/><text fill="#000000" font-family="sans-serif" font-size="14" lengthAdjust="spacingAndGlyphs" textLength="182" x="370" y="253.9551">DocumentsRoutingModule</text><rect fill="#FEFECE" filter="url(#f3nong4gxax63)" height="30.4883" style="stroke:#A80036;stroke-width:1.5;" width="105" x="573" y="53"/><text fill="#000000" font-family="sans-serif" font-size="14" lengthAdjust="spacingAndGlyphs" textLength="91" x="580" y="73.5352">HomeModule</text><rect fill="#FEFECE" filter="url(#f3nong4gxax63)" height="30.4883" style="stroke:#A80036;stroke-width:1.5;" width="105" x="573" y="233.4199"/><text fill="#000000" font-family="sans-serif" font-size="14" lengthAdjust="spacingAndGlyphs" textLength="91" x="580" y="253.9551">HomeModule</text><text fill="#000000" font-family="sans-serif" font-size="14" lengthAdjust="spacingAndGlyphs" textLength="121" x="692" y="85.5352">HomeComponent</text><ellipse cx="755.5" cy="56" fill="#FEFECE" filter="url(#f3nong4gxax63)" rx="12" ry="12" style="stroke:#A80036;stroke-width:2.0;"/><polygon fill="#A80036" points="751.5,44,757.5,39,755.5,44,757.5,49,751.5,44" style="stroke:#A80036;stroke-width:1.0;"/><text fill="#000000" font-family="sans-serif" font-size="14" lengthAdjust="spacingAndGlyphs" textLength="121" x="692" y="246.9551">HomeComponent</text><ellipse cx="755.5" cy="265.9082" fill="#FEFECE" filter="url(#f3nong4gxax63)" rx="12" ry="12" style="stroke:#A80036;stroke-width:2.0;"/><polygon fill="#A80036" points="751.5,253.9082,757.5,248.9082,755.5,253.9082,757.5,258.9082,751.5,253.9082" style="stroke:#A80036;stroke-width:1.0;"/><polygon fill="#A80036" points="142.5,115.7988,152.5,119.7988,142.5,123.7988,146.5,119.7988" style="stroke:#A80036;stroke-width:1.0;"/><line style="stroke:#A80036;stroke-width:1.0;" x1="23.5" x2="148.5" y1="119.7988" y2="119.7988"/><text fill="#000000" font-family="sans-serif" font-size="13" lengthAdjust="spacingAndGlyphs" textLength="107" x="30.5" y="115.0566">Go to home page</text><polygon fill="#A80036" points="265.5,145.1094,275.5,149.1094,265.5,153.1094,269.5,149.1094" style="stroke:#A80036;stroke-width:1.0;"/><line style="stroke:#A80036;stroke-width:1.0;" x1="154.5" x2="271.5" y1="149.1094" y2="149.1094"/><text fill="#000000" font-family="sans-serif" font-size="13" lengthAdjust="spacingAndGlyphs" textLength="99" x="161.5" y="144.3672">search route "/"</text><polygon fill="#A80036" points="451,179.4199,461,183.4199,451,187.4199,455,183.4199" style="stroke:#A80036;stroke-width:1.0;"/><line style="stroke:#A80036;stroke-width:1.0;stroke-dasharray:2.0,2.0;" x1="277.5" x2="457" y1="183.4199" y2="183.4199"/><text fill="#000000" font-family="sans-serif" font-size="13" lengthAdjust="spacingAndGlyphs" textLength="139" x="284.5" y="178.6777">&lt;&lt;forward request&gt;&gt;</text><path d="M468,162.1094 L468,187.1094 L687,187.1094 L687,172.1094 L677,162.1094 L468,162.1094 " fill="#FBFB77" filter="url(#f3nong4gxax63)" style="stroke:#A80036;stroke-width:1.0;"/><path d="M677,162.1094 L677,172.1094 L687,172.1094 L677,162.1094 " fill="#FBFB77" style="stroke:#A80036;stroke-width:1.0;"/><text fill="#000000" font-family="sans-serif" font-size="13" lengthAdjust="spacingAndGlyphs" textLength="198" x="474" y="179.6777">The AuthGuard allows the login</text><polygon fill="#A80036" points="615.5,198.4199,625.5,202.4199,615.5,206.4199,619.5,202.4199" style="stroke:#A80036;stroke-width:1.0;"/><line style="stroke:#A80036;stroke-width:1.0;stroke-dasharray:2.0,2.0;" x1="463" x2="621.5" y1="202.4199" y2="202.4199"/><polygon fill="#A80036" points="743.5,212.4199,753.5,216.4199,743.5,220.4199,747.5,216.4199" style="stroke:#A80036;stroke-width:1.0;"/><line style="stroke:#A80036;stroke-width:1.0;stroke-dasharray:2.0,2.0;" x1="627.5" x2="749.5" y1="216.4199" y2="216.4199"/><!--MD5=[a9c455d49c93a29103466dae73080194]
@startuml home_sequence
actor User
participant "/" as urlRoot <<URL>>
participant AppRoutingModule 
participant DocumentsRoutingModule
 
User -> urlRoot: Go to home page 
urlRoot -> AppRoutingModule: search route "/"
AppRoutingModule - -> DocumentsRoutingModule: <<forward request>> 
note right: The AuthGuard allows the login
DocumentsRoutingModule - -> HomeModule
control HomeComponent
HomeModule - -> HomeComponent
@enduml

PlantUML version 1.2020.22(Sun Dec 06 10:36:27 CET 2020)
(GPL source distribution)
Java Runtime: Java(TM) SE Runtime Environment
JVM: Java HotSpot(TM) 64-Bit Server VM
Default Encoding: UTF-8
Language: es
Country: ES
--></g></svg>