<?xml version="1.0" encoding="UTF-8" standalone="no"?><svg xmlns="http://www.w3.org/2000/svg" xmlns:xlink="http://www.w3.org/1999/xlink" contentScriptType="application/ecmascript" contentStyleType="text/css" height="629px" preserveAspectRatio="none" style="width:286px;height:629px;" version="1.1" viewBox="0 0 286 629" width="286px" zoomAndPan="magnify"><defs><filter height="300%" id="f1i51gw4uhnhcp" width="300%" x="-1" y="-1"><feGaussianBlur result="blurOut" stdDeviation="2.0"/><feColorMatrix in="blurOut" result="blurOut2" type="matrix" values="0 0 0 0 0 0 0 0 0 0 0 0 0 0 0 0 0 0 .4 0"/><feOffset dx="4.0" dy="4.0" in="blurOut2" result="blurOut3"/><feBlend in="SourceGraphic" in2="blurOut3" mode="normal"/></filter></defs><g><!--MD5=[5c0a2248d10a2d65f9310b69ba390337]
entity Home Store--><rect fill="#FEFECE" filter="url(#f1i51gw4uhnhcp)" height="46.4883" style="stroke:#A80036;stroke-width:1.5;" width="120" x="113.5" y="231"/><rect fill="#FEFECE" height="10" style="stroke:#A80036;stroke-width:1.5;" width="15" x="213.5" y="236"/><rect fill="#FEFECE" height="2" style="stroke:#A80036;stroke-width:1.5;" width="4" x="211.5" y="238"/><rect fill="#FEFECE" height="2" style="stroke:#A80036;stroke-width:1.5;" width="4" x="211.5" y="242"/><text fill="#000000" font-family="sans-serif" font-size="14" lengthAdjust="spacing" textLength="80" x="128.5" y="264.5352">Home Store</text><!--MD5=[3831a338d37cf6cc9b457d6e25d98959]
entity HomeGetLastDocuments--><ellipse cx="173.5" cy="590" fill="#FEFECE" filter="url(#f1i51gw4uhnhcp)" rx="8" ry="8" style="stroke:#A80036;stroke-width:1.5;"/><text fill="#000000" font-family="sans-serif" font-size="14" lengthAdjust="spacing" textLength="167" x="90" y="620.5352">HomeGetLastDocuments</text><!--MD5=[1c8af66afcd185b7834a6b42ae0708fe]
entity HomeUpdateLastDocuments--><ellipse cx="173.5" cy="142" fill="#FEFECE" filter="url(#f1i51gw4uhnhcp)" rx="8" ry="8" style="stroke:#A80036;stroke-width:1.5;"/><text fill="#000000" font-family="sans-serif" font-size="14" lengthAdjust="spacing" textLength="193" x="77" y="172.5352">HomeUpdateLastDocuments</text><!--MD5=[8a24367e812bfa62580b7e2ca5d0a033]
entity selectHomeLastDocuments--><ellipse cx="97.5" cy="366" fill="#FEFECE" filter="url(#f1i51gw4uhnhcp)" rx="8" ry="8" style="stroke:#A80036;stroke-width:1.5;"/><text fill="#000000" font-family="sans-serif" font-size="14" lengthAdjust="spacing" textLength="183" x="6" y="396.5352">selectHomeLastDocuments</text><!--MD5=[826ab927a0742f468322359ed8b39d35]
entity HomeComponent--><rect fill="#FEFECE" filter="url(#f1i51gw4uhnhcp)" height="46.4883" style="stroke:#A80036;stroke-width:1.5;" width="161" x="26" y="455"/><rect fill="#FEFECE" height="10" style="stroke:#A80036;stroke-width:1.5;" width="15" x="167" y="460"/><rect fill="#FEFECE" height="2" style="stroke:#A80036;stroke-width:1.5;" width="4" x="165" y="462"/><rect fill="#FEFECE" height="2" style="stroke:#A80036;stroke-width:1.5;" width="4" x="165" y="466"/><text fill="#000000" font-family="sans-serif" font-size="14" lengthAdjust="spacing" textLength="121" x="41" y="488.5352">HomeComponent</text><!--MD5=[9e6984b4734760fd47dcf0061bb686ff]
entity DocumentsComponent--><rect fill="#FEFECE" filter="url(#f1i51gw4uhnhcp)" height="46.4883" style="stroke:#A80036;stroke-width:1.5;" width="198" x="74.5" y="7"/><rect fill="#FEFECE" height="10" style="stroke:#A80036;stroke-width:1.5;" width="15" x="252.5" y="12"/><rect fill="#FEFECE" height="2" style="stroke:#A80036;stroke-width:1.5;" width="4" x="250.5" y="14"/><rect fill="#FEFECE" height="2" style="stroke:#A80036;stroke-width:1.5;" width="4" x="250.5" y="18"/><text fill="#000000" font-family="sans-serif" font-size="14" lengthAdjust="spacing" textLength="158" x="89.5" y="40.5352">DocumentsComponent</text><!--MD5=[6ca3f7451e91de3ed41bb4358d8e9960]
link HomeGetLastDocuments to Home Store--><path d="M177.12,580.95 C183.8,565.7 197.97,531.41 204.5,501 C204.51,500.93 221.24,370.52 213.5,337 C208.55,315.55 197.18,293.22 187.82,277.28 " fill="none" id="HomeGetLastDocuments-Home Store" style="stroke:#A80036;stroke-width:1.0;"/><!--MD5=[34f7aa6377a975a3b9695dd4de285305]
link HomeUpdateLastDocuments to Home Store--><path d="M173.5,151.27 C173.5,167.96 173.5,206.16 173.5,230.71 " fill="none" id="HomeUpdateLastDocuments-Home Store" style="stroke:#A80036;stroke-width:1.0;"/><!--MD5=[b6b7cf087ff72496a0e220ac6d2f615a]
link Home Store to selectHomeLastDocuments--><path d="M158.12,277.26 C141.12,301.87 114.62,340.23 103.13,356.86 " fill="none" id="Home Store-selectHomeLastDocuments" style="stroke:#A80036;stroke-width:1.0;"/><!--MD5=[691dfc5332dafe9df67414bae33cfffd]
link HomeComponent to HomeGetLastDocuments--><path d="M120.06,501.26 C133.88,523.95 154.81,558.32 165.93,576.58 " fill="none" id="HomeComponent-to-HomeGetLastDocuments" style="stroke:#A80036;stroke-width:1.0;stroke-dasharray:7.0,7.0;"/><polygon fill="#A80036" points="168.54,580.86,167.2535,571.0955,165.9299,576.5954,160.43,575.2717,168.54,580.86" style="stroke:#A80036;stroke-width:1.0;"/><!--MD5=[9d5e2163b8448dc2186275f5ff81593a]
link DocumentsComponent to HomeUpdateLastDocuments--><path d="M173.5,53.26 C173.5,75.56 173.5,109.16 173.5,127.64 " fill="none" id="DocumentsComponent-to-HomeUpdateLastDocuments" style="stroke:#A80036;stroke-width:1.0;stroke-dasharray:7.0,7.0;"/><polygon fill="#A80036" points="173.5,132.86,177.5,123.86,173.5,127.86,169.5,123.86,173.5,132.86" style="stroke:#A80036;stroke-width:1.0;"/><!--MD5=[284f7098b34819481345880dd3e7075e]
reverse link selectHomeLastDocuments to HomeComponent--><path d="M98.6,380.5 C100.12,399 102.86,432.47 104.68,454.71 " fill="none" id="selectHomeLastDocuments-backto-HomeComponent" style="stroke:#A80036;stroke-width:1.0;stroke-dasharray:7.0,7.0;"/><polygon fill="#A80036" points="98.18,375.27,94.9126,384.5611,98.5799,380.254,102.8869,383.9213,98.18,375.27" style="stroke:#A80036;stroke-width:1.0;"/><!--MD5=[f1ef2109463e0b80a2f9dae8cff21749]
@startuml home_store_component
    [Home Store]
    HomeGetLastDocuments - - [Home Store]
    HomeUpdateLastDocuments - - [Home Store]
    [Home Store] - - selectHomeLastDocuments

    [HomeComponent] ..> HomeGetLastDocuments
    [DocumentsComponent] ..> HomeUpdateLastDocuments

    selectHomeLastDocuments <.. [HomeComponent]
@enduml

PlantUML version 1.2021.00(Sun Jan 10 11:25:05 CET 2021)
(GPL source distribution)
Java Runtime: Java(TM) SE Runtime Environment
JVM: Java HotSpot(TM) 64-Bit Server VM
Default Encoding: UTF-8
Language: es
Country: ES
--></g></svg>