<?xml version="1.0" encoding="UTF-8" standalone="no"?><svg xmlns="http://www.w3.org/2000/svg" xmlns:xlink="http://www.w3.org/1999/xlink" contentScriptType="application/ecmascript" contentStyleType="text/css" height="173px" preserveAspectRatio="none" style="width:510px;height:173px;" version="1.1" viewBox="0 0 510 173" width="510px" zoomAndPan="magnify"><defs><filter height="300%" id="f1um60m6no8h1g" width="300%" x="-1" y="-1"><feGaussianBlur result="blurOut" stdDeviation="2.0"/><feColorMatrix in="blurOut" result="blurOut2" type="matrix" values="0 0 0 0 0 0 0 0 0 0 0 0 0 0 0 0 0 0 .4 0"/><feOffset dx="4.0" dy="4.0" in="blurOut2" result="blurOut3"/><feBlend in="SourceGraphic" in2="blurOut3" mode="normal"/></filter></defs><g><!--MD5=[baa823340bfa0ea26d6c60a6d9ed704e]
entity LayoutComponent--><rect fill="#FEFECE" filter="url(#f1um60m6no8h1g)" height="46.4883" style="stroke:#A80036;stroke-width:1.5;" width="166" x="97.5" y="7"/><rect fill="#FEFECE" height="10" style="stroke:#A80036;stroke-width:1.5;" width="15" x="243.5" y="12"/><rect fill="#FEFECE" height="2" style="stroke:#A80036;stroke-width:1.5;" width="4" x="241.5" y="14"/><rect fill="#FEFECE" height="2" style="stroke:#A80036;stroke-width:1.5;" width="4" x="241.5" y="18"/><text fill="#000000" font-family="sans-serif" font-size="14" lengthAdjust="spacingAndGlyphs" textLength="126" x="112.5" y="40.5352">LayoutComponent</text><!--MD5=[77a0cbb5ec64df0441d391bf83777a53]
entity ServerStateComponent--><rect fill="#FEFECE" filter="url(#f1um60m6no8h1g)" height="46.4883" style="stroke:#A80036;stroke-width:1.5;" width="198" x="298.5" y="7"/><rect fill="#FEFECE" height="10" style="stroke:#A80036;stroke-width:1.5;" width="15" x="476.5" y="12"/><rect fill="#FEFECE" height="2" style="stroke:#A80036;stroke-width:1.5;" width="4" x="474.5" y="14"/><rect fill="#FEFECE" height="2" style="stroke:#A80036;stroke-width:1.5;" width="4" x="474.5" y="18"/><text fill="#000000" font-family="sans-serif" font-size="14" lengthAdjust="spacingAndGlyphs" textLength="158" x="313.5" y="40.5352">ServerStateComponent</text><!--MD5=[0bf0ec6fa312a0f582bf523f940bbcbb]
entity AvatarComponent--><rect fill="#FEFECE" filter="url(#f1um60m6no8h1g)" height="46.4883" style="stroke:#A80036;stroke-width:1.5;" width="165" x="7" y="113"/><rect fill="#FEFECE" height="10" style="stroke:#A80036;stroke-width:1.5;" width="15" x="152" y="118"/><rect fill="#FEFECE" height="2" style="stroke:#A80036;stroke-width:1.5;" width="4" x="150" y="120"/><rect fill="#FEFECE" height="2" style="stroke:#A80036;stroke-width:1.5;" width="4" x="150" y="124"/><text fill="#000000" font-family="sans-serif" font-size="14" lengthAdjust="spacingAndGlyphs" textLength="125" x="22" y="146.5352">AvatarComponent</text><!--MD5=[2b92cf47b73e951fdf1ceb22cf018312]
entity RouterOutlet--><rect fill="#FEFECE" filter="url(#f1um60m6no8h1g)" height="46.4883" style="stroke:#A80036;stroke-width:1.5;" width="128" x="207.5" y="113"/><rect fill="#FEFECE" height="10" style="stroke:#A80036;stroke-width:1.5;" width="15" x="315.5" y="118"/><rect fill="#FEFECE" height="2" style="stroke:#A80036;stroke-width:1.5;" width="4" x="313.5" y="120"/><rect fill="#FEFECE" height="2" style="stroke:#A80036;stroke-width:1.5;" width="4" x="313.5" y="124"/><text fill="#000000" font-family="sans-serif" font-size="14" lengthAdjust="spacingAndGlyphs" textLength="88" x="222.5" y="146.5352">RouterOutlet</text><!--MD5=[f7ec7d8803cad6763f95061b9de05898]
link LayoutComponent to ServerStateComponent--><path d="M275.57,30 C275.57,30 282.28,30 285.11,30 " fill="none" id="LayoutComponent-ServerStateComponent" style="stroke:#A80036;stroke-width:1.0;"/><polygon fill="#A80036" points="298.36,30,289.36,26,293.36,30,289.36,34,298.36,30" style="stroke:#A80036;stroke-width:1.0;"/><line style="stroke:#A80036;stroke-width:1.0;" x1="293.36" x2="285.36" y1="30" y2="30"/><polygon fill="#A80036" points="263.57,30,269.57,34,275.57,30,269.57,26,263.57,30" style="stroke:#A80036;stroke-width:1.0;"/><!--MD5=[2c6e64a28fa446160377d0f6a34e8ede]
link LayoutComponent to AvatarComponent--><path d="M153.2867,62.0811 C153.2867,62.0811 128.65,90.26 117.6,102.89 " fill="none" id="LayoutComponent-AvatarComponent" style="stroke:#A80036;stroke-width:1.0;"/><polygon fill="#A80036" points="108.77,112.98,117.7056,108.8381,112.0614,109.2161,111.6833,103.5719,108.77,112.98" style="stroke:#A80036;stroke-width:1.0;"/><line style="stroke:#A80036;stroke-width:1.0;" x1="112.0614" x2="117.335" y1="109.2161" y2="103.195"/><polygon fill="#A80036" points="161.2,53.06,154.2363,54.9328,153.2867,62.0811,160.2504,60.2083,161.2,53.06" style="stroke:#A80036;stroke-width:1.0;"/><!--MD5=[0d07fb28b4beaa262ce79b24d83e5490]
link LayoutComponent to RouterOutlet--><path d="M207.7133,62.0811 C207.7133,62.0811 232.35,90.26 243.4,102.89 " fill="none" id="LayoutComponent-RouterOutlet" style="stroke:#A80036;stroke-width:1.0;"/><polygon fill="#A80036" points="252.23,112.98,249.3167,103.5719,248.9386,109.2161,243.2944,108.8381,252.23,112.98" style="stroke:#A80036;stroke-width:1.0;"/><line style="stroke:#A80036;stroke-width:1.0;" x1="248.9386" x2="243.665" y1="109.2161" y2="103.195"/><polygon fill="#A80036" points="199.8,53.06,200.7496,60.2083,207.7133,62.0811,206.7637,54.9328,199.8,53.06" style="stroke:#A80036;stroke-width:1.0;"/><!--MD5=[ea305a02f64c39f74803e237f15dda9c]
@startuml layout_component
[LayoutComponent] *-> [ServerStateComponent]
[LayoutComponent] *- -> [AvatarComponent]
[LayoutComponent] *- -> [RouterOutlet]
@enduml

PlantUML version 1.2020.22(Sun Dec 06 10:36:27 CET 2020)
(GPL source distribution)
Java Runtime: Java(TM) SE Runtime Environment
JVM: Java HotSpot(TM) 64-Bit Server VM
Default Encoding: UTF-8
Language: es
Country: ES
--></g></svg>