<?xml version="1.0" encoding="UTF-8" standalone="no"?><svg xmlns="http://www.w3.org/2000/svg" xmlns:xlink="http://www.w3.org/1999/xlink" contentScriptType="application/ecmascript" contentStyleType="text/css" height="938px" preserveAspectRatio="none" style="width:1226px;height:938px;" version="1.1" viewBox="0 0 1226 938" width="1226px" zoomAndPan="magnify"><defs><filter height="300%" id="fy4zw2npwj2ky" width="300%" x="-1" y="-1"><feGaussianBlur result="blurOut" stdDeviation="2.0"/><feColorMatrix in="blurOut" result="blurOut2" type="matrix" values="0 0 0 0 0 0 0 0 0 0 0 0 0 0 0 0 0 0 .4 0"/><feOffset dx="4.0" dy="4.0" in="blurOut2" result="blurOut3"/><feBlend in="SourceGraphic" in2="blurOut3" mode="normal"/></filter></defs><g><!--MD5=[be996cdb8e6bf2fc7cb89c555f2cd144]
class Entity--><rect codeLine="1" fill="#FEFECE" filter="url(#fy4zw2npwj2ky)" height="60.9551" id="Entity" style="stroke:#A80036;stroke-width:1.5;" width="70" x="639" y="148.5"/><ellipse cx="657.15" cy="164.5" fill="#ADD1B2" rx="11" ry="11" style="stroke:#A80036;stroke-width:1.0;"/><path d="M660.7643,171 L653.0445,171 L653.0445,158.6069 L660.7643,158.6069 L660.7643,160.7651 L655.4933,160.7651 L655.4933,163.438 L660.2662,163.438 L660.2662,165.5962 L655.4933,165.5962 L655.4933,168.8418 L660.7643,168.8418 Z " fill="#000000"/><text fill="#000000" font-family="sans-serif" font-size="12" lengthAdjust="spacingAndGlyphs" textLength="31" x="671.85" y="169.0352">Entity</text><line style="stroke:#A80036;stroke-width:1.5;" x1="640" x2="708" y1="180.5" y2="180.5"/><text fill="#000000" font-family="sans-serif" font-size="11" lengthAdjust="spacingAndGlyphs" textLength="58" x="645" y="195.1348">id: number</text><line style="stroke:#A80036;stroke-width:1.5;" x1="640" x2="708" y1="201.4551" y2="201.4551"/><path d="M414,17 L414,57.6211 A0,0 0 0 0 414,57.6211 L670,57.6211 L674,148.43 L678,57.6211 L934,57.6211 A0,0 0 0 0 934,57.6211 L934,27 L924,17 L414,17 A0,0 0 0 0 414,17 " fill="#FBFB77" filter="url(#fy4zw2npwj2ky)" style="stroke:#A80036;stroke-width:1.0;"/><path d="M924,17 L924,27 L934,27 L924,17 " fill="#FBFB77" style="stroke:#A80036;stroke-width:1.0;"/><text fill="#000000" font-family="sans-serif" font-size="13" lengthAdjust="spacingAndGlyphs" textLength="300" x="420" y="34.5684">To minimize the number of lines in the diagram</text><text fill="#000000" font-family="sans-serif" font-size="13" lengthAdjust="spacingAndGlyphs" textLength="499" x="420" y="49.8789">all classes deriving Entity are drawn with an E inside a circle as this class Entity</text><!--MD5=[3fd616f346a44cd59a91eb10b19e157c]
class User--><rect codeLine="6" fill="#FEFECE" filter="url(#fy4zw2npwj2ky)" height="60.9551" id="User" style="stroke:#A80036;stroke-width:1.5;" width="103" x="39.5" y="7"/><ellipse cx="74.75" cy="23" fill="#ADD1B2" rx="11" ry="11" style="stroke:#A80036;stroke-width:1.0;"/><path d="M77.2231,29.1431 Q76.6421,29.4419 76.0029,29.5913 Q75.3638,29.7407 74.6582,29.7407 Q72.1514,29.7407 70.8315,28.0889 Q69.5117,26.437 69.5117,23.3159 Q69.5117,20.1865 70.8315,18.5347 Q72.1514,16.8828 74.6582,16.8828 Q75.3638,16.8828 76.0112,17.0322 Q76.6587,17.1816 77.2231,17.4805 L77.2231,20.2031 Q76.5923,19.6221 75.9988,19.3523 Q75.4053,19.0825 74.7744,19.0825 Q73.4297,19.0825 72.7449,20.1492 Q72.0601,21.2158 72.0601,23.3159 Q72.0601,25.4077 72.7449,26.4744 Q73.4297,27.541 74.7744,27.541 Q75.4053,27.541 75.9988,27.2712 Q76.5923,27.0015 77.2231,26.4204 Z " fill="#000000"/><text fill="#000000" font-family="sans-serif" font-size="12" lengthAdjust="spacingAndGlyphs" textLength="26" x="93.25" y="27.5352">User</text><line style="stroke:#A80036;stroke-width:1.5;" x1="40.5" x2="141.5" y1="39" y2="39"/><text fill="#000000" font-family="sans-serif" font-size="11" lengthAdjust="spacingAndGlyphs" textLength="91" x="45.5" y="53.6348">username: string</text><line style="stroke:#A80036;stroke-width:1.5;" x1="40.5" x2="141.5" y1="59.9551" y2="59.9551"/><!--MD5=[59b530d44ae785dc18db921986a9c15c]
class Document--><rect codeLine="10" fill="#FEFECE" filter="url(#fy4zw2npwj2ky)" height="151.6406" id="Document" style="stroke:#A80036;stroke-width:1.5;" width="192" x="55" y="290"/><ellipse cx="117.75" cy="306" fill="#ADD1B2" rx="11" ry="11" style="stroke:#A80036;stroke-width:1.0;"/><path d="M121.3643,312.5 L113.6445,312.5 L113.6445,300.1069 L121.3643,300.1069 L121.3643,302.2651 L116.0933,302.2651 L116.0933,304.938 L120.8662,304.938 L120.8662,307.0962 L116.0933,307.0962 L116.0933,310.3418 L121.3643,310.3418 Z " fill="#000000"/><text fill="#000000" font-family="sans-serif" font-size="12" lengthAdjust="spacingAndGlyphs" textLength="58" x="138.25" y="310.5352">Document</text><line style="stroke:#A80036;stroke-width:1.5;" x1="56" x2="246" y1="322" y2="322"/><text fill="#000000" font-family="sans-serif" font-size="11" lengthAdjust="spacingAndGlyphs" textLength="67" x="61" y="336.6348">name: string</text><text fill="#000000" font-family="sans-serif" font-size="11" lengthAdjust="spacingAndGlyphs" textLength="62" x="61" y="349.5898">path: string</text><text fill="#000000" font-family="sans-serif" font-size="11" lengthAdjust="spacingAndGlyphs" textLength="180" x="61" y="362.5449">thumbnailBase64Encoding: string</text><text fill="#000000" font-family="sans-serif" font-size="11" lengthAdjust="spacingAndGlyphs" textLength="94" x="61" y="375.5">comments: string</text><text fill="#000000" font-family="sans-serif" font-size="11" lengthAdjust="spacingAndGlyphs" textLength="125" x="61" y="388.4551">imagesOrdering: string</text><text fill="#000000" font-family="sans-serif" font-size="11" lengthAdjust="spacingAndGlyphs" textLength="109" x="61" y="401.4102">notationType: string</text><text fill="#000000" font-family="sans-serif" font-size="11" lengthAdjust="spacingAndGlyphs" textLength="125" x="61" y="414.3652">manuscriptType: string</text><text fill="#000000" font-family="sans-serif" font-size="11" lengthAdjust="spacingAndGlyphs" textLength="92" x="61" y="427.3203">composer: string</text><line style="stroke:#A80036;stroke-width:1.5;" x1="56" x2="246" y1="433.6406" y2="433.6406"/><!--MD5=[c160724f8e3bb89ca8141a12554ac2e3]
class Collection--><rect codeLine="20" fill="#FEFECE" filter="url(#fy4zw2npwj2ky)" height="99.8203" id="Collection" style="stroke:#A80036;stroke-width:1.5;" width="220" x="262" y="129"/><ellipse cx="340.25" cy="145" fill="#ADD1B2" rx="11" ry="11" style="stroke:#A80036;stroke-width:1.0;"/><path d="M343.8643,151.5 L336.1445,151.5 L336.1445,139.1069 L343.8643,139.1069 L343.8643,141.2651 L338.5933,141.2651 L338.5933,143.938 L343.3662,143.938 L343.3662,146.0962 L338.5933,146.0962 L338.5933,149.3418 L343.8643,149.3418 Z " fill="#000000"/><text fill="#000000" font-family="sans-serif" font-size="12" lengthAdjust="spacingAndGlyphs" textLength="55" x="360.75" y="149.5352">Collection</text><line style="stroke:#A80036;stroke-width:1.5;" x1="263" x2="481" y1="161" y2="161"/><text fill="#000000" font-family="sans-serif" font-size="11" lengthAdjust="spacingAndGlyphs" textLength="95" x="268" y="175.6348">name[0..1]: string</text><text fill="#000000" font-family="sans-serif" font-size="11" lengthAdjust="spacingAndGlyphs" textLength="122" x="268" y="188.5898">comments[0..1]: string</text><text fill="#000000" font-family="sans-serif" font-size="11" lengthAdjust="spacingAndGlyphs" textLength="121" x="268" y="201.5449">parentId[0..1]: number</text><text fill="#000000" font-family="sans-serif" font-size="11" lengthAdjust="spacingAndGlyphs" textLength="208" x="268" y="214.5">thumbnailBase64Encoding[0..1]: string</text><line style="stroke:#A80036;stroke-width:1.5;" x1="263" x2="481" y1="220.8203" y2="220.8203"/><!--MD5=[964f074a2dd77d134c21b891bb53e381]
class Image--><rect codeLine="27" fill="#FEFECE" filter="url(#fy4zw2npwj2ky)" height="73.9102" id="Image" style="stroke:#A80036;stroke-width:1.5;" width="124" x="89" y="509.5"/><ellipse cx="129.65" cy="525.5" fill="#ADD1B2" rx="11" ry="11" style="stroke:#A80036;stroke-width:1.0;"/><path d="M133.2643,532 L125.5445,532 L125.5445,519.6069 L133.2643,519.6069 L133.2643,521.7651 L127.9933,521.7651 L127.9933,524.438 L132.7662,524.438 L132.7662,526.5962 L127.9933,526.5962 L127.9933,529.8418 L133.2643,529.8418 Z " fill="#000000"/><text fill="#000000" font-family="sans-serif" font-size="12" lengthAdjust="spacingAndGlyphs" textLength="35" x="149.35" y="530.0352">Image</text><line style="stroke:#A80036;stroke-width:1.5;" x1="90" x2="212" y1="541.5" y2="541.5"/><text fill="#000000" font-family="sans-serif" font-size="11" lengthAdjust="spacingAndGlyphs" textLength="112" x="95" y="556.1348">documentId: number</text><text fill="#000000" font-family="sans-serif" font-size="11" lengthAdjust="spacingAndGlyphs" textLength="83" x="95" y="569.0898">filename: string</text><line style="stroke:#A80036;stroke-width:1.5;" x1="90" x2="212" y1="575.4102" y2="575.4102"/><!--MD5=[6a494c20d032ff54e1efa92c1369bc7b]
class Page--><rect codeLine="33" fill="#FEFECE" filter="url(#fy4zw2npwj2ky)" height="48" id="Page" style="stroke:#A80036;stroke-width:1.5;" width="60" x="352" y="522.5"/><ellipse cx="367" cy="538.5" fill="#ADD1B2" rx="11" ry="11" style="stroke:#A80036;stroke-width:1.0;"/><path d="M370.6143,545 L362.8945,545 L362.8945,532.6069 L370.6143,532.6069 L370.6143,534.7651 L365.3433,534.7651 L365.3433,537.438 L370.1162,537.438 L370.1162,539.5962 L365.3433,539.5962 L365.3433,542.8418 L370.6143,542.8418 Z " fill="#000000"/><text fill="#000000" font-family="sans-serif" font-size="12" lengthAdjust="spacingAndGlyphs" textLength="28" x="381" y="543.0352">Page</text><line style="stroke:#A80036;stroke-width:1.5;" x1="353" x2="411" y1="554.5" y2="554.5"/><line style="stroke:#A80036;stroke-width:1.5;" x1="353" x2="411" y1="562.5" y2="562.5"/><!--MD5=[6c11516a5600b02d02bec5551b645149]
class Part--><rect codeLine="37" fill="#FEFECE" filter="url(#fy4zw2npwj2ky)" height="73.9102" id="Part" style="stroke:#A80036;stroke-width:1.5;" width="134" x="161" y="831.5"/><ellipse cx="212.25" cy="847.5" fill="#ADD1B2" rx="11" ry="11" style="stroke:#A80036;stroke-width:1.0;"/><path d="M215.8643,854 L208.1445,854 L208.1445,841.6069 L215.8643,841.6069 L215.8643,843.7651 L210.5933,843.7651 L210.5933,846.438 L215.3662,846.438 L215.3662,848.5962 L210.5933,848.5962 L210.5933,851.8418 L215.8643,851.8418 Z " fill="#000000"/><text fill="#000000" font-family="sans-serif" font-size="12" lengthAdjust="spacingAndGlyphs" textLength="23" x="232.75" y="852.0352">Part</text><line style="stroke:#A80036;stroke-width:1.5;" x1="162" x2="294" y1="863.5" y2="863.5"/><text fill="#000000" font-family="sans-serif" font-size="11" lengthAdjust="spacingAndGlyphs" textLength="67" x="167" y="878.1348">name: string</text><text fill="#000000" font-family="sans-serif" font-size="11" lengthAdjust="spacingAndGlyphs" textLength="122" x="167" y="891.0898">comments[0..1]: string</text><line style="stroke:#A80036;stroke-width:1.5;" x1="162" x2="294" y1="897.4102" y2="897.4102"/><!--MD5=[bdb7a498ae268604f9dee9fee1851af7]
class Region--><rect codeLine="42" fill="#FEFECE" filter="url(#fy4zw2npwj2ky)" height="60.9551" id="Region" style="stroke:#A80036;stroke-width:1.5;" width="149" x="480.5" y="516"/><ellipse cx="531.25" cy="532" fill="#ADD1B2" rx="11" ry="11" style="stroke:#A80036;stroke-width:1.0;"/><path d="M534.8643,538.5 L527.1445,538.5 L527.1445,526.1069 L534.8643,526.1069 L534.8643,528.2651 L529.5933,528.2651 L529.5933,530.938 L534.3662,530.938 L534.3662,533.0962 L529.5933,533.0962 L529.5933,536.3418 L534.8643,536.3418 Z " fill="#000000"/><text fill="#000000" font-family="sans-serif" font-size="12" lengthAdjust="spacingAndGlyphs" textLength="39" x="551.75" y="536.5352">Region</text><line style="stroke:#A80036;stroke-width:1.5;" x1="481.5" x2="628.5" y1="548" y2="548"/><text fill="#000000" font-family="sans-serif" font-size="11" lengthAdjust="spacingAndGlyphs" textLength="137" x="486.5" y="562.6348">notationType[0..1]: string</text><line style="stroke:#A80036;stroke-width:1.5;" x1="481.5" x2="628.5" y1="568.9551" y2="568.9551"/><path d="M664.5,529 L664.5,537.6553 L623.5,558.4775 L664.5,545.6553 L664.5,554.3105 A0,0 0 0 0 664.5,554.3105 L1013.5,554.3105 A0,0 0 0 0 1013.5,554.3105 L1013.5,539 L1003.5,529 L664.5,529 A0,0 0 0 0 664.5,529 " fill="#FBFB77" filter="url(#fy4zw2npwj2ky)" style="stroke:#A80036;stroke-width:1.0;"/><path d="M1003.5,529 L1003.5,539 L1013.5,539 L1003.5,529 " fill="#FBFB77" style="stroke:#A80036;stroke-width:1.0;"/><text fill="#000000" font-family="sans-serif" font-size="13" lengthAdjust="spacingAndGlyphs" textLength="328" x="670.5" y="546.5684">When it's different from the document notation type</text><!--MD5=[e961b80dae7be6d0961c0e6b7ad7c600]
class BoundingBox--><rect codeLine="51" fill="#FEFECE" filter="url(#fy4zw2npwj2ky)" height="112.7754" id="BoundingBox" style="stroke:#A80036;stroke-width:1.5;" width="106" x="767" y="812"/><ellipse cx="782" cy="828" fill="#ADD1B2" rx="11" ry="11" style="stroke:#A80036;stroke-width:1.0;"/><path d="M784.4731,834.1431 Q783.8921,834.4419 783.2529,834.5913 Q782.6138,834.7407 781.9082,834.7407 Q779.4014,834.7407 778.0815,833.0889 Q776.7617,831.437 776.7617,828.3159 Q776.7617,825.1865 778.0815,823.5347 Q779.4014,821.8828 781.9082,821.8828 Q782.6138,821.8828 783.2612,822.0322 Q783.9087,822.1816 784.4731,822.4805 L784.4731,825.2031 Q783.8423,824.6221 783.2488,824.3523 Q782.6553,824.0825 782.0244,824.0825 Q780.6797,824.0825 779.9949,825.1492 Q779.3101,826.2158 779.3101,828.3159 Q779.3101,830.4077 779.9949,831.4744 Q780.6797,832.541 782.0244,832.541 Q782.6553,832.541 783.2488,832.2712 Q783.8423,832.0015 784.4731,831.4204 Z " fill="#000000"/><text fill="#000000" font-family="sans-serif" font-size="12" lengthAdjust="spacingAndGlyphs" textLength="74" x="796" y="832.5352">BoundingBox</text><line style="stroke:#A80036;stroke-width:1.5;" x1="768" x2="872" y1="844" y2="844"/><text fill="#000000" font-family="sans-serif" font-size="11" lengthAdjust="spacingAndGlyphs" textLength="89" x="773" y="858.6348">id [0..1]: number</text><text fill="#000000" font-family="sans-serif" font-size="11" lengthAdjust="spacingAndGlyphs" textLength="81" x="773" y="871.5898">fromX: number</text><text fill="#000000" font-family="sans-serif" font-size="11" lengthAdjust="spacingAndGlyphs" textLength="81" x="773" y="884.5449">fromY: number</text><text fill="#000000" font-family="sans-serif" font-size="11" lengthAdjust="spacingAndGlyphs" textLength="66" x="773" y="897.5">toX: number</text><text fill="#000000" font-family="sans-serif" font-size="11" lengthAdjust="spacingAndGlyphs" textLength="66" x="773" y="910.4551">toY: number</text><line style="stroke:#A80036;stroke-width:1.5;" x1="768" x2="872" y1="916.7754" y2="916.7754"/><!--MD5=[ca45b29669c3639bed8717a015198b9a]
class AgnosticSymbol--><rect codeLine="60" fill="#FEFECE" filter="url(#fy4zw2npwj2ky)" height="99.8203" id="AgnosticSymbol" style="stroke:#A80036;stroke-width:1.5;" width="166" x="472" y="651"/><ellipse cx="507.25" cy="667" fill="#ADD1B2" rx="11" ry="11" style="stroke:#A80036;stroke-width:1.0;"/><path d="M510.8643,673.5 L503.1445,673.5 L503.1445,661.1069 L510.8643,661.1069 L510.8643,663.2651 L505.5933,663.2651 L505.5933,665.938 L510.3662,665.938 L510.3662,668.0962 L505.5933,668.0962 L505.5933,671.3418 L510.8643,671.3418 Z " fill="#000000"/><text fill="#000000" font-family="sans-serif" font-size="12" lengthAdjust="spacingAndGlyphs" textLength="89" x="525.75" y="671.5352">AgnosticSymbol</text><line style="stroke:#A80036;stroke-width:1.5;" x1="473" x2="637" y1="683" y2="683"/><text fill="#000000" font-family="sans-serif" font-size="11" lengthAdjust="spacingAndGlyphs" textLength="116" x="478" y="697.6348">positionInStaff: string</text><text fill="#000000" font-family="sans-serif" font-size="11" lengthAdjust="spacingAndGlyphs" textLength="149" x="478" y="710.5898">agnosticSymbolType: string</text><text fill="#000000" font-family="sans-serif" font-size="11" lengthAdjust="spacingAndGlyphs" textLength="154" x="478" y="723.5449">approximateX[0..1]: number;</text><text fill="#000000" font-family="sans-serif" font-size="11" lengthAdjust="spacingAndGlyphs" textLength="122" x="478" y="736.5">comments[0..1]: string</text><line style="stroke:#A80036;stroke-width:1.5;" x1="473" x2="637" y1="742.8203" y2="742.8203"/><!--MD5=[40f4431c104446006dd2f79f8c4d0fa8]
class Strokes--><rect codeLine="67" fill="#FEFECE" filter="url(#fy4zw2npwj2ky)" height="48" id="Strokes" style="stroke:#A80036;stroke-width:1.5;" width="74" x="330" y="844.5"/><ellipse cx="345" cy="860.5" fill="#ADD1B2" rx="11" ry="11" style="stroke:#A80036;stroke-width:1.0;"/><path d="M347.4731,866.6431 Q346.8921,866.9419 346.2529,867.0913 Q345.6138,867.2407 344.9082,867.2407 Q342.4014,867.2407 341.0815,865.5889 Q339.7617,863.937 339.7617,860.8159 Q339.7617,857.6865 341.0815,856.0347 Q342.4014,854.3828 344.9082,854.3828 Q345.6138,854.3828 346.2612,854.5322 Q346.9087,854.6816 347.4731,854.9805 L347.4731,857.7031 Q346.8423,857.1221 346.2488,856.8523 Q345.6553,856.5825 345.0244,856.5825 Q343.6797,856.5825 342.9949,857.6492 Q342.3101,858.7158 342.3101,860.8159 Q342.3101,862.9077 342.9949,863.9744 Q343.6797,865.041 345.0244,865.041 Q345.6553,865.041 346.2488,864.7712 Q346.8423,864.5015 347.4731,863.9204 Z " fill="#000000"/><text fill="#000000" font-family="sans-serif" font-size="12" lengthAdjust="spacingAndGlyphs" textLength="42" x="359" y="865.0352">Strokes</text><line style="stroke:#A80036;stroke-width:1.5;" x1="331" x2="403" y1="876.5" y2="876.5"/><line style="stroke:#A80036;stroke-width:1.5;" x1="331" x2="403" y1="884.5" y2="884.5"/><!--MD5=[972bde5337b4335dd91fa5354c932445]
class Point--><rect codeLine="70" fill="#FEFECE" filter="url(#fy4zw2npwj2ky)" height="86.8652" id="Point" style="stroke:#A80036;stroke-width:1.5;" width="83" x="648.5" y="825"/><ellipse cx="673.85" cy="841" fill="#ADD1B2" rx="11" ry="11" style="stroke:#A80036;stroke-width:1.0;"/><path d="M676.3231,847.1431 Q675.7421,847.4419 675.1029,847.5913 Q674.4638,847.7407 673.7582,847.7407 Q671.2514,847.7407 669.9315,846.0889 Q668.6117,844.437 668.6117,841.3159 Q668.6117,838.1865 669.9315,836.5347 Q671.2514,834.8828 673.7582,834.8828 Q674.4638,834.8828 675.1112,835.0322 Q675.7587,835.1816 676.3231,835.4805 L676.3231,838.2031 Q675.6923,837.6221 675.0988,837.3523 Q674.5053,837.0825 673.8744,837.0825 Q672.5297,837.0825 671.8449,838.1492 Q671.1601,839.2158 671.1601,841.3159 Q671.1601,843.4077 671.8449,844.4744 Q672.5297,845.541 673.8744,845.541 Q674.5053,845.541 675.0988,845.2712 Q675.6923,845.0015 676.3231,844.4204 Z " fill="#000000"/><text fill="#000000" font-family="sans-serif" font-size="12" lengthAdjust="spacingAndGlyphs" textLength="28" x="690.15" y="845.5352">Point</text><line style="stroke:#A80036;stroke-width:1.5;" x1="649.5" x2="730.5" y1="857" y2="857"/><text fill="#000000" font-family="sans-serif" font-size="11" lengthAdjust="spacingAndGlyphs" textLength="71" x="654.5" y="871.6348">time: number</text><text fill="#000000" font-family="sans-serif" font-size="11" lengthAdjust="spacingAndGlyphs" textLength="55" x="654.5" y="884.5898">x: number</text><text fill="#000000" font-family="sans-serif" font-size="11" lengthAdjust="spacingAndGlyphs" textLength="54" x="654.5" y="897.5449">y: number</text><line style="stroke:#A80036;stroke-width:1.5;" x1="649.5" x2="730.5" y1="903.8652" y2="903.8652"/><!--MD5=[c4a419c915b3ae2602504fa49af58ac8]
class RegionType--><rect codeLine="76" fill="#FEFECE" filter="url(#fy4zw2npwj2ky)" height="86.8652" id="RegionType" style="stroke:#A80036;stroke-width:1.5;" width="100" x="1049" y="503"/><ellipse cx="1064" cy="519" fill="#ADD1B2" rx="11" ry="11" style="stroke:#A80036;stroke-width:1.0;"/><path d="M1067.6143,525.5 L1059.8945,525.5 L1059.8945,513.1069 L1067.6143,513.1069 L1067.6143,515.2651 L1062.3433,515.2651 L1062.3433,517.938 L1067.1162,517.938 L1067.1162,520.0962 L1062.3433,520.0962 L1062.3433,523.3418 L1067.6143,523.3418 Z " fill="#000000"/><text fill="#000000" font-family="sans-serif" font-size="12" lengthAdjust="spacingAndGlyphs" textLength="68" x="1078" y="523.5352">RegionType</text><line style="stroke:#A80036;stroke-width:1.5;" x1="1050" x2="1148" y1="535" y2="535"/><text fill="#000000" font-family="sans-serif" font-size="11" lengthAdjust="spacingAndGlyphs" textLength="67" x="1055" y="549.6348">name: string</text><text fill="#000000" font-family="sans-serif" font-size="11" lengthAdjust="spacingAndGlyphs" textLength="83" x="1055" y="562.5898">hexargb: string</text><text fill="#000000" font-family="sans-serif" font-size="11" lengthAdjust="spacingAndGlyphs" textLength="61" x="1055" y="575.5449">help: string</text><line style="stroke:#A80036;stroke-width:1.5;" x1="1050" x2="1148" y1="581.8652" y2="581.8652"/><!--MD5=[459e1a8607309acd67c70648ebfd6c6f]
class RegionInteractionType--><rect codeLine="82" fill="#FEFECE" filter="url(#fy4zw2npwj2ky)" height="60.9551" id="RegionInteractionType" style="stroke:#A80036;stroke-width:1.5;" width="160" x="1019" y="670.5"/><ellipse cx="1034" cy="686.5" fill="#ADD1B2" rx="11" ry="11" style="stroke:#A80036;stroke-width:1.0;"/><path d="M1037.6143,693 L1029.8945,693 L1029.8945,680.6069 L1037.6143,680.6069 L1037.6143,682.7651 L1032.3433,682.7651 L1032.3433,685.438 L1037.1162,685.438 L1037.1162,687.5962 L1032.3433,687.5962 L1032.3433,690.8418 L1037.6143,690.8418 Z " fill="#000000"/><text fill="#000000" font-family="sans-serif" font-size="12" lengthAdjust="spacingAndGlyphs" textLength="128" x="1048" y="691.0352">RegionInteractionType</text><line style="stroke:#A80036;stroke-width:1.5;" x1="1020" x2="1178" y1="702.5" y2="702.5"/><text fill="#000000" font-family="sans-serif" font-size="11" lengthAdjust="spacingAndGlyphs" textLength="67" x="1025" y="717.1348">name: string</text><line style="stroke:#A80036;stroke-width:1.5;" x1="1020" x2="1178" y1="723.4551" y2="723.4551"/><!--MD5=[4c3ceef50c2dcf6ab3f0f048f842acce]
class Permissions--><rect codeLine="86" fill="#FEFECE" filter="url(#fy4zw2npwj2ky)" height="60.9551" id="Permissions" style="stroke:#A80036;stroke-width:1.5;" width="110" x="117" y="148.5"/><ellipse cx="136.5" cy="164.5" fill="#ADD1B2" rx="11" ry="11" style="stroke:#A80036;stroke-width:1.0;"/><path d="M138.9731,170.6431 Q138.3921,170.9419 137.7529,171.0913 Q137.1138,171.2407 136.4082,171.2407 Q133.9014,171.2407 132.5815,169.5889 Q131.2617,167.937 131.2617,164.8159 Q131.2617,161.6865 132.5815,160.0347 Q133.9014,158.3828 136.4082,158.3828 Q137.1138,158.3828 137.7612,158.5322 Q138.4087,158.6816 138.9731,158.9805 L138.9731,161.7031 Q138.3423,161.1221 137.7488,160.8523 Q137.1553,160.5825 136.5244,160.5825 Q135.1797,160.5825 134.4949,161.6492 Q133.8101,162.7158 133.8101,164.8159 Q133.8101,166.9077 134.4949,167.9744 Q135.1797,169.041 136.5244,169.041 Q137.1553,169.041 137.7488,168.7712 Q138.3423,168.5015 138.9731,167.9204 Z " fill="#000000"/><text fill="#000000" font-family="sans-serif" font-size="12" lengthAdjust="spacingAndGlyphs" textLength="68" x="151.5" y="169.0352">Permissions</text><line style="stroke:#A80036;stroke-width:1.5;" x1="118" x2="226" y1="180.5" y2="180.5"/><text fill="#000000" font-family="sans-serif" font-size="11" lengthAdjust="spacingAndGlyphs" textLength="98" x="123" y="195.1348">permission: string</text><line style="stroke:#A80036;stroke-width:1.5;" x1="118" x2="226" y1="201.4551" y2="201.4551"/><!--MD5=[3e63e9fdb204510c0ae1c5b396ba3b55]
class EnumState--><rect codeLine="91" fill="#FEFECE" filter="url(#fy4zw2npwj2ky)" height="86.8652" id="EnumState" style="stroke:#A80036;stroke-width:1.5;" width="93" x="13.5" y="825"/><ellipse cx="28.95" cy="841" fill="#EB937F" rx="11" ry="11" style="stroke:#A80036;stroke-width:1.0;"/><path d="M32.5643,847.5 L24.8445,847.5 L24.8445,835.1069 L32.5643,835.1069 L32.5643,837.2651 L27.2933,837.2651 L27.2933,839.938 L32.0662,839.938 L32.0662,842.0962 L27.2933,842.0962 L27.2933,845.3418 L32.5643,845.3418 Z " fill="#000000"/><text fill="#000000" font-family="sans-serif" font-size="12" lengthAdjust="spacingAndGlyphs" textLength="60" x="43.05" y="845.5352">EnumState</text><line style="stroke:#A80036;stroke-width:1.5;" x1="14.5" x2="105.5" y1="857" y2="857"/><text fill="#000000" font-family="sans-serif" font-size="11" lengthAdjust="spacingAndGlyphs" textLength="81" x="19.5" y="871.6348">doublechecked</text><text fill="#000000" font-family="sans-serif" font-size="11" lengthAdjust="spacingAndGlyphs" textLength="27" x="19.5" y="884.5898">done</text><text fill="#000000" font-family="sans-serif" font-size="11" lengthAdjust="spacingAndGlyphs" textLength="59" x="19.5" y="897.5449">inprogress</text><line style="stroke:#A80036;stroke-width:1.5;" x1="14.5" x2="105.5" y1="903.8652" y2="903.8652"/><!--MD5=[60d6b92408f98aed8df94d5c6e04aa63]
class State--><rect codeLine="96" fill="#FEFECE" filter="url(#fy4zw2npwj2ky)" height="60.9551" id="State" style="stroke:#A80036;stroke-width:1.5;" width="106" x="7" y="670.5"/><ellipse cx="42.7" cy="686.5" fill="#ADD1B2" rx="11" ry="11" style="stroke:#A80036;stroke-width:1.0;"/><path d="M45.1731,692.6431 Q44.5921,692.9419 43.9529,693.0913 Q43.3138,693.2407 42.6082,693.2407 Q40.1014,693.2407 38.7815,691.5889 Q37.4617,689.937 37.4617,686.8159 Q37.4617,683.6865 38.7815,682.0347 Q40.1014,680.3828 42.6082,680.3828 Q43.3138,680.3828 43.9612,680.5322 Q44.6087,680.6816 45.1731,680.9805 L45.1731,683.7031 Q44.5423,683.1221 43.9488,682.8523 Q43.3553,682.5825 42.7244,682.5825 Q41.3797,682.5825 40.6949,683.6492 Q40.0101,684.7158 40.0101,686.8159 Q40.0101,688.9077 40.6949,689.9744 Q41.3797,691.041 42.7244,691.041 Q43.3553,691.041 43.9488,690.7712 Q44.5423,690.5015 45.1731,689.9204 Z " fill="#000000"/><text fill="#000000" font-family="sans-serif" font-size="12" lengthAdjust="spacingAndGlyphs" textLength="28" x="61.3" y="691.0352">State</text><line style="stroke:#A80036;stroke-width:1.5;" x1="8" x2="112" y1="702.5" y2="702.5"/><text fill="#000000" font-family="sans-serif" font-size="11" lengthAdjust="spacingAndGlyphs" textLength="94" x="13" y="717.1348">comments: string</text><line style="stroke:#A80036;stroke-width:1.5;" x1="8" x2="112" y1="723.4551" y2="723.4551"/><path d="M908.5,851 L908.5,859.6553 L862,854.4775 L908.5,867.6553 L908.5,876.3105 A0,0 0 0 0 908.5,876.3105 L1217.5,876.3105 A0,0 0 0 0 1217.5,876.3105 L1217.5,861 L1207.5,851 L908.5,851 A0,0 0 0 0 908.5,851 " fill="#FBFB77" filter="url(#fy4zw2npwj2ky)" style="stroke:#A80036;stroke-width:1.0;"/><path d="M1207.5,851 L1207.5,861 L1217.5,861 L1207.5,851 " fill="#FBFB77" style="stroke:#A80036;stroke-width:1.0;"/><text fill="#000000" font-family="sans-serif" font-size="13" lengthAdjust="spacingAndGlyphs" textLength="288" x="914.5" y="868.5684">We may associate to a symbol, region or page</text><!--MD5=[708736ffb1c2f32764fa80e2e6c9e845]
class Stroke--><rect fill="#FEFECE" filter="url(#fy4zw2npwj2ky)" height="48" id="Stroke" style="stroke:#A80036;stroke-width:1.5;" width="68" x="504" y="844.5"/><ellipse cx="519" cy="860.5" fill="#ADD1B2" rx="11" ry="11" style="stroke:#A80036;stroke-width:1.0;"/><path d="M521.4731,866.6431 Q520.8921,866.9419 520.2529,867.0913 Q519.6138,867.2407 518.9082,867.2407 Q516.4014,867.2407 515.0815,865.5889 Q513.7617,863.937 513.7617,860.8159 Q513.7617,857.6865 515.0815,856.0347 Q516.4014,854.3828 518.9082,854.3828 Q519.6138,854.3828 520.2612,854.5322 Q520.9087,854.6816 521.4731,854.9805 L521.4731,857.7031 Q520.8423,857.1221 520.2488,856.8523 Q519.6553,856.5825 519.0244,856.5825 Q517.6797,856.5825 516.9949,857.6492 Q516.3101,858.7158 516.3101,860.8159 Q516.3101,862.9077 516.9949,863.9744 Q517.6797,865.041 519.0244,865.041 Q519.6553,865.041 520.2488,864.7712 Q520.8423,864.5015 521.4731,863.9204 Z " fill="#000000"/><text fill="#000000" font-family="sans-serif" font-size="12" lengthAdjust="spacingAndGlyphs" textLength="36" x="533" y="865.0352">Stroke</text><line style="stroke:#A80036;stroke-width:1.5;" x1="505" x2="571" y1="876.5" y2="876.5"/><line style="stroke:#A80036;stroke-width:1.5;" x1="505" x2="571" y1="884.5" y2="884.5"/><!--MD5=[c965abcd24fd6bc8feb1b53f663913a8]
link Region to Region$$$RIGHT--><!--MD5=[88321d8d85a7077d49b26febfc07a951]
link Document to Image--><path codeLine="101" d="M151,454.18 C151,454.18 151,483.44 151,496.14 " fill="none" id="Document-Image" style="stroke:#A80036;stroke-width:1.0;"/><polygon fill="#A80036" points="151,509.32,155,500.32,151,504.32,147,500.32,151,509.32" style="stroke:#A80036;stroke-width:1.0;"/><line style="stroke:#A80036;stroke-width:1.0;" x1="151" x2="151" y1="504.32" y2="496.32"/><polygon fill="#A80036" points="151,442.18,147,448.18,151,454.18,155,448.18,151,442.18" style="stroke:#A80036;stroke-width:1.0;"/><text fill="#000000" font-family="sans-serif" font-size="13" lengthAdjust="spacingAndGlyphs" textLength="6" x="144.4469" y="498.6874">*</text><!--MD5=[e33daf103277932610436be06a44b299]
link Document to Part--><path codeLine="102" d="M209.522,452.8833 C209.522,452.8833 225.41,486.43 230,503 C260.32,612.43 247.15,747.53 236.57,818.55 " fill="none" id="Document-Part" style="stroke:#A80036;stroke-width:1.0;"/><polygon fill="#A80036" points="234.56,831.46,239.8972,823.1827,235.3294,826.5195,231.9925,821.9517,234.56,831.46" style="stroke:#A80036;stroke-width:1.0;"/><line style="stroke:#A80036;stroke-width:1.0;" x1="235.3294" x2="236.555" y1="826.5195" y2="818.62"/><polygon fill="#A80036" points="203.81,442.33,203.1482,449.5107,209.522,452.8833,210.1838,445.7027,203.81,442.33" style="stroke:#A80036;stroke-width:1.0;"/><text fill="#000000" font-family="sans-serif" font-size="13" lengthAdjust="spacingAndGlyphs" textLength="6" x="229.2164" y="820.8532">*</text><!--MD5=[859c77174fb00f371ef1a2d257e4ed0e]
link Document to State--><path codeLine="103" d="M92.5503,452.5754 C92.5503,452.5754 76.07,486.23 71,503 C55.48,554.29 54.82,616.46 56.66,657.06 " fill="none" id="Document-State" style="stroke:#A80036;stroke-width:1.0;"/><polygon fill="#A80036" points="57.37,670.21,60.8697,661.0039,57.0954,665.2175,52.8817,661.4433,57.37,670.21" style="stroke:#A80036;stroke-width:1.0;"/><line style="stroke:#A80036;stroke-width:1.0;" x1="57.0954" x2="56.665" y1="665.2175" y2="657.23"/><polygon fill="#A80036" points="98.35,442.07,91.9483,445.3895,92.5503,452.5754,98.9519,449.2559,98.35,442.07" style="stroke:#A80036;stroke-width:1.0;"/><text fill="#000000" font-family="sans-serif" font-size="13" lengthAdjust="spacingAndGlyphs" textLength="6" x="50.2088" y="659.9177">*</text><!--MD5=[5f2edf8f62f591b9b3debc1b5d8e4295]
reverse link Collection to Document--><path codeLine="104" d="M303.22,237.57 C283.45,254.12 261.6,272.42 240.76,289.86 " fill="none" id="Collection-backto-Document" style="stroke:#A80036;stroke-width:1.0;"/><polygon fill="#A80036" points="313.36,229.09,306.192,229.8774,304.1619,236.7968,311.3299,236.0094,313.36,229.09" style="stroke:#A80036;stroke-width:1.0;"/><text fill="#000000" font-family="sans-serif" font-size="13" lengthAdjust="spacingAndGlyphs" textLength="6" x="243.3004" y="279.228">*</text><!--MD5=[457b4e49f7b454ff41f085fc0e48e970]
link Collection to Collection--><path codeLine="105" d="M493.922,166.3006 C493.922,166.3006 517,173.02 517,179 C517,184.98 508.35,189.17 494.94,191.58 " fill="none" id="Collection-Collection" style="stroke:#A80036;stroke-width:1.0;"/><polygon fill="#A80036" points="482.02,193.23,491.4567,196.0494,486.9792,192.5922,490.4363,188.1147,482.02,193.23" style="stroke:#A80036;stroke-width:1.0;"/><line style="stroke:#A80036;stroke-width:1.0;" x1="486.9792" x2="494.91" y1="192.5922" y2="191.58"/><polygon fill="#A80036" points="482.02,164.77,487.4608,169.5026,493.922,166.3006,488.4812,161.568,482.02,164.77" style="stroke:#A80036;stroke-width:1.0;"/><text fill="#000000" font-family="sans-serif" font-size="13" lengthAdjust="spacingAndGlyphs" textLength="92" x="523" y="184.0684">subcollections</text><text fill="#000000" font-family="sans-serif" font-size="13" lengthAdjust="spacingAndGlyphs" textLength="6" x="489.9667" y="191.2888">*</text><!--MD5=[4f66564298406b50e091bb0e58670afd]
link Image to Page--><path codeLine="107" d="M225.26,546.5 C225.26,546.5 301.16,546.5 338.48,546.5 " fill="none" id="Image-Page" style="stroke:#A80036;stroke-width:1.0;"/><polygon fill="#A80036" points="351.68,546.5,342.68,542.5,346.68,546.5,342.68,550.5,351.68,546.5" style="stroke:#A80036;stroke-width:1.0;"/><line style="stroke:#A80036;stroke-width:1.0;" x1="346.68" x2="338.68" y1="546.5" y2="546.5"/><polygon fill="#A80036" points="213.26,546.5,219.26,550.5,225.26,546.5,219.26,542.5,213.26,546.5" style="stroke:#A80036;stroke-width:1.0;"/><text fill="#000000" font-family="sans-serif" font-size="13" lengthAdjust="spacingAndGlyphs" textLength="6" x="337.9748" y="542.3699">*</text><!--MD5=[ed416582101f20f950e27654d9e42ad7]
link Image to State--><path codeLine="108" d="M123.2716,593.9392 C123.2716,593.9392 96.31,639.15 84.54,658.87 " fill="none" id="Image-State" style="stroke:#A80036;stroke-width:1.0;"/><polygon fill="#A80036" points="77.74,670.26,85.7865,664.5808,80.302,665.9662,78.9165,660.4817,77.74,670.26" style="stroke:#A80036;stroke-width:1.0;"/><line style="stroke:#A80036;stroke-width:1.0;" x1="80.302" x2="84.405" y1="665.9662" y2="659.1"/><polygon fill="#A80036" points="129.43,583.64,122.9177,586.7368,123.2716,593.9392,129.7839,590.8424,129.43,583.64" style="stroke:#A80036;stroke-width:1.0;"/><text fill="#000000" font-family="sans-serif" font-size="13" lengthAdjust="spacingAndGlyphs" textLength="6" x="74.7801" y="659.978">*</text><!--MD5=[82d5e6e95ff810d623a1559d5a4e0b0b]
link Image to Part--><path codeLine="109" d="M159.68,583.59 C174.07,643.36 202.76,762.6 217.98,825.86 " fill="none" id="Image-to-Part" style="stroke:#A80036;stroke-width:1.0;"/><polygon fill="#A80036" points="219.23,831.05,221.0084,821.363,218.0577,826.1894,213.2314,823.2387,219.23,831.05" style="stroke:#A80036;stroke-width:1.0;"/><!--MD5=[ea8e9b17401c551686939eb1dc75543e]
link BoundingBox to BoundingBox$$$RIGHT--><!--MD5=[b7da1258af416ae13eec0ee2fbffd312]
link Page to BoundingBox--><path codeLine="116" d="M384.2309,582.7075 C384.2309,582.7075 404.99,708.25 454,751 C554.89,839.01 627.51,755.74 749,812 C751.05,812.95 753.09,813.97 755.13,815.05 " fill="none" id="Page-BoundingBox" style="stroke:#A80036;stroke-width:1.0;"/><polygon fill="#A80036" points="766.61,821.78,760.8749,813.7732,762.2985,819.248,756.8237,820.6716,766.61,821.78" style="stroke:#A80036;stroke-width:1.0;"/><line style="stroke:#A80036;stroke-width:1.0;" x1="762.2985" x2="755.395" y1="819.248" y2="815.205"/><polygon fill="#A80036" points="383.11,570.76,379.6879,577.1074,384.2309,582.7075,387.653,576.3601,383.11,570.76" style="stroke:#A80036;stroke-width:1.0;"/><text fill="#000000" font-family="sans-serif" font-size="13" lengthAdjust="spacingAndGlyphs" textLength="24" x="739.4171" y="826.5139">0..1</text><!--MD5=[8baa3b554fe985a17c0a718ca4e4084d]
reverse link Page to Region--><path codeLine="117" d="M425.16,546.5 C443.6,546.5 462.03,546.5 480.47,546.5 " fill="none" id="Page-backto-Region" style="stroke:#A80036;stroke-width:1.0;"/><polygon fill="#A80036" points="412.07,546.5,418.07,550.5,424.07,546.5,418.07,542.5,412.07,546.5" style="stroke:#A80036;stroke-width:1.0;"/><text fill="#000000" font-family="sans-serif" font-size="13" lengthAdjust="spacingAndGlyphs" textLength="24" x="420.0896" y="542.6683">0..1</text><text fill="#000000" font-family="sans-serif" font-size="13" lengthAdjust="spacingAndGlyphs" textLength="6" x="466.4747" y="543.3133">*</text><!--MD5=[83fc382dd5c3cdfb817f99cfae52554d]
link Page to Part--><path codeLine="118" d="M375.43,570.74 C362.7,613.94 332.37,708.9 292,782 C283.47,797.45 272.44,813.22 261.95,826.95 " fill="none" id="Page-to-Part" style="stroke:#A80036;stroke-width:1.0;"/><polygon fill="#A80036" points="258.71,831.14,267.3777,826.4633,261.7668,827.1833,261.0469,821.5724,258.71,831.14" style="stroke:#A80036;stroke-width:1.0;"/><text fill="#000000" font-family="sans-serif" font-size="13" lengthAdjust="spacingAndGlyphs" textLength="24" x="238.0427" y="820.7533">0..1</text><!--MD5=[2aac28d647626d47ca489e48f1334272]
link Region to BoundingBox--><path codeLine="120" d="M594.1987,585.9019 C594.1987,585.9019 636.14,629.05 655,651 C696.82,699.68 740.7,757.64 772.69,801.33 " fill="none" id="Region-BoundingBox" style="stroke:#A80036;stroke-width:1.0;"/><polygon fill="#A80036" points="780.35,811.84,778.2789,802.2114,777.4039,807.8001,771.8151,806.9251,780.35,811.84" style="stroke:#A80036;stroke-width:1.0;"/><line style="stroke:#A80036;stroke-width:1.0;" x1="777.4039" x2="772.695" y1="807.8001" y2="801.33"/><polygon fill="#A80036" points="585.72,577.41,587.1287,584.4822,594.1987,585.9019,592.79,578.8297,585.72,577.41" style="stroke:#A80036;stroke-width:1.0;"/><text fill="#000000" font-family="sans-serif" font-size="13" lengthAdjust="spacingAndGlyphs" textLength="24" x="749.7323" y="801.2221">0..1</text><!--MD5=[7ab79d559b36e1591d77635498a5cb4b]
link Region to AgnosticSymbol--><path codeLine="121" d="M555,589.27 C555,589.27 555,621.75 555,637.68 " fill="none" id="Region-AgnosticSymbol" style="stroke:#A80036;stroke-width:1.0;"/><polygon fill="#A80036" points="555,650.8,559,641.8,555,645.8,551,641.8,555,650.8" style="stroke:#A80036;stroke-width:1.0;"/><line style="stroke:#A80036;stroke-width:1.0;" x1="555" x2="555" y1="645.8" y2="637.8"/><polygon fill="#A80036" points="555,577.27,551,583.27,555,589.27,559,583.27,555,577.27" style="stroke:#A80036;stroke-width:1.0;"/><text fill="#000000" font-family="sans-serif" font-size="13" lengthAdjust="spacingAndGlyphs" textLength="6" x="548.5781" y="640.2888">*</text><!--MD5=[ab3698aea01fbc98653ed7b42cb29de6]
link Region to RegionType--><path codeLine="122" d="M598.1814,508.6074 C598.1814,508.6074 640.92,479.72 664.5,472.5 C738.66,449.79 940.83,445.42 1013.5,472.5 C1026.74,477.43 1039.29,485.44 1050.5,494.41 " fill="none" id="Region-RegionType" style="stroke:#A80036;stroke-width:1.0;"/><polygon fill="#A80036" points="1060.39,502.85,1056.1365,493.967,1056.5852,499.606,1050.9462,500.0547,1060.39,502.85" style="stroke:#A80036;stroke-width:1.0;"/><line style="stroke:#A80036;stroke-width:1.0;" x1="1056.5852" x2="1050.5" y1="499.606" y2="494.41"/><polygon fill="#A80036" points="588.69,515.95,595.8832,515.4425,598.1814,508.6074,590.9881,509.1149,588.69,515.95" style="stroke:#A80036;stroke-width:1.0;"/><text fill="#000000" font-family="sans-serif" font-size="13" lengthAdjust="spacingAndGlyphs" textLength="24" x="1028.324" y="492.3018">0..1</text><!--MD5=[374887d74e057390521ebbd0305c4df5]
link AgnosticSymbol to BoundingBox--><path codeLine="124" d="M648.7567,751.4954 C648.7567,751.4954 717.62,791 749,812 C751.38,813.59 753.78,815.24 756.18,816.92 " fill="none" id="AgnosticSymbol-BoundingBox" style="stroke:#A80036;stroke-width:1.0;"/><polygon fill="#A80036" points="766.74,824.52,761.7652,816.0199,762.6795,821.6024,757.097,822.5167,766.74,824.52" style="stroke:#A80036;stroke-width:1.0;"/><line style="stroke:#A80036;stroke-width:1.0;" x1="762.6795" x2="756.185" y1="821.6024" y2="816.925"/><polygon fill="#A80036" points="638.26,745.68,641.5699,752.0866,648.7567,751.4954,645.4468,745.0888,638.26,745.68" style="stroke:#A80036;stroke-width:1.0;"/><text fill="#000000" font-family="sans-serif" font-size="13" lengthAdjust="spacingAndGlyphs" textLength="24" x="737.071" y="814.2907">0..1</text><!--MD5=[55ce9db65d942ab9ec6145992daf46bf]
link AgnosticSymbol to Strokes--><path codeLine="125" d="M490.0912,759.1372 C490.0912,759.1372 427.34,814.38 403.03,835.78 " fill="none" id="AgnosticSymbol-Strokes" style="stroke:#A80036;stroke-width:1.0;"/><polygon fill="#A80036" points="393.17,844.46,402.569,841.5175,396.9237,841.157,397.2842,835.5116,393.17,844.46" style="stroke:#A80036;stroke-width:1.0;"/><line style="stroke:#A80036;stroke-width:1.0;" x1="396.9237" x2="402.925" y1="841.157" y2="835.875"/><polygon fill="#A80036" points="499.1,751.21,491.9532,752.1707,490.0912,759.1372,497.238,758.1766,499.1,751.21" style="stroke:#A80036;stroke-width:1.0;"/><text fill="#000000" font-family="sans-serif" font-size="13" lengthAdjust="spacingAndGlyphs" textLength="24" x="372.9782" y="833.5937">0..1</text><!--MD5=[5468c45022c5bf49c94a5807d9709305]
link AgnosticSymbol to Part--><path codeLine="126" d="M460.8269,740.4691 C460.8269,740.4691 359.45,785.8 312,812 C305.15,815.78 298.13,819.93 291.21,824.22 " fill="none" id="AgnosticSymbol-Part" style="stroke:#A80036;stroke-width:1.0;"/><polygon fill="#A80036" points="280.08,831.25,289.825,829.8232,284.3067,828.5788,285.551,823.0605,280.08,831.25" style="stroke:#A80036;stroke-width:1.0;"/><line style="stroke:#A80036;stroke-width:1.0;" x1="284.3067" x2="291.07" y1="828.5788" y2="824.305"/><polygon fill="#A80036" points="471.86,735.75,464.7704,734.4318,460.8269,740.4691,467.9165,741.7873,471.86,735.75" style="stroke:#A80036;stroke-width:1.0;"/><text fill="#000000" font-family="sans-serif" font-size="13" lengthAdjust="spacingAndGlyphs" textLength="24" x="291.4942" y="820.8829">0..1</text><!--MD5=[69b8315fdac25444d71dff77cb3e1f6a]
link Strokes to Stroke--><path codeLine="129" d="M416.1,868.5 C416.1,868.5 467.85,868.5 490.68,868.5 " fill="none" id="Strokes-Stroke" style="stroke:#A80036;stroke-width:1.0;"/><polygon fill="#A80036" points="503.87,868.5,494.87,864.5,498.87,868.5,494.87,872.5,503.87,868.5" style="stroke:#A80036;stroke-width:1.0;"/><line style="stroke:#A80036;stroke-width:1.0;" x1="498.87" x2="490.87" y1="868.5" y2="868.5"/><polygon fill="#A80036" points="404.1,868.5,410.1,872.5,416.1,868.5,410.1,864.5,404.1,868.5" style="stroke:#A80036;stroke-width:1.0;"/><text fill="#000000" font-family="sans-serif" font-size="13" lengthAdjust="spacingAndGlyphs" textLength="63" x="422.5" y="862.0684">strokeList</text><text fill="#000000" font-family="sans-serif" font-size="13" lengthAdjust="spacingAndGlyphs" textLength="6" x="490.2119" y="864.5535">*</text><!--MD5=[f3ac2eade47f42776812054944c310de]
link Stroke to Point--><path codeLine="130" d="M584.11,868.5 C584.11,868.5 618.76,868.5 635.1,868.5 " fill="none" id="Stroke-Point" style="stroke:#A80036;stroke-width:1.0;"/><polygon fill="#A80036" points="648.42,868.5,639.42,864.5,643.42,868.5,639.42,872.5,648.42,868.5" style="stroke:#A80036;stroke-width:1.0;"/><line style="stroke:#A80036;stroke-width:1.0;" x1="643.42" x2="635.42" y1="868.5" y2="868.5"/><polygon fill="#A80036" points="572.11,868.5,578.11,872.5,584.11,868.5,578.11,864.5,572.11,868.5" style="stroke:#A80036;stroke-width:1.0;"/><text fill="#000000" font-family="sans-serif" font-size="13" lengthAdjust="spacingAndGlyphs" textLength="40" x="590.25" y="862.0684">points</text><text fill="#000000" font-family="sans-serif" font-size="13" lengthAdjust="spacingAndGlyphs" textLength="6" x="634.4792" y="864.7721">*</text><!--MD5=[0532f3a5d26b8b335774988cb2be9333]
link RegionType to RegionInteractionType--><path codeLine="133" d="M1099,590.39 C1099,614.04 1099,643.02 1099,665.25 " fill="none" id="RegionType-to-RegionInteractionType" style="stroke:#A80036;stroke-width:1.0;"/><polygon fill="#A80036" points="1099,670.46,1103,661.46,1099,665.46,1095,661.46,1099,670.46" style="stroke:#A80036;stroke-width:1.0;"/><text fill="#000000" font-family="sans-serif" font-size="13" lengthAdjust="spacingAndGlyphs" textLength="24" x="1072.375" y="659.746">0..1</text><!--MD5=[3fed50b6207b712c9a2e8743b64af004]
link Permissions to Collection--><path codeLine="136" d="M227.08,179 C236.96,179 246.84,179 256.73,179 " fill="none" id="Permissions-to-Collection" style="stroke:#A80036;stroke-width:1.0;"/><polygon fill="#A80036" points="261.89,179,252.89,175,256.89,179,252.89,183,261.89,179" style="stroke:#A80036;stroke-width:1.0;"/><!--MD5=[8acdb111e37dedae50f0dc12022f1c9f]
link State to EnumState--><path codeLine="138" d="M60,743.59 C60,743.59 60,789.85 60,811.65 " fill="none" id="State-EnumState" style="stroke:#A80036;stroke-width:1.0;"/><polygon fill="#A80036" points="60,824.79,64,815.79,60,819.79,56,815.79,60,824.79" style="stroke:#A80036;stroke-width:1.0;"/><line style="stroke:#A80036;stroke-width:1.0;" x1="60" x2="60" y1="819.79" y2="811.79"/><polygon fill="#A80036" points="60,731.59,56,737.59,60,743.59,64,737.59,60,731.59" style="stroke:#A80036;stroke-width:1.0;"/><!--MD5=[ea709076456214debdf872f1d0265108]
link User to Document--><path codeLine="140" d="M89.31,68.23 C87.84,106.02 87.46,173.08 99,229 C102.81,247.44 108.8,266.67 115.39,284.66 " fill="none" id="User-to-Document" style="stroke:#A80036;stroke-width:1.0;"/><polygon fill="#A80036" points="117.26,289.7,117.8715,279.8701,115.5169,285.0137,110.3734,282.6591,117.26,289.7" style="stroke:#A80036;stroke-width:1.0;"/><text fill="#000000" font-family="sans-serif" font-size="13" lengthAdjust="spacingAndGlyphs" textLength="6" x="107.7582" y="279.3131">*</text><!--MD5=[ba8b3dffe4f58eca1d690b43ebcd809f]
link User to Permissions--><path codeLine="141" d="M108.18,68.08 C121.06,90.28 138.73,120.7 152.21,143.92 " fill="none" id="User-to-Permissions" style="stroke:#A80036;stroke-width:1.0;"/><polygon fill="#A80036" points="154.85,148.46,153.8126,138.6659,152.3493,144.1303,146.885,142.667,154.85,148.46" style="stroke:#A80036;stroke-width:1.0;"/><text fill="#000000" font-family="sans-serif" font-size="13" lengthAdjust="spacingAndGlyphs" textLength="6" x="144.4422" y="137.746">*</text><!--MD5=[560818343b422887141c269a4c8c1eb5]
@startuml model_class
entity Entity {
    id: number
}
note top of Entity : To minimize the number of lines in the diagram\nall classes deriving Entity are drawn with an E inside a circle as this class Entity

class User {
    username: string
}

entity Document {
  name: string
  path: string
  thumbnailBase64Encoding: string
  comments: string
  imagesOrdering: string
  notationType: string
  manuscriptType: string
  composer: string
}
entity Collection {
  name[0..1]: string
  comments[0..1]: string
  parentId[0..1]: number
  thumbnailBase64Encoding[0..1]: string
}

entity Image {
  documentId: number
  filename: string
}


entity Page {
}


entity Part {
  name: string
  comments[0..1]: string
}

entity Region {
  notationType[0..1]: string 
}

note right of Region::notationType
  When it's different from the document notation type
end note


class BoundingBox {
  id [0..1]: number 
  fromX: number
  fromY: number
  toX: number
  toY: number    
}


entity AgnosticSymbol {
  positionInStaff: string
  agnosticSymbolType: string
  approximateX[0..1]: number;
  comments[0..1]: string
}

class Strokes {
}

class Point {
  time: number
  x: number
  y: number
}

entity RegionType {
  name: string
  hexargb: string
  help: string
}

entity RegionInteractionType {
    name: string
}

class Permissions {
    permission: string
}


enum EnumState {
    doublechecked
    done
    inprogress
} 
class State {
  comments: string
}


Document *- -> "*" Image
Document *- -> "*" Part
Document *-> "*" State
Collection *- - "*" Document
Collection *- -> "*" Collection: "subcollections"

Image *-> "*" Page
Image *- -> "*" State
Image -> Part 

note right of BoundingBox::id
  We may associate to a symbol, region or page
end note


Page *- -> "0..1" BoundingBox
Page "0..1" *- "*" Region
Page - -> "0..1" Part 

Region *- -> "0..1" BoundingBox
Region *- -> "*" AgnosticSymbol
Region *-> "0..1" RegionType

AgnosticSymbol *- -> "0..1" BoundingBox
AgnosticSymbol *- -> "0..1" Strokes
AgnosticSymbol *- -> "0..1" Part


Strokes *-> "*" Stroke: strokeList
Stroke *-> "*" Point: points


RegionType - -> "0..1" RegionInteractionType


Permissions -> Collection

State *- -> EnumState

User - -> "*" Document
User - -> "*" Permissions

@enduml

PlantUML version 1.2020.22(Sun Dec 06 10:36:27 CET 2020)
(GPL source distribution)
Java Runtime: Java(TM) SE Runtime Environment
JVM: Java HotSpot(TM) 64-Bit Server VM
Default Encoding: UTF-8
Language: es
Country: ES
--></g></svg>