<?xml version="1.0" encoding="UTF-8" standalone="no"?><svg xmlns="http://www.w3.org/2000/svg" xmlns:xlink="http://www.w3.org/1999/xlink" contentScriptType="application/ecmascript" contentStyleType="text/css" height="405px" preserveAspectRatio="none" style="width:1864px;height:405px;" version="1.1" viewBox="0 0 1864 405" width="1864px" zoomAndPan="magnify"><defs><filter height="300%" id="fmunazxcm90q8" width="300%" x="-1" y="-1"><feGaussianBlur result="blurOut" stdDeviation="2.0"/><feColorMatrix in="blurOut" result="blurOut2" type="matrix" values="0 0 0 0 0 0 0 0 0 0 0 0 0 0 0 0 0 0 .4 0"/><feOffset dx="4.0" dy="4.0" in="blurOut2" result="blurOut3"/><feBlend in="SourceGraphic" in2="blurOut3" mode="normal"/></filter></defs><g><!--MD5=[9d69cb6c1bf4fa6c0bba20039287ca0d]
entity Core Store--><rect fill="#FEFECE" filter="url(#fmunazxcm90q8)" height="46.4883" style="stroke:#A80036;stroke-width:1.5;" width="113" x="1017" y="7"/><rect fill="#FEFECE" height="10" style="stroke:#A80036;stroke-width:1.5;" width="15" x="1110" y="12"/><rect fill="#FEFECE" height="2" style="stroke:#A80036;stroke-width:1.5;" width="4" x="1108" y="14"/><rect fill="#FEFECE" height="2" style="stroke:#A80036;stroke-width:1.5;" width="4" x="1108" y="18"/><text fill="#000000" font-family="sans-serif" font-size="14" lengthAdjust="spacing" textLength="73" x="1032" y="40.5352">Core Store</text><!--MD5=[1366fe0ee3dbbe891fe6a18555e01f78]
entity CoreGetUsersPermissions--><ellipse cx="1548.5" cy="366" fill="#FEFECE" filter="url(#fmunazxcm90q8)" rx="8" ry="8" style="stroke:#A80036;stroke-width:1.5;"/><text fill="#000000" font-family="sans-serif" font-size="14" lengthAdjust="spacing" textLength="176" x="1460.5" y="396.5352">CoreGetUsersPermissions</text><!--MD5=[401f039ea73beb33e6c1b34c4f582d3a]
entity CoreGetUsers--><ellipse cx="1796.5" cy="366" fill="#FEFECE" filter="url(#fmunazxcm90q8)" rx="8" ry="8" style="stroke:#A80036;stroke-width:1.5;"/><text fill="#000000" font-family="sans-serif" font-size="14" lengthAdjust="spacing" textLength="94" x="1749.5" y="396.5352">CoreGetUsers</text><!--MD5=[85c58c2a6d669b85262c674acb199898]
entity CoreGetUser--><ellipse cx="347.5" cy="366" fill="#FEFECE" filter="url(#fmunazxcm90q8)" rx="8" ry="8" style="stroke:#A80036;stroke-width:1.5;"/><text fill="#000000" font-family="sans-serif" font-size="14" lengthAdjust="spacing" textLength="87" x="304" y="396.5352">CoreGetUser</text><!--MD5=[0dbee2693137dd4efeb03bbb4a80f871]
entity CoreGetSVGSet--><ellipse cx="1000.5" cy="366" fill="#FEFECE" filter="url(#fmunazxcm90q8)" rx="8" ry="8" style="stroke:#A80036;stroke-width:1.5;"/><text fill="#000000" font-family="sans-serif" font-size="14" lengthAdjust="spacing" textLength="104" x="948.5" y="396.5352">CoreGetSVGSet</text><!--MD5=[dbb96745d4823d6d10baa8aeb34cf18a]
entity selectCoreLoggedInUser--><ellipse cx="347.5" cy="142" fill="#FEFECE" filter="url(#fmunazxcm90q8)" rx="8" ry="8" style="stroke:#A80036;stroke-width:1.5;"/><text fill="#000000" font-family="sans-serif" font-size="14" lengthAdjust="spacing" textLength="167" x="264" y="172.5352">selectCoreLoggedInUser</text><path d="M82.5,9.5 L82.5,50.1211 A0,0 0 0 0 82.5,50.1211 L343.5,50.1211 L347.5,132.96 L351.5,50.1211 L612.5,50.1211 A0,0 0 0 0 612.5,50.1211 L612.5,19.5 L602.5,9.5 L82.5,9.5 A0,0 0 0 0 82.5,9.5 " fill="#FBFB77" filter="url(#fmunazxcm90q8)" style="stroke:#A80036;stroke-width:1.0;"/><path d="M602.5,9.5 L602.5,19.5 L612.5,19.5 L602.5,9.5 " fill="#FBFB77" style="stroke:#A80036;stroke-width:1.0;"/><text fill="#000000" font-family="sans-serif" font-size="13" lengthAdjust="spacing" textLength="505" x="88.5" y="27.0684">See the main class diagram: the logged in user (User class) contains information</text><text fill="#000000" font-family="sans-serif" font-size="13" lengthAdjust="spacing" textLength="479" x="88.5" y="42.3789">about its documents and accesible collection through the Permissions class</text><!--MD5=[9eec5cc7fe11996a7e74d5adbfb937a8]
entity selectCoreUserPermissions--><ellipse cx="1497.5" cy="142" fill="#FEFECE" filter="url(#fmunazxcm90q8)" rx="8" ry="8" style="stroke:#A80036;stroke-width:1.5;"/><text fill="#000000" font-family="sans-serif" font-size="14" lengthAdjust="spacing" textLength="185" x="1405" y="172.5352">selectCoreUserPermissions</text><!--MD5=[7b914bf70a4fe3df5a96b4afb69c2f5d]
entity selectCoreUserList--><ellipse cx="1703.5" cy="142" fill="#FEFECE" filter="url(#fmunazxcm90q8)" rx="8" ry="8" style="stroke:#A80036;stroke-width:1.5;"/><text fill="#000000" font-family="sans-serif" font-size="14" lengthAdjust="spacing" textLength="126" x="1640.5" y="172.5352">selectCoreUserList</text><!--MD5=[f29adaf39e69478adc1ad4457c298741]
entity selectCoreServerStatus--><ellipse cx="657.5" cy="142" fill="#FEFECE" filter="url(#fmunazxcm90q8)" rx="8" ry="8" style="stroke:#A80036;stroke-width:1.5;"/><text fill="#000000" font-family="sans-serif" font-size="14" lengthAdjust="spacing" textLength="157" x="579" y="172.5352">selectCoreServerStatus</text><!--MD5=[3844c63b4ecafbe54a6aeb4f9dfc3050]
entity selectCoreSVGAgnosticOrSemanticSymbolSet--><ellipse cx="1073.5" cy="142" fill="#FEFECE" filter="url(#fmunazxcm90q8)" rx="8" ry="8" style="stroke:#A80036;stroke-width:1.5;"/><text fill="#000000" font-family="sans-serif" font-size="14" lengthAdjust="spacing" textLength="309" x="919" y="172.5352">selectCoreSVGAgnosticOrSemanticSymbolSet</text><!--MD5=[ba4a44f7397835fa22bf3b8f4f24c905]
entity CollectionsComponent--><rect fill="#FEFECE" filter="url(#fmunazxcm90q8)" height="46.4883" style="stroke:#A80036;stroke-width:1.5;" width="197" x="249" y="231"/><rect fill="#FEFECE" height="10" style="stroke:#A80036;stroke-width:1.5;" width="15" x="426" y="236"/><rect fill="#FEFECE" height="2" style="stroke:#A80036;stroke-width:1.5;" width="4" x="424" y="238"/><rect fill="#FEFECE" height="2" style="stroke:#A80036;stroke-width:1.5;" width="4" x="424" y="242"/><text fill="#000000" font-family="sans-serif" font-size="14" lengthAdjust="spacing" textLength="157" x="264" y="264.5352">CollectionsComponent</text><!--MD5=[272ac7de08c5251926a4bd8a2d10d21a]
entity TrainingSetsComponent--><rect fill="#FEFECE" filter="url(#fmunazxcm90q8)" height="46.4883" style="stroke:#A80036;stroke-width:1.5;" width="207" x="7" y="231"/><rect fill="#FEFECE" height="10" style="stroke:#A80036;stroke-width:1.5;" width="15" x="194" y="236"/><rect fill="#FEFECE" height="2" style="stroke:#A80036;stroke-width:1.5;" width="4" x="192" y="238"/><rect fill="#FEFECE" height="2" style="stroke:#A80036;stroke-width:1.5;" width="4" x="192" y="242"/><text fill="#000000" font-family="sans-serif" font-size="14" lengthAdjust="spacing" textLength="167" x="22" y="264.5352">TrainingSetsComponent</text><!--MD5=[316567a3f2e738998be9c182246a3ecf]
entity PermissionsComponent--><rect fill="#FEFECE" filter="url(#fmunazxcm90q8)" height="46.4883" style="stroke:#A80036;stroke-width:1.5;" width="203" x="1571" y="231"/><rect fill="#FEFECE" height="10" style="stroke:#A80036;stroke-width:1.5;" width="15" x="1754" y="236"/><rect fill="#FEFECE" height="2" style="stroke:#A80036;stroke-width:1.5;" width="4" x="1752" y="238"/><rect fill="#FEFECE" height="2" style="stroke:#A80036;stroke-width:1.5;" width="4" x="1752" y="242"/><text fill="#000000" font-family="sans-serif" font-size="14" lengthAdjust="spacing" textLength="163" x="1586" y="264.5352">PermissionsComponent</text><!--MD5=[2b72f5e2812545f539da8308634fc81e]
entity AgnosticRepresentationComponent--><rect fill="#FEFECE" filter="url(#fmunazxcm90q8)" height="46.4883" style="stroke:#A80036;stroke-width:1.5;" width="285" x="1179" y="231"/><rect fill="#FEFECE" height="10" style="stroke:#A80036;stroke-width:1.5;" width="15" x="1444" y="236"/><rect fill="#FEFECE" height="2" style="stroke:#A80036;stroke-width:1.5;" width="4" x="1442" y="238"/><rect fill="#FEFECE" height="2" style="stroke:#A80036;stroke-width:1.5;" width="4" x="1442" y="242"/><text fill="#000000" font-family="sans-serif" font-size="14" lengthAdjust="spacing" textLength="245" x="1194" y="264.5352">AgnosticRepresentationComponent</text><!--MD5=[6ddf60f339fe9311142de673beb799b2]
entity SemanticRepresentationComponent--><rect fill="#FEFECE" filter="url(#fmunazxcm90q8)" height="46.4883" style="stroke:#A80036;stroke-width:1.5;" width="287" x="857" y="231"/><rect fill="#FEFECE" height="10" style="stroke:#A80036;stroke-width:1.5;" width="15" x="1124" y="236"/><rect fill="#FEFECE" height="2" style="stroke:#A80036;stroke-width:1.5;" width="4" x="1122" y="238"/><rect fill="#FEFECE" height="2" style="stroke:#A80036;stroke-width:1.5;" width="4" x="1122" y="242"/><text fill="#000000" font-family="sans-serif" font-size="14" lengthAdjust="spacing" textLength="247" x="872" y="264.5352">SemanticRepresentationComponent</text><!--MD5=[77a0cbb5ec64df0441d391bf83777a53]
entity ServerStateComponent--><rect fill="#FEFECE" filter="url(#fmunazxcm90q8)" height="46.4883" style="stroke:#A80036;stroke-width:1.5;" width="198" x="552.5" y="231"/><rect fill="#FEFECE" height="10" style="stroke:#A80036;stroke-width:1.5;" width="15" x="730.5" y="236"/><rect fill="#FEFECE" height="2" style="stroke:#A80036;stroke-width:1.5;" width="4" x="728.5" y="238"/><rect fill="#FEFECE" height="2" style="stroke:#A80036;stroke-width:1.5;" width="4" x="728.5" y="242"/><text fill="#000000" font-family="sans-serif" font-size="14" lengthAdjust="spacing" textLength="158" x="567.5" y="264.5352">ServerStateComponent</text><!--MD5=[a2bf4673e10988bcc27c706bd9bc6f23]
entity CoreGetServerStatus--><ellipse cx="651.5" cy="366" fill="#FEFECE" filter="url(#fmunazxcm90q8)" rx="8" ry="8" style="stroke:#A80036;stroke-width:1.5;"/><text fill="#000000" font-family="sans-serif" font-size="14" lengthAdjust="spacing" textLength="141" x="581" y="396.5352">CoreGetServerStatus</text><!--MD5=[ec15840031ecd94a22aad89dddc7eadd]
link CoreGetUsersPermissions to Core Store--><path d="M1546.32,356.7 C1539.98,333.91 1519.49,269.52 1481.5,231 C1454.12,203.23 1225.59,99.02 1123.01,53.04 " fill="none" id="CoreGetUsersPermissions-Core Store" style="stroke:#A80036;stroke-width:1.0;"/><!--MD5=[160664f37de11a1a03a7febf3caeae88]
link CoreGetUsers to Core Store--><path d="M1799.76,356.65 C1812.84,321.62 1857.75,184.96 1792.5,113 C1748.17,64.11 1292.21,40.23 1130.22,33.25 " fill="none" id="CoreGetUsers-Core Store" style="stroke:#A80036;stroke-width:1.0;"/><!--MD5=[40058a0a58f11d524067ea1ea3b4c5c3]
link CoreGetUser to Core Store--><path d="M356.67,359.89 C377.73,347.78 430.31,315.47 463.5,277 C517.81,214.05 485.48,160.81 553.5,113 C627.52,60.97 898.11,40.37 1016.92,33.71 " fill="none" id="CoreGetUser-Core Store" style="stroke:#A80036;stroke-width:1.0;"/><!--MD5=[d376d2315f88f999874033af6f25f75c]
link CoreGetSVGSet to Core Store--><path d="M991.33,363.33 C962.58,357.53 874.11,335.36 839.5,277 C829.07,259.42 835.15,250.98 839.5,231 C851.78,174.65 852.68,153.75 893.5,113 C927.4,79.16 977.81,57.85 1016.66,45.46 " fill="none" id="CoreGetSVGSet-Core Store" style="stroke:#A80036;stroke-width:1.0;"/><!--MD5=[a4e429af52a855ffc7483e29508c6738]
link Core Store to selectCoreLoggedInUser--><path d="M1016.59,37.19 C909.73,49.15 671.94,77.45 473.5,113 C429.38,120.9 377.3,133.55 356.62,138.7 " fill="none" id="Core Store-selectCoreLoggedInUser" style="stroke:#A80036;stroke-width:1.0;"/><!--MD5=[17591edb8aec1663b65f85780bed7eaa]
link Core Store to selectCoreUserPermissions--><path d="M1130.24,45.72 C1232.69,72.3 1442.22,126.66 1488.37,138.63 " fill="none" id="Core Store-selectCoreUserPermissions" style="stroke:#A80036;stroke-width:1.0;"/><!--MD5=[d727d97e19ff22e956d3d4133627f135]
link Core Store to selectCoreUserList--><path d="M1130.24,36.6 C1229.51,47.06 1440.8,72.26 1615.5,113 C1644.85,119.85 1678.55,131.74 1694.38,137.57 " fill="none" id="Core Store-selectCoreUserList" style="stroke:#A80036;stroke-width:1.0;"/><!--MD5=[523492b21221d7ced6c636fb1a3c9715]
link Core Store to selectCoreServerStatus--><path d="M1016.96,45.95 C916.33,72.56 712.38,126.49 666.71,138.56 " fill="none" id="Core Store-selectCoreServerStatus" style="stroke:#A80036;stroke-width:1.0;"/><!--MD5=[0d3fbea640c68a22b7e18a727ba13feb]
link Core Store to selectCoreSVGAgnosticOrSemanticSymbolSet--><path d="M1073.5,53.26 C1073.5,77.87 1073.5,116.23 1073.5,132.86 " fill="none" id="Core Store-selectCoreSVGAgnosticOrSemanticSymbolSet" style="stroke:#A80036;stroke-width:1.0;"/><!--MD5=[f47c3bb4d3e8eb6cdaf2dff6b4875079]
link CollectionsComponent to CoreGetUser--><path d="M347.5,277.26 C347.5,299.56 347.5,333.16 347.5,351.64 " fill="none" id="CollectionsComponent-to-CoreGetUser" style="stroke:#A80036;stroke-width:1.0;stroke-dasharray:7.0,7.0;"/><polygon fill="#A80036" points="347.5,356.86,351.5,347.86,347.5,351.86,343.5,347.86,347.5,356.86" style="stroke:#A80036;stroke-width:1.0;"/><!--MD5=[1b1596b461b9c60477ad72369d89d7ee]
link TrainingSetsComponent to CoreGetUser--><path d="M158.18,277.13 C213.06,302.6 299.96,342.93 333.58,358.54 " fill="none" id="TrainingSetsComponent-to-CoreGetUser" style="stroke:#A80036;stroke-width:1.0;stroke-dasharray:7.0,7.0;"/><polygon fill="#A80036" points="338.14,360.66,331.6772,353.2282,333.6094,358.5448,328.2928,360.4771,338.14,360.66" style="stroke:#A80036;stroke-width:1.0;"/><!--MD5=[539f04a0cc63e5e37815771984563c19]
link PermissionsComponent to CoreGetUsersPermissions--><path d="M1647.41,277.26 C1621.4,300.33 1581.77,335.49 1561.47,353.49 " fill="none" id="PermissionsComponent-to-CoreGetUsersPermissions" style="stroke:#A80036;stroke-width:1.0;stroke-dasharray:7.0,7.0;"/><polygon fill="#A80036" points="1557.68,356.86,1567.0698,353.8882,1561.4233,353.5453,1561.7662,347.8988,1557.68,356.86" style="stroke:#A80036;stroke-width:1.0;"/><!--MD5=[e37c48a799d4cdec09c6e5bca15b77ac]
link PermissionsComponent to CoreGetUsers--><path d="M1697.59,277.26 C1723.6,300.33 1763.23,335.49 1783.53,353.49 " fill="none" id="PermissionsComponent-to-CoreGetUsers" style="stroke:#A80036;stroke-width:1.0;stroke-dasharray:7.0,7.0;"/><polygon fill="#A80036" points="1787.32,356.86,1783.2338,347.8988,1783.5767,353.5453,1777.9302,353.8882,1787.32,356.86" style="stroke:#A80036;stroke-width:1.0;"/><!--MD5=[ffee188917174f72146433b200de2d88]
link AgnosticRepresentationComponent to CoreGetSVGSet--><path d="M1256.93,277.13 C1179.68,303.6 1055.59,346.12 1014.34,360.26 " fill="none" id="AgnosticRepresentationComponent-to-CoreGetSVGSet" style="stroke:#A80036;stroke-width:1.0;stroke-dasharray:7.0,7.0;"/><polygon fill="#A80036" points="1009.51,361.91,1019.3197,362.7878,1014.2419,360.2946,1016.735,355.2168,1009.51,361.91" style="stroke:#A80036;stroke-width:1.0;"/><!--MD5=[d185811c91ace9697bf6e978c0f003e8]
link SemanticRepresentationComponent to CoreGetSVGSet--><path d="M1000.5,277.26 C1000.5,299.56 1000.5,333.16 1000.5,351.64 " fill="none" id="SemanticRepresentationComponent-to-CoreGetSVGSet" style="stroke:#A80036;stroke-width:1.0;stroke-dasharray:7.0,7.0;"/><polygon fill="#A80036" points="1000.5,356.86,1004.5,347.86,1000.5,351.86,996.5,347.86,1000.5,356.86" style="stroke:#A80036;stroke-width:1.0;"/><!--MD5=[209b2fe3b97aa562cdeef13f00f9a43c]
link ServerStateComponent to CoreGetServerStatus--><path d="M651.5,277.26 C651.5,299.56 651.5,333.16 651.5,351.64 " fill="none" id="ServerStateComponent-to-CoreGetServerStatus" style="stroke:#A80036;stroke-width:1.0;stroke-dasharray:7.0,7.0;"/><polygon fill="#A80036" points="651.5,356.86,655.5,347.86,651.5,351.86,647.5,347.86,651.5,356.86" style="stroke:#A80036;stroke-width:1.0;"/><!--MD5=[a53a3433b97e05627f7816a2b907465e]
reverse link selectCoreLoggedInUser to CollectionsComponent--><path d="M347.5,156.5 C347.5,175 347.5,208.47 347.5,230.71 " fill="none" id="selectCoreLoggedInUser-backto-CollectionsComponent" style="stroke:#A80036;stroke-width:1.0;stroke-dasharray:7.0,7.0;"/><polygon fill="#A80036" points="347.5,151.27,343.5,160.27,347.5,156.27,351.5,160.27,347.5,151.27" style="stroke:#A80036;stroke-width:1.0;"/><!--MD5=[1f42a2a375293ab53585e7a5dd869170]
reverse link selectCoreLoggedInUser to TrainingSetsComponent--><path d="M333.57,149.46 C299.94,165.08 213.01,205.42 158.14,230.89 " fill="none" id="selectCoreLoggedInUser-backto-TrainingSetsComponent" style="stroke:#A80036;stroke-width:1.0;stroke-dasharray:7.0,7.0;"/><polygon fill="#A80036" points="338.5,147.18,328.6524,147.3374,333.964,149.2835,332.0179,154.595,338.5,147.18" style="stroke:#A80036;stroke-width:1.0;"/><!--MD5=[e17d034165ddac7cadf31ec24061ba5a]
reverse link selectCoreUserPermissions to PermissionsComponent--><path d="M1511.23,151.63 C1538.1,168.52 1598.39,206.42 1637.17,230.79 " fill="none" id="selectCoreUserPermissions-backto-PermissionsComponent" style="stroke:#A80036;stroke-width:1.0;stroke-dasharray:7.0,7.0;"/><polygon fill="#A80036" points="1506.91,148.91,1512.4146,157.077,1511.1476,151.5638,1516.6607,150.2968,1506.91,148.91" style="stroke:#A80036;stroke-width:1.0;"/><!--MD5=[ab9ad96c0e2bbbfee88e4656fc7917c9]
reverse link selectCoreUserList to PermissionsComponent--><path d="M1699.7,156.5 C1694.48,175 1685.05,208.47 1678.78,230.71 " fill="none" id="selectCoreUserList-backto-PermissionsComponent" style="stroke:#A80036;stroke-width:1.0;stroke-dasharray:7.0,7.0;"/><polygon fill="#A80036" points="1701.17,151.27,1694.8781,158.8471,1699.8134,156.0824,1702.578,161.0177,1701.17,151.27" style="stroke:#A80036;stroke-width:1.0;"/><!--MD5=[a1d4f13ecf6902663b63d2f01c2e35f9]
reverse link selectCoreServerStatus to ServerStateComponent--><path d="M656.76,156.5 C655.75,175 653.93,208.47 652.72,230.71 " fill="none" id="selectCoreServerStatus-backto-ServerStateComponent" style="stroke:#A80036;stroke-width:1.0;stroke-dasharray:7.0,7.0;"/><polygon fill="#A80036" points="657.05,151.27,652.5667,160.0392,656.7782,156.2626,660.5548,160.4741,657.05,151.27" style="stroke:#A80036;stroke-width:1.0;"/><!--MD5=[91ec554f11c090a06943ac9983f923d6]
reverse link selectCoreSVGAgnosticOrSemanticSymbolSet to AgnosticRepresentationComponent--><path d="M1087.3,149.12 C1121.94,164.48 1213.88,205.26 1271.72,230.92 " fill="none" id="selectCoreSVGAgnosticOrSemanticSymbolSet-backto-AgnosticRepresentationComponent" style="stroke:#A80036;stroke-width:1.0;stroke-dasharray:7.0,7.0;"/><polygon fill="#A80036" points="1082.62,147.05,1089.224,154.3567,1087.1902,149.078,1092.4689,147.0443,1082.62,147.05" style="stroke:#A80036;stroke-width:1.0;"/><!--MD5=[5c79018a7e805247b4fb3762c945af0d]
reverse link selectCoreSVGAgnosticOrSemanticSymbolSet to SemanticRepresentationComponent--><path d="M1065.17,155.56 C1053.03,173.84 1030.31,208.08 1015.29,230.71 " fill="none" id="selectCoreSVGAgnosticOrSemanticSymbolSet-backto-SemanticRepresentationComponent" style="stroke:#A80036;stroke-width:1.0;stroke-dasharray:7.0,7.0;"/><polygon fill="#A80036" points="1068.01,151.27,1059.7104,156.5726,1065.253,155.4412,1066.3844,160.9838,1068.01,151.27" style="stroke:#A80036;stroke-width:1.0;"/><!--MD5=[131596a5d42cd9e9f324d3410691f519]
@startuml core_store_component
    [Core Store]
    CoreGetUsersPermissions - - [Core Store]
    CoreGetUsers - - [Core Store]
    CoreGetUser - - [Core Store]
    CoreGetSVGSet - - [Core Store]

    [Core Store] - - selectCoreLoggedInUser 
    note top of selectCoreLoggedInUser
      See the main class diagram: the logged in user (User class) contains information 
      about its documents and accesible collection through the Permissions class
    end note

    [Core Store] - - selectCoreUserPermissions
    [Core Store] - - selectCoreUserList
    [Core Store] - - selectCoreServerStatus
    [Core Store] - - selectCoreSVGAgnosticOrSemanticSymbolSet

    [CollectionsComponent] ..> CoreGetUser
    [TrainingSetsComponent] ..> CoreGetUser

    [PermissionsComponent] ..> CoreGetUsersPermissions
    [PermissionsComponent] ..> CoreGetUsers

    [AgnosticRepresentationComponent] ..> CoreGetSVGSet
    [SemanticRepresentationComponent] ..> CoreGetSVGSet

    [ServerStateComponent] ..> CoreGetServerStatus

    selectCoreLoggedInUser <.. [CollectionsComponent]
    selectCoreLoggedInUser <.. [TrainingSetsComponent]
    
    selectCoreUserPermissions <.. [PermissionsComponent]
    selectCoreUserList <.. [PermissionsComponent]

    selectCoreServerStatus <.. [ServerStateComponent]
    selectCoreSVGAgnosticOrSemanticSymbolSet <.. [AgnosticRepresentationComponent]
    selectCoreSVGAgnosticOrSemanticSymbolSet <.. [SemanticRepresentationComponent]
    
@enduml

PlantUML version 1.2021.00(Sun Jan 10 11:25:05 CET 2021)
(GPL source distribution)
Java Runtime: Java(TM) SE Runtime Environment
JVM: Java HotSpot(TM) 64-Bit Server VM
Default Encoding: UTF-8
Language: es
Country: ES
--></g></svg>