<?xml version="1.0" encoding="UTF-8" standalone="no"?><svg xmlns="http://www.w3.org/2000/svg" xmlns:xlink="http://www.w3.org/1999/xlink" contentScriptType="application/ecmascript" contentStyleType="text/css" height="629px" preserveAspectRatio="none" style="width:1265px;height:629px;" version="1.1" viewBox="0 0 1265 629" width="1265px" zoomAndPan="magnify"><defs><filter height="300%" id="fgs4odurh2p8n" width="300%" x="-1" y="-1"><feGaussianBlur result="blurOut" stdDeviation="2.0"/><feColorMatrix in="blurOut" result="blurOut2" type="matrix" values="0 0 0 0 0 0 0 0 0 0 0 0 0 0 0 0 0 0 .4 0"/><feOffset dx="4.0" dy="4.0" in="blurOut2" result="blurOut3"/><feBlend in="SourceGraphic" in2="blurOut3" mode="normal"/></filter></defs><g><!--MD5=[790d6364cd2823c662464510b0a53bd1]
entity Document Store--><rect fill="#FEFECE" filter="url(#fgs4odurh2p8n)" height="46.4883" style="stroke:#A80036;stroke-width:1.5;" width="150" x="561.36" y="231"/><rect fill="#FEFECE" height="10" style="stroke:#A80036;stroke-width:1.5;" width="15" x="691.36" y="236"/><rect fill="#FEFECE" height="2" style="stroke:#A80036;stroke-width:1.5;" width="4" x="689.36" y="238"/><rect fill="#FEFECE" height="2" style="stroke:#A80036;stroke-width:1.5;" width="4" x="689.36" y="242"/><text fill="#000000" font-family="sans-serif" font-size="14" lengthAdjust="spacing" textLength="110" x="576.36" y="264.5352">Document Store</text><!--MD5=[f00da9291304be3a1eb270dee07ac49d]
entity DocumentGetOverview--><ellipse cx="431.36" cy="590" fill="#FEFECE" filter="url(#fgs4odurh2p8n)" rx="8" ry="8" style="stroke:#A80036;stroke-width:1.5;"/><text fill="#000000" font-family="sans-serif" font-size="14" lengthAdjust="spacing" textLength="155" x="353.86" y="620.5352">DocumentGetOverview</text><!--MD5=[0372d6f0842501758b1a8129c70603bb]
entity DocumentMoveImagesToSection--><ellipse cx="187.36" cy="142" fill="#FEFECE" filter="url(#fgs4odurh2p8n)" rx="8" ry="8" style="stroke:#A80036;stroke-width:1.5;"/><text fill="#000000" font-family="sans-serif" font-size="14" lengthAdjust="spacing" textLength="223" x="75.86" y="172.5352">DocumentMoveImagesToSection</text><!--MD5=[92947d3a2aa951922a87dcc7b087b575]
entity DocumentNewSection--><ellipse cx="636.36" cy="142" fill="#FEFECE" filter="url(#fgs4odurh2p8n)" rx="8" ry="8" style="stroke:#A80036;stroke-width:1.5;"/><text fill="#000000" font-family="sans-serif" font-size="14" lengthAdjust="spacing" textLength="149" x="561.86" y="172.5352">DocumentNewSection</text><!--MD5=[cb0c633835065fb7d7e81d6ab23696b9]
entity DocumentMoveImagesToDefaultSection--><ellipse cx="897.36" cy="142" fill="#FEFECE" filter="url(#fgs4odurh2p8n)" rx="8" ry="8" style="stroke:#A80036;stroke-width:1.5;"/><text fill="#000000" font-family="sans-serif" font-size="14" lengthAdjust="spacing" textLength="272" x="761.36" y="172.5352">DocumentMoveImagesToDefaultSection</text><!--MD5=[69f0010fe081a2b8a0be536dca60abc2]
entity DocumentRenameSection--><ellipse cx="1171.36" cy="142" fill="#FEFECE" filter="url(#fgs4odurh2p8n)" rx="8" ry="8" style="stroke:#A80036;stroke-width:1.5;"/><text fill="#000000" font-family="sans-serif" font-size="14" lengthAdjust="spacing" textLength="175" x="1083.86" y="172.5352">DocumentRenameSection</text><!--MD5=[a2ed2fb907a2633cbb58875ddb837929]
entity DocumentDeleteSection--><ellipse cx="430.36" cy="142" fill="#FEFECE" filter="url(#fgs4odurh2p8n)" rx="8" ry="8" style="stroke:#A80036;stroke-width:1.5;"/><text fill="#000000" font-family="sans-serif" font-size="14" lengthAdjust="spacing" textLength="163" x="348.86" y="172.5352">DocumentDeleteSection</text><!--MD5=[9d96b0644b52ee80e390f6fe1d63d812]
entity DocumentReorderSections--><ellipse cx="651.36" cy="590" fill="#FEFECE" filter="url(#fgs4odurh2p8n)" rx="8" ry="8" style="stroke:#A80036;stroke-width:1.5;"/><text fill="#000000" font-family="sans-serif" font-size="14" lengthAdjust="spacing" textLength="182" x="560.36" y="620.5352">DocumentReorderSections</text><!--MD5=[42c59677e9bc3a08b9fe81ae2fe6b41f]
entity DocumentGetSection--><ellipse cx="865.36" cy="590" fill="#FEFECE" filter="url(#fgs4odurh2p8n)" rx="8" ry="8" style="stroke:#A80036;stroke-width:1.5;"/><text fill="#000000" font-family="sans-serif" font-size="14" lengthAdjust="spacing" textLength="143" x="793.86" y="620.5352">DocumentGetSection</text><!--MD5=[dfebb822660823534e897ea940105ca3]
entity DocumentReorderImages--><ellipse cx="1074.36" cy="590" fill="#FEFECE" filter="url(#fgs4odurh2p8n)" rx="8" ry="8" style="stroke:#A80036;stroke-width:1.5;"/><text fill="#000000" font-family="sans-serif" font-size="14" lengthAdjust="spacing" textLength="174" x="987.36" y="620.5352">DocumentReorderImages</text><!--MD5=[db494b9166a94183b3c7344776b4cac2]
entity DocumentGetPartsInImages--><ellipse cx="110.36" cy="590" fill="#FEFECE" filter="url(#fgs4odurh2p8n)" rx="8" ry="8" style="stroke:#A80036;stroke-width:1.5;"/><text fill="#000000" font-family="sans-serif" font-size="14" lengthAdjust="spacing" textLength="189" x="15.86" y="620.5352">DocumentGetPartsInImages</text><!--MD5=[f27c98c9e58a14ce798efb21f7e53ee0]
entity selectDocumentOverview--><ellipse cx="436.36" cy="366" fill="#FEFECE" filter="url(#fgs4odurh2p8n)" rx="8" ry="8" style="stroke:#A80036;stroke-width:1.5;"/><text fill="#000000" font-family="sans-serif" font-size="14" lengthAdjust="spacing" textLength="171" x="350.86" y="396.5352">selectDocumentOverview</text><!--MD5=[8d4c42dcfa0928f0a1d6a554dcb28b7c]
entity selectDocumentSection--><ellipse cx="896.36" cy="366" fill="#FEFECE" filter="url(#fgs4odurh2p8n)" rx="8" ry="8" style="stroke:#A80036;stroke-width:1.5;"/><text fill="#000000" font-family="sans-serif" font-size="14" lengthAdjust="spacing" textLength="159" x="816.86" y="396.5352">selectDocumentSection</text><!--MD5=[d62c34e1cd1b1db537c361cc491dbce9]
entity selectDocumentPartsInImages--><ellipse cx="198.36" cy="366" fill="#FEFECE" filter="url(#fgs4odurh2p8n)" rx="8" ry="8" style="stroke:#A80036;stroke-width:1.5;"/><text fill="#000000" font-family="sans-serif" font-size="14" lengthAdjust="spacing" textLength="205" x="95.86" y="396.5352">selectDocumentPartsInImages</text><!--MD5=[422d10d901d47f36978e82d8272e9edf]
entity DocumentPieceComponent--><rect fill="#FEFECE" filter="url(#fgs4odurh2p8n)" height="46.4883" style="stroke:#A80036;stroke-width:1.5;" width="191" x="88.86" y="455"/><rect fill="#FEFECE" height="10" style="stroke:#A80036;stroke-width:1.5;" width="15" x="259.86" y="460"/><rect fill="#FEFECE" height="2" style="stroke:#A80036;stroke-width:1.5;" width="4" x="257.86" y="462"/><rect fill="#FEFECE" height="2" style="stroke:#A80036;stroke-width:1.5;" width="4" x="257.86" y="466"/><text fill="#000000" font-family="sans-serif" font-size="14" lengthAdjust="spacing" textLength="151" x="103.86" y="488.5352">DocumentPieceComponent</text><!--MD5=[b3be6c2ee089c61b6eae1d3ece11e65e]
entity ReorderSectionsComponent--><rect fill="#FEFECE" filter="url(#fgs4odurh2p8n)" height="46.4883" style="stroke:#A80036;stroke-width:1.5;" width="233" x="314.86" y="455"/><rect fill="#FEFECE" height="10" style="stroke:#A80036;stroke-width:1.5;" width="15" x="527.86" y="460"/><rect fill="#FEFECE" height="2" style="stroke:#A80036;stroke-width:1.5;" width="4" x="525.86" y="462"/><rect fill="#FEFECE" height="2" style="stroke:#A80036;stroke-width:1.5;" width="4" x="525.86" y="466"/><text fill="#000000" font-family="sans-serif" font-size="14" lengthAdjust="spacing" textLength="193" x="329.86" y="488.5352">ReorderSectionsComponent</text><!--MD5=[2513ac44917036a3b39dea6bdc8f6293]
entity DocumentThumbnailComponent--><rect fill="#FEFECE" filter="url(#fgs4odurh2p8n)" height="46.4883" style="stroke:#A80036;stroke-width:1.5;" width="265" x="54.86" y="7"/><rect fill="#FEFECE" height="10" style="stroke:#A80036;stroke-width:1.5;" width="15" x="299.86" y="12"/><rect fill="#FEFECE" height="2" style="stroke:#A80036;stroke-width:1.5;" width="4" x="297.86" y="14"/><rect fill="#FEFECE" height="2" style="stroke:#A80036;stroke-width:1.5;" width="4" x="297.86" y="18"/><text fill="#000000" font-family="sans-serif" font-size="14" lengthAdjust="spacing" textLength="225" x="69.86" y="40.5352">DocumentThumbnailComponent</text><!--MD5=[276f789c8be6e17a0f6b1f32aa033c02]
entity SectionComponent--><rect fill="#FEFECE" filter="url(#fgs4odurh2p8n)" height="46.4883" style="stroke:#A80036;stroke-width:1.5;" width="171" x="680.86" y="7"/><rect fill="#FEFECE" height="10" style="stroke:#A80036;stroke-width:1.5;" width="15" x="831.86" y="12"/><rect fill="#FEFECE" height="2" style="stroke:#A80036;stroke-width:1.5;" width="4" x="829.86" y="14"/><rect fill="#FEFECE" height="2" style="stroke:#A80036;stroke-width:1.5;" width="4" x="829.86" y="18"/><text fill="#000000" font-family="sans-serif" font-size="14" lengthAdjust="spacing" textLength="131" x="695.86" y="40.5352">SectionComponent</text><!--MD5=[dd92d5e8d3741ce9c054af6265ff6201]
entity ReorderImagesComponent--><rect fill="#FEFECE" filter="url(#fgs4odurh2p8n)" height="46.4883" style="stroke:#A80036;stroke-width:1.5;" width="225" x="796.86" y="455"/><rect fill="#FEFECE" height="10" style="stroke:#A80036;stroke-width:1.5;" width="15" x="1001.86" y="460"/><rect fill="#FEFECE" height="2" style="stroke:#A80036;stroke-width:1.5;" width="4" x="999.86" y="462"/><rect fill="#FEFECE" height="2" style="stroke:#A80036;stroke-width:1.5;" width="4" x="999.86" y="466"/><text fill="#000000" font-family="sans-serif" font-size="14" lengthAdjust="spacing" textLength="185" x="811.86" y="488.5352">ReorderImagesComponent</text><!--MD5=[1d4152c8b64c990c40be7074907d01d6]
link DocumentGetOverview to Document Store--><path d="M440.45,585.66 C464.66,576.29 531.17,547.37 565.36,501 C617.2,430.7 631.29,323.38 635.04,277.3 " fill="none" id="DocumentGetOverview-Document Store" style="stroke:#A80036;stroke-width:1.0;"/><!--MD5=[8501db6d87b6fb280208cc6bb0e26405]
link DocumentMoveImagesToSection to Document Store--><path d="M196.74,145.3 C242.89,156.6 448.23,206.91 561.21,234.59 " fill="none" id="DocumentMoveImagesToSection-Document Store" style="stroke:#A80036;stroke-width:1.0;"/><!--MD5=[b9eb8e4665983f617f3ef4cb0996a758]
link DocumentNewSection to Document Store--><path d="M636.36,151.27 C636.36,167.96 636.36,206.16 636.36,230.71 " fill="none" id="DocumentNewSection-Document Store" style="stroke:#A80036;stroke-width:1.0;"/><!--MD5=[6673444fe146be33b433a56da3a51c04]
link DocumentMoveImagesToDefaultSection to Document Store--><path d="M888.07,146.91 C856.65,160.16 752.75,203.95 688.67,230.95 " fill="none" id="DocumentMoveImagesToDefaultSection-Document Store" style="stroke:#A80036;stroke-width:1.0;"/><!--MD5=[a1a46dae4dfdc6489e91e6c630dd5853]
link DocumentRenameSection to Document Store--><path d="M1162.11,145.49 C1142.99,150.6 1097.71,162.49 1059.36,171 C938.13,197.88 796.26,224.38 711.49,239.69 " fill="none" id="DocumentRenameSection-Document Store" style="stroke:#A80036;stroke-width:1.0;"/><!--MD5=[980c1b2f8f3221cfdc5c877f1c7b301d]
link DocumentDeleteSection to Document Store--><path d="M439.48,147.87 C466.19,162.13 545.47,204.47 594.9,230.86 " fill="none" id="DocumentDeleteSection-Document Store" style="stroke:#A80036;stroke-width:1.0;"/><!--MD5=[8b685b23647c3d917a78b3a370269003]
link DocumentReorderSections to Document Store--><path d="M650.99,580.73 C649.08,538.2 640.33,343.47 637.36,277.17 " fill="none" id="DocumentReorderSections-Document Store" style="stroke:#A80036;stroke-width:1.0;"/><!--MD5=[f5485f336169a859b2937c3ca57712e6]
link DocumentGetSection to Document Store--><path d="M856.32,581.14 C839.78,566.48 804.06,533.48 779.36,501 C721.04,424.33 668.6,321.73 646.92,277.19 " fill="none" id="DocumentGetSection-Document Store" style="stroke:#A80036;stroke-width:1.0;"/><!--MD5=[a34b777f69c5bef53dc816986366be72]
link DocumentReorderImages to Document Store--><path d="M1074.77,580.93 C1076.09,545.88 1076.36,405.5 1001.36,337 C959.58,298.84 805.57,274.64 711.47,263.07 " fill="none" id="DocumentReorderImages-Document Store" style="stroke:#A80036;stroke-width:1.0;"/><!--MD5=[e8436111c2d4bbc7d7881f6d008405e6]
link DocumentGetPartsInImages to Document Store--><path d="M105.02,580.78 C83.35,546.26 6,411.36 70.36,337 C132.99,264.65 422.17,254.76 561.25,254.29 " fill="none" id="DocumentGetPartsInImages-Document Store" style="stroke:#A80036;stroke-width:1.0;"/><!--MD5=[67dc1bdd5f55addf4b230013ff6ab3a6]
link Document Store to selectDocumentOverview--><path d="M595.89,277.26 C548.18,303.5 472.04,345.38 445.69,359.87 " fill="none" id="Document Store-selectDocumentOverview" style="stroke:#A80036;stroke-width:1.0;"/><!--MD5=[3a7093cef6f73f1c7fa3cc035047b051]
link Document Store to selectDocumentSection--><path d="M688.66,277.13 C752.43,304.11 855.58,347.75 886.99,361.04 " fill="none" id="Document Store-selectDocumentSection" style="stroke:#A80036;stroke-width:1.0;"/><!--MD5=[00b78761b85bee19a7d71a55b8747aea]
link Document Store to selectDocumentPartsInImages--><path d="M561.07,273.91 C450.51,301.67 252.48,351.41 207.58,362.68 " fill="none" id="Document Store-selectDocumentPartsInImages" style="stroke:#A80036;stroke-width:1.0;"/><!--MD5=[76347c9df0f182ee679c41b2253bf36d]
link DocumentPieceComponent to DocumentGetOverview--><path d="M234.05,501.13 C291.52,526.72 382.66,567.31 417.34,582.76 " fill="none" id="DocumentPieceComponent-to-DocumentGetOverview" style="stroke:#A80036;stroke-width:1.0;stroke-dasharray:7.0,7.0;"/><polygon fill="#A80036" points="422.04,584.85,415.4445,577.5357,417.4721,582.8167,412.1911,584.8443,422.04,584.85" style="stroke:#A80036;stroke-width:1.0;"/><!--MD5=[4fe3893fb0cee0d196ca969bc8368a1b]
link ReorderSectionsComponent to DocumentGetOverview--><path d="M431.36,501.26 C431.36,523.56 431.36,557.16 431.36,575.64 " fill="none" id="ReorderSectionsComponent-to-DocumentGetOverview" style="stroke:#A80036;stroke-width:1.0;stroke-dasharray:7.0,7.0;"/><polygon fill="#A80036" points="431.36,580.86,435.36,571.86,431.36,575.86,427.36,571.86,431.36,580.86" style="stroke:#A80036;stroke-width:1.0;"/><!--MD5=[de9e97eef567bcac0846d64aea1e200d]
link DocumentThumbnailComponent to DocumentMoveImagesToSection--><path d="M187.36,53.26 C187.36,75.56 187.36,109.16 187.36,127.64 " fill="none" id="DocumentThumbnailComponent-to-DocumentMoveImagesToSection" style="stroke:#A80036;stroke-width:1.0;stroke-dasharray:7.0,7.0;"/><polygon fill="#A80036" points="187.36,132.86,191.36,123.86,187.36,127.86,183.36,123.86,187.36,132.86" style="stroke:#A80036;stroke-width:1.0;"/><!--MD5=[4778b4b4258b51c94214cb938454dfdf]
link SectionComponent to DocumentNewSection--><path d="M740.05,53.26 C712.51,76.57 670.39,112.2 649.32,130.04 " fill="none" id="SectionComponent-to-DocumentNewSection" style="stroke:#A80036;stroke-width:1.0;stroke-dasharray:7.0,7.0;"/><polygon fill="#A80036" points="645.39,133.36,654.8438,130.5985,649.2064,130.1296,649.6752,124.4923,645.39,133.36" style="stroke:#A80036;stroke-width:1.0;"/><!--MD5=[661a0b2f3047449613d4f528e1a65eb1]
link SectionComponent to DocumentRenameSection--><path d="M847.83,53.13 C947.47,80.19 1108.87,124.03 1157.23,137.16 " fill="none" id="SectionComponent-to-DocumentRenameSection" style="stroke:#A80036;stroke-width:1.0;stroke-dasharray:7.0,7.0;"/><polygon fill="#A80036" points="1162.31,138.54,1154.6594,132.3378,1157.4819,137.2401,1152.5796,140.0627,1162.31,138.54" style="stroke:#A80036;stroke-width:1.0;"/><!--MD5=[e123cd6c8ea83b5fc20214a8b43ab6f3]
link SectionComponent to DocumentDeleteSection--><path d="M698.77,53.13 C617.74,79.65 487.5,122.29 444.58,136.34 " fill="none" id="SectionComponent-to-DocumentDeleteSection" style="stroke:#A80036;stroke-width:1.0;stroke-dasharray:7.0,7.0;"/><polygon fill="#A80036" points="439.79,137.91,449.585,138.9383,444.5461,136.3675,447.117,131.3286,439.79,137.91" style="stroke:#A80036;stroke-width:1.0;"/><!--MD5=[67138f4350e3a775b156ab55744fc18f]
link ReorderSectionsComponent to DocumentReorderSections--><path d="M475.62,501.13 C526.12,526.38 605.82,566.23 637.61,582.12 " fill="none" id="ReorderSectionsComponent-to-DocumentReorderSections" style="stroke:#A80036;stroke-width:1.0;stroke-dasharray:7.0,7.0;"/><polygon fill="#A80036" points="642.28,584.46,636.0287,576.8494,637.8107,582.2182,632.4419,584.0002,642.28,584.46" style="stroke:#A80036;stroke-width:1.0;"/><!--MD5=[1e442d42de3379ea6a129a3057573a5b]
link ReorderImagesComponent to DocumentGetSection--><path d="M900.46,501.26 C891.46,523.75 877.87,557.74 870.52,576.11 " fill="none" id="ReorderImagesComponent-to-DocumentGetSection" style="stroke:#A80036;stroke-width:1.0;stroke-dasharray:7.0,7.0;"/><polygon fill="#A80036" points="868.62,580.86,875.6764,573.9893,870.477,576.2176,868.2486,571.0181,868.62,580.86" style="stroke:#A80036;stroke-width:1.0;"/><!--MD5=[d8935de9daf641c5a0a018a1cfa7f37f]
link ReorderImagesComponent to DocumentReorderImages--><path d="M942.75,501.26 C978.92,525.37 1034.89,562.69 1060.59,579.82 " fill="none" id="ReorderImagesComponent-to-DocumentReorderImages" style="stroke:#A80036;stroke-width:1.0;stroke-dasharray:7.0,7.0;"/><polygon fill="#A80036" points="1065.03,582.78,1059.7603,574.4595,1060.8697,580.0065,1055.3227,581.1159,1065.03,582.78" style="stroke:#A80036;stroke-width:1.0;"/><!--MD5=[6d9f147ab1ad0493c463762942c5d70c]
link DocumentPieceComponent to DocumentGetPartsInImages--><path d="M169.38,501.26 C154.12,523.95 131,558.32 118.72,576.58 " fill="none" id="DocumentPieceComponent-to-DocumentGetPartsInImages" style="stroke:#A80036;stroke-width:1.0;stroke-dasharray:7.0,7.0;"/><polygon fill="#A80036" points="115.84,580.86,124.1813,575.6234,118.63,576.7108,117.5426,571.1594,115.84,580.86" style="stroke:#A80036;stroke-width:1.0;"/><!--MD5=[b0bd3446725dae546d6b6cac3995971b]
link SectionComponent to DocumentMoveImagesToDefaultSection--><path d="M792.87,53.26 C820.63,76.57 863.07,112.2 884.3,130.04 " fill="none" id="SectionComponent-to-DocumentMoveImagesToDefaultSection" style="stroke:#A80036;stroke-width:1.0;stroke-dasharray:7.0,7.0;"/><polygon fill="#A80036" points="888.26,133.36,883.9584,124.5002,884.4377,130.1367,878.8011,130.6159,888.26,133.36" style="stroke:#A80036;stroke-width:1.0;"/><!--MD5=[a4af077be4f2f6b5af866e4a25d4e914]
reverse link selectDocumentOverview to DocumentPieceComponent--><path d="M422.33,373.12 C387.14,388.48 293.72,429.26 234.94,454.92 " fill="none" id="selectDocumentOverview-backto-DocumentPieceComponent" style="stroke:#A80036;stroke-width:1.0;stroke-dasharray:7.0,7.0;"/><polygon fill="#A80036" points="427.09,371.05,417.2414,370.9815,422.5069,373.0488,420.4395,378.3144,427.09,371.05" style="stroke:#A80036;stroke-width:1.0;"/><!--MD5=[beadc9bb4ca8cebe8d331414bd159609]
reverse link selectDocumentOverview to ReorderSectionsComponent--><path d="M435.75,380.5 C434.91,399 433.38,432.47 432.37,454.71 " fill="none" id="selectDocumentOverview-backto-ReorderSectionsComponent" style="stroke:#A80036;stroke-width:1.0;stroke-dasharray:7.0,7.0;"/><polygon fill="#A80036" points="435.98,375.27,431.5732,384.0779,435.7517,380.2648,439.5648,384.4433,435.98,375.27" style="stroke:#A80036;stroke-width:1.0;"/><!--MD5=[c7d04a48c7927de84a807822d749513b]
reverse link selectDocumentSection to ReorderImagesComponent--><path d="M897.96,380.5 C900.14,399 904.1,432.47 906.73,454.71 " fill="none" id="selectDocumentSection-backto-ReorderImagesComponent" style="stroke:#A80036;stroke-width:1.0;stroke-dasharray:7.0,7.0;"/><polygon fill="#A80036" points="897.34,375.27,894.4237,384.6772,897.9267,380.2355,902.3684,383.7385,897.34,375.27" style="stroke:#A80036;stroke-width:1.0;"/><!--MD5=[213b135e70b62945dc62437b278cb6fc]
reverse link selectDocumentPartsInImages to DocumentPieceComponent--><path d="M196.64,380.5 C194.29,399 190.03,432.47 187.2,454.71 " fill="none" id="selectDocumentPartsInImages-backto-DocumentPieceComponent" style="stroke:#A80036;stroke-width:1.0;stroke-dasharray:7.0,7.0;"/><polygon fill="#A80036" points="197.31,375.27,192.2096,383.6953,196.681,380.2303,200.1461,384.7017,197.31,375.27" style="stroke:#A80036;stroke-width:1.0;"/><!--MD5=[6935cd4021a5705cd0bc6168b6f1176a]
@startuml document_store_component
    [Document Store]
    DocumentGetOverview - - [Document Store]
    DocumentMoveImagesToSection - - [Document Store]
    DocumentNewSection - - [Document Store]
    DocumentMoveImagesToDefaultSection - - [Document Store]
    DocumentRenameSection - - [Document Store]
    DocumentDeleteSection - - [Document Store]
    DocumentReorderSections - - [Document Store]
    DocumentGetSection - - [Document Store]
    DocumentReorderImages - - [Document Store]
    DocumentGetPartsInImages - - [Document Store]


    [Document Store] - - selectDocumentOverview
    [Document Store] - - selectDocumentSection
    [Document Store] - - selectDocumentPartsInImages
    

    [DocumentPieceComponent] ..> DocumentGetOverview
    [ReorderSectionsComponent] ..> DocumentGetOverview
    [DocumentThumbnailComponent] ..> DocumentMoveImagesToSection
    [SectionComponent] ..> DocumentNewSection
    [SectionComponent] ..> DocumentRenameSection
    [SectionComponent] ..> DocumentDeleteSection
    [ReorderSectionsComponent] ..> DocumentReorderSections
    [ReorderImagesComponent] ..> DocumentGetSection
    [ReorderImagesComponent] ..> DocumentReorderImages
    [DocumentPieceComponent] ..> DocumentGetPartsInImages
    [SectionComponent] ..> DocumentMoveImagesToDefaultSection

    selectDocumentOverview <.. [DocumentPieceComponent]
    selectDocumentOverview <.. [ReorderSectionsComponent]
    selectDocumentSection <.. [ReorderImagesComponent]
    selectDocumentPartsInImages <.. [DocumentPieceComponent]
@enduml

PlantUML version 1.2021.00(Sun Jan 10 11:25:05 CET 2021)
(GPL source distribution)
Java Runtime: Java(TM) SE Runtime Environment
JVM: Java HotSpot(TM) 64-Bit Server VM
Default Encoding: UTF-8
Language: es
Country: ES
--></g></svg>
