<?xml version="1.0" encoding="UTF-8" standalone="no"?><svg xmlns="http://www.w3.org/2000/svg" xmlns:xlink="http://www.w3.org/1999/xlink" contentScriptType="application/ecmascript" contentStyleType="text/css" height="629px" preserveAspectRatio="none" style="width:968px;height:629px;" version="1.1" viewBox="0 0 968 629" width="968px" zoomAndPan="magnify"><defs><filter height="300%" id="f1x2cc85jwrwne" width="300%" x="-1" y="-1"><feGaussianBlur result="blurOut" stdDeviation="2.0"/><feColorMatrix in="blurOut" result="blurOut2" type="matrix" values="0 0 0 0 0 0 0 0 0 0 0 0 0 0 0 0 0 0 .4 0"/><feOffset dx="4.0" dy="4.0" in="blurOut2" result="blurOut3"/><feBlend in="SourceGraphic" in2="blurOut3" mode="normal"/></filter></defs><g><!--MD5=[790d6364cd2823c662464510b0a53bd1]
entity Document Store--><rect fill="#FEFECE" filter="url(#f1x2cc85jwrwne)" height="46.4883" style="stroke:#A80036;stroke-width:1.5;" width="150" x="496.47" y="231"/><rect fill="#FEFECE" height="10" style="stroke:#A80036;stroke-width:1.5;" width="15" x="626.47" y="236"/><rect fill="#FEFECE" height="2" style="stroke:#A80036;stroke-width:1.5;" width="4" x="624.47" y="238"/><rect fill="#FEFECE" height="2" style="stroke:#A80036;stroke-width:1.5;" width="4" x="624.47" y="242"/><text fill="#000000" font-family="sans-serif" font-size="14" lengthAdjust="spacing" textLength="110" x="511.47" y="264.5352">Document Store</text><!--MD5=[f00da9291304be3a1eb270dee07ac49d]
entity DocumentGetOverview--><ellipse cx="154.47" cy="590" fill="#FEFECE" filter="url(#f1x2cc85jwrwne)" rx="8" ry="8" style="stroke:#A80036;stroke-width:1.5;"/><text fill="#000000" font-family="sans-serif" font-size="14" lengthAdjust="spacing" textLength="155" x="76.97" y="620.5352">DocumentGetOverview</text><!--MD5=[0372d6f0842501758b1a8129c70603bb]
entity DocumentMoveImagesToSection--><ellipse cx="213.47" cy="142" fill="#FEFECE" filter="url(#f1x2cc85jwrwne)" rx="8" ry="8" style="stroke:#A80036;stroke-width:1.5;"/><text fill="#000000" font-family="sans-serif" font-size="14" lengthAdjust="spacing" textLength="223" x="101.97" y="172.5352">DocumentMoveImagesToSection</text><!--MD5=[92947d3a2aa951922a87dcc7b087b575]
entity DocumentNewSection--><ellipse cx="887.47" cy="142" fill="#FEFECE" filter="url(#f1x2cc85jwrwne)" rx="8" ry="8" style="stroke:#A80036;stroke-width:1.5;"/><text fill="#000000" font-family="sans-serif" font-size="14" lengthAdjust="spacing" textLength="149" x="812.97" y="172.5352">DocumentNewSection</text><!--MD5=[69f0010fe081a2b8a0be536dca60abc2]
entity DocumentRenameSection--><ellipse cx="462.47" cy="142" fill="#FEFECE" filter="url(#f1x2cc85jwrwne)" rx="8" ry="8" style="stroke:#A80036;stroke-width:1.5;"/><text fill="#000000" font-family="sans-serif" font-size="14" lengthAdjust="spacing" textLength="175" x="374.97" y="172.5352">DocumentRenameSection</text><!--MD5=[a2ed2fb907a2633cbb58875ddb837929]
entity DocumentDeleteSection--><ellipse cx="681.47" cy="142" fill="#FEFECE" filter="url(#f1x2cc85jwrwne)" rx="8" ry="8" style="stroke:#A80036;stroke-width:1.5;"/><text fill="#000000" font-family="sans-serif" font-size="14" lengthAdjust="spacing" textLength="163" x="599.97" y="172.5352">DocumentDeleteSection</text><!--MD5=[9d96b0644b52ee80e390f6fe1d63d812]
entity DocumentReorderSections--><ellipse cx="462.47" cy="590" fill="#FEFECE" filter="url(#f1x2cc85jwrwne)" rx="8" ry="8" style="stroke:#A80036;stroke-width:1.5;"/><text fill="#000000" font-family="sans-serif" font-size="14" lengthAdjust="spacing" textLength="182" x="371.47" y="620.5352">DocumentReorderSections</text><!--MD5=[42c59677e9bc3a08b9fe81ae2fe6b41f]
entity DocumentGetSection--><ellipse cx="820.47" cy="590" fill="#FEFECE" filter="url(#f1x2cc85jwrwne)" rx="8" ry="8" style="stroke:#A80036;stroke-width:1.5;"/><text fill="#000000" font-family="sans-serif" font-size="14" lengthAdjust="spacing" textLength="143" x="748.97" y="620.5352">DocumentGetSection</text><!--MD5=[f27c98c9e58a14ce798efb21f7e53ee0]
entity selectDocumentOverview--><ellipse cx="401.47" cy="366" fill="#FEFECE" filter="url(#f1x2cc85jwrwne)" rx="8" ry="8" style="stroke:#A80036;stroke-width:1.5;"/><text fill="#000000" font-family="sans-serif" font-size="14" lengthAdjust="spacing" textLength="171" x="315.97" y="396.5352">selectDocumentOverview</text><!--MD5=[8d4c42dcfa0928f0a1d6a554dcb28b7c]
entity selectDocumentSection--><ellipse cx="724.47" cy="366" fill="#FEFECE" filter="url(#f1x2cc85jwrwne)" rx="8" ry="8" style="stroke:#A80036;stroke-width:1.5;"/><text fill="#000000" font-family="sans-serif" font-size="14" lengthAdjust="spacing" textLength="159" x="644.97" y="396.5352">selectDocumentSection</text><!--MD5=[422d10d901d47f36978e82d8272e9edf]
entity DocumentComponent--><rect fill="#FEFECE" filter="url(#f1x2cc85jwrwne)" height="46.4883" style="stroke:#A80036;stroke-width:1.5;" width="191" x="58.97" y="455"/><rect fill="#FEFECE" height="10" style="stroke:#A80036;stroke-width:1.5;" width="15" x="229.97" y="460"/><rect fill="#FEFECE" height="2" style="stroke:#A80036;stroke-width:1.5;" width="4" x="227.97" y="462"/><rect fill="#FEFECE" height="2" style="stroke:#A80036;stroke-width:1.5;" width="4" x="227.97" y="466"/><text fill="#000000" font-family="sans-serif" font-size="14" lengthAdjust="spacing" textLength="151" x="73.97" y="488.5352">DocumentComponent</text><!--MD5=[b3be6c2ee089c61b6eae1d3ece11e65e]
entity ReorderSectionsComponent--><rect fill="#FEFECE" filter="url(#f1x2cc85jwrwne)" height="46.4883" style="stroke:#A80036;stroke-width:1.5;" width="233" x="284.97" y="455"/><rect fill="#FEFECE" height="10" style="stroke:#A80036;stroke-width:1.5;" width="15" x="497.97" y="460"/><rect fill="#FEFECE" height="2" style="stroke:#A80036;stroke-width:1.5;" width="4" x="495.97" y="462"/><rect fill="#FEFECE" height="2" style="stroke:#A80036;stroke-width:1.5;" width="4" x="495.97" y="466"/><text fill="#000000" font-family="sans-serif" font-size="14" lengthAdjust="spacing" textLength="193" x="299.97" y="488.5352">ReorderSectionsComponent</text><!--MD5=[2513ac44917036a3b39dea6bdc8f6293]
entity DocumentThumbnailComponent--><rect fill="#FEFECE" filter="url(#f1x2cc85jwrwne)" height="46.4883" style="stroke:#A80036;stroke-width:1.5;" width="265" x="80.97" y="7"/><rect fill="#FEFECE" height="10" style="stroke:#A80036;stroke-width:1.5;" width="15" x="325.97" y="12"/><rect fill="#FEFECE" height="2" style="stroke:#A80036;stroke-width:1.5;" width="4" x="323.97" y="14"/><rect fill="#FEFECE" height="2" style="stroke:#A80036;stroke-width:1.5;" width="4" x="323.97" y="18"/><text fill="#000000" font-family="sans-serif" font-size="14" lengthAdjust="spacing" textLength="225" x="95.97" y="40.5352">DocumentThumbnailComponent</text><!--MD5=[276f789c8be6e17a0f6b1f32aa033c02]
entity SectionComponent--><rect fill="#FEFECE" filter="url(#f1x2cc85jwrwne)" height="46.4883" style="stroke:#A80036;stroke-width:1.5;" width="171" x="595.97" y="7"/><rect fill="#FEFECE" height="10" style="stroke:#A80036;stroke-width:1.5;" width="15" x="746.97" y="12"/><rect fill="#FEFECE" height="2" style="stroke:#A80036;stroke-width:1.5;" width="4" x="744.97" y="14"/><rect fill="#FEFECE" height="2" style="stroke:#A80036;stroke-width:1.5;" width="4" x="744.97" y="18"/><text fill="#000000" font-family="sans-serif" font-size="14" lengthAdjust="spacing" textLength="131" x="610.97" y="40.5352">SectionComponent</text><!--MD5=[dd92d5e8d3741ce9c054af6265ff6201]
entity ReorderImagesComponent--><rect fill="#FEFECE" filter="url(#f1x2cc85jwrwne)" height="46.4883" style="stroke:#A80036;stroke-width:1.5;" width="225" x="624.97" y="455"/><rect fill="#FEFECE" height="10" style="stroke:#A80036;stroke-width:1.5;" width="15" x="829.97" y="460"/><rect fill="#FEFECE" height="2" style="stroke:#A80036;stroke-width:1.5;" width="4" x="827.97" y="462"/><rect fill="#FEFECE" height="2" style="stroke:#A80036;stroke-width:1.5;" width="4" x="827.97" y="466"/><text fill="#000000" font-family="sans-serif" font-size="14" lengthAdjust="spacing" textLength="185" x="639.97" y="488.5352">ReorderImagesComponent</text><!--MD5=[1d4152c8b64c990c40be7074907d01d6]
link DocumentGetOverview to Document Store--><path d="M145.4,584.72 C112.88,568.81 6,511.06 41.47,455 C139.28,300.42 374.74,264.88 496.2,257.01 " fill="none" id="DocumentGetOverview-Document Store" style="stroke:#A80036;stroke-width:1.0;"/><!--MD5=[8501db6d87b6fb280208cc6bb0e26405]
link DocumentMoveImagesToSection to Document Store--><path d="M222.68,145.83 C260.88,157.57 409.06,203.1 499.54,230.9 " fill="none" id="DocumentMoveImagesToSection-Document Store" style="stroke:#A80036;stroke-width:1.0;"/><!--MD5=[b9eb8e4665983f617f3ef4cb0996a758]
link DocumentNewSection to Document Store--><path d="M878.35,146.17 C843.14,158.43 714.02,203.38 634.92,230.91 " fill="none" id="DocumentNewSection-Document Store" style="stroke:#A80036;stroke-width:1.0;"/><!--MD5=[a1a46dae4dfdc6489e91e6c630dd5853]
link DocumentRenameSection to Document Store--><path d="M470.66,151.27 C487.2,167.96 525.06,206.16 549.39,230.71 " fill="none" id="DocumentRenameSection-Document Store" style="stroke:#A80036;stroke-width:1.0;"/><!--MD5=[980c1b2f8f3221cfdc5c877f1c7b301d]
link DocumentDeleteSection to Document Store--><path d="M673.2,151.27 C656.51,167.96 618.31,206.16 593.76,230.71 " fill="none" id="DocumentDeleteSection-Document Store" style="stroke:#A80036;stroke-width:1.0;"/><!--MD5=[8b685b23647c3d917a78b3a370269003]
link DocumentReorderSections to Document Store--><path d="M471.72,581.11 C487.69,566.9 520.21,535.27 535.47,501 C569.71,424.11 572.67,321.62 572.14,277.15 " fill="none" id="DocumentReorderSections-Document Store" style="stroke:#A80036;stroke-width:1.0;"/><!--MD5=[f5485f336169a859b2937c3ca57712e6]
link DocumentGetSection to Document Store--><path d="M826.64,580.83 C837.46,565.93 859.48,532.92 867.47,501 C885.64,428.42 882.48,389.8 829.47,337 C780.86,288.57 703.78,268.71 646.51,260.58 " fill="none" id="DocumentGetSection-Document Store" style="stroke:#A80036;stroke-width:1.0;"/><!--MD5=[67dc1bdd5f55addf4b230013ff6ab3a6]
link Document Store to selectDocumentOverview--><path d="M537.07,277.26 C497.29,303 434.27,343.78 410.74,359.01 " fill="none" id="Document Store-selectDocumentOverview" style="stroke:#A80036;stroke-width:1.0;"/><!--MD5=[3a7093cef6f73f1c7fa3cc035047b051]
link Document Store to selectDocumentSection--><path d="M602.43,277.26 C637.71,302.62 693.3,342.59 715.18,358.32 " fill="none" id="Document Store-selectDocumentSection" style="stroke:#A80036;stroke-width:1.0;"/><!--MD5=[76347c9df0f182ee679c41b2253bf36d]
link DocumentComponent to DocumentGetOverview--><path d="M154.47,501.26 C154.47,523.56 154.47,557.16 154.47,575.64 " fill="none" id="DocumentComponent-to-DocumentGetOverview" style="stroke:#A80036;stroke-width:1.0;stroke-dasharray:7.0,7.0;"/><polygon fill="#A80036" points="154.47,580.86,158.47,571.86,154.47,575.86,150.47,571.86,154.47,580.86" style="stroke:#A80036;stroke-width:1.0;"/><!--MD5=[4fe3893fb0cee0d196ca969bc8368a1b]
link ReorderSectionsComponent to DocumentGetOverview--><path d="M351.78,501.13 C294.32,526.72 203.17,567.31 168.49,582.76 " fill="none" id="ReorderSectionsComponent-to-DocumentGetOverview" style="stroke:#A80036;stroke-width:1.0;stroke-dasharray:7.0,7.0;"/><polygon fill="#A80036" points="163.79,584.85,173.6389,584.8443,168.3579,582.8167,170.3855,577.5357,163.79,584.85" style="stroke:#A80036;stroke-width:1.0;"/><!--MD5=[de9e97eef567bcac0846d64aea1e200d]
link DocumentThumbnailComponent to DocumentMoveImagesToSection--><path d="M213.47,53.26 C213.47,75.56 213.47,109.16 213.47,127.64 " fill="none" id="DocumentThumbnailComponent-to-DocumentMoveImagesToSection" style="stroke:#A80036;stroke-width:1.0;stroke-dasharray:7.0,7.0;"/><polygon fill="#A80036" points="213.47,132.86,217.47,123.86,213.47,127.86,209.47,123.86,213.47,132.86" style="stroke:#A80036;stroke-width:1.0;"/><!--MD5=[4778b4b4258b51c94214cb938454dfdf]
link SectionComponent to DocumentNewSection--><path d="M723.16,53.26 C770.03,78.29 843.53,117.54 873.77,133.69 " fill="none" id="SectionComponent-to-DocumentNewSection" style="stroke:#A80036;stroke-width:1.0;stroke-dasharray:7.0,7.0;"/><polygon fill="#A80036" points="878.24,136.07,872.1851,128.3022,873.8294,133.7148,868.4168,135.3592,878.24,136.07" style="stroke:#A80036;stroke-width:1.0;"/><!--MD5=[661a0b2f3047449613d4f528e1a65eb1]
link SectionComponent to DocumentRenameSection--><path d="M637.42,53.13 C587.15,78.38 507.81,118.23 476.16,134.12 " fill="none" id="SectionComponent-to-DocumentRenameSection" style="stroke:#A80036;stroke-width:1.0;stroke-dasharray:7.0,7.0;"/><polygon fill="#A80036" points="471.5,136.46,481.3381,136.0002,475.9693,134.2182,477.7513,128.8494,471.5,136.46" style="stroke:#A80036;stroke-width:1.0;"/><!--MD5=[e123cd6c8ea83b5fc20214a8b43ab6f3]
link SectionComponent to DocumentDeleteSection--><path d="M681.47,53.26 C681.47,75.56 681.47,109.16 681.47,127.64 " fill="none" id="SectionComponent-to-DocumentDeleteSection" style="stroke:#A80036;stroke-width:1.0;stroke-dasharray:7.0,7.0;"/><polygon fill="#A80036" points="681.47,132.86,685.47,123.86,681.47,127.86,677.47,123.86,681.47,132.86" style="stroke:#A80036;stroke-width:1.0;"/><!--MD5=[67138f4350e3a775b156ab55744fc18f]
link ReorderSectionsComponent to DocumentReorderSections--><path d="M413.81,501.26 C426.29,523.75 445.13,557.74 455.32,576.11 " fill="none" id="ReorderSectionsComponent-to-DocumentReorderSections" style="stroke:#A80036;stroke-width:1.0;stroke-dasharray:7.0,7.0;"/><polygon fill="#A80036" points="457.95,580.86,457.0758,571.05,455.5218,576.4892,450.0826,574.9352,457.95,580.86" style="stroke:#A80036;stroke-width:1.0;"/><!--MD5=[1e442d42de3379ea6a129a3057573a5b]
link ReorderImagesComponent to DocumentGetSection--><path d="M754.27,501.26 C771.38,523.95 797.32,558.32 811.1,576.58 " fill="none" id="ReorderImagesComponent-to-DocumentGetSection" style="stroke:#A80036;stroke-width:1.0;stroke-dasharray:7.0,7.0;"/><polygon fill="#A80036" points="814.33,580.86,812.0916,571.2689,811.314,576.872,805.7109,576.0945,814.33,580.86" style="stroke:#A80036;stroke-width:1.0;"/><!--MD5=[a4af077be4f2f6b5af866e4a25d4e914]
reverse link selectDocumentOverview to DocumentComponent--><path d="M387.72,373.12 C353.23,388.48 261.66,429.26 204.05,454.92 " fill="none" id="selectDocumentOverview-backto-DocumentComponent" style="stroke:#A80036;stroke-width:1.0;stroke-dasharray:7.0,7.0;"/><polygon fill="#A80036" points="392.39,371.05,382.5411,371.0443,387.8198,373.078,385.786,378.3567,392.39,371.05" style="stroke:#A80036;stroke-width:1.0;"/><!--MD5=[beadc9bb4ca8cebe8d331414bd159609]
reverse link selectDocumentOverview to ReorderSectionsComponent--><path d="M401.47,380.5 C401.47,399 401.47,432.47 401.47,454.71 " fill="none" id="selectDocumentOverview-backto-ReorderSectionsComponent" style="stroke:#A80036;stroke-width:1.0;stroke-dasharray:7.0,7.0;"/><polygon fill="#A80036" points="401.47,375.27,397.47,384.27,401.47,380.27,405.47,384.27,401.47,375.27" style="stroke:#A80036;stroke-width:1.0;"/><!--MD5=[c7d04a48c7927de84a807822d749513b]
reverse link selectDocumentSection to ReorderImagesComponent--><path d="M726.07,380.5 C728.25,399 732.21,432.47 734.84,454.71 " fill="none" id="selectDocumentSection-backto-ReorderImagesComponent" style="stroke:#A80036;stroke-width:1.0;stroke-dasharray:7.0,7.0;"/><polygon fill="#A80036" points="725.45,375.27,722.5337,384.6772,726.0367,380.2355,730.4784,383.7385,725.45,375.27" style="stroke:#A80036;stroke-width:1.0;"/><!--MD5=[caeb3854398240238c0a8432a58412d7]
@startuml document_store_component
    [Document Store]
    DocumentGetOverview - - [Document Store]
    DocumentMoveImagesToSection - - [Document Store]
    DocumentNewSection - - [Document Store]
    DocumentRenameSection - - [Document Store]
    DocumentDeleteSection - - [Document Store]
    DocumentReorderSections - - [Document Store]
    DocumentGetSection - - [Document Store]

    [Document Store] - - selectDocumentOverview
    [Document Store] - - selectDocumentSection
    

    [DocumentComponent] ..> DocumentGetOverview
    [ReorderSectionsComponent] ..> DocumentGetOverview
    [DocumentThumbnailComponent] ..> DocumentMoveImagesToSection
    [SectionComponent] ..> DocumentNewSection
    [SectionComponent] ..> DocumentRenameSection
    [SectionComponent] ..> DocumentDeleteSection
    [ReorderSectionsComponent] ..> DocumentReorderSections
    [ReorderImagesComponent] ..> DocumentGetSection

    selectDocumentOverview <.. [DocumentComponent]
    selectDocumentOverview <.. [ReorderSectionsComponent]
    selectDocumentSection <.. [ReorderImagesComponent]
@enduml

PlantUML version 1.2021.00(Sun Jan 10 11:25:05 CET 2021)
(GPL source distribution)
Java Runtime: Java(TM) SE Runtime Environment
JVM: Java HotSpot(TM) 64-Bit Server VM
Default Encoding: UTF-8
Language: es
Country: ES
--></g></svg>