<?xml version="1.0" encoding="UTF-8" standalone="no"?><svg xmlns="http://www.w3.org/2000/svg" xmlns:xlink="http://www.w3.org/1999/xlink" contentScriptType="application/ecmascript" contentStyleType="text/css" height="762px" preserveAspectRatio="none" style="width:1578px;height:762px;" version="1.1" viewBox="0 0 1578 762" width="1578px" zoomAndPan="magnify"><defs><filter height="300%" id="fekdzztsnao78" width="300%" x="-1" y="-1"><feGaussianBlur result="blurOut" stdDeviation="2.0"/><feColorMatrix in="blurOut" result="blurOut2" type="matrix" values="0 0 0 0 0 0 0 0 0 0 0 0 0 0 0 0 0 0 .4 0"/><feOffset dx="4.0" dy="4.0" in="blurOut2" result="blurOut3"/><feBlend in="SourceGraphic" in2="blurOut3" mode="normal"/></filter></defs><g><!--MD5=[422d10d901d47f36978e82d8272e9edf]
entity DocumentPieceComponent--><rect fill="#FEFECE" filter="url(#fekdzztsnao78)" height="46.4883" style="stroke:#A80036;stroke-width:1.5;" width="191" x="404.42" y="7"/><rect fill="#FEFECE" height="10" style="stroke:#A80036;stroke-width:1.5;" width="15" x="575.42" y="12"/><rect fill="#FEFECE" height="2" style="stroke:#A80036;stroke-width:1.5;" width="4" x="573.42" y="14"/><rect fill="#FEFECE" height="2" style="stroke:#A80036;stroke-width:1.5;" width="4" x="573.42" y="18"/><text fill="#000000" font-family="sans-serif" font-size="14" lengthAdjust="spacing" textLength="151" x="419.42" y="40.5352">DocumentPieceComponent</text><!--MD5=[5daeec05c9d0c033e45bd00d75d807b8]
entity section--><ellipse cx="269.92" cy="143" fill="#FEFECE" filter="url(#fekdzztsnao78)" rx="8" ry="8" style="stroke:#A80036;stroke-width:1.5;"/><text fill="#000000" font-family="sans-serif" font-size="14" lengthAdjust="spacing" textLength="49" x="245.42" y="173.5352">section</text><!--MD5=[be3177e635a366f8ecb2c5675e730f47]
entity sections--><ellipse cx="372.92" cy="143" fill="#FEFECE" filter="url(#fekdzztsnao78)" rx="8" ry="8" style="stroke:#A80036;stroke-width:1.5;"/><text fill="#000000" font-family="sans-serif" font-size="14" lengthAdjust="spacing" textLength="56" x="344.92" y="173.5352">sections</text><!--MD5=[bb4ae9a87c33808cde08968737666fac]
entity includeNewSection--><ellipse cx="515.92" cy="143" fill="#FEFECE" filter="url(#fekdzztsnao78)" rx="8" ry="8" style="stroke:#A80036;stroke-width:1.5;"/><text fill="#000000" font-family="sans-serif" font-size="14" lengthAdjust="spacing" textLength="129" x="451.42" y="173.5352">includeNewSection</text><!--MD5=[4f62c0890fcd716f59b98a2e6e3922b4]
entity imageOverview--><ellipse cx="697.92" cy="143" fill="#FEFECE" filter="url(#fekdzztsnao78)" rx="8" ry="8" style="stroke:#A80036;stroke-width:1.5;"/><text fill="#000000" font-family="sans-serif" font-size="14" lengthAdjust="spacing" textLength="134" x="630.92" y="173.5352">imageOverview</text><!--MD5=[5cc73742f4f885359ebfbdc1634c0fb4]
entity images--><ellipse cx="839.92" cy="143" fill="#FEFECE" filter="url(#fekdzztsnao78)" rx="8" ry="8" style="stroke:#A80036;stroke-width:1.5;"/><text fill="#000000" font-family="sans-serif" font-size="14" lengthAdjust="spacing" textLength="49" x="815.42" y="173.5352">images</text><!--MD5=[f6778eeac42564a83d8081e6d81d8a86]
entity selectionManager--><ellipse cx="193.92" cy="143" fill="#FEFECE" filter="url(#fekdzztsnao78)" rx="8" ry="8" style="stroke:#A80036;stroke-width:1.5;"/><text fill="#000000" font-family="sans-serif" font-size="14" lengthAdjust="spacing" textLength="121" x="133.42" y="173.5352">selectionManager</text><!--MD5=[0d2c128b7af9413d6fc89c8836def91f]
entity partsInImages--><ellipse cx="962.92" cy="143" fill="#FEFECE" filter="url(#fekdzztsnao78)" rx="8" ry="8" style="stroke:#A80036;stroke-width:1.5;"/><text fill="#000000" font-family="sans-serif" font-size="14" lengthAdjust="spacing" textLength="97" x="914.42" y="173.5352">partsInImages</text><!--MD5=[276f789c8be6e17a0f6b1f32aa033c02]
entity SectionComponent--><rect fill="#FEFECE" filter="url(#fekdzztsnao78)" height="46.4883" style="stroke:#A80036;stroke-width:1.5;" width="171" x="695.42" y="233"/><rect fill="#FEFECE" height="10" style="stroke:#A80036;stroke-width:1.5;" width="15" x="846.42" y="238"/><rect fill="#FEFECE" height="2" style="stroke:#A80036;stroke-width:1.5;" width="4" x="844.42" y="240"/><rect fill="#FEFECE" height="2" style="stroke:#A80036;stroke-width:1.5;" width="4" x="844.42" y="244"/><text fill="#000000" font-family="sans-serif" font-size="14" lengthAdjust="spacing" textLength="131" x="710.42" y="266.5352">SectionComponent</text><!--MD5=[24a840a941c9287603c1fa72ded60e98]
entity documentParts--><ellipse cx="1112.92" cy="143" fill="#FEFECE" filter="url(#fekdzztsnao78)" rx="8" ry="8" style="stroke:#A80036;stroke-width:1.5;"/><text fill="#000000" font-family="sans-serif" font-size="14" lengthAdjust="spacing" textLength="103" x="1061.42" y="173.5352">documentParts</text><!--MD5=[8036799954db4ddffb9a6a194433648d]
entity documentPath--><ellipse cx="1263.92" cy="143" fill="#FEFECE" filter="url(#fekdzztsnao78)" rx="8" ry="8" style="stroke:#A80036;stroke-width:1.5;"/><text fill="#000000" font-family="sans-serif" font-size="14" lengthAdjust="spacing" textLength="99" x="1214.42" y="173.5352">documentPath</text><!--MD5=[b05ffff1ac8a5c735c3d95d0096a3576]
entity SectionComponent.documentPath--><ellipse cx="446.92" cy="386" fill="#FEFECE" filter="url(#fekdzztsnao78)" rx="8" ry="8" style="stroke:#A80036;stroke-width:1.5;"/><text fill="#000000" font-family="sans-serif" font-size="14" lengthAdjust="spacing" textLength="99" x="397.42" y="416.5352">documentPath</text><!--MD5=[146dcbb29c78cc7a8f82214a7850572c]
entity SectionComponent.section--><ellipse cx="570.92" cy="386" fill="#FEFECE" filter="url(#fekdzztsnao78)" rx="8" ry="8" style="stroke:#A80036;stroke-width:1.5;"/><text fill="#000000" font-family="sans-serif" font-size="14" lengthAdjust="spacing" textLength="49" x="546.42" y="416.5352">section</text><!--MD5=[d646c3bea8d88d82fc239eb67c77039e]
entity SectionComponent.sections--><ellipse cx="673.92" cy="386" fill="#FEFECE" filter="url(#fekdzztsnao78)" rx="8" ry="8" style="stroke:#A80036;stroke-width:1.5;"/><text fill="#000000" font-family="sans-serif" font-size="14" lengthAdjust="spacing" textLength="56" x="645.92" y="416.5352">sections</text><!--MD5=[e7acd4f0eeb54d436aab207389161058]
entity SectionComponent.imageID--><ellipse cx="780.92" cy="386" fill="#FEFECE" filter="url(#fekdzztsnao78)" rx="8" ry="8" style="stroke:#A80036;stroke-width:1.5;"/><text fill="#000000" font-family="sans-serif" font-size="14" lengthAdjust="spacing" textLength="56" x="752.92" y="416.5352">imageID</text><!--MD5=[e1ad8402770906144a3560242b0105ac]
entity SectionComponent.filename--><ellipse cx="888.92" cy="386" fill="#FEFECE" filter="url(#fekdzztsnao78)" rx="8" ry="8" style="stroke:#A80036;stroke-width:1.5;"/><text fill="#000000" font-family="sans-serif" font-size="14" lengthAdjust="spacing" textLength="59" x="859.42" y="416.5352">filename</text><!--MD5=[7a6addc3b0c3da9077339403a31ab1ef]
entity SectionComponent.documentParts--><ellipse cx="1019.92" cy="386" fill="#FEFECE" filter="url(#fekdzztsnao78)" rx="8" ry="8" style="stroke:#A80036;stroke-width:1.5;"/><text fill="#000000" font-family="sans-serif" font-size="14" lengthAdjust="spacing" textLength="103" x="968.42" y="416.5352">documentParts</text><!--MD5=[6bbe74497436e6d0c59e917bc4320ad5]
entity SectionComponent.selectionManager--><ellipse cx="1181.92" cy="386" fill="#FEFECE" filter="url(#fekdzztsnao78)" rx="8" ry="8" style="stroke:#A80036;stroke-width:1.5;"/><text fill="#000000" font-family="sans-serif" font-size="14" lengthAdjust="spacing" textLength="121" x="1121.42" y="416.5352">selectionManager</text><!--MD5=[095307cf1ca0dd0cfd716f27e1500bf3]
entity SectionComponent.imagePartIds--><ellipse cx="1336.92" cy="386" fill="#FEFECE" filter="url(#fekdzztsnao78)" rx="8" ry="8" style="stroke:#A80036;stroke-width:1.5;"/><text fill="#000000" font-family="sans-serif" font-size="14" lengthAdjust="spacing" textLength="89" x="1292.42" y="416.5352">imagePartIds</text><!--MD5=[2513ac44917036a3b39dea6bdc8f6293]
entity DocumentThumbnailComponent--><rect fill="#FEFECE" filter="url(#fekdzztsnao78)" height="46.4883" style="stroke:#A80036;stroke-width:1.5;" width="265" x="541.42" y="476"/><rect fill="#FEFECE" height="10" style="stroke:#A80036;stroke-width:1.5;" width="15" x="786.42" y="481"/><rect fill="#FEFECE" height="2" style="stroke:#A80036;stroke-width:1.5;" width="4" x="784.42" y="483"/><rect fill="#FEFECE" height="2" style="stroke:#A80036;stroke-width:1.5;" width="4" x="784.42" y="487"/><text fill="#000000" font-family="sans-serif" font-size="14" lengthAdjust="spacing" textLength="225" x="556.42" y="509.5352">DocumentThumbnailComponent</text><!--MD5=[89b4217f7573c073ee153f8b9065cd2e]
entity DocumentThumbnailComponent.documentParts--><ellipse cx="601.92" cy="612" fill="#FEFECE" filter="url(#fekdzztsnao78)" rx="8" ry="8" style="stroke:#A80036;stroke-width:1.5;"/><text fill="#000000" font-family="sans-serif" font-size="14" lengthAdjust="spacing" textLength="103" x="550.42" y="642.5352">documentParts</text><!--MD5=[93e8300beff9aa49f3d4368cb59fffbf]
entity DocumentThumbnailComponent.imagePartIds--><ellipse cx="747.92" cy="612" fill="#FEFECE" filter="url(#fekdzztsnao78)" rx="8" ry="8" style="stroke:#A80036;stroke-width:1.5;"/><text fill="#000000" font-family="sans-serif" font-size="14" lengthAdjust="spacing" textLength="89" x="703.42" y="642.5352">imagePartIds</text><!--MD5=[db12b90aa576e72ab989f41afaa390d7]
entity ImagePartsComponent--><rect fill="#FEFECE" filter="url(#fekdzztsnao78)" height="46.4883" style="stroke:#A80036;stroke-width:1.5;" width="197" x="575.42" y="702"/><rect fill="#FEFECE" height="10" style="stroke:#A80036;stroke-width:1.5;" width="15" x="752.42" y="707"/><rect fill="#FEFECE" height="2" style="stroke:#A80036;stroke-width:1.5;" width="4" x="750.42" y="709"/><rect fill="#FEFECE" height="2" style="stroke:#A80036;stroke-width:1.5;" width="4" x="750.42" y="713"/><text fill="#000000" font-family="sans-serif" font-size="14" lengthAdjust="spacing" textLength="157" x="590.42" y="735.5352">ImagePartsComponent</text><!--MD5=[3e5a47eebac61bb1762ce40fe934aec2]
entity DocumentThumbnailComponent.imageID--><ellipse cx="1459.92" cy="386" fill="#FEFECE" filter="url(#fekdzztsnao78)" rx="8" ry="8" style="stroke:#A80036;stroke-width:1.5;"/><text fill="#000000" font-family="sans-serif" font-size="14" lengthAdjust="spacing" textLength="56" x="1431.92" y="416.5352">imageID</text><!--MD5=[f3adda4c565890df652616bc2e390859]
entity ImagePhasesComponent--><rect fill="#FEFECE" filter="url(#fekdzztsnao78)" height="46.4883" style="stroke:#A80036;stroke-width:1.5;" width="210" x="1354.92" y="476"/><rect fill="#FEFECE" height="10" style="stroke:#A80036;stroke-width:1.5;" width="15" x="1544.92" y="481"/><rect fill="#FEFECE" height="2" style="stroke:#A80036;stroke-width:1.5;" width="4" x="1542.92" y="483"/><rect fill="#FEFECE" height="2" style="stroke:#A80036;stroke-width:1.5;" width="4" x="1542.92" y="487"/><text fill="#000000" font-family="sans-serif" font-size="14" lengthAdjust="spacing" textLength="170" x="1369.92" y="509.5352">ImagePhasesComponent</text><!--MD5=[83fd7e255857b59383b8fca86d21d34e]
entity appSelectableContainer--><rect fill="#FEFECE" filter="url(#fekdzztsnao78)" height="46.4883" style="stroke:#A80036;stroke-width:1.5;" width="203" x="151.42" y="7"/><rect fill="#FEFECE" height="10" style="stroke:#A80036;stroke-width:1.5;" width="15" x="334.42" y="12"/><rect fill="#FEFECE" height="2" style="stroke:#A80036;stroke-width:1.5;" width="4" x="332.42" y="14"/><rect fill="#FEFECE" height="2" style="stroke:#A80036;stroke-width:1.5;" width="4" x="332.42" y="18"/><text fill="#000000" font-family="sans-serif" font-size="14" lengthAdjust="spacing" textLength="163" x="166.42" y="40.5352">appSelectableContainer</text><!--MD5=[f8eed75155db1ed039f2b1bb0d1dc7e6]
entity appSelectable--><rect fill="#FEFECE" filter="url(#fekdzztsnao78)" height="46.4883" style="stroke:#A80036;stroke-width:1.5;" width="135" x="126.42" y="233"/><rect fill="#FEFECE" height="10" style="stroke:#A80036;stroke-width:1.5;" width="15" x="241.42" y="238"/><rect fill="#FEFECE" height="2" style="stroke:#A80036;stroke-width:1.5;" width="4" x="239.42" y="240"/><rect fill="#FEFECE" height="2" style="stroke:#A80036;stroke-width:1.5;" width="4" x="239.42" y="244"/><text fill="#000000" font-family="sans-serif" font-size="14" lengthAdjust="spacing" textLength="95" x="141.42" y="266.5352">appSelectable</text><!--MD5=[a63bb26af5ab598003175d1eff59f093]
entity DocumentThumbnailComponent.onSelected--><ellipse cx="136.92" cy="318" fill="#FEFECE" filter="url(#fekdzztsnao78)" rx="8" ry="8" style="stroke:#A80036;stroke-width:1.5;"/><text fill="#000000" font-family="sans-serif" font-size="14" lengthAdjust="spacing" textLength="75" x="99.42" y="348.5352">onSelected</text><!--MD5=[5883e8e70bed0fea487aec9e8080ab12]
entity DocumentThumbnailComponent.onDeselected--><ellipse cx="193.92" cy="386" fill="#FEFECE" filter="url(#fekdzztsnao78)" rx="8" ry="8" style="stroke:#A80036;stroke-width:1.5;"/><text fill="#000000" font-family="sans-serif" font-size="14" lengthAdjust="spacing" textLength="92" x="147.92" y="416.5352">onDeselected</text><!--MD5=[c3bb7dc03be7bcbd28a7c95e3144ecb6]
entity DocumentThumbnailComponent.modelID--><ellipse cx="318.92" cy="386" fill="#FEFECE" filter="url(#fekdzztsnao78)" rx="8" ry="8" style="stroke:#A80036;stroke-width:1.5;"/><text fill="#000000" font-family="sans-serif" font-size="14" lengthAdjust="spacing" textLength="57" x="290.42" y="416.5352">modelID</text><!--MD5=[94b0688c05e80df8d1eb889d3848c4a3]
link DocumentPieceComponent to section--><path d="M448.62,53.06 C412.06,69.14 361.97,91.89 318.92,114 C304.8,121.25 288.93,130.54 279.18,136.38 " fill="none" id="DocumentPieceComponent-section" style="stroke:#A80036;stroke-width:1.0;"/><!--MD5=[18b510aef1a7ebc885dd337ddd2c4a6b]
link DocumentPieceComponent to sections--><path d="M474.52,53.2 C446,78.12 401.21,117.27 382.08,134 " fill="none" id="DocumentPieceComponent-sections" style="stroke:#A80036;stroke-width:1.0;"/><!--MD5=[5276a4e356e0e6c86133fd6519a581bd]
link DocumentPieceComponent to includeNewSection--><path d="M503.12,53.2 C506.71,78.12 512.35,117.27 514.76,134 " fill="none" id="DocumentPieceComponent-includeNewSection" style="stroke:#A80036;stroke-width:1.0;"/><!--MD5=[c8a859709d613010ad18fed40507b971]
link DocumentPieceComponent to imageOverview--><path d="M539.51,53.2 C586.68,79.64 662.41,122.1 688.63,136.79 " fill="none" id="DocumentPieceComponent-imageOverview" style="stroke:#A80036;stroke-width:1.0;"/><!--MD5=[9b56d9cda6fa43296b73c39fa6ef3966]
link DocumentPieceComponent to images--><path d="M595.52,52.42 C652.99,66.75 726.95,87.78 789.92,114 C804.8,120.2 820.87,129.76 830.66,135.95 " fill="none" id="DocumentPieceComponent-images" style="stroke:#A80036;stroke-width:1.0;"/><!--MD5=[bd4eb50d639bb84086b5e508013382b3]
link DocumentPieceComponent to selectionManager--><path d="M404.23,46.2 C347.53,58.31 276.03,79.18 219.92,114 C211.69,119.11 204.39,127.5 199.64,133.76 " fill="none" id="DocumentPieceComponent-selectionManager" style="stroke:#A80036;stroke-width:1.0;"/><!--MD5=[f083746045f73988a87a14684eb9ff14]
link DocumentPieceComponent to partsInImages--><path d="M595.65,47.24 C675.01,61.7 790.37,85.02 888.92,114 C912.64,120.97 939.59,131.98 953.5,137.91 " fill="none" id="DocumentPieceComponent-partsInImages" style="stroke:#A80036;stroke-width:1.0;"/><!--MD5=[23bfc40a8095d3c1df32976f882fd2db]
reverse link imageOverview to SectionComponent--><path d="M710.2,160.43 C724.58,179.66 748.45,211.58 764.43,232.95 " fill="none" id="imageOverview-backto-SectionComponent" style="stroke:#A80036;stroke-width:1.0;"/><path d="M699.2261,159.867 A9,9 0 0 0 712.7779 149.7454" fill="none" style="stroke:#A80036;stroke-width:1.5;"/><!--MD5=[b0b00c55c82586ebcfd161baa58a6df3]
reverse link section to SectionComponent--><path d="M287.64,156.09 C296.65,161.72 307.98,168.03 318.92,172 C445.3,217.91 600.69,239.12 695.2,248.4 " fill="none" id="section-backto-SectionComponent" style="stroke:#A80036;stroke-width:1.0;"/><path d="M277.1771,159.3674 A9,9 0 0 0 286.4029 145.1905" fill="none" style="stroke:#A80036;stroke-width:1.5;"/><!--MD5=[b80f9360fbebcfe99480334efba5a3fb]
reverse link sections to SectionComponent--><path d="M390.59,154.8 C400.65,160.57 413.66,167.41 425.92,172 C515.14,205.37 622.15,228.19 695.2,241.33 " fill="none" id="sections-backto-SectionComponent" style="stroke:#A80036;stroke-width:1.0;"/><path d="M380.3111,158.5577 A9,9 0 0 0 388.9103 143.9922" fill="none" style="stroke:#A80036;stroke-width:1.5;"/><!--MD5=[fd7e0f1778406f38ec7f0f2fe683dbd1]
reverse link includeNewSection to SectionComponent--><path d="M534.51,151.79 C574.19,168.41 668.4,207.87 728.16,232.9 " fill="none" id="includeNewSection-backto-SectionComponent" style="stroke:#A80036;stroke-width:1.0;"/><path d="M524.6019,156.8093 A9,9 0 0 0 531.1538 141.2154" fill="none" style="stroke:#A80036;stroke-width:1.5;"/><!--MD5=[86c98e456e4d967f8e0420cea11f3535]
reverse link documentParts to SectionComponent--><path d="M1093.96,151.1 C1078.41,156.87 1055.81,165.15 1035.92,172 C973.63,193.45 902.29,216.55 850.94,232.92 " fill="none" id="documentParts-backto-SectionComponent" style="stroke:#A80036;stroke-width:1.0;"/><path d="M1097.6332,140.6993 A9,9 0 0 0 1103.5378 156.5497" fill="none" style="stroke:#A80036;stroke-width:1.5;"/><!--MD5=[7efc02ecc13df98cc2c611c4399c6d30]
reverse link documentPath to SectionComponent--><path d="M1245.22,151.91 C1230.21,158.04 1208.49,166.39 1188.92,172 C1079.3,203.4 949.85,227.62 866.64,241.58 " fill="none" id="documentPath-backto-SectionComponent" style="stroke:#A80036;stroke-width:1.0;"/><path d="M1248.7597,141.2845 A9,9 0 0 0 1255.2326 156.9114" fill="none" style="stroke:#A80036;stroke-width:1.5;"/><!--MD5=[d3dfcce557778b2c8a139536acbb0fd7]
reverse link images to SectionComponent--><path d="M830.76,161.22 C820.5,180.53 803.84,211.87 792.64,232.95 " fill="none" id="images-backto-SectionComponent" style="stroke:#A80036;stroke-width:1.0;"/><path d="M826.5682,151.0829 A9,9 0 0 0 841.4988 159.0314" fill="none" style="stroke:#A80036;stroke-width:1.5;"/><!--MD5=[b179eda465921bbd46b0b95f3b9efe42]
reverse link selectionManager to SectionComponent--><path d="M205.4,159.95 C209.48,164.53 214.43,169.07 219.92,172 C300.51,215.07 559.18,239.32 695.31,249.4 " fill="none" id="selectionManager-backto-SectionComponent" style="stroke:#A80036;stroke-width:1.0;"/><path d="M194.3884,159.6843 A9,9 0 0 0 207.6246 149.1533" fill="none" style="stroke:#A80036;stroke-width:1.5;"/><!--MD5=[255e77bd4a2dde4b8c201d40110ac365]
reverse link partsInImages to SectionComponent--><path d="M944.81,155.05 C915.17,173.12 855.77,209.35 817.21,232.87 " fill="none" id="partsInImages-backto-SectionComponent" style="stroke:#A80036;stroke-width:1.0;"/><path d="M946.6023,144.0501 A9,9 0 0 0 955.4253 158.4812" fill="none" style="stroke:#A80036;stroke-width:1.5;"/><!--MD5=[1a26f46079a935e25c8db218832982cc]
link SectionComponent to SectionComponent.selectionManager--><path d="M851.03,279.09 C914.89,299.26 1011.8,329.95 1095.92,357 C1124.02,366.04 1157.23,376.9 1172.89,382.04 " fill="none" id="SectionComponent-SectionComponent.selectionManager" style="stroke:#A80036;stroke-width:1.0;"/><!--MD5=[9bbbb3876c26db8eb64e564adb64164c]
link SectionComponent to SectionComponent.documentPath--><path d="M723.5,279 C640.88,310.67 494.17,366.89 456.13,381.47 " fill="none" id="SectionComponent-SectionComponent.documentPath" style="stroke:#A80036;stroke-width:1.0;"/><!--MD5=[69e57371ba1c4a332fb107355a04fac4]
link SectionComponent to SectionComponent.section--><path d="M744.82,279 C695.1,309.31 608.47,362.11 580.16,379.37 " fill="none" id="SectionComponent-SectionComponent.section" style="stroke:#A80036;stroke-width:1.0;"/><!--MD5=[b61ed101b2e2572480757c7556965021]
link SectionComponent to SectionComponent.sections--><path d="M762.52,279 C738.26,308.02 696.76,357.67 680.62,376.98 " fill="none" id="SectionComponent-SectionComponent.sections" style="stroke:#A80036;stroke-width:1.0;"/><!--MD5=[fc9f42efaf82ebbf449de1b7e974e63f]
link SectionComponent to SectionComponent.imageID--><path d="M780.92,279 C780.92,308.02 780.92,357.67 780.92,376.98 " fill="none" id="SectionComponent-SectionComponent.imageID" style="stroke:#A80036;stroke-width:1.0;"/><!--MD5=[62c43d39d6cac822b63f768ab12a4d29]
link SectionComponent to SectionComponent.filename--><path d="M799.48,279 C823.97,308.02 865.86,357.67 882.15,376.98 " fill="none" id="SectionComponent-SectionComponent.filename" style="stroke:#A80036;stroke-width:1.0;"/><!--MD5=[e71575d798b35aa4e89c5bf3e1d7944c]
link SectionComponent to SectionComponent.documentParts--><path d="M822,279 C879.39,309.74 979.98,363.61 1010.73,380.08 " fill="none" id="SectionComponent-SectionComponent.documentParts" style="stroke:#A80036;stroke-width:1.0;"/><!--MD5=[33fc8a38571f9c0d3a5e058c16a02f97]
link SectionComponent to SectionComponent.imagePartIds--><path d="M866.78,269.93 C964.79,285.77 1129.34,315.69 1266.92,357 C1289.23,363.7 1314.36,374.62 1327.6,380.65 " fill="none" id="SectionComponent-SectionComponent.imagePartIds" style="stroke:#A80036;stroke-width:1.0;"/><!--MD5=[cc53f189af9370bf415a56b7a2bd508a]
reverse link SectionComponent.selectionManager to DocumentThumbnailComponent--><path d="M1163.27,393.79 C1145.98,399.92 1119.45,408.88 1095.92,415 C999.99,439.95 890.07,461.35 806.47,476.16 " fill="none" id="SectionComponent.selectionManager-backto-DocumentThumbnailComponent" style="stroke:#A80036;stroke-width:1.0;"/><path d="M1166.9814,383.4735 A9,9 0 0 0 1172.7055 399.3899" fill="none" style="stroke:#A80036;stroke-width:1.5;"/><!--MD5=[f8935afd236eb27dbe3e12db8b57ea64]
reverse link SectionComponent.documentPath to DocumentThumbnailComponent--><path d="M465.2,395.94 C500.42,413.16 578.61,451.39 628.65,475.86 " fill="none" id="SectionComponent.documentPath-backto-DocumentThumbnailComponent" style="stroke:#A80036;stroke-width:1.0;"/><path d="M455.1453,400.4392 A9,9 0 0 0 462.5838 385.2482" fill="none" style="stroke:#A80036;stroke-width:1.5;"/><!--MD5=[7cedb00ba12ff75f49c73e192c1eac61]
reverse link SectionComponent.section to DocumentThumbnailComponent--><path d="M585.68,402.91 C603.47,422.08 633.45,454.39 653.46,475.95 " fill="none" id="SectionComponent.section-backto-DocumentThumbnailComponent" style="stroke:#A80036;stroke-width:1.0;"/><path d="M574.5542,403.3489 A9,9 0 0 0 586.9533 391.844" fill="none" style="stroke:#A80036;stroke-width:1.5;"/><!--MD5=[54dff8e43c8e5503dcb5fe44c760a12c]
reverse link SectionComponent.sections to DocumentThumbnailComponent--><path d="M673.92,405.57 C673.92,424.96 673.92,455.36 673.92,475.95 " fill="none" id="SectionComponent.sections-backto-DocumentThumbnailComponent" style="stroke:#A80036;stroke-width:1.0;"/><path d="M665.4628,398.4182 A9,9 0 0 0 682.3772 398.4182" fill="none" style="stroke:#A80036;stroke-width:1.5;"/><!--MD5=[f4c4c8ff1529af339676deb5bc811282]
reverse link SectionComponent.imageID to DocumentThumbnailComponent--><path d="M765.83,402.66 C747.38,421.79 716.05,454.29 695.17,475.95 " fill="none" id="SectionComponent.imageID-backto-DocumentThumbnailComponent" style="stroke:#A80036;stroke-width:1.0;"/><path d="M764.6554,391.6853 A9,9 0 0 0 776.8312 403.4263" fill="none" style="stroke:#A80036;stroke-width:1.5;"/><!--MD5=[40403284883f38ca2a380d258ee80e1d]
reverse link SectionComponent.filename to DocumentThumbnailComponent--><path d="M870.51,396.51 C836.68,413.97 763.8,451.6 716.91,475.8 " fill="none" id="SectionComponent.filename-backto-DocumentThumbnailComponent" style="stroke:#A80036;stroke-width:1.0;"/><path d="M873.0661,385.6662 A9,9 0 0 0 880.8231 400.6971" fill="none" style="stroke:#A80036;stroke-width:1.5;"/><!--MD5=[addc3b93b6e695d34415b3e1cc82a708]
reverse link SectionComponent.documentParts to DocumentThumbnailComponent--><path d="M1000.98,394.18 C985.45,400 962.86,408.3 942.92,415 C877.71,436.9 802.89,459.81 748.74,476 " fill="none" id="SectionComponent.documentParts-backto-DocumentThumbnailComponent" style="stroke:#A80036;stroke-width:1.0;"/><path d="M1004.6348,383.765 A9,9 0 0 0 1010.5819 399.5995" fill="none" style="stroke:#A80036;stroke-width:1.5;"/><!--MD5=[09b2d0e79ceb107d7c82c28219595644]
reverse link SectionComponent.imagePartIds to DocumentThumbnailComponent--><path d="M1318.28,395.89 C1304.41,402.15 1284.86,410.23 1266.92,415 C1111.7,456.26 927.84,477.95 806.45,488.66 " fill="none" id="SectionComponent.imagePartIds-backto-DocumentThumbnailComponent" style="stroke:#A80036;stroke-width:1.0;"/><path d="M1321.3034,385.1687 A9,9 0 0 0 1328.41 400.5179" fill="none" style="stroke:#A80036;stroke-width:1.5;"/><!--MD5=[b1ff53ae0283dbb339eddd871bbd7e2e]
link DocumentThumbnailComponent to DocumentThumbnailComponent.documentParts--><path d="M659.52,522.2 C643.35,547.12 617.96,586.27 607.11,603 " fill="none" id="DocumentThumbnailComponent-DocumentThumbnailComponent.documentParts" style="stroke:#A80036;stroke-width:1.0;"/><!--MD5=[bd88457cda3a7c0a3f5aefd8dd3eb167]
link DocumentThumbnailComponent to DocumentThumbnailComponent.imagePartIds--><path d="M688.72,522.2 C705.33,547.12 731.43,586.27 742.58,603 " fill="none" id="DocumentThumbnailComponent-DocumentThumbnailComponent.imagePartIds" style="stroke:#A80036;stroke-width:1.0;"/><!--MD5=[20d914f2113c075f3d2318d1e967d677]
reverse link DocumentThumbnailComponent.documentParts to ImagePartsComponent--><path d="M612.92,629.96 C625.42,649.24 645.88,680.78 659.62,701.95 " fill="none" id="DocumentThumbnailComponent.documentParts-backto-ImagePartsComponent" style="stroke:#A80036;stroke-width:1.0;"/><path d="M601.9119,628.5264 A9,9 0 0 0 616.0998 619.3176" fill="none" style="stroke:#A80036;stroke-width:1.5;"/><!--MD5=[1ee7d0d706b580006071f35aea937287]
reverse link DocumentThumbnailComponent.imagePartIds to ImagePartsComponent--><path d="M736.79,629.69 C723.95,648.95 702.8,680.68 688.62,701.95 " fill="none" id="DocumentThumbnailComponent.imagePartIds-backto-ImagePartsComponent" style="stroke:#A80036;stroke-width:1.0;"/><path d="M733.6182,619.1996 A9,9 0 0 0 747.6808 628.5988" fill="none" style="stroke:#A80036;stroke-width:1.5;"/><!--MD5=[be1453764ba8d53d1968e67c565973ad]
link DocumentThumbnailComponent.imageID to DocumentThumbnailComponent--><path d="M1450.8,393.02 C1440.39,399.57 1422.66,409.8 1405.92,415 C1203.18,478.02 955.58,494.21 806.55,497.8 " fill="none" id="DocumentThumbnailComponent.imageID-DocumentThumbnailComponent" style="stroke:#A80036;stroke-width:1.0;"/><!--MD5=[a5bc5b036350dec0d3fa08b2d4362e09]
reverse link DocumentThumbnailComponent.imageID to ImagePhasesComponent--><path d="M1459.92,405.57 C1459.92,424.96 1459.92,455.36 1459.92,475.95 " fill="none" id="DocumentThumbnailComponent.imageID-backto-ImagePhasesComponent" style="stroke:#A80036;stroke-width:1.0;"/><path d="M1451.4628,398.4182 A9,9 0 0 0 1468.3772 398.4182" fill="none" style="stroke:#A80036;stroke-width:1.5;"/><!--MD5=[4ea7392cdb64c07d6a1e355e73cb89a6]
link appSelectableContainer to selectionManager--><path d="M241.12,53.2 C229.89,74.33 213.23,105.67 203,124.92 " fill="none" id="appSelectableContainer-to-selectionManager" style="stroke:#A80036;stroke-width:1.0;"/><path d="M207.0818,135.2571 A9,9 0 0 0 192.1512 127.3086" fill="none" style="stroke:#A80036;stroke-width:1.5;"/><!--MD5=[56ef8bec25a46f3ba95a6948b443b0ca]
reverse link selectionManager to appSelectable--><path d="M193.92,162.57 C193.92,181.96 193.92,212.36 193.92,232.95 " fill="none" id="selectionManager-backto-appSelectable" style="stroke:#A80036;stroke-width:1.0;"/><path d="M185.4628,155.4182 A9,9 0 0 0 202.3772 155.4182" fill="none" style="stroke:#A80036;stroke-width:1.5;"/><!--MD5=[e2aaa7f7fe5609a1a4c33b17aff20417]
reverse link appSelectableContainer to DocumentPieceComponent--><path d="M359.75,30 C374.61,30 389.48,30 404.34,30 " fill="none" id="appSelectableContainer-backto-DocumentPieceComponent" style="stroke:#A80036;stroke-width:1.0;"/><polygon fill="#A80036" points="354.71,30,363.71,34,359.71,30,363.71,26,354.71,30" style="stroke:#A80036;stroke-width:1.0;"/><!--MD5=[4c0bdfa0b32186e3104e624a0f1affc3]
reverse link selectionManager to DocumentThumbnailComponent--><path d="M180.08,152.19 C146.24,173.15 59.75,232.48 27.92,309 C6,361.7 70.44,387.19 104.92,415 C127.06,432.86 133.77,437.5 160.92,446 C229.42,467.44 413.43,482.42 541.33,490.63 " fill="none" id="selectionManager-backto-DocumentThumbnailComponent" style="stroke:#A80036;stroke-width:1.0;"/><polygon fill="#A80036" points="184.68,149.38,174.9143,150.6573,180.4129,151.9861,179.0841,157.4847,184.68,149.38" style="stroke:#A80036;stroke-width:1.0;"/><text fill="#000000" font-family="sans-serif" font-size="13" lengthAdjust="spacing" textLength="80" x="28.92" y="323.0684">getSelected()</text><!--MD5=[f5e0cb1035944a06460720c4b058c5f1]
link DocumentThumbnailComponent.onSelected to DocumentThumbnailComponent--><path d="M131.92,327.1 C121.44,345.22 99.91,389.43 121.92,415 C174.95,476.6 395.5,493.11 541.26,497.17 " fill="none" id="DocumentThumbnailComponent.onSelected-DocumentThumbnailComponent" style="stroke:#A80036;stroke-width:1.0;"/><!--MD5=[b1d30bd2d659fa45fb9d5ff426d0ec1b]
link DocumentThumbnailComponent.onDeselected to DocumentThumbnailComponent--><path d="M202.93,391.15 C216.24,397.14 242.05,408.23 264.92,415 C355.75,441.9 460.49,462.97 541.24,477.16 " fill="none" id="DocumentThumbnailComponent.onDeselected-DocumentThumbnailComponent" style="stroke:#A80036;stroke-width:1.0;"/><!--MD5=[b0419d772133cfdb397d7625e22e50a3]
link DocumentThumbnailComponent.modelID to DocumentThumbnailComponent--><path d="M328.01,392.59 C338.34,398.75 355.86,408.64 371.92,415 C437.01,440.78 513.01,461.62 572.49,475.97 " fill="none" id="DocumentThumbnailComponent.modelID-DocumentThumbnailComponent" style="stroke:#A80036;stroke-width:1.0;"/><!--MD5=[06f1327e5eac21621403830c1bc57885]
link appSelectable to DocumentThumbnailComponent.onSelected--><path d="M173.02,279 C165.89,286.5 158.08,294.72 151.56,301.59 " fill="none" id="appSelectable-to-DocumentThumbnailComponent.onSelected" style="stroke:#A80036;stroke-width:1.0;"/><path d="M152.8538,312.4981 A9,9 0 0 0 140.5836 300.8559" fill="none" style="stroke:#A80036;stroke-width:1.5;"/><!--MD5=[d59fb3b235f1e34e5effa08d60f50a9c]
link appSelectable to DocumentThumbnailComponent.onDeselected--><path d="M193.92,279 C193.92,303.83 193.92,343.75 193.92,366.86 " fill="none" id="appSelectable-to-DocumentThumbnailComponent.onDeselected" style="stroke:#A80036;stroke-width:1.0;"/><path d="M202.3772,373.9018 A9,9 0 0 0 185.4628 373.9018" fill="none" style="stroke:#A80036;stroke-width:1.5;"/><!--MD5=[ba07361258c0d4706b699fa9f5026d0d]
link appSelectable to DocumentThumbnailComponent.modelID--><path d="M215.41,279 C240.65,304.85 281.86,347.06 303.9,369.62 " fill="none" id="appSelectable-to-DocumentThumbnailComponent.modelID" style="stroke:#A80036;stroke-width:1.0;"/><path d="M314.9921,368.8699 A9,9 0 0 0 302.8877 380.6844" fill="none" style="stroke:#A80036;stroke-width:1.5;"/><!--MD5=[6d320e37d78368a9c694f6026f789287]
@startuml document_component
[DocumentPieceComponent] - - section
[DocumentPieceComponent] - - sections
[DocumentPieceComponent] - - includeNewSection
[DocumentPieceComponent] - - imageOverview
[DocumentPieceComponent] - - images
[DocumentPieceComponent] - - selectionManager
[DocumentPieceComponent] - - partsInImages

imageOverview )- - [SectionComponent]
section )- - [SectionComponent]
sections )- - [SectionComponent]
includeNewSection )- - [SectionComponent]
documentParts )- - [SectionComponent]
documentPath )- - [SectionComponent]
images )- - [SectionComponent]
selectionManager )- - [SectionComponent]
partsInImages )- - [SectionComponent]


() "documentPath" as SectionComponent.documentPath
() "section" as SectionComponent.section
() "sections" as SectionComponent.sections
() "imageID" as SectionComponent.imageID
() "filename" as SectionComponent.filename
() "documentParts" as SectionComponent.documentParts
() "selectionManager" as SectionComponent.selectionManager
() "imagePartIds" as SectionComponent.imagePartIds

[SectionComponent] - - SectionComponent.selectionManager
[SectionComponent] - - SectionComponent.documentPath
[SectionComponent] - - SectionComponent.section
[SectionComponent] - - SectionComponent.sections
[SectionComponent] - - SectionComponent.imageID
[SectionComponent] - - SectionComponent.filename
[SectionComponent] - - SectionComponent.documentParts
[SectionComponent] - - SectionComponent.imagePartIds

SectionComponent.selectionManager )- - [DocumentThumbnailComponent]
SectionComponent.documentPath )- - [DocumentThumbnailComponent]
SectionComponent.section )- - [DocumentThumbnailComponent]
SectionComponent.sections )- - [DocumentThumbnailComponent]
SectionComponent.imageID )- - [DocumentThumbnailComponent]
SectionComponent.filename )- - [DocumentThumbnailComponent]
SectionComponent.documentParts )- - [DocumentThumbnailComponent]
SectionComponent.imagePartIds )- - [DocumentThumbnailComponent]

() "documentParts" as DocumentThumbnailComponent.documentParts
() "imagePartIds" as DocumentThumbnailComponent.imagePartIds
[DocumentThumbnailComponent] - - DocumentThumbnailComponent.documentParts
[DocumentThumbnailComponent] - - DocumentThumbnailComponent.imagePartIds

DocumentThumbnailComponent.documentParts )- - [ImagePartsComponent]
DocumentThumbnailComponent.imagePartIds )- - [ImagePartsComponent]

() "imageID" as DocumentThumbnailComponent.imageID
 DocumentThumbnailComponent.imageID - - [DocumentThumbnailComponent]

DocumentThumbnailComponent.imageID )- - [ImagePhasesComponent]

[appSelectableContainer] - -( selectionManager
selectionManager )- - [appSelectable]

[appSelectableContainer] <- [DocumentPieceComponent]
selectionManager <- [DocumentThumbnailComponent]: getSelected()

() "onSelected" as DocumentThumbnailComponent.onSelected
() "onDeselected" as DocumentThumbnailComponent.onDeselected
() "modelID" as DocumentThumbnailComponent.modelID

DocumentThumbnailComponent.onSelected - - [DocumentThumbnailComponent]
DocumentThumbnailComponent.onDeselected - - [DocumentThumbnailComponent]
DocumentThumbnailComponent.modelID - - [DocumentThumbnailComponent]

[appSelectable] -( DocumentThumbnailComponent.onSelected
[appSelectable] - -( DocumentThumbnailComponent.onDeselected
[appSelectable] - -( DocumentThumbnailComponent.modelID



@enduml

PlantUML version 1.2021.00(Sun Jan 10 11:25:05 CET 2021)
(GPL source distribution)
Java Runtime: Java(TM) SE Runtime Environment
JVM: Java HotSpot(TM) 64-Bit Server VM
Default Encoding: UTF-8
Language: es
Country: ES
--></g></svg>
