<?xml version="1.0" encoding="UTF-8" standalone="no"?><svg xmlns="http://www.w3.org/2000/svg" xmlns:xlink="http://www.w3.org/1999/xlink" contentScriptType="application/ecmascript" contentStyleType="text/css" height="629px" preserveAspectRatio="none" style="width:445px;height:629px;" version="1.1" viewBox="0 0 445 629" width="445px" zoomAndPan="magnify"><defs><filter height="300%" id="f1wn161qxegcl5" width="300%" x="-1" y="-1"><feGaussianBlur result="blurOut" stdDeviation="2.0"/><feColorMatrix in="blurOut" result="blurOut2" type="matrix" values="0 0 0 0 0 0 0 0 0 0 0 0 0 0 0 0 0 0 .4 0"/><feOffset dx="4.0" dy="4.0" in="blurOut2" result="blurOut3"/><feBlend in="SourceGraphic" in2="blurOut3" mode="normal"/></filter></defs><g><!--MD5=[5c0a2248d10a2d65f9310b69ba390337]
entity Home Store--><rect fill="#FEFECE" filter="url(#f1wn161qxegcl5)" height="46.4883" style="stroke:#A80036;stroke-width:1.5;" width="120" x="161" y="231"/><rect fill="#FEFECE" height="10" style="stroke:#A80036;stroke-width:1.5;" width="15" x="261" y="236"/><rect fill="#FEFECE" height="2" style="stroke:#A80036;stroke-width:1.5;" width="4" x="259" y="238"/><rect fill="#FEFECE" height="2" style="stroke:#A80036;stroke-width:1.5;" width="4" x="259" y="242"/><text fill="#000000" font-family="sans-serif" font-size="14" lengthAdjust="spacing" textLength="80" x="176" y="264.5352">Home Store</text><!--MD5=[3831a338d37cf6cc9b457d6e25d98959]
entity HomeGetLastDocuments--><ellipse cx="221" cy="590" fill="#FEFECE" filter="url(#f1wn161qxegcl5)" rx="8" ry="8" style="stroke:#A80036;stroke-width:1.5;"/><text fill="#000000" font-family="sans-serif" font-size="14" lengthAdjust="spacing" textLength="167" x="137.5" y="620.5352">HomeGetLastDocuments</text><!--MD5=[1c8af66afcd185b7834a6b42ae0708fe]
entity HomeUpdateLastDocuments--><ellipse cx="221" cy="142" fill="#FEFECE" filter="url(#f1wn161qxegcl5)" rx="8" ry="8" style="stroke:#A80036;stroke-width:1.5;"/><text fill="#000000" font-family="sans-serif" font-size="14" lengthAdjust="spacing" textLength="193" x="124.5" y="172.5352">HomeUpdateLastDocuments</text><!--MD5=[8a24367e812bfa62580b7e2ca5d0a033]
entity selectHomeLastDocuments--><ellipse cx="145" cy="366" fill="#FEFECE" filter="url(#f1wn161qxegcl5)" rx="8" ry="8" style="stroke:#A80036;stroke-width:1.5;"/><text fill="#000000" font-family="sans-serif" font-size="14" lengthAdjust="spacing" textLength="183" x="53.5" y="396.5352">selectHomeLastDocuments</text><!--MD5=[826ab927a0742f468322359ed8b39d35]
entity HomeComponent--><rect fill="#FEFECE" filter="url(#f1wn161qxegcl5)" height="46.4883" style="stroke:#A80036;stroke-width:1.5;" width="161" x="73.5" y="455"/><rect fill="#FEFECE" height="10" style="stroke:#A80036;stroke-width:1.5;" width="15" x="214.5" y="460"/><rect fill="#FEFECE" height="2" style="stroke:#A80036;stroke-width:1.5;" width="4" x="212.5" y="462"/><rect fill="#FEFECE" height="2" style="stroke:#A80036;stroke-width:1.5;" width="4" x="212.5" y="466"/><text fill="#000000" font-family="sans-serif" font-size="14" lengthAdjust="spacing" textLength="121" x="88.5" y="488.5352">HomeComponent</text><!--MD5=[9e6984b4734760fd47dcf0061bb686ff]
entity DocumentsComponent--><rect fill="#FEFECE" filter="url(#f1wn161qxegcl5)" height="46.4883" style="stroke:#A80036;stroke-width:1.5;" width="198" x="7" y="7"/><rect fill="#FEFECE" height="10" style="stroke:#A80036;stroke-width:1.5;" width="15" x="185" y="12"/><rect fill="#FEFECE" height="2" style="stroke:#A80036;stroke-width:1.5;" width="4" x="183" y="14"/><rect fill="#FEFECE" height="2" style="stroke:#A80036;stroke-width:1.5;" width="4" x="183" y="18"/><text fill="#000000" font-family="sans-serif" font-size="14" lengthAdjust="spacing" textLength="158" x="22" y="40.5352">DocumentsComponent</text><!--MD5=[422d10d901d47f36978e82d8272e9edf]
entity DocumentPieceComponent--><rect fill="#FEFECE" filter="url(#f1wn161qxegcl5)" height="46.4883" style="stroke:#A80036;stroke-width:1.5;" width="191" x="240.5" y="7"/><rect fill="#FEFECE" height="10" style="stroke:#A80036;stroke-width:1.5;" width="15" x="411.5" y="12"/><rect fill="#FEFECE" height="2" style="stroke:#A80036;stroke-width:1.5;" width="4" x="409.5" y="14"/><rect fill="#FEFECE" height="2" style="stroke:#A80036;stroke-width:1.5;" width="4" x="409.5" y="18"/><text fill="#000000" font-family="sans-serif" font-size="14" lengthAdjust="spacing" textLength="151" x="255.5" y="40.5352">DocumentPieceComponent</text><!--MD5=[6ca3f7451e91de3ed41bb4358d8e9960]
link HomeGetLastDocuments to Home Store--><path d="M224.62,580.95 C231.3,565.7 245.47,531.41 252,501 C252.01,500.93 268.74,370.52 261,337 C256.05,315.55 244.68,293.22 235.32,277.28 " fill="none" id="HomeGetLastDocuments-Home Store" style="stroke:#A80036;stroke-width:1.0;"/><!--MD5=[34f7aa6377a975a3b9695dd4de285305]
link HomeUpdateLastDocuments to Home Store--><path d="M221,151.27 C221,167.96 221,206.16 221,230.71 " fill="none" id="HomeUpdateLastDocuments-Home Store" style="stroke:#A80036;stroke-width:1.0;"/><!--MD5=[b6b7cf087ff72496a0e220ac6d2f615a]
link Home Store to selectHomeLastDocuments--><path d="M205.62,277.26 C188.62,301.87 162.12,340.23 150.63,356.86 " fill="none" id="Home Store-selectHomeLastDocuments" style="stroke:#A80036;stroke-width:1.0;"/><!--MD5=[691dfc5332dafe9df67414bae33cfffd]
link HomeComponent to HomeGetLastDocuments--><path d="M167.56,501.26 C181.38,523.95 202.31,558.32 213.43,576.58 " fill="none" id="HomeComponent-to-HomeGetLastDocuments" style="stroke:#A80036;stroke-width:1.0;stroke-dasharray:7.0,7.0;"/><polygon fill="#A80036" points="216.04,580.86,214.7535,571.0955,213.4299,576.5954,207.93,575.2717,216.04,580.86" style="stroke:#A80036;stroke-width:1.0;"/><!--MD5=[9d5e2163b8448dc2186275f5ff81593a]
link DocumentsComponent to HomeUpdateLastDocuments--><path d="M129.27,53.26 C153.19,76.14 189.53,110.9 208.49,129.04 " fill="none" id="DocumentsComponent-to-HomeUpdateLastDocuments" style="stroke:#A80036;stroke-width:1.0;stroke-dasharray:7.0,7.0;"/><polygon fill="#A80036" points="212.49,132.86,208.7511,123.7484,208.8768,129.4039,203.2213,129.5296,212.49,132.86" style="stroke:#A80036;stroke-width:1.0;"/><!--MD5=[b5161d0270050dfca23f838bc0b00661]
link DocumentPieceComponent to HomeUpdateLastDocuments--><path d="M312.73,53.26 C288.81,76.14 252.47,110.9 233.51,129.04 " fill="none" id="DocumentPieceComponent-to-HomeUpdateLastDocuments" style="stroke:#A80036;stroke-width:1.0;stroke-dasharray:7.0,7.0;"/><polygon fill="#A80036" points="229.51,132.86,238.7787,129.5296,233.1232,129.4039,233.2489,123.7484,229.51,132.86" style="stroke:#A80036;stroke-width:1.0;"/><!--MD5=[284f7098b34819481345880dd3e7075e]
reverse link selectHomeLastDocuments to HomeComponent--><path d="M146.1,380.5 C147.62,399 150.36,432.47 152.18,454.71 " fill="none" id="selectHomeLastDocuments-backto-HomeComponent" style="stroke:#A80036;stroke-width:1.0;stroke-dasharray:7.0,7.0;"/><polygon fill="#A80036" points="145.68,375.27,142.4126,384.5611,146.0799,380.254,150.3869,383.9213,145.68,375.27" style="stroke:#A80036;stroke-width:1.0;"/><!--MD5=[3ccd1f7f7f0be0d1cfbbd255479c4388]
@startuml home_store_component
    [Home Store]
    HomeGetLastDocuments - - [Home Store]
    HomeUpdateLastDocuments - - [Home Store]
    [Home Store] - - selectHomeLastDocuments

    [HomeComponent] ..> HomeGetLastDocuments
    [DocumentsComponent] ..> HomeUpdateLastDocuments
    [DocumentPieceComponent] ..> HomeUpdateLastDocuments
    selectHomeLastDocuments <.. [HomeComponent]
@enduml

PlantUML version 1.2021.00(Sun Jan 10 11:25:05 CET 2021)
(GPL source distribution)
Java Runtime: Java(TM) SE Runtime Environment
JVM: Java HotSpot(TM) 64-Bit Server VM
Default Encoding: UTF-8
Language: es
Country: ES
--></g></svg>
