<?xml version="1.0" encoding="UTF-8" standalone="no"?><svg xmlns="http://www.w3.org/2000/svg" xmlns:xlink="http://www.w3.org/1999/xlink" contentScriptType="application/ecmascript" contentStyleType="text/css" height="1039px" preserveAspectRatio="none" style="width:2009px;height:1039px;" version="1.1" viewBox="0 0 2009 1039" width="2009px" zoomAndPan="magnify"><defs><filter height="300%" id="f4axaoujd7qhr" width="300%" x="-1" y="-1"><feGaussianBlur result="blurOut" stdDeviation="2.0"/><feColorMatrix in="blurOut" result="blurOut2" type="matrix" values="0 0 0 0 0 0 0 0 0 0 0 0 0 0 0 0 0 0 .4 0"/><feOffset dx="4.0" dy="4.0" in="blurOut2" result="blurOut3"/><feBlend in="SourceGraphic" in2="blurOut3" mode="normal"/></filter></defs><g><rect fill="#FFFFFF" filter="url(#f4axaoujd7qhr)" height="46.6211" style="stroke:#000000;stroke-width:2.0;" width="1061" x="224" y="476.5508"/><rect fill="#FFFFFF" filter="url(#f4axaoujd7qhr)" height="46.6211" style="stroke:#000000;stroke-width:2.0;" width="1061" x="224" y="537.1719"/><rect fill="#FFFFFF" filter="url(#f4axaoujd7qhr)" height="46.6211" style="stroke:#000000;stroke-width:2.0;" width="1061" x="224" y="597.793"/><rect fill="#FFFFFF" filter="url(#f4axaoujd7qhr)" height="56.6211" style="stroke:#000000;stroke-width:2.0;" width="911" x="743.5" y="727.0352"/><rect fill="#FFFFFF" filter="url(#f4axaoujd7qhr)" height="140.5527" style="stroke:#000000;stroke-width:2.0;" width="1985" x="10" y="797.6563"/><line style="stroke:#A80036;stroke-width:1.0;stroke-dasharray:5.0,5.0;" x1="38" x2="38" y1="88.4883" y2="955.209"/><line style="stroke:#A80036;stroke-width:1.0;stroke-dasharray:5.0,5.0;" x1="145" x2="145" y1="88.4883" y2="955.209"/><line style="stroke:#A80036;stroke-width:1.0;stroke-dasharray:5.0,5.0;" x1="298" x2="298" y1="137.7324" y2="955.209"/><line style="stroke:#A80036;stroke-width:1.0;stroke-dasharray:5.0,5.0;" x1="456" x2="456" y1="196.2207" y2="955.209"/><line style="stroke:#A80036;stroke-width:1.0;stroke-dasharray:5.0,5.0;" x1="619" x2="619" y1="254.709" y2="955.209"/><line style="stroke:#A80036;stroke-width:1.0;stroke-dasharray:5.0,5.0;" x1="868.5" x2="868.5" y1="313.1973" y2="955.209"/><line style="stroke:#A80036;stroke-width:1.0;stroke-dasharray:5.0,5.0;" x1="1224" x2="1224" y1="371.6855" y2="955.209"/><line style="stroke:#A80036;stroke-width:1.0;stroke-dasharray:5.0,5.0;" x1="1329" x2="1329" y1="88.4883" y2="955.209"/><text fill="#000000" font-family="sans-serif" font-size="14" lengthAdjust="spacing" textLength="31" x="20" y="85.5352">User</text><ellipse cx="38.5" cy="15" fill="#FEFECE" filter="url(#f4axaoujd7qhr)" rx="8" ry="8" style="stroke:#A80036;stroke-width:2.0;"/><path d="M38.5,23 L38.5,50 M25.5,31 L51.5,31 M38.5,50 L25.5,65 M38.5,50 L51.5,65 " fill="none" filter="url(#f4axaoujd7qhr)" style="stroke:#A80036;stroke-width:2.0;"/><text fill="#000000" font-family="sans-serif" font-size="14" lengthAdjust="spacing" textLength="31" x="20" y="967.7441">User</text><ellipse cx="38.5" cy="980.6973" fill="#FEFECE" filter="url(#f4axaoujd7qhr)" rx="8" ry="8" style="stroke:#A80036;stroke-width:2.0;"/><path d="M38.5,988.6973 L38.5,1015.6973 M25.5,996.6973 L51.5,996.6973 M38.5,1015.6973 L25.5,1030.6973 M38.5,1015.6973 L51.5,1030.6973 " fill="none" filter="url(#f4axaoujd7qhr)" style="stroke:#A80036;stroke-width:2.0;"/><text fill="#000000" font-family="sans-serif" font-size="14" lengthAdjust="spacing" textLength="151" x="67" y="85.5352">DocumentPieceComponent</text><path d="M125,44 L125,68 M125,56 L142,56 " fill="none" filter="url(#f4axaoujd7qhr)" style="stroke:#A80036;stroke-width:2.0;"/><ellipse cx="154" cy="56" fill="#FEFECE" filter="url(#f4axaoujd7qhr)" rx="12" ry="12" style="stroke:#A80036;stroke-width:2.0;"/><text fill="#000000" font-family="sans-serif" font-size="14" lengthAdjust="spacing" textLength="151" x="67" y="967.7441">DocumentPieceComponent</text><path d="M125,974.6973 L125,998.6973 M125,986.6973 L142,986.6973 " fill="none" filter="url(#f4axaoujd7qhr)" style="stroke:#A80036;stroke-width:2.0;"/><ellipse cx="154" cy="986.6973" fill="#FEFECE" filter="url(#f4axaoujd7qhr)" rx="12" ry="12" style="stroke:#A80036;stroke-width:2.0;"/><text fill="#000000" font-family="sans-serif" font-size="14" lengthAdjust="spacing" textLength="122" x="234" y="967.7441">SelectionManager</text><ellipse cx="298" cy="986.6973" fill="#FEFECE" filter="url(#f4axaoujd7qhr)" rx="12" ry="12" style="stroke:#A80036;stroke-width:2.0;"/><line style="stroke:#A80036;stroke-width:2.0;" x1="286" x2="310" y1="1000.6973" y2="1000.6973"/><text fill="#000000" font-family="sans-serif" font-size="14" lengthAdjust="spacing" textLength="163" x="372" y="967.7441">appSelectableContainer</text><ellipse cx="456.5" cy="986.6973" fill="#FEFECE" filter="url(#f4axaoujd7qhr)" rx="12" ry="12" style="stroke:#A80036;stroke-width:2.0;"/><polygon fill="#A80036" points="452.5,974.6973,458.5,969.6973,456.5,974.6973,458.5,979.6973,452.5,974.6973" style="stroke:#A80036;stroke-width:1.0;"/><text fill="#000000" font-family="sans-serif" font-size="14" lengthAdjust="spacing" textLength="131" x="551" y="967.7441">SectionComponent</text><path d="M599,974.6973 L599,998.6973 M599,986.6973 L616,986.6973 " fill="none" filter="url(#f4axaoujd7qhr)" style="stroke:#A80036;stroke-width:2.0;"/><ellipse cx="628" cy="986.6973" fill="#FEFECE" filter="url(#f4axaoujd7qhr)" rx="12" ry="12" style="stroke:#A80036;stroke-width:2.0;"/><text fill="#000000" font-family="sans-serif" font-size="14" lengthAdjust="spacing" textLength="225" x="753.5" y="967.7441">DocumentThumbnailComponent</text><path d="M848.5,974.6973 L848.5,998.6973 M848.5,986.6973 L865.5,986.6973 " fill="none" filter="url(#f4axaoujd7qhr)" style="stroke:#A80036;stroke-width:2.0;"/><ellipse cx="877.5" cy="986.6973" fill="#FEFECE" filter="url(#f4axaoujd7qhr)" rx="12" ry="12" style="stroke:#A80036;stroke-width:2.0;"/><text fill="#000000" font-family="sans-serif" font-size="14" lengthAdjust="spacing" textLength="95" x="1174" y="967.7441">appSelectable</text><ellipse cx="1224.5" cy="986.6973" fill="#FEFECE" filter="url(#f4axaoujd7qhr)" rx="12" ry="12" style="stroke:#A80036;stroke-width:2.0;"/><polygon fill="#A80036" points="1220.5,974.6973,1226.5,969.6973,1224.5,974.6973,1226.5,979.6973,1220.5,974.6973" style="stroke:#A80036;stroke-width:1.0;"/><rect fill="#FEFECE" filter="url(#f4axaoujd7qhr)" height="30.4883" style="stroke:#A80036;stroke-width:1.5;" width="84" x="1285" y="53"/><text fill="#000000" font-family="sans-serif" font-size="14" lengthAdjust="spacing" textLength="70" x="1292" y="73.5352">Document</text><rect fill="#FEFECE" filter="url(#f4axaoujd7qhr)" height="30.4883" style="stroke:#A80036;stroke-width:1.5;" width="84" x="1285" y="954.209"/><text fill="#000000" font-family="sans-serif" font-size="14" lengthAdjust="spacing" textLength="70" x="1292" y="974.7441">Document</text><polygon fill="#A80036" points="222,100.4883,232,104.4883,222,108.4883,226,104.4883" style="stroke:#A80036;stroke-width:1.0;"/><line style="stroke:#A80036;stroke-width:1.0;" x1="145.5" x2="228" y1="104.4883" y2="104.4883"/><text fill="#000000" font-family="sans-serif" font-size="14" lengthAdjust="spacing" textLength="122" x="234" y="144.0234">SelectionManager</text><ellipse cx="298" cy="114.4883" fill="#FEFECE" filter="url(#f4axaoujd7qhr)" rx="12" ry="12" style="stroke:#A80036;stroke-width:2.0;"/><line style="stroke:#A80036;stroke-width:2.0;" x1="286" x2="310" y1="128.4883" y2="128.4883"/><polygon fill="#A80036" points="360,174.2871,370,178.2871,360,182.2871,364,178.2871" style="stroke:#A80036;stroke-width:1.0;"/><line style="stroke:#A80036;stroke-width:1.0;" x1="145.5" x2="366" y1="178.2871" y2="178.2871"/><text fill="#000000" font-family="sans-serif" font-size="13" lengthAdjust="spacing" textLength="110" x="152.5" y="173.5449">selectionManager</text><text fill="#000000" font-family="sans-serif" font-size="14" lengthAdjust="spacing" textLength="163" x="372" y="202.5117">appSelectableContainer</text><ellipse cx="456.5" cy="172.9766" fill="#FEFECE" filter="url(#f4axaoujd7qhr)" rx="12" ry="12" style="stroke:#A80036;stroke-width:2.0;"/><polygon fill="#A80036" points="452.5,160.9766,458.5,155.9766,456.5,160.9766,458.5,165.9766,452.5,160.9766" style="stroke:#A80036;stroke-width:1.0;"/><polygon fill="#A80036" points="539,232.7754,549,236.7754,539,240.7754,543,236.7754" style="stroke:#A80036;stroke-width:1.0;"/><line style="stroke:#A80036;stroke-width:1.0;" x1="145.5" x2="545" y1="236.7754" y2="236.7754"/><text fill="#000000" font-family="sans-serif" font-size="13" lengthAdjust="spacing" textLength="110" x="152.5" y="232.0332">selectionManager</text><text fill="#000000" font-family="sans-serif" font-size="14" lengthAdjust="spacing" textLength="131" x="551" y="261">SectionComponent</text><path d="M599,219.4648 L599,243.4648 M599,231.4648 L616,231.4648 " fill="none" filter="url(#f4axaoujd7qhr)" style="stroke:#A80036;stroke-width:2.0;"/><ellipse cx="628" cy="231.4648" fill="#FEFECE" filter="url(#f4axaoujd7qhr)" rx="12" ry="12" style="stroke:#A80036;stroke-width:2.0;"/><polygon fill="#A80036" points="741.5,291.2637,751.5,295.2637,741.5,299.2637,745.5,295.2637" style="stroke:#A80036;stroke-width:1.0;"/><line style="stroke:#A80036;stroke-width:1.0;" x1="619.5" x2="747.5" y1="295.2637" y2="295.2637"/><text fill="#000000" font-family="sans-serif" font-size="13" lengthAdjust="spacing" textLength="110" x="626.5" y="290.5215">selectionManager</text><text fill="#000000" font-family="sans-serif" font-size="14" lengthAdjust="spacing" textLength="225" x="753.5" y="319.4883">DocumentThumbnailComponent</text><path d="M848.5,277.9531 L848.5,301.9531 M848.5,289.9531 L865.5,289.9531 " fill="none" filter="url(#f4axaoujd7qhr)" style="stroke:#A80036;stroke-width:2.0;"/><ellipse cx="877.5" cy="289.9531" fill="#FEFECE" filter="url(#f4axaoujd7qhr)" rx="12" ry="12" style="stroke:#A80036;stroke-width:2.0;"/><polygon fill="#A80036" points="1162,349.752,1172,353.752,1162,357.752,1166,353.752" style="stroke:#A80036;stroke-width:1.0;"/><line style="stroke:#A80036;stroke-width:1.0;" x1="869" x2="1168" y1="353.752" y2="353.752"/><text fill="#000000" font-family="sans-serif" font-size="13" lengthAdjust="spacing" textLength="281" x="876" y="349.0098">selectionManager and modelID=documentID</text><text fill="#000000" font-family="sans-serif" font-size="14" lengthAdjust="spacing" textLength="95" x="1174" y="377.9766">appSelectable</text><ellipse cx="1224.5" cy="348.4414" fill="#FEFECE" filter="url(#f4axaoujd7qhr)" rx="12" ry="12" style="stroke:#A80036;stroke-width:2.0;"/><polygon fill="#A80036" points="1220.5,336.4414,1226.5,331.4414,1224.5,336.4414,1226.5,341.4414,1220.5,336.4414" style="stroke:#A80036;stroke-width:1.0;"/><polygon fill="#A80036" points="857,413.2402,867,417.2402,857,421.2402,861,417.2402" style="stroke:#A80036;stroke-width:1.0;"/><line style="stroke:#A80036;stroke-width:1.0;" x1="38.5" x2="863" y1="417.2402" y2="417.2402"/><text fill="#000000" font-family="sans-serif" font-size="13" lengthAdjust="spacing" textLength="80" x="45.5" y="412.498">mouse event</text><path d="M874,395.9297 L874,420.9297 L1377,420.9297 L1377,405.9297 L1367,395.9297 L874,395.9297 " fill="#FBFB77" filter="url(#f4axaoujd7qhr)" style="stroke:#A80036;stroke-width:1.0;"/><path d="M1367,395.9297 L1367,405.9297 L1377,405.9297 L1367,395.9297 " fill="#FBFB77" style="stroke:#A80036;stroke-width:1.0;"/><text fill="#000000" font-family="sans-serif" font-size="13" lengthAdjust="spacing" textLength="482" x="880" y="413.498">mouse click on the document thumbnail that has the appSelectable directive</text><polygon fill="#A80036" points="1212.5,444.8955,1222.5,448.8955,1212.5,452.8955,1216.5,448.8955" style="stroke:#A80036;stroke-width:1.0;"/><line style="stroke:#A80036;stroke-width:1.0;" x1="869" x2="1218.5" y1="448.8955" y2="448.8955"/><path d="M1229,435.2402 L1229,460.2402 L1802,460.2402 L1802,445.2402 L1792,435.2402 L1229,435.2402 " fill="#FBFB77" filter="url(#f4axaoujd7qhr)" style="stroke:#A80036;stroke-width:1.0;"/><path d="M1792,435.2402 L1792,445.2402 L1802,445.2402 L1792,435.2402 " fill="#FBFB77" style="stroke:#A80036;stroke-width:1.0;"/><text fill="#000000" font-family="sans-serif" font-size="13" lengthAdjust="spacing" textLength="552" x="1235" y="452.8086">the mouse event is captured by the appSelectable through the :host angular mechanism</text><path d="M224,476.5508 L286,476.5508 L286,483.5508 L276,493.5508 L224,493.5508 L224,476.5508 " fill="#EEEEEE" style="stroke:#000000;stroke-width:1.0;"/><rect fill="none" height="46.6211" style="stroke:#000000;stroke-width:2.0;" width="1061" x="224" y="476.5508"/><text fill="#000000" font-family="sans-serif" font-size="13" font-weight="bold" lengthAdjust="spacing" textLength="17" x="239" y="490.1191">alt</text><text fill="#000000" font-family="sans-serif" font-size="11" font-weight="bold" lengthAdjust="spacing" textLength="101" x="301" y="489.1855">[shift + left click]</text><polygon fill="#A80036" points="309,511.1719,299,515.1719,309,519.1719,305,515.1719" style="stroke:#A80036;stroke-width:1.0;"/><line style="stroke:#A80036;stroke-width:1.0;" x1="303" x2="1223.5" y1="515.1719" y2="515.1719"/><text fill="#000000" font-family="sans-serif" font-size="13" lengthAdjust="spacing" textLength="107" x="315" y="510.4297">selectRange(this)</text><path d="M224,537.1719 L286,537.1719 L286,544.1719 L276,554.1719 L224,554.1719 L224,537.1719 " fill="#EEEEEE" style="stroke:#000000;stroke-width:1.0;"/><rect fill="none" height="46.6211" style="stroke:#000000;stroke-width:2.0;" width="1061" x="224" y="537.1719"/><text fill="#000000" font-family="sans-serif" font-size="13" font-weight="bold" lengthAdjust="spacing" textLength="17" x="239" y="550.7402">alt</text><text fill="#000000" font-family="sans-serif" font-size="11" font-weight="bold" lengthAdjust="spacing" textLength="102" x="301" y="549.8066">[meta key + click]</text><polygon fill="#A80036" points="309,571.793,299,575.793,309,579.793,305,575.793" style="stroke:#A80036;stroke-width:1.0;"/><line style="stroke:#A80036;stroke-width:1.0;" x1="303" x2="1223.5" y1="575.793" y2="575.793"/><text fill="#000000" font-family="sans-serif" font-size="13" lengthAdjust="spacing" textLength="119" x="315" y="571.0508">addOrRemove(this)</text><path d="M224,597.793 L286,597.793 L286,604.793 L276,614.793 L224,614.793 L224,597.793 " fill="#EEEEEE" style="stroke:#000000;stroke-width:1.0;"/><rect fill="none" height="46.6211" style="stroke:#000000;stroke-width:2.0;" width="1061" x="224" y="597.793"/><text fill="#000000" font-family="sans-serif" font-size="13" font-weight="bold" lengthAdjust="spacing" textLength="17" x="239" y="611.3613">alt</text><text fill="#000000" font-family="sans-serif" font-size="11" font-weight="bold" lengthAdjust="spacing" textLength="35" x="301" y="610.4277">[click]</text><polygon fill="#A80036" points="309,632.4141,299,636.4141,309,640.4141,305,636.4141" style="stroke:#A80036;stroke-width:1.0;"/><line style="stroke:#A80036;stroke-width:1.0;" x1="303" x2="1223.5" y1="636.4141" y2="636.4141"/><text fill="#000000" font-family="sans-serif" font-size="13" lengthAdjust="spacing" textLength="77" x="315" y="631.6719">replace(this)</text><polygon fill="#A80036" points="309,668.7246,299,672.7246,309,676.7246,305,672.7246" style="stroke:#A80036;stroke-width:1.0;"/><line style="stroke:#A80036;stroke-width:1.0;" x1="303" x2="868" y1="672.7246" y2="672.7246"/><text fill="#000000" font-family="sans-serif" font-size="13" lengthAdjust="spacing" textLength="80" x="315" y="667.9824">getSelected()</text><polygon fill="#A80036" points="857,703.0352,867,707.0352,857,711.0352,861,707.0352" style="stroke:#A80036;stroke-width:1.0;"/><line style="stroke:#A80036;stroke-width:1.0;stroke-dasharray:2.0,2.0;" x1="298" x2="863" y1="707.0352" y2="707.0352"/><text fill="#000000" font-family="sans-serif" font-size="13" lengthAdjust="spacing" textLength="94" x="305" y="702.293">appSelectable[]</text><path d="M874,685.7246 L874,710.7246 L1101,710.7246 L1101,695.7246 L1091,685.7246 L874,685.7246 " fill="#FBFB77" filter="url(#f4axaoujd7qhr)" style="stroke:#A80036;stroke-width:1.0;"/><path d="M1091,685.7246 L1091,695.7246 L1101,695.7246 L1091,685.7246 " fill="#FBFB77" style="stroke:#A80036;stroke-width:1.0;"/><text fill="#000000" font-family="sans-serif" font-size="13" lengthAdjust="spacing" textLength="206" x="880" y="703.293">Return all selected appSelectable</text><path d="M743.5,727.0352 L817.5,727.0352 L817.5,734.0352 L807.5,744.0352 L743.5,744.0352 L743.5,727.0352 " fill="#EEEEEE" style="stroke:#000000;stroke-width:1.0;"/><rect fill="none" height="56.6211" style="stroke:#000000;stroke-width:2.0;" width="911" x="743.5" y="727.0352"/><text fill="#000000" font-family="sans-serif" font-size="13" font-weight="bold" lengthAdjust="spacing" textLength="29" x="758.5" y="740.6035">loop</text><text fill="#000000" font-family="sans-serif" font-size="11" font-weight="bold" lengthAdjust="spacing" textLength="133" x="832.5" y="739.6699">[for each appSelectable]</text><polygon fill="#A80036" points="1212.5,766.6563,1222.5,770.6563,1212.5,774.6563,1216.5,770.6563" style="stroke:#A80036;stroke-width:1.0;"/><line style="stroke:#A80036;stroke-width:1.0;stroke-dasharray:2.0,2.0;" x1="869" x2="1218.5" y1="770.6563" y2="770.6563"/><text fill="#000000" font-family="sans-serif" font-size="13" lengthAdjust="spacing" textLength="53" x="876" y="765.9141">modelID</text><path d="M1229,749.3457 L1229,774.3457 L1635,774.3457 L1635,759.3457 L1625,749.3457 L1229,749.3457 " fill="#FBFB77" filter="url(#f4axaoujd7qhr)" style="stroke:#A80036;stroke-width:1.0;"/><path d="M1625,749.3457 L1625,759.3457 L1635,759.3457 L1625,749.3457 " fill="#FBFB77" style="stroke:#A80036;stroke-width:1.0;"/><text fill="#000000" font-family="sans-serif" font-size="13" lengthAdjust="spacing" textLength="385" x="1235" y="766.9141">It gets the modelID with which the appSelectable was created</text><path d="M10,797.6563 L72,797.6563 L72,804.6563 L62,814.6563 L10,814.6563 L10,797.6563 " fill="#EEEEEE" style="stroke:#000000;stroke-width:1.0;"/><rect fill="none" height="140.5527" style="stroke:#000000;stroke-width:2.0;" width="1985" x="10" y="797.6563"/><text fill="#000000" font-family="sans-serif" font-size="13" font-weight="bold" lengthAdjust="spacing" textLength="17" x="25" y="811.2246">alt</text><text fill="#000000" font-family="sans-serif" font-size="11" font-weight="bold" lengthAdjust="spacing" textLength="35" x="87" y="810.291">[click]</text><polygon fill="#A80036" points="1317,837.2773,1327,841.2773,1317,845.2773,1321,841.2773" style="stroke:#A80036;stroke-width:1.0;"/><line style="stroke:#A80036;stroke-width:1.0;" x1="38.5" x2="1323" y1="841.2773" y2="841.2773"/><text fill="#000000" font-family="sans-serif" font-size="13" lengthAdjust="spacing" textLength="114" x="45.5" y="836.5352">mouse click event</text><path d="M1334,819.9668 L1334,844.9668 L1830,844.9668 L1830,829.9668 L1820,819.9668 L1334,819.9668 " fill="#FBFB77" filter="url(#f4axaoujd7qhr)" style="stroke:#A80036;stroke-width:1.0;"/><path d="M1820,819.9668 L1820,829.9668 L1830,829.9668 L1820,819.9668 " fill="#FBFB77" style="stroke:#A80036;stroke-width:1.0;"/><text fill="#000000" font-family="sans-serif" font-size="13" lengthAdjust="spacing" textLength="475" x="1340" y="837.5352">mouse click on the document that has the appSelectableContainer directive</text><polygon fill="#A80036" points="467.5,876.5879,457.5,880.5879,467.5,884.5879,463.5,880.5879" style="stroke:#A80036;stroke-width:1.0;"/><line style="stroke:#A80036;stroke-width:1.0;" x1="461.5" x2="1328" y1="880.5879" y2="880.5879"/><path d="M1334,859.2773 L1334,899.2773 L1976,899.2773 L1976,869.2773 L1966,859.2773 L1334,859.2773 " fill="#FBFB77" filter="url(#f4axaoujd7qhr)" style="stroke:#A80036;stroke-width:1.0;"/><path d="M1966,859.2773 L1966,869.2773 L1976,869.2773 L1966,859.2773 " fill="#FBFB77" style="stroke:#A80036;stroke-width:1.0;"/><text fill="#000000" font-family="sans-serif" font-size="13" lengthAdjust="spacing" textLength="617" x="1340" y="876.8457">the mouse event is captured by the appSelectableContainer through the :host angular mechanism.</text><text fill="#000000" font-family="sans-serif" font-size="13" lengthAdjust="spacing" textLength="11" x="1344" y="892.1563">M</text><polygon fill="#A80036" points="309,926.209,299,930.209,309,934.209,305,930.209" style="stroke:#A80036;stroke-width:1.0;"/><line style="stroke:#A80036;stroke-width:1.0;" x1="303" x2="455.5" y1="930.209" y2="930.209"/><text fill="#000000" font-family="sans-serif" font-size="13" lengthAdjust="spacing" textLength="38" x="315" y="925.4668">clear()</text><!--MD5=[360a448db46d5bba5d64f85b00f0367f]
@startuml selectable_sequence
actor User
boundary DocumentPieceComponent
create entity SelectionManager
DocumentPieceComponent -> SelectionManager
create control appSelectableContainer
DocumentPieceComponent -> appSelectableContainer : selectionManager
create boundary SectionComponent
DocumentPieceComponent -> SectionComponent : selectionManager
create boundary DocumentThumbnailComponent
SectionComponent -> DocumentThumbnailComponent : selectionManager
create control appSelectable
DocumentThumbnailComponent -> appSelectable : selectionManager and modelID=documentID
User -> DocumentThumbnailComponent: mouse event
note right : mouse click on the document thumbnail that has the appSelectable directive
DocumentThumbnailComponent -> appSelectable
note right : the mouse event is captured by the appSelectable through the :host angular mechanism
alt shift + left click
  appSelectable -> SelectionManager: selectRange(this)
end
alt meta key + click
  appSelectable -> SelectionManager: addOrRemove(this)
end
alt click
  appSelectable -> SelectionManager: replace(this)
end
DocumentThumbnailComponent -> SelectionManager: getSelected()
SelectionManager - -> DocumentThumbnailComponent: appSelectable[]
note right : Return all selected appSelectable
loop for each appSelectable
  DocumentThumbnailComponent - -> appSelectable: modelID
  note right : It gets the modelID with which the appSelectable was created
end  

alt click
  User -> Document: mouse click event
  note right : mouse click on the document that has the appSelectableContainer directive
  Document -> appSelectableContainer
  note right : the mouse event is captured by the appSelectableContainer through the :host angular mechanism. \n M
  appSelectableContainer -> SelectionManager: clear()
end


@enduml

PlantUML version 1.2021.00(Sun Jan 10 11:25:05 CET 2021)
(GPL source distribution)
Java Runtime: Java(TM) SE Runtime Environment
JVM: Java HotSpot(TM) 64-Bit Server VM
Default Encoding: UTF-8
Language: es
Country: ES
--></g></svg>
