<?xml version="1.0" encoding="UTF-8" standalone="no"?><svg xmlns="http://www.w3.org/2000/svg" xmlns:xlink="http://www.w3.org/1999/xlink" contentScriptType="application/ecmascript" contentStyleType="text/css" height="284px" preserveAspectRatio="none" style="width:484px;height:284px;" version="1.1" viewBox="0 0 484 284" width="484px" zoomAndPan="magnify"><defs><filter height="300%" id="f7jgdig0idwsx" width="300%" x="-1" y="-1"><feGaussianBlur result="blurOut" stdDeviation="2.0"/><feColorMatrix in="blurOut" result="blurOut2" type="matrix" values="0 0 0 0 0 0 0 0 0 0 0 0 0 0 0 0 0 0 .4 0"/><feOffset dx="4.0" dy="4.0" in="blurOut2" result="blurOut3"/><feBlend in="SourceGraphic" in2="blurOut3" mode="normal"/></filter></defs><g><!--MD5=[d721d171dab35779ab433cf07f885c7c]
class SelectableDirective--><rect codeLine="2" fill="#FEFECE" filter="url(#f7jgdig0idwsx)" height="48" id="SelectableDirective" style="stroke:#A80036;stroke-width:1.5;" width="140" x="7" y="7"/><ellipse cx="22" cy="23" fill="#ADD1B2" rx="11" ry="11" style="stroke:#A80036;stroke-width:1.0;"/><path d="M24.4731,29.1431 Q23.8921,29.4419 23.2529,29.5913 Q22.6138,29.7407 21.9082,29.7407 Q19.4014,29.7407 18.0815,28.0889 Q16.7617,26.437 16.7617,23.3159 Q16.7617,20.1865 18.0815,18.5347 Q19.4014,16.8828 21.9082,16.8828 Q22.6138,16.8828 23.2612,17.0322 Q23.9087,17.1816 24.4731,17.4805 L24.4731,20.2031 Q23.8423,19.6221 23.2488,19.3523 Q22.6553,19.0825 22.0244,19.0825 Q20.6797,19.0825 19.9949,20.1492 Q19.3101,21.2158 19.3101,23.3159 Q19.3101,25.4077 19.9949,26.4744 Q20.6797,27.541 22.0244,27.541 Q22.6553,27.541 23.2488,27.2712 Q23.8423,27.0015 24.4731,26.4204 Z " fill="#000000"/><text fill="#000000" font-family="sans-serif" font-size="12" lengthAdjust="spacing" textLength="108" x="36" y="27.5352">SelectableDirective</text><line style="stroke:#A80036;stroke-width:1.5;" x1="8" x2="146" y1="39" y2="39"/><line style="stroke:#A80036;stroke-width:1.5;" x1="8" x2="146" y1="47" y2="47"/><!--MD5=[d1d3254299cba2fb8918dbe2a5062061]
class SelectableContainerDirective--><rect codeLine="4" fill="#FEFECE" filter="url(#f7jgdig0idwsx)" height="48" id="SelectableContainerDirective" style="stroke:#A80036;stroke-width:1.5;" width="195" x="275.5" y="7"/><ellipse cx="290.5" cy="23" fill="#ADD1B2" rx="11" ry="11" style="stroke:#A80036;stroke-width:1.0;"/><path d="M292.9731,29.1431 Q292.3921,29.4419 291.7529,29.5913 Q291.1138,29.7407 290.4082,29.7407 Q287.9014,29.7407 286.5815,28.0889 Q285.2617,26.437 285.2617,23.3159 Q285.2617,20.1865 286.5815,18.5347 Q287.9014,16.8828 290.4082,16.8828 Q291.1138,16.8828 291.7612,17.0322 Q292.4087,17.1816 292.9731,17.4805 L292.9731,20.2031 Q292.3423,19.6221 291.7488,19.3523 Q291.1553,19.0825 290.5244,19.0825 Q289.1797,19.0825 288.4949,20.1492 Q287.8101,21.2158 287.8101,23.3159 Q287.8101,25.4077 288.4949,26.4744 Q289.1797,27.541 290.5244,27.541 Q291.1553,27.541 291.7488,27.2712 Q292.3423,27.0015 292.9731,26.4204 Z " fill="#000000"/><text fill="#000000" font-family="sans-serif" font-size="12" lengthAdjust="spacing" textLength="163" x="304.5" y="27.5352">SelectableContainerDirective</text><line style="stroke:#A80036;stroke-width:1.5;" x1="276.5" x2="469.5" y1="39" y2="39"/><line style="stroke:#A80036;stroke-width:1.5;" x1="276.5" x2="469.5" y1="47" y2="47"/><!--MD5=[f572113914eb3489eb0702b36155c1a5]
class SelectionManager--><rect codeLine="6" fill="#FEFECE" filter="url(#f7jgdig0idwsx)" height="138.6855" id="SelectionManager" style="stroke:#A80036;stroke-width:1.5;" width="239" x="32.5" y="132"/><ellipse cx="97.75" cy="148" fill="#ADD1B2" rx="11" ry="11" style="stroke:#A80036;stroke-width:1.0;"/><path d="M100.2231,154.1431 Q99.6421,154.4419 99.0029,154.5913 Q98.3638,154.7407 97.6582,154.7407 Q95.1514,154.7407 93.8315,153.0889 Q92.5117,151.437 92.5117,148.3159 Q92.5117,145.1865 93.8315,143.5347 Q95.1514,141.8828 97.6582,141.8828 Q98.3638,141.8828 99.0112,142.0322 Q99.6587,142.1816 100.2231,142.4805 L100.2231,145.2031 Q99.5923,144.6221 98.9988,144.3523 Q98.4053,144.0825 97.7744,144.0825 Q96.4297,144.0825 95.7449,145.1492 Q95.0601,146.2158 95.0601,148.3159 Q95.0601,150.4077 95.7449,151.4744 Q96.4297,152.541 97.7744,152.541 Q98.4053,152.541 98.9988,152.2712 Q99.5923,152.0015 100.2231,151.4204 Z " fill="#000000"/><text fill="#000000" font-family="sans-serif" font-size="12" lengthAdjust="spacing" textLength="100" x="118.25" y="152.5352">SelectionManager</text><line style="stroke:#A80036;stroke-width:1.5;" x1="33.5" x2="270.5" y1="164" y2="164"/><line style="stroke:#A80036;stroke-width:1.5;" x1="33.5" x2="270.5" y1="172" y2="172"/><ellipse cx="43.5" cy="183" fill="#84BE84" rx="3" ry="3" style="stroke:#038048;stroke-width:1.0;"/><text fill="#000000" font-family="sans-serif" font-size="11" lengthAdjust="spacing" textLength="213" x="52.5" y="186.6348">addOrRemove(item: SelectableDirective)</text><ellipse cx="43.5" cy="195.9551" fill="#84BE84" rx="3" ry="3" style="stroke:#038048;stroke-width:1.0;"/><text fill="#000000" font-family="sans-serif" font-size="11" lengthAdjust="spacing" textLength="177" x="52.5" y="199.5898">remove(item: SelectableDirective)</text><ellipse cx="43.5" cy="208.9102" fill="#84BE84" rx="3" ry="3" style="stroke:#038048;stroke-width:1.0;"/><text fill="#000000" font-family="sans-serif" font-size="11" lengthAdjust="spacing" textLength="34" x="52.5" y="212.5449">clear()</text><ellipse cx="43.5" cy="221.8652" fill="#84BE84" rx="3" ry="3" style="stroke:#038048;stroke-width:1.0;"/><text fill="#000000" font-family="sans-serif" font-size="11" lengthAdjust="spacing" textLength="176" x="52.5" y="225.5">replace(item: SelectableDirective)</text><ellipse cx="43.5" cy="234.8203" fill="#84BE84" rx="3" ry="3" style="stroke:#038048;stroke-width:1.0;"/><text fill="#000000" font-family="sans-serif" font-size="11" lengthAdjust="spacing" textLength="189" x="52.5" y="238.4551">selectRange(to: SelectableDirective)</text><ellipse cx="43.5" cy="247.7754" fill="#84BE84" rx="3" ry="3" style="stroke:#038048;stroke-width:1.0;"/><text fill="#000000" font-family="sans-serif" font-size="11" lengthAdjust="spacing" textLength="196" x="52.5" y="251.4102">addSelectable(el: SelectableDirective)</text><text fill="#000000" font-family="sans-serif" font-size="11" lengthAdjust="spacing" textLength="183" x="52.5" y="264.3652">getSelected(): SelectableDirective[]</text><!--MD5=[fa9e35ab640cebf5e82ede850657be46]
link SelectionManager to SelectableDirective--><path codeLine="16" d="M88.73,131.81 C82.74,122.34 77.58,112.3 74,102 C69.38,88.71 69.54,73.15 71.11,60.07 " fill="none" id="SelectionManager-to-SelectableDirective" style="stroke:#A80036;stroke-width:1.0;"/><polygon fill="#A80036" points="71.81,55.01,66.6112,63.375,71.1229,59.9626,74.5353,64.4743,71.81,55.01" style="stroke:#A80036;stroke-width:1.0;"/><text fill="#000000" font-family="sans-serif" font-size="13" lengthAdjust="spacing" textLength="109" x="75" y="98.5684">selectedElements</text><text fill="#000000" font-family="sans-serif" font-size="13" lengthAdjust="spacing" textLength="8" x="61.4551" y="75.6926">n</text><!--MD5=[fa9e35ab640cebf5e82ede850657be46]
link SelectionManager to SelectableDirective--><path codeLine="17" d="M193.19,131.97 C197.78,115.85 198.01,99.23 189,85 C180.14,71 166.47,60.63 151.68,52.96 " fill="none" id="SelectionManager-to-SelectableDirective-1" style="stroke:#A80036;stroke-width:1.0;"/><polygon fill="#A80036" points="147.07,50.67,153.3601,58.2485,151.5507,52.8889,156.9103,51.0794,147.07,50.67" style="stroke:#A80036;stroke-width:1.0;"/><text fill="#000000" font-family="sans-serif" font-size="13" lengthAdjust="spacing" textLength="120" x="196" y="98.5684">selectableElements</text><text fill="#000000" font-family="sans-serif" font-size="13" lengthAdjust="spacing" textLength="8" x="155.1714" y="49.5864">n</text><!--MD5=[ac43df38e42bc257ab5b24b59b85e55f]
link SelectableDirective to SelectionManager--><path codeLine="20" d="M62.507,66.7425 C62.507,66.7425 58.84,91.19 63,102 C65.45,108.36 68.51,114.56 72.03,120.56 " fill="none" id="SelectableDirective-SelectionManager" style="stroke:#A80036;stroke-width:1.0;"/><polygon fill="#A80036" points="79.29,131.83,77.777,122.0981,76.5815,127.6271,71.0524,126.4317,79.29,131.83" style="stroke:#A80036;stroke-width:1.0;"/><line style="stroke:#A80036;stroke-width:1.0;" x1="76.5815" x2="72.245" y1="127.6271" y2="120.895"/><polygon fill="#A80036" points="65.96,55.25,60.4027,59.8452,62.507,66.7425,68.0643,62.1472,65.96,55.25" style="stroke:#A80036;stroke-width:1.0;"/><!--MD5=[6be429ff44ed169927133287ccd5a709]
link SelectableContainerDirective to SelectionManager--><path codeLine="19" d="M354.4901,65.3294 C354.4901,65.3294 336.1,91.79 325,102 C312.21,113.77 297.76,124.71 282.81,134.71 " fill="none" id="SelectableContainerDirective-SelectionManager" style="stroke:#A80036;stroke-width:1.0;"/><polygon fill="#A80036" points="271.85,141.81,281.5782,140.2732,276.0462,139.0912,277.2282,133.5592,271.85,141.81" style="stroke:#A80036;stroke-width:1.0;"/><line style="stroke:#A80036;stroke-width:1.0;" x1="276.0462" x2="282.755" y1="139.0912" y2="134.74"/><polygon fill="#A80036" points="360.78,55.11,354.2286,58.1231,354.4901,65.3294,361.0415,62.3164,360.78,55.11" style="stroke:#A80036;stroke-width:1.0;"/><!--MD5=[83aae1c91d674c35fd6a39b5d7d4b131]
@startuml selectable_class

class SelectableDirective

class SelectableContainerDirective

class SelectionManager {
  +addOrRemove(item: SelectableDirective)
  +remove(item: SelectableDirective)
  +clear()
  +replace(item: SelectableDirective) 
  +selectRange(to: SelectableDirective)
  +addSelectable(el: SelectableDirective)
  getSelected(): SelectableDirective[]
}

SelectionManager - -> "n" SelectableDirective: selectedElements
SelectionManager - -> "n" SelectableDirective: selectableElements

SelectableContainerDirective *- -> SelectionManager
SelectableDirective *- -> SelectionManager
@enduml

PlantUML version 1.2021.00(Sun Jan 10 11:25:05 CET 2021)
(GPL source distribution)
Java Runtime: Java(TM) SE Runtime Environment
JVM: Java HotSpot(TM) 64-Bit Server VM
Default Encoding: UTF-8
Language: es
Country: ES
--></g></svg>