<?xml version="1.0" encoding="UTF-8" standalone="no"?><svg xmlns="http://www.w3.org/2000/svg" xmlns:xlink="http://www.w3.org/1999/xlink" contentScriptType="application/ecmascript" contentStyleType="text/css" height="505px" preserveAspectRatio="none" style="width:591px;height:505px;" version="1.1" viewBox="0 0 591 505" width="591px" zoomAndPan="magnify"><defs><filter height="300%" id="fezpg5vrrzjdf" width="300%" x="-1" y="-1"><feGaussianBlur result="blurOut" stdDeviation="2.0"/><feColorMatrix in="blurOut" result="blurOut2" type="matrix" values="0 0 0 0 0 0 0 0 0 0 0 0 0 0 0 0 0 0 .4 0"/><feOffset dx="4.0" dy="4.0" in="blurOut2" result="blurOut3"/><feBlend in="SourceGraphic" in2="blurOut3" mode="normal"/></filter></defs><g><!--MD5=[c6f97f5e9a868b3671e2be9a88dc91c6]
class IUserProjection--><rect codeLine="1" fill="#FEFECE" filter="url(#fezpg5vrrzjdf)" height="86.8652" id="IUserProjection" style="stroke:#A80036;stroke-width:1.5;" width="267" x="7" y="7"/><ellipse cx="93.25" cy="23" fill="#B4A7E5" rx="11" ry="11" style="stroke:#A80036;stroke-width:1.0;"/><path d="M89.6777,19.2651 L89.6777,17.1069 L97.0571,17.1069 L97.0571,19.2651 L94.5918,19.2651 L94.5918,27.3418 L97.0571,27.3418 L97.0571,29.5 L89.6777,29.5 L89.6777,27.3418 L92.1431,27.3418 L92.1431,19.2651 Z " fill="#000000"/><text fill="#000000" font-family="sans-serif" font-size="12" font-style="italic" lengthAdjust="spacingAndGlyphs" textLength="86" x="113.75" y="27.5352">IUserProjection</text><line style="stroke:#A80036;stroke-width:1.5;" x1="8" x2="273" y1="39" y2="39"/><line style="stroke:#A80036;stroke-width:1.5;" x1="8" x2="273" y1="47" y2="47"/><text fill="#000000" font-family="sans-serif" font-size="11" lengthAdjust="spacingAndGlyphs" textLength="55" x="13" y="61.6348">getId(): int</text><text fill="#000000" font-family="sans-serif" font-size="11" lengthAdjust="spacingAndGlyphs" textLength="117" x="13" y="74.5898">getUsername(): String</text><text fill="#000000" font-family="sans-serif" font-size="11" lengthAdjust="spacingAndGlyphs" textLength="255" x="13" y="87.5449">getPermissions(): List&lt;IPermissionsProjection&gt;</text><!--MD5=[c2037c5658bbdc6c836aae31510cc789]
class IPermissionsProjection--><rect codeLine="9" fill="#FEFECE" filter="url(#fezpg5vrrzjdf)" height="86.8652" id="IPermissionsProjection" style="stroke:#A80036;stroke-width:1.5;" width="208" x="36.5" y="173.5"/><ellipse cx="73.1" cy="189.5" fill="#B4A7E5" rx="11" ry="11" style="stroke:#A80036;stroke-width:1.0;"/><path d="M69.5277,185.7651 L69.5277,183.6069 L76.9071,183.6069 L76.9071,185.7651 L74.4418,185.7651 L74.4418,193.8418 L76.9071,193.8418 L76.9071,196 L69.5277,196 L69.5277,193.8418 L71.9931,193.8418 L71.9931,185.7651 Z " fill="#000000"/><text fill="#000000" font-family="sans-serif" font-size="12" font-style="italic" lengthAdjust="spacingAndGlyphs" textLength="128" x="91.9" y="194.0352">IPermissionsProjection</text><line style="stroke:#A80036;stroke-width:1.5;" x1="37.5" x2="243.5" y1="205.5" y2="205.5"/><line style="stroke:#A80036;stroke-width:1.5;" x1="37.5" x2="243.5" y1="213.5" y2="213.5"/><text fill="#000000" font-family="sans-serif" font-size="11" lengthAdjust="spacingAndGlyphs" textLength="55" x="42.5" y="228.1348">getId(): int</text><text fill="#000000" font-family="sans-serif" font-size="11" lengthAdjust="spacingAndGlyphs" textLength="114" x="42.5" y="241.0898">getPermission(): char</text><text fill="#000000" font-family="sans-serif" font-size="11" lengthAdjust="spacingAndGlyphs" textLength="196" x="42.5" y="254.0449">getCollection(): ICollectionProjection</text><!--MD5=[87915f38cc8a68312997b6477608cecd]
class ICollectionProjection--><rect codeLine="17" fill="#FEFECE" filter="url(#fezpg5vrrzjdf)" height="125.7305" id="ICollectionProjection" style="stroke:#A80036;stroke-width:1.5;" width="269" x="280" y="154"/><ellipse cx="352.75" cy="170" fill="#B4A7E5" rx="11" ry="11" style="stroke:#A80036;stroke-width:1.0;"/><path d="M349.1777,166.2651 L349.1777,164.1069 L356.5571,164.1069 L356.5571,166.2651 L354.0918,166.2651 L354.0918,174.3418 L356.5571,174.3418 L356.5571,176.5 L349.1777,176.5 L349.1777,174.3418 L351.6431,174.3418 L351.6431,166.2651 Z " fill="#000000"/><text fill="#000000" font-family="sans-serif" font-size="12" font-style="italic" lengthAdjust="spacingAndGlyphs" textLength="115" x="373.25" y="174.5352">ICollectionProjection</text><line style="stroke:#A80036;stroke-width:1.5;" x1="281" x2="548" y1="186" y2="186"/><line style="stroke:#A80036;stroke-width:1.5;" x1="281" x2="548" y1="194" y2="194"/><text fill="#000000" font-family="sans-serif" font-size="11" lengthAdjust="spacingAndGlyphs" textLength="55" x="286" y="208.6348">getId(): int</text><text fill="#000000" font-family="sans-serif" font-size="11" lengthAdjust="spacingAndGlyphs" textLength="93" x="286" y="221.5898">getName(): String</text><text fill="#000000" font-family="sans-serif" font-size="11" lengthAdjust="spacingAndGlyphs" textLength="121" x="286" y="234.5449">getComments(): String</text><text fill="#000000" font-family="sans-serif" font-size="11" lengthAdjust="spacingAndGlyphs" textLength="241" x="286" y="247.5">getDocuments(): List&lt;IDocumentProjection&gt;</text><text fill="#000000" font-family="sans-serif" font-size="11" lengthAdjust="spacingAndGlyphs" textLength="257" x="286" y="260.4551">getSubcollections(): List&lt;ICollectionProjection&gt;</text><text fill="#000000" font-family="sans-serif" font-size="11" lengthAdjust="spacingAndGlyphs" textLength="113" x="286" y="273.4102">getParentId(): Integer</text><!--MD5=[21a664d3950297633ed61503e41a8213]
class IDocumentProjection--><rect codeLine="29" fill="#FEFECE" filter="url(#fezpg5vrrzjdf)" height="151.6406" id="IDocumentProjection" style="stroke:#A80036;stroke-width:1.5;" width="220" x="304.5" y="340"/><ellipse cx="351.25" cy="356" fill="#B4A7E5" rx="11" ry="11" style="stroke:#A80036;stroke-width:1.0;"/><path d="M347.6777,352.2651 L347.6777,350.1069 L355.0571,350.1069 L355.0571,352.2651 L352.5918,352.2651 L352.5918,360.3418 L355.0571,360.3418 L355.0571,362.5 L347.6777,362.5 L347.6777,360.3418 L350.1431,360.3418 L350.1431,352.2651 Z " fill="#000000"/><text fill="#000000" font-family="sans-serif" font-size="12" font-style="italic" lengthAdjust="spacingAndGlyphs" textLength="118" x="371.75" y="360.5352">IDocumentProjection</text><line style="stroke:#A80036;stroke-width:1.5;" x1="305.5" x2="523.5" y1="372" y2="372"/><line style="stroke:#A80036;stroke-width:1.5;" x1="305.5" x2="523.5" y1="380" y2="380"/><text fill="#000000" font-family="sans-serif" font-size="11" lengthAdjust="spacingAndGlyphs" textLength="55" x="310.5" y="394.6348">getId(): int</text><text fill="#000000" font-family="sans-serif" font-size="11" lengthAdjust="spacingAndGlyphs" textLength="93" x="310.5" y="407.5898">getName(): String</text><text fill="#000000" font-family="sans-serif" font-size="11" lengthAdjust="spacingAndGlyphs" textLength="119" x="310.5" y="420.5449">getComposer(): String</text><text fill="#000000" font-family="sans-serif" font-size="11" lengthAdjust="spacingAndGlyphs" textLength="121" x="310.5" y="433.5">getComments(): String</text><text fill="#000000" font-family="sans-serif" font-size="11" lengthAdjust="spacingAndGlyphs" textLength="83" x="310.5" y="446.4551">getState(): State</text><text fill="#000000" font-family="sans-serif" font-size="11" lengthAdjust="spacingAndGlyphs" textLength="86" x="310.5" y="459.4102">getPath(): String</text><text fill="#000000" font-family="sans-serif" font-size="11" lengthAdjust="spacingAndGlyphs" textLength="208" x="310.5" y="472.3652">getThumbnailBase64Encoding(): String</text><text fill="#000000" font-family="sans-serif" font-size="11" lengthAdjust="spacingAndGlyphs" textLength="144" x="310.5" y="485.3203">getParts(): IPartProjection[]</text><!--MD5=[d11b9c962a222e570b2340f9e3a8a026]
class IPartProjection--><rect codeLine="42" fill="#FEFECE" filter="url(#fezpg5vrrzjdf)" height="86.8652" id="IPartProjection" style="stroke:#A80036;stroke-width:1.5;" width="133" x="136" y="372.5"/><ellipse cx="159.1" cy="388.5" fill="#B4A7E5" rx="11" ry="11" style="stroke:#A80036;stroke-width:1.0;"/><path d="M155.5277,384.7651 L155.5277,382.6069 L162.9071,382.6069 L162.9071,384.7651 L160.4418,384.7651 L160.4418,392.8418 L162.9071,392.8418 L162.9071,395 L155.5277,395 L155.5277,392.8418 L157.9931,392.8418 L157.9931,384.7651 Z " fill="#000000"/><text fill="#000000" font-family="sans-serif" font-size="12" font-style="italic" lengthAdjust="spacingAndGlyphs" textLength="83" x="174.9" y="393.0352">IPartProjection</text><line style="stroke:#A80036;stroke-width:1.5;" x1="137" x2="268" y1="404.5" y2="404.5"/><line style="stroke:#A80036;stroke-width:1.5;" x1="137" x2="268" y1="412.5" y2="412.5"/><text fill="#000000" font-family="sans-serif" font-size="11" lengthAdjust="spacingAndGlyphs" textLength="65" x="142" y="427.1348">getId(): long</text><text fill="#000000" font-family="sans-serif" font-size="11" lengthAdjust="spacingAndGlyphs" textLength="93" x="142" y="440.0898">getName(): String</text><text fill="#000000" font-family="sans-serif" font-size="11" lengthAdjust="spacingAndGlyphs" textLength="121" x="142" y="453.0449">getComments(): String</text><!--MD5=[7a872300fda05acdf78e9da2c7b081bb]
link IUserProjection to IPermissionsProjection--><path codeLine="7" d="M140.5,94.29 C140.5,116.95 140.5,144.84 140.5,168.2 " fill="none" id="IUserProjection-to-IPermissionsProjection" style="stroke:#A80036;stroke-width:1.0;stroke-dasharray:7.0,7.0;"/><polygon fill="#A80036" points="140.5,173.42,144.5,164.42,140.5,168.42,136.5,164.42,140.5,173.42" style="stroke:#A80036;stroke-width:1.0;"/><!--MD5=[7c86ad912a89fa9caa508aa8f652c929]
link IPermissionsProjection to ICollectionProjection--><path codeLine="15" d="M244.59,217 C254.57,217 264.56,217 274.54,217 " fill="none" id="IPermissionsProjection-to-ICollectionProjection" style="stroke:#A80036;stroke-width:1.0;stroke-dasharray:7.0,7.0;"/><polygon fill="#A80036" points="279.77,217,270.7815,212.9743,274.77,216.9857,270.7586,220.9743,279.77,217" style="stroke:#A80036;stroke-width:1.0;"/><!--MD5=[75879bb90a88f61ee78ccefc769ed17b]
link ICollectionProjection to IDocumentProjection--><path codeLine="26" d="M414.5,280.06 C414.5,297.38 414.5,316.45 414.5,334.66 " fill="none" id="ICollectionProjection-to-IDocumentProjection" style="stroke:#A80036;stroke-width:1.0;stroke-dasharray:7.0,7.0;"/><polygon fill="#A80036" points="414.5,339.77,418.5,330.77,414.5,334.77,410.5,330.77,414.5,339.77" style="stroke:#A80036;stroke-width:1.0;"/><!--MD5=[64037307ee7f25dd6c84263f042ca647]
reverse link ICollectionProjection to ICollectionProjection--><path codeLine="27" d="M554.32,189.77 C572.2,194.51 584,203.59 584,217 C584,231.67 569.88,241.16 549.12,245.45 " fill="none" id="ICollectionProjection-backto-ICollectionProjection" style="stroke:#A80036;stroke-width:1.0;stroke-dasharray:7.0,7.0;"/><polygon fill="#A80036" points="549.12,188.55,556.9646,194.505,553.9871,189.6952,558.7969,186.7177,549.12,188.55" style="stroke:#A80036;stroke-width:1.0;"/><!--MD5=[fad9cd0f26e59cd925bd08079f842309]
reverse link IPartProjection to IDocumentProjection--><path codeLine="40" d="M274.39,416 C284.38,416 294.37,416 304.36,416 " fill="none" id="IPartProjection-backto-IDocumentProjection" style="stroke:#A80036;stroke-width:1.0;stroke-dasharray:7.0,7.0;"/><polygon fill="#A80036" points="269.16,416,278.16,420,274.16,416,278.16,412,269.16,416" style="stroke:#A80036;stroke-width:1.0;"/><!--MD5=[13708c978f816f8e4a3b21d62d25db4b]
@startuml spring_projections
interface IUserProjection {
    getId(): int
    getUsername(): String
    getPermissions(): List<IPermissionsProjection>
}

IUserProjection ..> IPermissionsProjection

interface IPermissionsProjection {
    getId(): int
    getPermission(): char
    getCollection(): ICollectionProjection
}

IPermissionsProjection .> ICollectionProjection

interface ICollectionProjection {
    getId(): int
    getName(): String
    getComments(): String
    getDocuments(): List<IDocumentProjection>
    getSubcollections(): List<ICollectionProjection>
    getParentId(): Integer
}

ICollectionProjection ..> IDocumentProjection
ICollectionProjection <. ICollectionProjection

interface IDocumentProjection {
    getId(): int
    getName(): String
    getComposer(): String
    getComments(): String
    getState(): State
    getPath(): String
    getThumbnailBase64Encoding(): String
    getParts(): IPartProjection[]
}

IPartProjection <. IDocumentProjection

interface IPartProjection {
    getId(): long
    getName(): String
    getComments(): String
}


@enduml

PlantUML version 1.2020.22(Sun Dec 06 10:36:27 CET 2020)
(GPL source distribution)
Java Runtime: Java(TM) SE Runtime Environment
JVM: Java HotSpot(TM) 64-Bit Server VM
Default Encoding: UTF-8
Language: es
Country: ES
--></g></svg>