<svg xmlns:xlink="http://www.w3.org/1999/xlink" xmlns="http://www.w3.org/2000/svg"
     width="1335" height="180" viewBox="23 0 1335 180">

    <!-- https://stackoverflow.com/questions/25223772/how-to-properly-scale-a-glyph-of-an-svg-font-using-an-svg-symbol-viewbox -->
    <!-- uniE05C -->
    <!-- 0 -(em-descent) (em+hhoriz-adv-x del símbolo) em -->
<!-- ascent = 800, descent = -200, em = 1000 -->
    <symbol id="bravura" viewBox="0 -1200 1699 1800" preserveAspectRatio="xMinYMin" overflow="visible">
        <path
                d="M21 503h86c14 0 21 -7 21 -21v-964c0 -14 -7 -21 -21 -21h-86c-14 0 -21 7 -21 21v964c0 14 7 21 21 21zM230 482v-438c0 -8 5 -7 9 -6c26 7 68 33 89 146c3 16 9 25 19 25c11 0 16 -10 21 -27c13 -44 36 -93 107 -93c65 0 83 64 83 195s-23 190 -106 190
c-22 0 -42 -3 -58 -8c-17 -5 -27 -12 -27 -19c0 -5 16 -11 27 -15c20 -7 40 -27 40 -65c0 -44 -29 -69 -68 -69c-43 0 -77 29 -77 82c0 63 55 126 174 126c164 0 236 -115 236 -219c0 -138 -76 -234 -209 -234c-29 0 -48 5 -61 9c-10 3 -20 5 -29 -1c-14 -9 -36 -41 -36 -61
s22 -52 36 -61c9 -6 19 -4 29 -1c13 4 32 9 61 9c133 0 209 -96 209 -234c0 -104 -72 -219 -236 -219c-119 0 -174 63 -174 126c0 53 34 82 77 82c39 0 68 -25 68 -69c0 -38 -20 -58 -40 -65c-11 -4 -27 -10 -27 -15c0 -7 10 -14 27 -19c16 -5 36 -8 58 -8
c83 0 106 59 106 190s-18 195 -83 195c-71 0 -94 -49 -107 -93c-5 -17 -10 -27 -21 -27c-10 0 -16 9 -19 25c-21 113 -63 139 -89 146c-4 1 -9 2 -9 -6v-438c0 -14 -7 -21 -21 -21h-1c-14 0 -21 7 -21 21v964c0 14 7 21 21 21h1c14 0 21 -7 21 -21z"
                transform = "scale(1, -1) translate(0,1200)"
        />
    </symbol>

    <symbol id="bravura2" viewBox="0 -1200 1699 1800" preserveAspectRatio="xMinYMin" overflow="visible">
        <path
                d="M28 -552v-43c0 -12 0 -16 6 -16c7 0 23 15 38 38c11 17 15 34 15 49s-5 32 -22 32c-9 0 -18 -4 -24 -11c-7 -8 -13 -21 -13 -49zM299 -499c32 0 61 35 70 82c6 31 8 76 -34 76c-35 0 -69 -51 -69 -114c0 -27 7 -44 33 -44zM2 -634c-2 19 -2 279 -2 315c0 11 7 16 19 16
c7 0 13 -3 13 -10c0 -40 -4 -127 -4 -154c0 -7 1 -10 6 -10c4 0 11 4 17 8c11 7 23 11 38 11c28 0 52 -17 52 -50c0 -40 -23 -75 -88 -118c-18 -12 -23 -23 -37 -23c-10 0 -13 6 -14 15zM458 103l49 -285c2 -12 4 -12 16 -6c56 28 94 79 94 142c0 88 -67 156 -148 163
c-12 1 -13 -2 -11 -14zM447 650c78 78 111 142 111 211c0 55 -27 82 -60 82c-61 0 -133 -96 -133 -252c0 -32 2 -66 6 -92c2 -13 6 -14 13 -8c23 20 47 43 63 59zM389 262l-21 128c-2 11 -4 12 -14 4c-47 -38 -93 -75 -153 -142c-83 -94 -93 -173 -93 -232
c0 -139 113 -236 288 -236c20 0 40 2 56 5c15 3 16 3 14 14l-50 298c-2 11 -4 12 -20 8c-61 -17 -100 -60 -100 -117c0 -46 30 -89 72 -107c7 -3 15 -6 15 -13c0 -6 -4 -11 -12 -11c-7 0 -19 3 -27 6c-68 23 -115 87 -115 177c0 85 57 164 145 194c18 6 18 5 15 24zM404 415
l25 -145c3 -18 3 -18 29 -18c147 0 241 -113 241 -241c0 -113 -67 -198 -168 -238c-14 -6 -15 -5 -13 -17c11 -62 29 -157 29 -214c0 -162 -119 -209 -244 -209c-26 0 -47 1 -67 5c-45 4 -71 30 -71 64c0 30 19 50 44 50c21 0 38 -13 38 -34c0 -19 -11 -33 -24 -39
c-4 -2 -12 -6 -12 -9c0 -6 13 -11 31 -10c53 2 87 61 106 115c5 16 -3 18 -11 12c-18 -13 -39 -19 -64 -19c-52 0 -80 34 -80 77c0 92 74 137 140 137c112 0 122 -97 90 -195c-18 -57 -46 -97 -81 -122c-3 -2 -4 -4 -4 -6c0 -6 12 -4 36 4c27 9 129 33 129 181
c0 47 -15 134 -27 201c-2 12 -4 11 -15 9c-20 -4 -46 -6 -69 -6c-245 0 -364 165 -364 339c0 107 43 200 112 286c52 64 121 125 185 178c12 10 11 12 9 24c-7 41 -14 106 -14 164c0 104 24 229 98 311c20 22 51 48 65 48c11 0 37 -28 52 -50c41 -60 65 -146 65 -233
c0 -113 -50 -232 -134 -324c-19 -21 -40 -42 -56 -57c-6 -6 -8 -7 -6 -19z"
                transform = "scale(1, -1) translate(0,1200)"
        />
    </symbol>
    <!-- translate: (em-descent) -->

    <!--ascent="1638"
    descent="-410"
     bbox="-12 -4121 3379 4121"
    -->

    <symbol id="clef.G" viewBox="0 -2458 3141 3686" preserveAspectRatio="xMinYMin" overflow="visible">
        <path
                d="M1094 156c0 -170 -46 -315 -152 -430c-104 -113 -227 -177 -379 -185c8 -496 21 -788 17 -880c-4 -106 -13 -197 -33 -275c-20 -76 -47 -137 -80 -176c-33 -41 -69 -70 -100 -90c-37 -23 -74 -33 -107 -33c-92 0 -133 68 -133 205c0 49 29 106 88 176c43 51 70 60 70 25 c0 -10 -4 -24 -6 -47c-6 -20 -15 -38 -17 -56l-8 -55c-2 -18 0 -33 8 -43c10 -10 23 -18 41 -18c88 0 144 120 154 358c10 240 0 546 -35 913c-129 25 -235 89 -309 191c-76 104 -113 239 -113 403c0 35 4 70 14 113c10 45 25 88 43 131c14 47 33 96 56 143 c23 49 44 95 67 140c20 41 43 84 66 125c20 39 43 75 57 104c12 29 31 52 41 70s14 28 14 30c0 61 2 172 4 332c2 162 3 314 7 449c4 141 4 209 4 213c0 45 36 102 110 182c70 74 127 115 168 115c61 0 107 -34 140 -93s51 -131 47 -217c-2 -37 -5 -84 -19 -133 s-27 -104 -45 -155c-18 -53 -39 -107 -59 -160c-23 -59 -48 -111 -68 -160c-25 -45 -45 -86 -63 -127s-33 -67 -41 -90l-19 -35c0 2 0 -23 4 -74c0 -49 5 -125 7 -231c2 -102 2 -213 4 -328c51 20 100 33 159 33c74 0 142 -10 199 -39c55 -27 98 -61 125 -102 c27 -39 47 -78 55 -117c10 -37 17 -69 17 -102zM569 2175c-10 0 -26 -22 -57 -61c-29 -43 -45 -72 -45 -95c0 -59 14 -194 22 -403c8 -211 23 -315 31 -313c10 0 29 36 60 110c33 76 69 166 98 275c29 106 45 192 39 260c-4 47 -15 88 -35 123c-20 37 -39 63 -59 77 c-23 16 -40 27 -54 27zM139 186c0 -127 27 -229 78 -303c53 -76 117 -129 195 -164c-10 160 -23 328 -33 504c-37 -33 -76 -88 -119 -164c0 27 13 70 29 129s45 115 86 170c-2 61 -6 164 -6 297v242c-61 -115 -115 -238 -160 -367s-70 -246 -70 -344zM580 -315 c115 0 207 29 266 88c63 63 96 139 96 243c0 78 -34 142 -104 201c-68 59 -154 78 -250 86c-23 2 -37 0 -45 0c2 -41 4 -243 14 -618h23z"
                transform = "scale(1, -1) translate(0,2458) "/>
    </symbol>
    <symbol id="accidental.sharp" viewBox="0 -2458 2693 3686" preserveAspectRatio="xMinYMin" overflow="visible">
        <path
                d="M496 -27c29 14 52 27 77 41c23 12 40 21 52 25c14 4 20 6 20 2c0 -6 -4 -27 -10 -64c-10 -33 -17 -49 -19 -49c-6 -4 -14 -8 -26 -16c-10 -4 -19 -10 -27 -18c-12 -4 -20 -11 -26 -13c-4 -2 -11 -4 -21 -10c-10 -4 -16 -10 -20 -12c-2 -104 -2 -199 -2 -279
c0 -4 -15 -20 -50 -47c-33 -27 -49 -41 -51 -41c-4 0 -6 104 -6 311c-37 -23 -84 -48 -135 -73v-52v-40v-31c-2 -6 -2 -15 -2 -21v-6c0 -4 -14 -22 -45 -47c-33 -27 -51 -41 -53 -41s-3 61 -5 184c-45 -23 -81 -45 -108 -57s-39 -14 -39 -12c0 6 2 26 8 59c6 35 13 53 17 53
c2 0 42 23 120 66v260c-49 -27 -87 -45 -110 -57c-25 -10 -35 -13 -35 -11c0 6 2 27 8 62c6 33 13 51 17 51s44 23 120 66v290c0 2 9 13 27 29c14 18 33 39 51 57c18 16 29 25 31 25s2 -115 0 -340l133 72v157c0 2 16 23 49 58s54 53 60 53c2 0 2 -72 2 -211
c47 27 83 43 110 55c25 10 37 15 37 11c0 -2 -2 -15 -4 -33c-4 -16 -8 -37 -12 -55c-8 -18 -11 -29 -13 -29l-77 -43l-41 -21c-2 -55 -2 -141 -2 -258zM254 -156c14 6 37 21 68 35c29 18 49 31 65 39v254l-133 -70v-135v-123z"
        transform = "scale(1, -1) translate(0,2458)"
        />
    </symbol>

    <symbol id="semibrevis" viewBox="0 -2458 2899 3686" preserveAspectRatio="xMinYMin" overflow="visible">
        <path
                d="M412 285c47 0 96 -5 145 -15c47 -10 94 -25 141 -43c45 -20 82 -49 111 -84s43 -78 43 -125c0 -59 -25 -112 -76 -161c-51 -47 -112 -84 -184 -109s-141 -37 -211 -37c-111 0 -200 25 -272 74s-109 121 -109 213c0 76 45 142 133 201c88 57 181 86 279 86zM453 -221
        c66 0 123 16 170 51s69 86 69 158c0 51 -39 102 -117 153c-80 51 -145 76 -198 76c-18 0 -38 -2 -58 -6c-20 -6 -42 -15 -67 -29s-45 -34 -59 -65c-16 -31 -25 -66 -25 -109c0 -55 34 -106 104 -155s130 -74 181 -74z"
                transform = "scale(1, -1) translate(0,2458)"
        />
    </symbol>

    <g>
            <line stroke="black" stroke-width="1" id="0" x1="23" y1="108" x2="1358" y2="108"></line>
            <line stroke="black" stroke-width="1" id="1" x1="23" y1="99" x2="1358" y2="99"></line>
            <line stroke="black" stroke-width="1" id="2" x1="23" y1="90" x2="1358" y2="90"></line>
            <line stroke="black" stroke-width="1" id="3" x1="23" y1="81" x2="1358" y2="81"></line>
            <line stroke="black" stroke-width="1" id="4" x1="23" y1="72" x2="1358" y2="72"></line>
    </g>

    <g>
        <line stroke-width="5" stroke="red" id="10" x1="200" y1="0" x2="200" y2="1000"/>
        <line stroke-width="5" stroke="blue" id="10" x1="0" y1="500" x2="2000" y2="500"/>
        <line stroke-width="5" stroke="blue" id="10" x1="0" y1="600" x2="2000" y2="600"/> <!-- space height = 100px -->
    </g>
    <g>
        <use style="opacity:1.0" xlink:href="#bravura" x="500" y="90" height="87px"/>
        <use style="opacity:1.0" xlink:href="#bravura2" x="500" y="90" fill="green" height="87px"/>
        <use style="opacity:1.0" xlink:href="#clef.G" x="200" y="90" height="87px"/>
        <use style="opacity:1.0" xlink:href="#accidental.sharp" x="300" y="90" fill="green" height="87px"/>
        <use style="opacity:1.0" xlink:href="#semibrevis" x="200" y="90" fill="brown" height="87px"/>

        <!-- Con estos datos del viewport, y la altura de espacio 100px el width era: 720px
        width="2000" height="1500" viewBox="-500 100 3000 1500"> -->
        <!--<use style="opacity:1.0" xlink:href="#prueba" x="0" y="0"/>
        -->
    </g>
</svg>
