<?xml version="1.0" encoding="utf-8"?>
<!-- Generator: Adobe Illustrator 23.0.2, SVG Export Plug-In . SVG Version: 6.00 Build 0)  -->
<svg version="1.1" id="Capa_1" xmlns="http://www.w3.org/2000/svg" xmlns:xlink="http://www.w3.org/1999/xlink" x="0px" y="0px"
	 viewBox="0 0 1000 1000" style="enable-background:new 0 0 1000 1000;" xml:space="preserve">
<path d="M443.88,631.88v-99.81V422.29l108.13-56.56V572c-13.31,6.65-29.94,16.63-53.23,31.61
	C473.83,615.25,455.53,626.89,443.88,631.88z M640.17,527.09c0-94.82,0-164.68,1.66-209.6l33.27-16.63l63.21-34.93
	c1.66,0,3.33-8.32,9.98-23.29c3.33-14.97,6.65-31.61,9.98-44.91c1.66-14.97,3.33-24.95,3.33-26.62c0-3.33-9.98,0-29.94,8.32
	c-21.62,9.98-51.57,23.29-89.83,44.91c0-113.12,0-171.34-1.66-171.34c-4.99,0-21.62,14.97-48.24,43.25
	c-26.62,28.28-39.92,44.91-39.92,46.58v128.09l-108.13,58.22c1.66-182.98,1.66-276.13,0-276.13s-9.98,6.65-24.95,19.96
	c-14.97,14.97-29.94,31.61-41.59,46.58c-14.97,13.31-21.62,21.63-21.62,23.29v236.21c-61.55,34.93-94.82,53.23-98.14,53.23
	c-3.33,0-8.32,14.97-13.31,41.59c-4.99,28.28-6.65,44.91-6.65,49.9c0,1.66,8.32,0,28.28-8.32c18.3-9.98,49.9-24.95,89.83-46.58
	v211.26c-63.21,34.93-96.48,53.23-98.14,53.23c-3.33,0-8.32,14.97-13.31,43.25c-4.99,26.62-6.65,43.25-6.65,48.24
	c0,1.66,9.98,0,31.61-9.98c21.62-9.98,51.57-28.28,88.16-46.58c1.66,99.81,1.66,149.71,3.33,149.71c1.66,0,16.63-11.64,43.25-33.27
	c24.95-19.96,36.6-34.93,36.6-38.26v-4.99c0-4.99,0-11.64,1.66-16.63v-24.95v-33.27v-41.59c41.59-19.96,79.85-41.59,109.79-59.88
	c0,168.01,1.66,252.85,4.99,252.85c1.66,0,14.97-11.64,41.59-33.27c28.28-21.62,39.92-34.93,39.92-38.26
	c0-64.88,0-141.39,1.66-226.23c3.33-1.66,8.32-6.65,16.63-9.98c8.32-4.99,13.31-6.65,16.63-8.32c4.99-1.66,11.64-6.65,21.62-9.98
	c6.65-6.65,13.31-11.64,21.62-14.97c9.98-6.65,16.63-9.98,21.62-13.31c1.66,0,6.65-13.31,14.97-39.92
	c4.99-29.94,8.32-46.58,8.32-51.57c0-3.33-4.99-1.66-16.63,1.66c-9.98,3.33-23.29,9.98-41.59,19.96
	C683.42,505.46,663.46,515.44,640.17,527.09z"/>
</svg>
