<?xml version="1.0" encoding="utf-8"?>
<!-- Generator: Adobe Illustrator 23.0.2, SVG Export Plug-In . SVG Version: 6.00 Build 0)  -->
<svg version="1.1" id="Capa_1" xmlns="http://www.w3.org/2000/svg" xmlns:xlink="http://www.w3.org/1999/xlink" x="0px" y="0px"
	 viewBox="0 0 1000 1000" style="enable-background:new 0 0 1000 1000;" xml:space="preserve">
<path d="M460.22,845.95c-12.53,0-19.49-12.53-23.67-36.2c-4.18-23.67-6.96-69.62-8.35-137.85c-1.39-12.53-1.39-22.28-1.39-29.24
	c-1.39-9.75,9.75-23.67,33.42-44.56c23.67-19.49,40.38-29.24,51.52-29.24c18.1,0,29.24,12.53,34.81,36.2
	c5.57,23.67,8.35,75.19,8.35,151.78c0,12.53-6.96,26.46-19.49,41.77c-12.53,15.32-26.46,26.46-41.77,34.81
	C478.32,841.77,467.18,845.95,460.22,845.95z M567.44,497.84c-6.96,0-18.1,2.78-30.63,9.75c-12.53,6.96-25.06,15.32-37.6,25.06
	c-12.53,9.75-25.06,19.49-36.2,29.24c-11.14,9.75-20.89,18.1-27.85,25.06c-6.96,6.96-11.14,11.14-12.53,11.14
	c-1.39-16.71-2.78-45.95-1.39-89.12c0-41.77,0-100.26,1.39-174.06c1.39-73.8,1.39-115.57,1.39-122.54
	c1.39-66.84,19.49-115.57,57.09-144.81c2.78-1.39,4.18-2.78,4.18-4.18L474.14,62h-2.78C391.99,62,353,128.84,353,261.12
	C353,694.17,359.96,910,375.28,910c25.06,0,57.09-12.53,96.08-36.2c37.6-25.06,72.41-57.09,103.04-96.08
	c29.24-38.99,44.56-75.19,44.56-108.61c0-37.6-1.39-69.62-2.78-93.29c-2.78-23.67-6.96-40.38-11.14-51.52
	c-4.18-11.14-9.75-18.1-15.32-22.28C584.15,499.23,577.18,497.84,567.44,497.84z"/>
</svg>
