<?xml version="1.0" encoding="utf-8"?>
<!-- Generator: Adobe Illustrator 23.0.2, SVG Export Plug-In . SVG Version: 6.00 Build 0)  -->
<svg version="1.1" id="Capa_1" xmlns="http://www.w3.org/2000/svg" xmlns:xlink="http://www.w3.org/1999/xlink" x="0px" y="0px"
	 viewBox="0 0 1000 1000" style="enable-background:new 0 0 1000 1000;" xml:space="preserve">
<path d="M590,792C591,792,587,793,590,792z M590,792c-108,26-289,73-288,73s5,102,5,103c0,3,380-101,357-109l-1-1c-4,0,11-58,8-79
	l-12-526c0-94-103-222-221-222c-86,0-112,20-112,79c0,90,138,190,263,190l1,327h-14c-107,27-288,74-287,74s4,101,4,102
	c0,5,296-77,297-87V792z"/>
</svg>
