<?xml version="1.0" encoding="utf-8"?>
<!-- Generator: Adobe Illustrator 23.0.2, SVG Export Plug-In . SVG Version: 6.00 Build 0)  -->
<svg version="1.1" id="Capa_1" xmlns="http://www.w3.org/2000/svg" xmlns:xlink="http://www.w3.org/1999/xlink" x="0px" y="0px"
	 viewBox="0 0 1000 1000" style="enable-background:new 0 0 1000 1000;" xml:space="preserve">
<path d="M595.72,298.19L595.72,298.19c-0.87-8.71-277.75-85.33-277.75-81.84c0,1.74-3.48,95.77-4.35,95.77
	c-0.87,0,168.91,44.4,269.04,68.78h13.06l-0.87,307.35c-116.67,0-245.53,92.29-245.53,176.75c0,56.59,24.38,74.88,104.48,74.88
	c109.71,0,206.35-121.02,206.35-208.96l11.32-491.93c3.48-19.15-11.32-74.01-6.97-74.01l0.87-0.87
	c20.9-6.97-335.21-104.48-335.21-101c0,0.87-3.48,95.77-4.35,95.77c-0.87,0,168.91,44.4,269.91,68.78V298.19z M595.72,227.66
	C593.1,226.79,597.46,227.66,595.72,227.66z"/>
</svg>
