<?xml version="1.0" encoding="utf-8"?>
<!-- Generator: Adobe Illustrator 23.0.2, SVG Export Plug-In . SVG Version: 6.00 Build 0)  -->
<svg version="1.1" id="Capa_1" xmlns="http://www.w3.org/2000/svg" xmlns:xlink="http://www.w3.org/1999/xlink" x="0px" y="0px"
	 viewBox="0 0 1000 1000" style="enable-background:new 0 0 1000 1000;" xml:space="preserve">
<path d="M512.96,597.07c0.93-5.55,303.56,99.03,305.42,99.03c0.93,0,4.63,97.18,4.63,98.1c0,4.63-294.31-107.36-314.67-115.69
	l-4.63-0.93l2.78,79.59c5.55-14.81,248.96,99.03,305.42,99.03c1.85,0,5.55,97.18,5.55,99.95c0,2.78-294.31-109.21-313.75-116.61
	l-1.85-0.93c-5.55,0-66.64-38.87-66.64-45.35c0-18.51-3.7-494.22-6.48-494.22c-119.39,0-251.74-94.4-251.74-183.25
	c0-57.38,24.06-74.97,108.28-74.97c111.99,0,211.94,122.17,211.94,214.72l6.48,341.51H512.96z"/>
</svg>
