<?xml version="1.0" encoding="utf-8"?>
<!-- Generator: Adobe Illustrator 23.0.2, SVG Export Plug-In . SVG Version: 6.00 Build 0)  -->
<svg version="1.1" id="Capa_1" xmlns="http://www.w3.org/2000/svg" xmlns:xlink="http://www.w3.org/1999/xlink" x="0px" y="0px"
	 viewBox="0 0 1000 1000" style="enable-background:new 0 0 1000 1000;" xml:space="preserve">
<path d="M464.57,413.88c-1.92,151.29-3.83,292.06-4.79,292.06c-123.53,0-261.41,98.63-261.41,189.6c0,60.33,24.9,78.52,111.08,78.52
	c116.82,0,220.24-127.36,220.24-221.2l6.7-353.34h8.62c0.96,5.75,248.01-79.48,248.97-79.48s-40.22-83.31-40.22-85.22
	c0-2.87-191.51,71.82-212.58,80.44l-3.83,0.96l1.92-81.39c4.79,15.32,255.67-102.46,315.99-102.46c0.96,0,5.75-101.5,5.75-103.42
	c0-2.87-700.93,228.86-722,236.52v75.65l315.04-85.22l1.92,74.69l-186.72,48.84l-37.34,90.01L464.57,413.88z"/>
</svg>
