<?xml version="1.0" encoding="utf-8"?>
<!-- Generator: Adobe Illustrator 23.0.2, SVG Export Plug-In . SVG Version: 6.00 Build 0)  -->
<svg version="1.1" id="Capa_1" xmlns="http://www.w3.org/2000/svg" xmlns:xlink="http://www.w3.org/1999/xlink" x="0px" y="0px"
	 viewBox="0 0 1000 1000" style="enable-background:new 0 0 1000 1000;" xml:space="preserve">
<path d="M456.54,643.66c-1.89-152.15-6.62-318.47-7.56-318.47c-126.63,0-266.5-101.12-266.5-192.79
	c0-60.48,25.52-79.38,114.35-79.38c118.13,0,223.03,129.47,223.03,224.92l7.56,360.05h7.56c1.89-4.73,240.04-47.25,240.98-47.25
	c0.95,0-40.64,85.05-40.64,86.94c0,3.78-178.61,43.47-204.13,46.31l-2.84-0.95l0.95,84.11c5.67-17.01,248.54-25.52,309.02-25.52
	c1.89,0,5.67,103.95,5.67,106.79c0,2.84-700.26,66.15-722,58.59v-77.49l324.14-55.76l-1.89-79.38L219.34,778.8l-34.97-86.94
	L456.54,643.66z"/>
</svg>
