<?xml version="1.0" encoding="utf-8"?>
<!-- Generator: Adobe Illustrator 23.0.2, SVG Export Plug-In . SVG Version: 6.00 Build 0)  -->
<svg version="1.1" id="Capa_1" xmlns="http://www.w3.org/2000/svg" xmlns:xlink="http://www.w3.org/1999/xlink" x="0px" y="0px"
	 viewBox="0 0 1000 1000" style="enable-background:new 0 0 1000 1000;" xml:space="preserve">
<path d="M512.37,401c1.77,5.3,308.33-99.83,310.1-99.83c0,0,3.53-98.95,3.53-99.83c0-3.53-296.85,108.67-317.17,117.5l-3.53,0.88
	l1.77-80.4c4.42,15.9,250.02-99.83,309.21-99.83c0.88,0,5.3-98.95,5.3-101.6c0-1.77-297.73,111.32-318.05,118.38l-1.77,0.88
	c-4.42,0-66.26,38.87-66.26,45.06c0,20.32-4.42,499.16-6.18,499.16c-121.04,0-255.32,96.3-255.32,184.65
	c0,59.19,24.74,76.86,108.67,76.86c113.97,0,214.68-123.69,214.68-216.45L504.42,401H512.37z"/>
</svg>
