<?xml version="1.0" encoding="utf-8"?>
<!-- Generator: Adobe Illustrator 23.0.2, SVG Export Plug-In . SVG Version: 6.00 Build 0)  -->
<svg version="1.1" id="Capa_1" xmlns="http://www.w3.org/2000/svg" xmlns:xlink="http://www.w3.org/1999/xlink" x="0px" y="0px"
	 viewBox="0 0 1000 1000" style="enable-background:new 0 0 1000 1000;" xml:space="preserve">
<path d="M515.86,606.37h-4.78c-2.17-79.45-2.6-122.43-3.04-131.11c1.74,0,4.78-0.43,9.55,0c20.4,1.74,38.64,5.64,52.97,18.23
	c14.76,12.59,22.14,26.05,22.14,42.55c0,22.14-6.95,38.2-20.4,51.66C559.71,600.29,540.18,606.37,515.86,606.37z M422.52,500
	c0-20.84,5.21-45.59,14.76-72.94s20.84-53.4,33.86-77.71v51.23c0,28.22,0.87,49.93,1.3,62.95c-8.68,11.72-14.76,23.44-18.23,36.03
	c-3.47,12.59-6.08,21.71-6.08,27.35c9.12-16.06,17.37-27.79,25.18-34.73c2.17,37.34,4.78,72.94,6.95,106.8
	c-16.5-7.38-29.96-18.67-41.24-34.73C428.17,548.62,422.52,526.92,422.52,500z M513.69,78.44c3.04,0,6.51,2.17,11.29,5.64
	c4.34,3.04,8.25,8.68,12.59,16.5c4.34,7.38,6.51,16.06,7.38,26.05c1.3,14.33-2.17,32.56-8.25,55.14
	c-6.08,23.01-13.89,42.11-20.84,58.18c-6.51,15.63-10.42,23.44-12.59,23.44c-1.74,0.43-4.78-21.71-6.51-66.42
	c-1.74-44.28-4.78-72.94-4.78-85.53c0-4.78,3.47-10.85,9.55-19.97C508.05,83.22,511.52,78.44,513.69,78.44z M624.83,506.51
	c0-6.95-1.3-13.89-3.47-21.71c-1.74-8.25-6.08-16.5-11.72-24.75c-5.64-8.68-14.76-16.06-26.48-21.71
	c-12.16-6.08-26.48-8.25-42.11-8.25c-12.59,0-23.01,2.6-33.86,6.95c-0.43-24.31-0.43-47.76-0.87-69.46
	c-0.43-22.58-1.3-38.64-1.3-49.06c-0.87-10.85-0.87-16.06-0.87-15.63l3.91-7.38c1.74-4.78,4.78-10.42,8.68-19.1
	c3.91-8.68,8.25-17.37,13.46-26.92c4.34-10.42,9.55-21.27,14.33-33.86c4.34-11.29,8.68-22.58,12.59-33.86
	c3.91-10.85,6.51-22.58,9.55-33c3.04-10.42,3.47-20.4,3.91-28.22c0.87-18.23-3.04-33.43-9.99-46.02S544.08,55,531.06,55
	c-8.68,0-20.84,8.68-35.6,24.31c-15.63,16.93-23.44,29.09-23.44,38.64c0,0.87,0,15.2-0.87,45.15c-0.87,28.65-0.87,60.78-1.3,95.08
	c-0.43,33.86-0.87,57.31-0.87,70.33c0,0.43-0.87,2.6-3.04,6.51s-6.08,8.68-8.68,14.76c-3.04,6.08-7.81,13.89-12.16,22.14
	c-4.78,8.68-9.55,17.8-13.89,26.48c-4.78,9.55-9.55,19.1-14.33,29.52c-4.78,9.99-8.68,20.4-11.72,30.39
	c-3.91,9.12-6.95,18.23-9.12,27.79c-2.17,9.12-3.04,16.5-3.04,23.88c0,34.73,7.81,63.39,23.88,85.53
	c15.63,21.71,38.2,35.17,65.56,40.38c7.38,77.71,9.55,142.83,7.38,193.63c-2.17,50.36-13.89,75.98-32.56,75.98
	c-3.91,0-6.51-1.74-8.68-3.91c-1.74-2.17-2.17-5.21-1.74-9.12l1.74-11.72c0.43-3.91,2.17-7.38,3.47-11.72
	c0.43-4.78,1.3-7.81,1.3-9.99c0-7.38-5.64-5.64-14.76,5.21c-12.59,14.76-18.67,26.92-18.67,37.34c0,29.09,8.68,43.41,28.22,43.41
	c6.95,0,14.76-2.17,22.58-6.95c6.51-4.34,14.33-10.42,21.27-19.1c6.95-8.25,12.59-21.27,16.93-37.34c4.34-16.5,6.08-35.6,6.95-58.18
	c0.87-19.54-1.74-81.62-3.47-186.68c32.13-1.74,58.18-15.2,80.32-39.07C615.28,573.37,624.83,542.55,624.83,506.51z"/>
</svg>
