<?xml version="1.0" encoding="utf-8"?>
<!-- Generator: Adobe Illustrator 23.0.2, SVG Export Plug-In . SVG Version: 6.00 Build 0)  -->
<svg version="1.1" id="Capa_1" xmlns="http://www.w3.org/2000/svg" xmlns:xlink="http://www.w3.org/1999/xlink" x="0px" y="0px"
	 viewBox="0 0 1000 1000" style="enable-background:new 0 0 1000 1000;" xml:space="preserve">
<path d="M568.35,475.34l-32.99-57.32l21.09-35.69l33.53,56.24L568.35,475.34z M535.36,290.94l21.09-35.69l33.53,56.24l-21.63,36.77
	L535.36,290.94z M590.52,361.24c-1.62-2.7-2.16-4.87-2.16-5.95c0-1.62,0.54-3.24,1.62-5.41l30.28-51.37
	c1.08-2.16,1.62-4.33,1.62-5.95c0-2.7-1.08-6.49-3.24-10.81c-1.62-3.79-7.57-14.06-17.3-30.82c-9.73-16.76-15.68-27.04-17.84-30.28
	l-3.24-4.33V49.77c0-3.79-1.62-5.41-5.41-5.41h-7.03c-3.79,0-5.41,1.62-5.41,5.41v160.6c-4.87,2.16-9.19,7.57-12.98,15.68
	l-43.26,75.7c0,1.08-0.54,2.7-1.62,4.33c-1.08,1.62-1.62,3.24-1.62,4.33c0,1.62,1.08,4.87,3.24,8.65c1.62,2.7,6.49,11.36,14.6,25.96
	s12.98,23.25,14.06,24.87c1.62,1.62,2.16,3.24,2.16,4.87c0,1.08-0.54,2.7-2.16,4.33l-29.74,52.99c-1.62,3.79-2.16,6.49-2.16,8.65
	c0,3.24,0.54,5.95,2.16,7.57c1.62,2.16,8.11,12.98,19.47,31.9c11.36,18.93,17.3,29.2,18.39,30.82l2.7,4.33v421.24
	c0,3.79,1.62,5.41,5.41,5.41h7.03c3.79,0,5.41-1.62,5.41-5.41V518.05c4.33-3.24,8.65-8.11,12.98-14.6
	c12.44-20.01,27.04-45.42,43.26-76.25l1.08-6.49c0-4.87-1.08-9.19-3.79-12.98C612.15,400.17,603.5,384.49,590.52,361.24z
	 M452.09,392.6h-63.27c-7.03,0-11.36-5.95-12.98-17.84v-22.71c0.54-3.79,2.16-7.03,3.79-9.19c1.62-1.62,3.24-2.7,4.33-3.24h4.33
	h65.43c7.03,0,11.9,4.33,14.6,12.44v20.55C466.69,386.11,461.28,392.6,452.09,392.6z M479.13,266.61h-4.33
	c-3.79,0-5.95,2.7-6.49,7.57c-1.62,14.06-7.03,21.09-16.22,21.09h-63.27c-7.03,0-11.36-5.95-12.98-17.84v-5.41
	c0-3.79-2.16-5.41-6.49-5.41h-4.87c-4.33,0-6.49,1.62-6.49,5.41v187.1c0,3.79,2.16,5.41,6.49,5.41h4.87c4.33,0,6.49-1.62,6.49-5.41
	v-9.73c0.54-3.79,2.16-7.03,3.79-8.65c1.62-2.16,3.24-3.24,4.33-3.24c1.08-0.54,2.7-0.54,4.33-0.54h65.43
	c7.03,0,11.9,4.33,14.6,12.44v425.03c0,3.24,0.54,5.41,1.08,7.03c0.54,1.62,1.62,2.16,2.16,2.7h3.24h4.33
	c2.16,0,3.79-0.54,4.87-1.62s1.62-3.79,1.62-8.11V276.88C485.62,269.85,483.45,266.61,479.13,266.61z"/>
</svg>
