<?xml version="1.0" encoding="utf-8"?>
<!-- Generator: Adobe Illustrator 23.0.2, SVG Export Plug-In . SVG Version: 6.00 Build 0)  -->
<svg version="1.1" id="Capa_1" xmlns="http://www.w3.org/2000/svg" xmlns:xlink="http://www.w3.org/1999/xlink" x="0px" y="0px"
	 viewBox="0 0 1000 1000" style="enable-background:new 0 0 1000 1000;" xml:space="preserve">
<path d="M374,672v-46c3,0,45,2,125,6s124,6,132,6v44c-16,0-60-1-131-4S387,673,374,672z M629,327c0,5,0,12,1,23v24c-16-1-59-3-128-6
	s-112-4-128-4v-50c3,0,43,2,120,6S616,327,629,327z M374,563V426c3,0,43,2,122,6c78,4,123,6,134,6c1,31,1,76,1,135c-11,0-54-2-129-5
	C426,565,383,563,374,563z M685,951V5l-59,42l1,3v10v15c0,6,0,13,1,20v25c0,9,0,19,1,30v34v38v40c-13,0-56-2-130-5
	c-75-3-116-5-125-5V5l-58,42c1,0,3,144,4,433s2,460,2,514c1,0,2,0,3-1s3-2,4-3s4-3,9-6c4-4,9-9,16-14c6-6,13-12,20-19V734
	c4,0,46,2,127,7s124,6,130,6c0,19,0,38,1,58v53c0,15,0,30,1,45v38v28v19v6c1,0,1,0,2-1c2-1,4-2,5-3s3-3,6-5c3-3,6-5,9-8s8-6,13-11
	S679,956,685,951z"/>
</svg>
