<?xml version="1.0" encoding="utf-8"?>
<!-- Generator: Adobe Illustrator 23.0.2, SVG Export Plug-In . SVG Version: 6.00 Build 0)  -->
<svg version="1.1" id="Capa_1" xmlns="http://www.w3.org/2000/svg" xmlns:xlink="http://www.w3.org/1999/xlink" x="0px" y="0px"
	 viewBox="0 0 1000 1000" style="enable-background:new 0 0 1000 1000;" xml:space="preserve">
<path d="M444,271v-1c0,1,0,1-1,2c-1,0-2,1-3,2s-3,2-4,3c-2,1-5,2-8,3l-12,3c-4,1-9,1-16,2h-21c-15,0-26-7-35-21c-15-23-14-49,0-77
	c21-41,63-62,127-62c43,0,83,17,118,51s52,79,52,135c0,41-12,98-37,170s-53,139-82,202s-57,118-82,169c-25,50-38,77-38,80v5v6l-1,5
	c-1,1-1,2,0,3c0,1,0,1,1,1c2,0,9-9,22-28c12-19,27-45,45-77c17-33,37-69,58-110s41-84,62-130c21-47,40-92,57-135s30-85,41-126
	s16-75,16-102c0-24-3-47-10-70s-18-44-31-63c-14-19-33-35-57-47c-25-11-53-17-84-17c-59,0-110,20-155,61s-68,87-68,138
	c0,15,1,28,3,39c1,11,4,22,9,33c4,11,11,20,21,26s22,9,37,9c12,0,23-3,32-8s17-12,22-19c5-8,10-16,14-24c3-9,6-15,7-20
	S444,273,444,271z"/>
</svg>
