<?xml version="1.0" encoding="utf-8"?>
<!-- Generator: Adobe Illustrator 23.0.2, SVG Export Plug-In . SVG Version: 6.00 Build 0)  -->
<svg version="1.1" id="Capa_1" xmlns="http://www.w3.org/2000/svg" xmlns:xlink="http://www.w3.org/1999/xlink" x="0px" y="0px"
	 viewBox="0 0 1000 1000" style="enable-background:new 0 0 1000 1000;" xml:space="preserve">
<path d="M105,456c0,0,43,15,66,32c24,18,66-41,66-41s31,91,122,104c84,12,101-13,204-59c142-64,303-171,368-111c94,86-52,194-53,183
	c-7-28,28-108-45-135c-52-19-167,5-308,128c-223,195-278,27-305,2c-28-23-28-35-43-32c-15,4-51,12-72-15c-20-26-80-28-64-41
	C64,453,105,456,105,456z"/>
</svg>
