<?xml version="1.0" encoding="utf-8"?>
<!-- Generator: Adobe Illustrator 23.0.2, SVG Export Plug-In . SVG Version: 6.00 Build 0)  -->
<svg version="1.1" id="Capa_1" xmlns="http://www.w3.org/2000/svg" xmlns:xlink="http://www.w3.org/1999/xlink" x="0px" y="0px"
	 viewBox="0 0 1000 1000" style="enable-background:new 0 0 1000 1000;" xml:space="preserve">
<path d="M527.24,541.52c0,14.3-4.77,26.22-13.11,34.57c-9.54,9.54-21.46,14.3-35.76,14.3c-13.11,0-25.03-4.77-34.57-14.3
	c-10.73-8.34-15.5-20.26-15.5-34.57c0-13.11,4.77-25.03,15.5-35.76c9.54-9.54,21.46-14.3,34.57-14.3c9.54,0,17.88,2.38,26.22,5.96
	c7.15,4.77,13.11,10.73,16.69,17.88C524.86,523.64,527.24,531.99,527.24,541.52z M96.92,703.64c1.19,0,3.58-5.96,9.54-16.69
	c5.96-10.73,13.11-25.03,23.84-42.91s22.65-36.95,38.14-58.41c15.5-20.26,33.38-41.72,54.83-63.18
	c21.46-21.46,44.1-39.34,69.14-57.22c23.84-17.88,52.45-32.18,84.63-42.91s65.56-16.69,100.13-16.69
	c41.72,0,79.87,4.77,114.43,13.11s64.37,19.07,87.02,32.18c22.65,13.11,42.91,28.61,61.99,47.68
	c17.88,20.26,32.18,38.14,41.72,53.64c9.54,15.5,17.88,34.57,26.22,56.03c7.15,21.46,11.92,36.95,14.3,46.49
	c1.19,9.54,3.58,21.46,5.96,34.57c1.19,8.34,2.38,13.11,3.58,13.11c2.38,0,13.11-15.5,32.18-47.68
	c17.88-30.99,27.42-48.87,27.42-53.64c0-2.38-1.19-8.34-3.58-17.88c-2.38-9.54-7.15-22.65-14.3-40.53
	c-7.15-17.88-15.5-35.76-26.22-54.83c-10.73-19.07-26.22-39.34-45.3-59.6c-19.07-21.46-41.72-38.14-66.75-53.64
	c-25.03-15.5-54.83-28.61-91.79-39.34S567.77,321,524.86,321c-47.68,0-92.98,7.15-134.7,20.26
	c-41.72,13.11-77.48,30.99-106.09,51.26c-29.8,21.46-56.03,45.3-79.87,71.52s-42.91,51.26-57.22,76.29
	c-14.3,25.03-26.22,48.87-35.76,71.52s-16.69,40.53-20.26,53.64C87.38,678.61,85,685.76,85,686.95c0,2.38,1.19,5.96,4.77,9.54
	C93.34,701.26,95.73,703.64,96.92,703.64z"/>
</svg>
