<?xml version="1.0" encoding="utf-8"?>
<!-- Generator: Adobe Illustrator 23.0.2, SVG Export Plug-In . SVG Version: 6.00 Build 0)  -->
<svg version="1.1" id="Capa_1" xmlns="http://www.w3.org/2000/svg" xmlns:xlink="http://www.w3.org/1999/xlink" x="0px" y="0px"
	 viewBox="0 0 1000 1000" style="enable-background:new 0 0 1000 1000;" xml:space="preserve">
<path d="M675.14,583.01c-2.43,2.43-4.05,4.86-5.67,6.48c-1.62-1.62-4.05-4.05-4.05-5.67c0-2.43,1.62-4.86,3.24-6.48
	C670.28,578.96,671.9,580.58,675.14,583.01z M524.49,368.37c0-4.86,0-9.72,0-14.58c0.81-0.81,1.62-0.81,2.43-1.62
	c2.43,2.43,6.48,4.86,6.48,6.48C532.59,362.7,535.83,371.61,524.49,368.37z M903.55,226.62c-5.67,4.86-11.34,9.72-17.01,15.39
	C884.92,231.48,892.21,224.19,903.55,226.62z M722.93,219.33c3.24,1.62,7.29,3.24,10.53,5.67c-3.24,2.43-5.67,4.86-8.91,8.1
	c-1.62-3.24-3.24-6.48-5.67-9.72C720.5,221.76,721.31,220.14,722.93,219.33z M839.56,178.02c-3.24-12.96,5.67-25.92,13.77-25.11
	C849.28,161.02,845.23,168.31,839.56,178.02z M211.84,85.69c4.05-4.05,7.29-8.91,13.77-2.43c4.86,4.86,2.43,8.1-1.62,11.34
	C219.94,97.84,219.94,97.84,211.84,85.69z M625.73,481.76c4.05,1.62,7.29,3.24,10.53,4.86c0,3.24,0,6.48,0,9.72
	C620.06,498.77,620.06,497.96,625.73,481.76z M174.59,667.24c1.62,12.96-10.53,22.68-24.3,21.06
	C159.2,681.01,165.68,674.53,174.59,667.24z M657.32,476.9c-7.29,0-13.77,0-19.44,0c-1.62-11.34,2.43-13.77,18.63-11.34
	C656.51,468.8,656.51,472.04,657.32,476.9z M186.73,761.2c-4.05,0-8.91,1.62-12.96,0c-4.05-1.62-7.29-4.86-10.53-8.1
	c3.24-2.43,6.48-6.48,10.53-7.29C180.25,744.19,187.54,753.1,186.73,761.2z M780.44,286.56c-12.96-12.15-12.15-21.87,0-25.92
	c2.43-0.81,8.1,3.24,8.1,4.05C786.11,271.98,783.68,278.46,780.44,286.56z M554.46,876.21c7.29-11.34,13.77-20.25,21.87-32.4
	c1.62,7.29,5.67,12.96,4.05,16.2c-4.05,6.48-9.72,12.96-16.2,17.82C562.56,879.45,556.89,877.02,554.46,876.21z M798.26,306.81
	c-1.62-16.2,31.59-46.17,47.79-45.36C829.84,276.03,814.46,290.61,798.26,306.81z M743.99,585.44c4.05-12.96,8.91-23.49,12.15-34.02
	c2.43-8.1,8.1-7.29,12.15-4.86c3.24,1.62,4.86,8.1,4.05,12.15c-0.81,5.67-4.86,11.34-7.29,17.01
	C761.81,584.63,754.52,586.25,743.99,585.44z M733.46,415.34c0,6.48-17.82,29.97-23.49,29.97c-4.05,0-9.72-2.43-11.34-5.67
	c-2.43-2.43-2.43-9.72,0-12.15c7.29-8.1,15.39-15.39,24.3-21.87C726.98,402.38,733.46,409.67,733.46,415.34z M853.33,444.5
	c3.24,0,7.29-0.81,9.72,0.81c4.05,1.62,8.91,4.86,10.53,8.91c1.62,4.86-0.81,8.91-7.29,11.34c-8.91,2.43-17.01,9.72-27.54,7.29
	c-8.91-0.81-17.82-13.77-12.15-18.63c4.05-4.86,10.53-7.29,17.01-8.91C846.04,443.69,850.09,444.5,853.33,444.5L853.33,444.5z
	 M824.98,442.88c-4.86-1.62-9.72-2.43-13.77-4.05c-8.91-4.05-8.91-13.77-0.81-19.44s16.2-12.96,28.35-10.53
	c7.29,1.62,10.53,4.05,11.34,11.34C850.09,431.54,838.75,441.26,824.98,442.88z M352.78,860.82c-4.86,2.43-10.53,4.86-16.2,7.29
	c-4.05,1.62-7.29,2.43-11.34,3.24c-1.62-8.1-0.81-16.2-4.86-20.25s-12.15-4.05-19.44-6.48c-0.81,7.29-1.62,12.15-1.62,16.2
	c-8.1,1.62-8.1,0.81-13.77-13.77c-4.05-0.81-8.1-0.81-14.58-1.62c0.81-5.67,1.62-11.34,3.24-16.2c3.24-7.29,0-13.77-8.1-15.39h-0.81
	c-7.29-6.48-13.77-10.53-23.49-4.05c-0.81,0-4.05-3.24-6.48-5.67c12.15-9.72,0.81-16.2-4.05-20.25c-5.67-4.86-14.58-5.67-23.49-8.91
	c0.81-8.1,10.53-17.82,0-26.73c17.01-17.01,12.96-35.64,8.91-55.08c-0.81-1.62-0.81-2.43-0.81-4.05c0-5.67,17.01-15.39,22.68-12.96
	c1.62-7.29,2.43-14.58,4.05-21.87c-16.2,2.43-30.78,5.67-46.98,8.91c-5.67-5.67-5.67-8.91,2.43-13.77c3.24-1.62,6.48-4.86,8.91-8.1
	c-4.05-2.43-8.91-6.48-13.77-7.29c-6.48-1.62-13.77,0-21.87,0c4.86-8.91,19.44-12.15,29.16-7.29c10.53,4.05,36.45-4.86,41.31-14.58
	c4.05-6.48,0-14.58-6.48-18.63c-8.1-4.86-17.01-9.72-16.2-21.87c-7.29-4.05-9.72-10.53-6.48-17.82c6.48-13.77,4.05-20.25-9.72-24.3
	c-2.43-0.81-4.86-4.05-7.29-5.67c0-0.81,0-1.62,0-3.24c4.86-0.81,10.53-4.05,14.58-2.43c4.86,2.43,8.1,4.86,10.53-0.81
	c2.43-4.86,3.24-11.34,1.62-15.39c-7.29-12.96-22.68-13.77-34.83-20.25c-0.81-0.81-4.05,1.62-6.48,3.24
	c1.62-1.62,3.24-4.05,4.86-5.67c-4.05-4.05-8.1-8.91-12.15-13.77c-1.62,2.43-3.24,4.05-4.86,5.67c-2.43-6.48-5.67-12.15-8.1-18.63
	c-2.43-5.67-4.05-10.53-5.67-16.2c-1.62-7.29-9.72-11.34-17.01-8.1c-7.29,4.05-14.58,8.91-21.87,12.15
	c-4.86,1.62-11.34,0.81-17.82,0.81c7.29-9.72,7.29-9.72,42.12-23.49c-4.05-5.67-6.48-13.77-11.34-14.58
	c-6.48-1.62-13.77,2.43-21.06,4.86c-0.81-0.81-3.24-2.43-7.29-5.67c5.67-2.43,9.72-3.24,12.96-5.67c3.24-2.43,8.91-6.48,8.91-9.72
	c-0.81-3.24-5.67-6.48-9.72-9.72c-1.62-1.62-4.05-2.43-5.67-4.05c1.62-0.81,3.24-3.24,4.86-4.05c4.05-3.24,4.05-9.72-0.81-12.15
	c-1.62-0.81-3.24-1.62-4.86-2.43c-2.43-2.43-4.86-4.86-7.29-7.29c3.24-1.62,6.48-2.43,11.34-4.86c8.1-9.72-1.62-17.82-6.48-25.92
	c-6.48-10.53-6.48-11.34,4.05-16.2c6.48-3.24,6.48-9.72,8.91-16.2c3.24-10.53-3.24-14.58-8.91-20.25c-0.81-1.62-0.81-4.05-0.81-5.67
	c0.81-0.81,1.62-1.62,2.43-0.81c16.2,4.05,19.44-8.91,25.11-19.44c2.43-5.67,2.43-11.34,4.05-17.01c0.81-2.43,2.43-4.86,4.05-6.48
	c6.48-7.29,16.2-13.77,8.1-25.92c-0.81-1.62,0.81-5.67,0.81-8.1c0.81,0,1.62-0.81,3.24-1.62c3.24,5.67,6.48,11.34,8.91,16.2
	c17.82-17.82,35.64-35.64,54.27-54.27c4.05,3.24,8.91,6.48,13.77,9.72c5.67,3.24,14.58,0.81,14.58-5.67
	c0-5.67-2.43-12.15-4.05-18.63c0-3.24-0.81-7.29-0.81-10.53c0.81-1.62,4.86-3.24,6.48-3.24s4.05,4.05,3.24,5.67
	c0,10.53,10.53,13.77,14.58,21.06c0.81,0.81,10.53-1.62,12.96-4.86c5.67-6.48,9.72-8.1,16.2-1.62c3.24,3.24,10.53,4.05,14.58,2.43
	c8.91-3.24,17.01-8.1,25.92-12.15c0-6.48,0-11.34,0-18.63c3.24,0.81,7.29,1.62,7.29,2.43c0,4.05,0.81,9.72-1.62,13.77
	c-4.86,11.34-4.05,16.2,6.48,21.06c3.24,1.62,7.29,0,12.15,0c-5.67-5.67-8.91-8.91-11.34-12.96c-0.81-0.81,1.62-4.86,4.05-7.29
	c0-0.81,2.43-1.62,3.24-1.62c5.67,3.24,10.53,8.91,17.82,4.86c0.81,4.05,1.62,8.1,0.81,11.34c0,2.43-3.24,4.05-4.86,6.48
	c6.48,12.96,8.91,13.77,27.54,12.96c4.86-5.67,4.86-18.63,17.82-14.58c-3.24,8.91-5.67,17.01-8.91,27.54
	c9.72-0.81,15.39,0,21.06-1.62c6.48-1.62,8.1,0.81,8.91,5.67c0,3.24,0,5.67,0,8.1c0,14.58,6.48,21.06,20.25,24.3
	c9.72,2.43,18.63,8.1,27.54,12.15c-0.81,2.43-0.81,3.24-0.81,3.24c-13.77,12.96-13.77,15.39-0.81,28.35
	c4.86,4.86,7.29,9.72,7.29,17.82c0.81,4.86,8.91,10.53,14.58,13.77c5.67,3.24,4.86,4.86,1.62,9.72c-2.43,3.24-4.05,7.29-6.48,12.15
	c7.29,3.24,15.39,4.05,12.96,14.58c-4.86,0-9.72,0-17.01,0.81c5.67,9.72,12.96,19.44,2.43,30.78
	c-11.34-0.81-10.53,12.15-11.34,18.63s4.86,16.2,16.2,14.58c-0.81,4.05-1.62,8.1-3.24,12.96c-4.86-1.62-8.91-2.43-15.39-4.86
	c-0.81,4.05-1.62,8.1-0.81,12.15c0.81,4.05,4.05,8.1,6.48,12.96c-6.48,3.24-11.34,5.67-17.01,8.1c1.62,7.29,3.24,13.77,4.86,22.68
	c9.72-7.29,18.63-14.58,28.35-20.25c6.48-4.05,14.58-7.29,22.68-8.1c8.91-2.43,21.87-13.77,24.3-23.49
	c2.43-6.48,8.1-11.34,11.34-17.82c4.86-8.91,1.62-21.87-4.05-29.16c-7.29-8.91-12.96-17.82-19.44-26.73
	c-8.1-10.53-1.62-17.82,4.05-25.11c1.62-1.62,3.24-3.24,5.67-5.67c1.62,0.81,3.24,3.24,4.86,3.24c11.34-0.81,16.2,3.24,19.44,13.77
	c2.43,8.91,3.24,16.2-0.81,25.11c-7.29,17.01-4.86,35.64,6.48,42.93c7.29,4.86,15.39,8.91,23.49,13.77c1.62,0.81,4.05,0,5.67-0.81
	c4.05-0.81,8.91-2.43,13.77-1.62c14.58,2.43,24.3-5.67,34.02-15.39c0.81-1.62,2.43-3.24,3.24-4.86
	c4.05-18.63,17.01-17.01,29.16-8.91c7.29,5.67,12.15,5.67,18.63-0.81c12.15-11.34,25.92-21.06,38.88-30.78c0.81-0.81,3.24,0,5.67,0
	c0,0.81,0.81,1.62,1.62,2.43c-13.77,12.15-26.73,23.49-39.69,34.83c-8.91,7.29-17.82,15.39-26.73,21.87
	c-8.1,6.48-17.82,12.15-25.92,18.63c-8.1,7.29-14.58,15.39-21.87,23.49c-6.48,7.29-12.96,14.58-20.25,22.68
	c-8.1,9.72-17.01,19.44-25.92,29.16c-0.81,1.62-1.62,4.05-1.62,6.48c-0.81,1.62,0,4.86-0.81,5.67
	c-14.58,10.53,1.62,13.77,3.24,21.87c-6.48,12.15-2.43,29.97,11.34,36.45c2.43,0.81,6.48-1.62,9.72-3.24c0.81,0,1.62-3.24,2.43-3.24
	c14.58,0.81,15.39-14.58,23.49-21.06c6.48-4.86,8.1-15.39,12.15-24.3c2.43,4.05,4.86,7.29,6.48,9.72c2.43,6.48,0,12.96-6.48,15.39
	c-16.2,5.67-21.06,26.73-16.2,39.69c1.62,3.24-2.43,10.53-4.05,10.53c-8.91-0.81-9.72,4.86-8.91,10.53
	c2.43,8.91,11.34,14.58,17.82,9.72c7.29-4.86,9.72-1.62,14.58,3.24c-4.86,4.05-8.91,8.1-4.86,15.39c0.81,0.81-1.62,5.67-4.05,7.29
	c-9.72,7.29-10.53,9.72-1.62,19.44c10.53,10.53,12.96,22.68,8.1,37.26c-1.62,5.67-1.62,12.96-1.62,19.44
	c-1.62,25.11-3.24,50.22-4.05,74.52c-0.81,3.24-0.81,5.67-0.81,8.91c-8.91,0-17.82,0.81-20.25,11.34c-0.81,0-7.29,7.29-13.77,2.43
	c-4.86-4.05-14.58,1.62-17.82,9.72c-1.62,4.05-7.29,8.91-1.62,14.58c0.81,0.81-2.43,6.48-4.86,9.72c-0.81,0-4.86-0.81-6.48-2.43
	c-9.72-4.05-24.3,4.05-26.73,14.58c-0.81,3.24-3.24,5.67-3.24,6.48c-10.53,0-21.06-3.24-28.35,0.81
	c-6.48,3.24-8.91,13.77-12.96,20.25c-5.67-4.05-12.96-11.34-16.2-9.72c-6.48,4.05-17.01,1.62-21.06,12.96
	c-2.43,6.48-14.58,9.72-22.68,14.58c-1.62,0.81-4.05,2.43-4.05,4.05c0.81,8.1-5.67,10.53-11.34,12.96c-9.72,4.05-18.63,0-21.06-8.91
	c-2.43-5.67-4.86-15.39-8.1-15.39c-9.72-1.62-20.25-0.81-30.78,1.62c-3.24,0.81-4.05,8.91-7.29,16.2c7.29,0,12.15,0,17.82,0
	c0-2.43,0-5.67,0.81-7.29c1.62-3.24,4.05-7.29,7.29-8.1c1.62,0,6.48,2.43,7.29,4.86c0.81,2.43-0.81,5.67-2.43,8.91
	c-2.43,5.67-5.67,10.53-7.29,17.01c-3.24,8.91-9.72,12.96-17.82,15.39c-1.62,0-6.48-1.62-6.48-2.43
	c-0.81-11.34-13.77-18.63-9.72-31.59c1.62-3.24,3.24-5.67,3.24-8.91c0-3.24-1.62-7.29-3.24-10.53
	C357.64,868.11,356.02,865.68,352.78,860.82z"/>
</svg>
