<?xml version="1.0" encoding="utf-8"?>
<!-- Generator: Adobe Illustrator 23.0.2, SVG Export Plug-In . SVG Version: 6.00 Build 0)  -->
<svg version="1.1" id="Capa_1" xmlns="http://www.w3.org/2000/svg" xmlns:xlink="http://www.w3.org/1999/xlink" x="0px" y="0px"
	 viewBox="0 0 1000 1000" style="enable-background:new 0 0 1000 1000;" xml:space="preserve">
<path d="M475.12,856.21c0,18.51-0.77,31.62-4.63,39.34c-3.86,6.17-10.8,10.03-20.83,10.03c-3.86,0-8.48-0.77-12.34-3.86
	s-4.63-6.17-6.17-10.03c-1.54-3.86-2.31-9.26-2.31-13.11c-1.54-3.86-1.54-7.71-1.54-10.8v-4.63c-1.54,0-6.94,6.17-15.43,19.28
	c-8.48,13.11-13.11,20.83-13.11,22.37c0,0.77,0.77,6.17,3.86,13.11c0.77,6.17,4.63,13.11,11.57,19.28
	c6.94,6.17,13.11,10.8,19.28,10.8c16.97,0,35.48-10.8,56.31-31.62c19.28-22.37,23.94-38.61,30.08-71.73l2.77,8.6
	c0-27-0.89,3.04-0.11-50.18l2.31-158.89c18.51-3.86,35.48-10.8,49.37-20.05c14.66-9.26,26.23-16.97,33.17-26.23
	c6.17-8.48,10.03-16.97,10.03-23.14c0-2.31-0.77-2.31-3.86,0c-27,19.28-56.31,28.54-88.7,30.08c1.54-120.33,2.31-216.74,2.31-290.02
	c9.26,0,20.05,0,29.31,1.54c9.26,1.54,17.74,2.31,24.68,3.86c6.17,1.54,11.57,2.31,18.51,3.86c4.63,1.54,7.71,1.54,8.48,1.54v-26.23
	l-10.03-3.86c-7.71-3.09-18.51-5.4-31.62-7.71s-26.23-3.86-39.34-5.4c3.09-263.8,7.54-244.08,3.69-244.08
	c-3.09,0-20.05,26.23-50.91,78.68C448.3,171,431.33,198,431.33,201.86c0,2.31,9.26-3.86,27.77-20.83
	c13.88-14.66,23.14-21.6,24.68-21.6c3.86,0,0.94-58.28-0.6,125.29c-40.88,9.26-75.59,33.17-105.67,69.42S332,432.05,332,479.1
	c0,53.99,13.88,97.19,42.42,127.27c27.77,29.31,61.71,43.97,101.82,43.97h3.09v152.72 M480.87,599.43
	c-27.77-9.26-50.91-24.68-69.42-48.59c-18.51-23.14-27.77-53.22-27.77-88.7c0-83.3,33.17-131.9,97.96-144.24
	C481.64,318.66,481.64,412.77,480.87,599.43z"/>
</svg>
