<?xml version="1.0" encoding="utf-8"?>
<!-- Generator: Adobe Illustrator 23.0.2, SVG Export Plug-In . SVG Version: 6.00 Build 0)  -->
<svg version="1.1" id="Capa_1" xmlns="http://www.w3.org/2000/svg" xmlns:xlink="http://www.w3.org/1999/xlink" x="0px" y="0px"
	 viewBox="0 0 1000 1000" style="enable-background:new 0 0 1000 1000;" xml:space="preserve">
<path d="M853,852c-1,0-28,0-77,1c-49,2-75,2-78,2c-2,0,5-9,19-25l51-68c21-28,40-57,62-88c19-31,36-63,51-95c16-32,23-60,23-84
	c0-13-2-25-6-37c-4-11-8-21-15-28s-14-12-21-18c-7-5-16-10-25-12c-10-3-19-6-27-7c-10-2-18-3-27-3h-22h-17l-7,1c-1,0,4-10,17-29
	c12-20,29-45,50-74l61-89c19-29,36-54,51-77c14-22,21-35,21-39c0-1-54-4-164-7c-109-1-172-3-189-3c-1,0-18,23-53,66
	c-35,45-54,67-56,67l-8-3c-6-1-13-2-21-5c-10-2-20-4-31-7c-11-2-24-4-39-6c-16-1-30-1-44-1c-66,0-127,26-183,80
	c-58,54-86,116-86,186c0,73,21,130,63,171s93,60,152,60c60,0,110-12,151-36s60-47,60-65c-1-3-1-4-1-4c-2,0-3,1-7,4c-4,2-7,4-11,9
	c-5,2-12,5-20,9c-8,5-17,7-27,12c-10,2-21,5-35,8c-14,1-29,3-46,3c-34,0-66-7-95-21c-31-14-56-37-76-66c-21-29-31-64-31-105
	c0-38,6-71,17-99c11-27,27-48,45-62c18-13,39-24,60-31s45-10,69-10c24,2,46,3,64,4c18,2,37,5,54,7c15,3,25,5,26,5c2,0,23-19,62-54
	c38-35,57-53,59-53c1-1,44,0,130,2c85,1,127,2,127,4c0,1-16,28-50,78c-35,52-67,103-100,153c-32,50-46,76-42,76l9-2c5-1,12-1,21-3
	c7-1,17-1,26-1c10,0,21,0,31,1c10,2,21,3,31,7c10,5,20,9,27,16c7,5,14,14,18,24c4,9,7,22,7,36c0,27-10,60-30,98c-19,38-43,73-70,108
	c-28,34-56,66-82,95c-27,30-49,53-65,72c-15,18-21,26-16,26c2,0,49-1,140-3c89-1,136-2,137-2c4,0,18-16,39-48s31-50,31-57
	c-1-2-13,4-34,18C865,846,855,852,853,852z"/>
</svg>
