<?xml version="1.0" encoding="utf-8"?>
<!-- Generator: Adobe Illustrator 23.0.2, SVG Export Plug-In . SVG Version: 6.00 Build 0)  -->
<svg version="1.1" id="Capa_1" xmlns="http://www.w3.org/2000/svg" xmlns:xlink="http://www.w3.org/1999/xlink" x="0px" y="0px"
	 viewBox="0 0 1000 1000" style="enable-background:new 0 0 1000 1000;" xml:space="preserve">
<path d="M346.21,642.09c-30.22-10.34-55.67-27.04-75.55-53.28c-19.88-25.45-30.22-58.06-30.22-97.02
	c0-90.66,35.79-143.15,107.36-157.47C347.81,335.11,347.81,437.7,346.21,642.09z M337.47,860.79c0,20.68-1.59,34.2-6.36,42.95
	c-3.98,7.16-11.13,11.93-22.27,11.93c-4.77,0-8.75-1.59-12.72-4.77c-4.77-2.39-5.57-7.16-7.16-11.13
	c-1.59-4.77-3.18-10.34-3.18-14.32c-1.59-3.98-1.59-8.75-1.59-11.13v-6.36c-0.8,0-7.16,7.16-16.7,21.47
	c-10.34,14.32-14.32,23.06-14.32,24.65s1.59,7.16,3.98,14.32c1.59,7.16,5.57,14.32,12.72,21.47c7.16,6.36,14.32,11.13,21.47,11.13
	c19.09,0,38.97-11.13,61.24-34.2c21.47-24.65,33.4-50.1,33.4-78.73 M385.18,862.38C385.18,832.16,383.59,861.59,385.18,862.38
	l5.57-173.37c19.88-4.77,38.17-11.93,54.08-21.47c15.91-10.34,28.63-19.09,35.79-28.63c7.16-10.34,11.13-18.29,11.13-25.45
	c0-3.18-1.59-3.18-3.98,0c-30.22,20.68-61.24,31.02-97.02,32.61c1.59-131.22,3.18-237,3.18-316.52c9.54,0,20.68,0,31.02,1.59
	c9.54,1.59,19.88,2.39,27.04,3.98c7.16,1.59,12.72,3.18,19.88,4.77c5.57,0.8,8.75,0.8,10.34,0.8c0.8,0,15.11-14.32,39.76-43.74
	c23.86-28.63,35.79-42.95,36.58-42.95c125.66,0,188.48,1.59,188.48,5.57c0,1.59-11.13,21.47-34.2,62.83s-44.54,82.71-66.01,122.47
	c-20.68,41.35-31.02,61.24-27.84,61.24h7.16c3.98-1.59,7.95-1.59,13.52-2.39c6.36-1.59,13.52-1.59,20.68-1.59s15.11,0,22.27,1.59
	c7.16,0.8,15.91,2.39,23.06,7.16c7.16,2.39,12.72,7.16,18.29,11.13c5.57,3.98,10.34,11.13,14.32,19.88
	c3.98,7.16,5.57,17.5,5.57,28.63c0,23.06-7.16,50.1-21.47,79.53c-15.11,30.22-32.61,59.65-52.49,86.69
	c-19.88,27.83-39.76,53.28-59.65,77.14c-19.88,24.65-35.79,42.95-46.92,58.85c-11.93,14.32-15.91,21.47-12.72,21.47
	c0.8,0,34.99,0,102.59-1.59c65.21-1.59,99.41-3.18,101-3.18c2.39,0,12.72-12.72,28.63-38.17c15.11-25.45,22.27-41.35,22.27-46.92
	c0-1.59-2.39,0-9.54,5.57c-7.16,3.98-15.91,9.54-23.06,15.91c-7.16,5.57-11.13,7.95-12.72,7.95c-1.59,0-19.88,0-55.67,1.59h-58.06
	l36.58-50.1c24.65-34.2,48.51-75.55,75.55-123.27c25.45-48.51,38.97-87.48,38.97-116.91c0-10.34-1.59-19.88-4.77-28.63
	c-2.39-10.34-7.16-17.5-11.13-24.65c-4.77-5.57-10.34-11.13-15.91-15.11c-5.57-4.77-11.13-7.16-18.29-8.75
	c-7.16-1.59-12.72-4.77-19.88-5.57c-7.16-1.59-12.72-1.59-19.09-3.18h-16.7c-3.98,1.59-8.75,1.59-11.13,1.59h-6.36
	c-0.8,0,10.34-19.88,34.2-58.85c24.65-38.17,48.51-79.53,74.76-120.88c25.45-41.35,38.17-64.42,38.17-68.39
	c0-1.59-12.72-1.59-39.76-2.39c-27.04-1.59-57.26-1.59-89.87-3.18c-32.61-1.59-62.83-1.59-88.28-3.18h-41.35l-38.17,54.08
	c-26.24,35.79-40.56,54.87-41.35,54.87l-11.93-4.77c-7.95-2.39-19.88-5.57-34.2-8.75c-14.32-2.39-28.63-3.98-42.15-5.57
	c2.39-287.89,7.95-249.72,3.98-249.72c-3.18,0-21.47,28.63-55.67,85.89c-35.79,58.06-52.49,88.28-52.49,92.25
	c0,3.18,9.54-3.98,29.43-22.27c15.91-15.91,25.45-23.06,27.04-23.06c4.77,0,0-81.12-0.8,120.09
	c-44.54,9.54-82.71,35.79-116.11,75.55C196.7,412.25,180,457.58,180,509.28c0,58.06,15.11,104.98,46.92,138.38
	c30.22,32.61,66.8,48.51,111.34,48.51h2.39l-3.18,164.62c1.59-8.75-0.8-29.43,0,3.18"/>
</svg>
