<?xml version="1.0" encoding="utf-8"?>
<!-- Generator: Adobe Illustrator 23.0.2, SVG Export Plug-In . SVG Version: 6.00 Build 0)  -->
<svg version="1.1" id="Capa_1" xmlns="http://www.w3.org/2000/svg" xmlns:xlink="http://www.w3.org/1999/xlink" x="0px" y="0px"
	 viewBox="0 0 1000 1000" style="enable-background:new 0 0 1000 1000;" xml:space="preserve">
<path d="M780.54,218.71v-50.72l-12.68-2.82c-8.45-4.23-16.91-5.64-29.59-8.45c-14.09-2.82-28.18-5.64-43.67-11.27
	c-15.5-1.41-33.81-5.64-54.94-7.04C617.12,137,597.4,137,576.26,137c-91.57,0-178.92,36.63-259.22,111.3
	c-83.12,77.48-121.16,164.83-121.16,264.86c0,104.25,30.99,184.56,90.16,242.32S415.66,840,500.19,840s156.38-16.91,214.14-50.72
	c57.76-35.22,84.53-66.21,84.53-91.57c-1.41-4.23-1.41-5.64-1.41-5.64c-1.41,0-2.82,1.41-9.86,5.64c-5.64,1.41-9.86,7.04-15.5,12.68
	c-5.64,2.82-16.91,8.45-28.18,12.68c-12.68,7.04-22.54,11.27-36.63,16.91c-14.09,2.82-30.99,8.45-50.72,11.27
	c-19.72,1.41-42.26,4.23-66.21,4.23c-46.49,0-91.57-9.86-133.84-29.59c-43.67-19.72-80.3-50.72-108.48-92.98
	s-43.67-91.57-43.67-149.33c0-53.54,9.86-101.43,25.36-140.88c15.5-38.04,38.04-67.62,61.99-87.35
	c26.77-16.91,56.35-33.81,85.94-43.67c30.99-9.86,63.4-14.09,97.21-14.09c35.22,1.41,66.21,4.23,91.57,5.64
	c26.77,1.41,50.72,7.04,76.08,9.86C765.05,215.89,777.73,218.71,780.54,218.71z"/>
</svg>
