<?xml version="1.0" encoding="utf-8"?>
<!-- Generator: Adobe Illustrator 23.0.2, SVG Export Plug-In . SVG Version: 6.00 Build 0)  -->
<svg version="1.1" id="Capa_1" xmlns="http://www.w3.org/2000/svg" xmlns:xlink="http://www.w3.org/1999/xlink" x="0px" y="0px"
	 viewBox="0 0 1000 1000" style="enable-background:new 0 0 1000 1000;" xml:space="preserve">
<path d="M650.32,569.62c-58.34,0-118.92-62.83-118.92-97.61c0-39.27,31.41-71.8,130.14-71.8c75.17,0,131.26,70.68,131.26,100.97
	C792.8,538.21,725.49,569.62,650.32,569.62z M303.65,602.15c-90.87,0-148.09-57.22-148.09-114.43c0-63.95,44.88-98.73,115.56-98.73
	c57.22,0,172.77,83.02,172.77,136.87C443.89,567.38,385.55,602.15,303.65,602.15z M929.67,205c-4.49,0-74.05,62.83-74.05,66.19
	s-1.12,57.22-2.24,130.14c-24.68-35.9-79.66-75.17-175.02-75.17c-127.9,0-170.53,86.39-186.24,86.39
	c-11.22,0-35.9-90.87-197.46-90.87c-65.07,0-116.68,37.02-149.21,81.9c3.37-107.7,3.37-198.58,1.12-198.58
	c-4.49,0-74.05,62.83-74.05,66.19c0,7.85-5.61,522.81-1.12,522.81c3.37,0,67.31-43.75,67.31-48.24c0,0,0-53.85,2.24-130.14
	c26.93,34.78,70.68,61.7,146.97,61.7c117.8,0,176.14-98.73,187.36-98.73c7.85,0,59.46,74.05,168.29,74.05
	c65.07,0,166.04-62.83,208.67-140.24c0,136.87-1.12,281.6,2.24,281.6s66.19-43.75,66.19-48.24C920.7,742.39,934.16,205,929.67,205z"
	/>
</svg>
