<?xml version="1.0" encoding="utf-8"?>
<!-- Generator: Adobe Illustrator 23.0.2, SVG Export Plug-In . SVG Version: 6.00 Build 0)  -->
<svg version="1.1" id="Capa_1" xmlns="http://www.w3.org/2000/svg" xmlns:xlink="http://www.w3.org/1999/xlink" x="0px" y="0px"
	 viewBox="0 0 1000 1000" style="enable-background:new 0 0 1000 1000;" xml:space="preserve">
<path d="M477.59,886.25c-12.55,7.17-25.1,12.55-37.64,16.13c-13.44,2.69-25.99,4.48-37.64,4.48c-25.99,0-46.61-5.38-62.74-17.03
	s-24.2-26.89-24.2-44.81s5.38-34.06,16.13-49.3c9.86-15.24,23.3-25.99,38.54-34.06c15.24-8.07,29.58-14.34,43.92-18.82
	c14.34-4.48,26.89-6.27,37.64-6.27c18.82,0,35.85,6.27,49.3,18.82c7.17,7.17,12.55,16.13,16.13,26.89c0,33.16,0.9,50.19,0.9,51.09
	s0,1.79,0,1.79c-2.69,8.07-5.38,15.24-8.96,21.51C500.9,869.22,490.14,879.08,477.59,886.25z M706.15,223.89
	c-24.2-43.02-49.3-83.36-76.19-121.9c-25.99-38.54-43.02-57.36-49.3-57.36c-6.27,0-19.72,5.38-40.33,16.13s-30.47,19.72-30.47,26.89
	c0,9.86,0.9,135.34,3.59,377.34c0.9,103.07,1.79,184.64,2.69,244.69c-12.55-5.38-26.89-7.17-43.02-7.17
	c-47.5,0.9-94.11,17.93-139.82,51.09C283.1,790.35,258,831.58,258,877.29c0,24.2,11.65,43.92,34.96,57.36
	c22.41,13.44,51.09,19.72,85.15,19.72c21.51,0,43.02-3.59,65.43-10.76c22.41-8.07,40.33-15.24,54.67-22.41
	c13.44-7.17,21.51-10.76,22.41-10.76l36.75-25.1l2.69-185.53c0-8.07-2.69-19.72-3.59-33.16v-45.71v-53.78v-57.36v-54.67v-45.71
	v-33.16l0.9-12.55c0-0.9,7.17,6.27,21.51,21.51c15.24,15.24,29.58,31.37,43.92,48.4s21.51,26.89,21.51,29.58v6.27
	c0,3.59,0,7.17-0.9,10.76v10.76v9.86c0.9,2.69,1.79,3.59,2.69,3.59c3.59,0,11.65-9.86,25.1-28.68
	c13.44-18.82,20.61-31.37,20.61-39.44c0-8.07-22.41-43.92-67.22-106.66c-44.81-61.84-67.22-93.21-67.22-94.11v-94.11
	c3.59,0.9,28.68,32.27,75.29,94.11s69.91,93.21,69.91,95.9c0,0.9-0.9,4.48-2.69,9.86c-0.9,6.27-1.79,10.76-2.69,14.34
	c-0.9,3.59,0,6.27,1.79,7.17c3.59,0,11.65-7.17,24.2-21.51c12.55-13.44,18.82-25.1,18.82-34.06
	C742,295.59,730.35,267.81,706.15,223.89z"/>
</svg>
