<?xml version="1.0" encoding="utf-8"?>
<!-- Generator: Adobe Illustrator 23.0.2, SVG Export Plug-In . SVG Version: 6.00 Build 0)  -->
<svg version="1.1" id="Capa_1" xmlns="http://www.w3.org/2000/svg" xmlns:xlink="http://www.w3.org/1999/xlink" x="0px" y="0px"
	 viewBox="0 0 1000 1000" style="enable-background:new 0 0 1000 1000;" xml:space="preserve">
<path d="M888.39,596.5c16.8,8.06,25.53,18.14,25.53,30.91c0,10.08-8.73,20.16-25.53,30.23c-17.47,9.41-36.95,14.11-58.45,14.11
	c-16.13,0-30.23-2.02-42.33-6.72c-12.09-4.7-20.83-10.75-25.53-16.8c-5.38-6.05-8.06-12.77-8.06-19.48
	c0-10.08,7.39-20.16,22.84-30.23c15.45-9.41,31.58-14.11,49.72-14.11C850.09,584.4,870.92,588.43,888.39,596.5z M684.81,598.51
	c12.09,4.03,18.14,11.42,18.14,22.84c0,6.05-4.7,12.77-14.11,21.5c-10.08,8.06-22.17,15.45-36.95,21.5s-28.22,9.41-40.31,9.41
	c-24.86,0-45.69-2.69-62.49-8.73c-16.8-6.05-24.86-12.77-24.86-20.16c0-12.09,12.09-24.19,35.61-35.61
	c23.52-11.42,45.02-16.8,65.84-16.8C653.23,592.47,672.71,594.48,684.81,598.51z M262.19,616.65c0,6.05-3.36,12.77-10.75,21.5
	c-7.39,8.06-17.47,15.45-31.58,22.84c-14.11,6.72-29.56,10.08-45.02,10.08c-28.22,0-51.06-6.05-67.86-18.81
	c-16.8-12.77-25.53-24.86-25.53-34.94c0-6.72,4.03-13.44,11.42-19.48s18.14-11.42,32.25-15.45c13.44-3.36,28.22-5.38,43.67-5.38
	c30.23,0,53.75,3.36,69.88,10.75L262.19,616.65z M432.85,667.04c-14.78,6.05-28.22,9.41-40.31,9.41c-24.86,0-45.69-2.69-62.49-8.73
	c-16.8-6.05-24.86-12.77-24.86-20.16c0-12.09,12.09-24.19,35.61-35.61c23.52-11.42,45.02-16.8,65.84-16.8
	c27.55,0,57.11,24.19,66.52,32.92C469.8,640.17,447.63,661,432.85,667.04z M967,756.41v-87.35c-0.67-35.61-0.67-75.25-1.34-118.92
	c-0.67-43-0.67-86-1.34-129.67s-1.34-83.31-2.02-118.92s-0.67-64.5-0.67-87.35l-0.67-34.27c0-1.34-6.72-6.05-19.48-14.78
	c-13.44-8.73-20.83-12.77-21.5-12.77c-2.02,0-2.69,145.13-0.67,435.38c-14.78-13.44-31.58-24.86-50.39-33.59
	s-36.95-13.44-55.09-13.44c-19.48,0-35.61,1.34-49.72,4.03c-14.11,3.36-24.19,6.72-30.23,10.75c-6.72,4.03-11.42,8.06-14.78,12.09
	s-6.05,7.39-7.39,10.08c-1.34,3.36-2.69,4.7-4.03,4.7c-1.34,0-3.36-1.34-5.38-4.7l-10.75-10.75c-4.7-4.03-10.75-8.06-18.14-12.77
	c-7.39-4.03-18.14-7.39-32.25-10.75c-14.11-2.69-29.56-4.03-47.03-4.03c-14.78,0-28.22,1.34-40.31,4.03s-21.5,6.05-28.22,9.41
	c-6.72,4.03-12.09,8.06-16.8,11.42c-4.7,4.03-8.73,7.39-10.75,10.08l-9.41,10.75c-1.34,0-3.36-1.34-5.38-4.7l-10.75-10.75
	c-4.7-4.03-10.75-8.06-18.14-12.77c-7.39-4.03-18.14-7.39-32.25-10.75c-14.11-2.69-29.56-4.03-47.03-4.03
	c-14.78,0-28.22,1.34-40.31,4.03c-12.09,2.69-21.5,6.05-28.22,9.41c-6.72,4.03-12.09,8.06-16.8,11.42
	c-4.7,4.03-8.73,7.39-10.75,10.08c-2.02,2.02-4.03,4.03-4.7,4.03l-0.67,0.67c-0.67,0-4.7-2.69-10.75-8.06
	c-6.72-5.38-14.11-11.42-22.84-17.47c-8.73-6.05-20.16-12.09-34.94-17.47c-15.45-5.38-30.91-8.06-47.7-8.06
	c-41.66,0-71.22,9.41-89.36,27.55c-0.67-6.05-0.67-12.77-0.67-18.81s0-11.42-0.67-16.13v-26.2c0-3.36,0-6.05-0.67-8.73v-7.39
	c0-0.67-3.36-3.36-10.08-8.06s-13.44-8.73-20.16-12.77s-10.08-6.05-10.75-6.05c-0.67,0-0.67,3.36-1.34,10.08
	c0,6.72,0,15.45-0.67,26.88v135.05c0.67,16.13,0.67,31.58,0.67,47.03c0.67,14.78,0.67,28.22,0.67,39.64v27.55
	c0.67,7.39,0.67,10.75,0.67,11.42c0,1.34,7.39,8.06,22.17,20.16S70.03,790,71.38,790v-44.34c0-16.13-0.67-49.72-1.34-100.11
	c14.11,19.48,33.59,36.95,58.45,51.06c24.86,14.11,47.7,20.83,69.2,20.83c16.8,0,32.25-2.02,45.02-5.38s22.17-7.39,27.55-12.09
	c5.38-4.7,10.08-9.41,13.44-12.77c3.36-3.36,7.39-6.05,8.73-6.05c0.67,0,3.36,1.34,7.39,4.03c3.36,2.69,8.73,6.05,15.45,10.08
	c6.05,4.03,14.11,8.06,22.84,12.09c8.73,4.03,19.48,7.39,33.59,10.08c14.11,2.69,28.89,4.03,44.34,4.03
	c20.83,0,38.97-2.69,54.42-7.39c15.45-5.38,26.88-11.42,33.59-17.47c6.05-6.05,10.08-9.41,14.78-14.11
	c3.36,2.69,8.73,6.05,15.45,10.08c6.05,4.03,14.11,8.06,22.84,12.09c8.73,4.03,19.48,7.39,33.59,10.08
	c14.11,2.69,28.89,4.03,44.34,4.03c20.83,0,38.97-2.69,54.42-7.39c15.45-5.38,26.88-11.42,33.59-17.47
	c6.05-6.05,11.42-12.09,16.13-16.8c4.7-5.38,7.39-8.06,8.73-8.06c2.02,0,6.05,2.69,10.75,7.39l16.13,16.13
	c6.05,6.05,15.45,11.42,29.56,16.13s30.23,6.72,49.05,6.72c27.55,0,49.72-4.03,66.52-11.42v38.97c0,2.69,0,4.7,0.67,6.72v2.02
	c0,0.67,4.03,4.03,11.42,10.75c7.39,6.05,14.78,12.77,22.17,18.81c7.39,6.05,11.42,8.73,12.09,8.73S967,778.58,967,756.41z"/>
</svg>
