<?xml version="1.0" encoding="utf-8"?>
<!-- Generator: Adobe Illustrator 23.0.2, SVG Export Plug-In . SVG Version: 6.00 Build 0)  -->
<svg version="1.1" id="Capa_1" xmlns="http://www.w3.org/2000/svg" xmlns:xlink="http://www.w3.org/1999/xlink" x="0px" y="0px"
	 viewBox="0 0 1000 1000" style="enable-background:new 0 0 1000 1000;" xml:space="preserve">
<path d="M522.61,903.11c-12.14,15.61-29.48,23.41-51.16,23.41c-19.94,0-46.82-11.27-78.9-34.68
	c-32.95-23.41-49.42-45.95-49.42-67.63c0-18.21,6.94-32.95,19.94-45.95c13.01-13.01,34.68-19.08,63.29-19.08
	c15.61,0,32.08,3.47,48.55,9.54c16.47,6.94,32.08,18.21,45.95,32.95c13.01,14.74,19.94,32.08,19.94,51.16
	C540.82,871.03,534.75,887.5,522.61,903.11z M570.3,79.42C555.56,62.94,527.81,44.73,521.74,43c-0.87,53.76-2.6,108.38-6.07,162.14
	c0.87,101.44,4.34,290.46,10.4,567.05c-21.68-17.34-45.95-31.21-72.83-42.49c-26.88-10.4-52.02-15.61-77.17-15.61
	c-6.94,0-14.74,0.87-22.54,2.6c-8.67,2.6-18.21,6.07-27.75,10.4c-9.54,4.34-18.21,12.14-24.28,21.68
	c-6.94,10.4-10.4,22.54-10.4,37.28c0,20.81,7.8,41.62,25.14,63.29c16.47,21.68,35.55,39.88,58.09,55.49
	c22.54,14.74,45.09,27.75,68.5,37.28c22.54,9.54,40.75,13.87,54.62,13.87c19.94,0,39.88-7.8,60.69-22.54
	c19.94-14.74,30.35-36.42,30.35-63.29c0.87,0,0-59.83-0.87-179.48c-1.73-118.79-3.47-242.77-5.2-371.96
	c-0.87-19.94-0.87-39.02-1.73-56.36c7.8,6.07,23.41,34.68,45.09,84.97c25.14,56.36,38.15,90.17,38.15,99.71
	c0,7.8-6.94,17.34-18.21,30.35c-3.47,4.34-3.47,6.07,0,6.07c10.4,0,19.08-2.6,27.75-6.94c8.67-4.34,14.74-10.4,19.94-17.34
	c5.2-6.07,9.54-13.01,12.14-19.08c2.6-6.07,4.34-10.4,4.34-13.01c0-11.27-9.54-43.35-28.61-96.24
	c-19.08-53.76-39.02-104.91-61.56-156.07C598.04,125.37,578.1,79.42,570.3,79.42z"/>
</svg>
