<?xml version="1.0" encoding="utf-8"?>
<!-- Generator: Adobe Illustrator 23.0.2, SVG Export Plug-In . SVG Version: 6.00 Build 0)  -->
<svg version="1.1" id="Capa_1" xmlns="http://www.w3.org/2000/svg" xmlns:xlink="http://www.w3.org/1999/xlink" x="0px" y="0px"
	 viewBox="0 0 1000 1000" style="enable-background:new 0 0 1000 1000;" xml:space="preserve">
<path d="M837,896V773c-1-51-1-106-1-167c-1-61-1-122-2-183s-1-117-2-168c-1-50-1-91-1-124l-1-48c0-1-9-8-26-20s-27-18-28-18
	s-1,31-1,93c-1,62-1,154,0,277v260c-19-25-46-45-81-61c-35-15-70-23-107-23c-19,0-35,2-49,5c-15,4-26,9-34,15c-9,6-16,13-21,20
	c-6,7-10,14-12,21c-3,7-5,14-6,20s-2,11-2,14c-1,4-1,6-2,6s-3-3-8-10c-5-6-12-14-21-23s-20-18-31-27c-12-9-26-16-43-23
	c-17-6-34-9-52-9c-38,0-67,11-86,34c-1-44-2-83-2-116c0-1-9-8-26-20c-17-11-27-17-28-17s-1,8-1,23v59v81v90c1,29,1,56,1,81v61l1,24
	c0,1,10,11,29,28s29,26,30,26s1-7,1-22v-63c0-27-1-54-2-83c39,49,90,74,154,74c22,0,42-2,59-7s31-11,40-18s17-14,23-21
	c5-7,10-13,13-18s4-7,5-7s7,3,16,10s20,14,33,22c12,8,27,16,45,23c17,7,34,10,49,10c55,0,93-11,116-34c1,28,1,51,1,69
	c0,1,10,11,29,28s29,26,30,26S837,927,837,896z M414,683c27,16,41,33,41,51c0,19-12,35-35,46c-23,12-52,18-87,18c-25,0-46-6-63-19
	c-18-12-27-25-27-39c0-24,9-43,29-58c19-15,38-22,58-22C359,660,387,668,414,683z M714,671c29,13,43,29,43,48c0,17-11,34-33,51
	s-49,26-80,26c-33,0-61-7-84-21c-23-13-35-30-35-49c0-18,8-35,23-50s41-23,76-23C655,653,685,659,714,671z"/>
</svg>
