<?xml version="1.0" encoding="utf-8"?>
<!-- Generator: Adobe Illustrator 23.0.2, SVG Export Plug-In . SVG Version: 6.00 Build 0)  -->
<svg version="1.1" id="Capa_1" xmlns="http://www.w3.org/2000/svg" xmlns:xlink="http://www.w3.org/1999/xlink" x="0px" y="0px"
	 viewBox="0 0 1000 1000" style="enable-background:new 0 0 1000 1000;" xml:space="preserve">
<path d="M951.35,206.27c-0.65,0-4.58,2.62-11.77,8.5c-7.2,5.89-14.39,12.43-21.59,18.31c-7.2,6.54-11.12,9.81-11.12,10.47v1.96
	c-0.65,1.96-0.65,3.92-0.65,6.54v37.94c-16.35-7.2-37.94-11.12-64.76-11.12c-18.31,0-34.01,1.96-47.75,6.54
	c-13.74,4.58-22.89,9.81-28.78,15.7l-15.7,15.7c-4.58,4.58-8.5,7.2-10.47,7.2c-1.31,0-3.92-2.62-8.5-7.85
	c-4.58-4.58-9.81-10.47-15.7-16.35c-6.54-5.89-17.66-11.77-32.7-17.01c-15.04-4.58-32.7-7.2-52.98-7.2
	c-15.04,0-29.43,1.31-43.17,3.92c-13.74,2.62-24.2,5.89-32.7,9.81c-8.5,3.92-16.35,7.85-22.24,11.77
	c-6.54,3.92-11.77,7.2-15.04,9.81c-4.58-4.58-8.5-7.85-14.39-13.74c-6.54-5.89-17.66-11.77-32.7-17.01
	c-15.04-4.58-32.7-7.2-52.98-7.2c-15.04,0-29.43,1.31-43.17,3.92c-13.74,2.62-24.2,5.89-32.7,9.81c-8.5,3.92-16.35,7.85-22.24,11.77
	c-6.54,3.92-11.77,7.2-15.04,9.81c-3.92,2.62-6.54,3.92-7.2,3.92c-1.31,0-5.23-2.62-8.5-5.89c-3.27-3.27-7.85-7.85-13.08-12.43
	c-5.23-4.58-14.39-8.5-26.82-11.77c-12.43-3.27-27.47-5.23-43.82-5.23c-20.93,0-43.17,6.54-67.37,20.28
	c-24.2,13.74-43.17,30.74-56.91,49.71c0.65-49.06,1.31-81.76,1.31-97.46v-43.17c-1.31,0-9.16,5.89-23.55,17.66
	s-21.59,18.31-21.59,19.62c0,0.65,0,3.92-0.65,11.12v26.82c0,11.12,0,24.2-0.65,38.59c0,15.04,0,30.09-0.65,45.79v131.47
	c0.65,11.12,0.65,19.62,0.65,26.16c0.65,6.54,0.65,9.81,1.31,9.81c0.65,0,3.92-1.96,10.47-5.89s13.08-7.85,19.62-12.43
	c6.54-4.58,9.81-7.2,9.81-7.85v-7.2c0.65-2.62,0.65-5.23,0.65-8.5v-25.51c0.65-4.58,0.65-9.81,0.65-15.7s0-12.43,0.65-18.31
	c17.66,17.66,46.44,26.82,86.99,26.82c16.35,0,31.4-2.62,46.44-7.85c14.39-5.23,25.51-11.12,34.01-17.01
	c8.5-5.89,15.7-11.77,22.24-17.01c5.89-5.23,9.81-7.85,10.47-7.85l0.65,0.65c0.65,0,2.62,1.96,4.58,3.92
	c1.96,2.62,5.89,5.89,10.47,9.81c4.58,3.27,9.81,7.2,16.35,11.12c6.54,3.27,15.7,6.54,27.47,9.16s24.86,3.92,39.25,3.92
	c17.01,0,32.05-1.31,45.79-3.92c13.74-3.27,24.2-6.54,31.4-10.47c7.2-4.58,13.08-8.5,17.66-12.43l10.47-10.47
	c1.96-3.27,3.92-4.58,5.23-4.58l9.16,10.47c1.96,2.62,5.89,5.89,10.47,9.81c4.58,3.27,9.81,7.2,16.35,11.12
	c6.54,3.27,15.7,6.54,27.47,9.16s24.86,3.92,39.25,3.92c17.01,0,32.05-1.31,45.79-3.92c13.74-3.27,24.2-6.54,31.4-10.47
	c7.2-4.58,13.08-8.5,17.66-12.43l10.47-10.47c1.96-3.27,3.92-4.58,5.23-4.58c1.31,0,2.62,1.31,3.92,4.58
	c1.31,2.62,3.92,5.89,7.2,9.81c3.27,3.92,7.85,7.85,14.39,11.77c5.89,3.92,15.7,7.2,29.43,10.47c13.74,2.62,29.43,3.92,48.4,3.92
	c17.66,0,35.32-4.58,53.64-13.08s34.67-19.62,49.06-32.7C903.6,685.72,904.25,827,906.21,827c0.65,0,7.85-3.92,20.93-12.43
	c12.43-8.5,18.97-13.08,18.97-14.39l0.65-33.36c0-22.24,0-50.37,0.65-85.03c0.65-34.67,1.31-73.26,1.96-115.77
	c0.65-42.52,0.65-84.38,1.31-126.24c0.65-42.52,0.65-81.11,1.31-115.77v-85.03C952,217.39,952,206.27,951.35,206.27z M471.24,363.9
	c-9.16,8.5-37.94,32.05-64.76,32.05c-20.28,0-41.21-5.23-64.1-16.35c-22.89-11.12-34.67-22.89-34.67-34.67
	c0-7.2,7.85-13.74,24.2-19.62c16.35-5.89,36.63-8.5,60.83-8.5c11.77,0,24.86,3.27,39.25,9.16
	C446.39,331.85,467.97,352.13,471.24,363.9z M242.96,403.15c-15.7,7.2-38.59,10.47-68.03,10.47c-15.04,0-29.43-1.96-42.52-5.23
	c-13.74-3.92-24.2-9.16-31.4-15.04c-7.2-5.89-11.12-12.43-11.12-18.97c0-9.81,8.5-21.59,24.86-34.01s38.59-18.31,66.06-18.31
	c15.04,0,30.09,3.27,43.82,9.81c13.74,7.2,23.55,14.39,30.74,22.24c7.2,8.5,10.47,15.04,10.47,20.93L242.96,403.15z M619.72,398.57
	c-20.28,0-41.21-5.23-64.1-16.35c-22.89-11.12-34.67-22.89-34.67-34.67c0-7.2,7.85-13.74,24.2-19.62c16.35-5.89,36.63-8.5,60.83-8.5
	c11.77,0,24.86,3.27,39.25,9.16c14.39,5.89,26.16,13.08,35.98,20.93c9.16,8.5,13.74,15.04,13.74,20.93
	c0,11.12-5.89,18.31-17.66,22.24S646.54,398.57,619.72,398.57z M815.29,406.42c-17.66,0-33.36-4.58-48.4-13.74
	c-15.04-9.81-22.24-19.62-22.24-29.43c0-6.54,2.62-13.08,7.85-18.97c4.58-5.89,13.08-11.77,24.86-16.35s25.51-6.54,41.21-6.54
	c20.93,0,39.9,4.58,56.91,13.74c16.35,9.81,24.86,19.62,24.86,29.43c0,12.43-8.5,22.24-24.86,30.09
	C858.46,402.49,838.19,406.42,815.29,406.42z"/>
</svg>
