<?xml version="1.0" encoding="utf-8"?>
<!-- Generator: Adobe Illustrator 23.0.2, SVG Export Plug-In . SVG Version: 6.00 Build 0)  -->
<svg version="1.1" id="Capa_1" xmlns="http://www.w3.org/2000/svg" xmlns:xlink="http://www.w3.org/1999/xlink" x="0px" y="0px"
	 viewBox="0 0 1000 1000" style="enable-background:new 0 0 1000 1000;" xml:space="preserve">
<path d="M821,898.45V776.39c-1-50.61-1-105.18-1-165.71c-1-60.53-1-121.06-2-181.59s-1-116.1-2-166.71c-1-49.61-1-90.3-1-123.05
	l-1-47.63c0-0.99-9-7.94-26-19.85S761,54,760,54s-1,30.76-1,92.28c-1,61.52-1,152.81,0,274.87v258c-19-24.81-46-44.65-81-60.53
	c-35-14.88-70-22.82-107-22.82c-19,0-35,1.98-49,4.96c-15,3.97-26,8.93-34,14.88c-9,5.95-16,12.9-21,19.85
	c-6,6.95-10,13.89-12,20.84c-3,6.95-5,13.89-6,19.85s-2,10.92-2,13.89c-1,3.97-1,5.95-2,5.95s-3-2.98-8-9.92
	c-5-5.95-12-13.89-21-22.82s-20-17.86-31-26.79c-12-8.93-26-15.88-43-22.82c-17-5.95-34-8.93-52-8.93c-38,0-67,10.92-86,33.74
	c-1-43.66-2-82.36-2-115.11c0-0.99-9-7.94-26-19.85c-17-10.92-27-16.87-28-16.87s-1,7.94-1,22.82v58.55v80.38v89.31
	c1,28.78,1,55.57,1,80.38v60.53l1,23.82c0,0.99,10,10.92,29,27.78c19,16.87,29,25.8,30,25.8s1-6.95,1-21.83v-62.51
	c0-26.79-1-53.58-2-82.36c39,48.62,90,73.43,154,73.43c22,0,42-1.98,59-6.95s31-10.92,40-17.86s17-13.89,23-20.84
	c5-6.95,10-12.9,13-17.86s4-6.95,5-6.95s7,2.98,16,9.92s20,13.89,33,21.83c12,7.94,27,15.88,45,22.82c17,6.95,34,9.92,49,9.92
	c55,0,93-10.92,116-33.74c1,27.78,1,50.61,1,68.47c0,0.99,10,10.92,29,27.78s29,25.8,30,25.8S821,929.21,821,898.45z"/>
</svg>
