<?xml version="1.0" encoding="utf-8"?>
<!-- Generator: Adobe Illustrator 23.0.2, SVG Export Plug-In . SVG Version: 6.00 Build 0)  -->
<svg version="1.1" id="Capa_1" xmlns="http://www.w3.org/2000/svg" xmlns:xlink="http://www.w3.org/1999/xlink" x="0px" y="0px"
	 viewBox="0 0 1000 1000" style="enable-background:new 0 0 1000 1000;" xml:space="preserve">
<path d="M502.54,828.08c-65.62,0-101.33-66.45-101.33-91.37c0-32.39,24.92-62.29,101.33-62.29c51.5,0,88.87,26.58,107.15,52.33
	v71.43C593.91,818.95,563.18,828.08,502.54,828.08z M670.32,57.29c-2.49,0-58.14,49.84-58.14,53.99c0,2.49-2.49,301.51-2.49,539.89
	c-21.6-19.93-52.33-33.22-89.7-33.22c-58.97,0-102.99,24.09-131.23,57.31c2.49-102.16,3.32-200.17,1.66-200.17
	c-2.49,0-58.97,49.01-58.97,53.16s-4.15,413.64,0,413.64c2.49,0,52.33-34.05,52.33-37.38c0-0.83,0-24.09,0.83-60.63
	c19.1,21.6,46.51,38.21,95.52,38.21c65.62,0,105.49-28.24,129.57-62.29c0,73.92,0.83,122.93,1.66,122.93
	c2.49,0,52.33-34.05,52.33-37.38C663.68,902.01,673.64,57.29,670.32,57.29z"/>
</svg>
