<?xml version="1.0" encoding="utf-8"?>
<!-- Generator: Adobe Illustrator 23.0.2, SVG Export Plug-In . SVG Version: 6.00 Build 0)  -->
<svg version="1.1" id="Capa_1" xmlns="http://www.w3.org/2000/svg" xmlns:xlink="http://www.w3.org/1999/xlink" x="0px" y="0px"
	 viewBox="0 0 1000 1000" style="enable-background:new 0 0 1000 1000;" xml:space="preserve">
<path d="M476.88,235.86c-29.06,0-51.07-6.16-64.27-19.37c-13.21-13.21-20.25-28.17-20.25-46.66c0-22.01,16.73-44.9,50.19-68.68
	c32.58-23.77,59.87-35.22,80.12-35.22c22.01,0,39.62,7.92,51.95,23.77c12.33,15.85,18.49,32.58,18.49,51.07
	c0,19.37-7.04,36.98-20.25,51.95c-14.09,14.97-29.94,26.41-46.66,33.46C509.45,232.34,492.73,235.86,476.88,235.86z M641.52,123.17
	c0-27.29-10.57-49.31-30.82-64.27C589.58,43.92,569.33,36,549.08,36c-14.09,0-32.58,4.4-55.47,14.09
	c-23.77,9.69-46.66,22.89-69.56,37.86c-22.89,15.85-42.26,34.34-58.99,56.35c-17.61,22.01-25.53,43.14-25.53,64.27
	c0,14.97,3.52,27.29,10.57,37.86c6.16,9.69,14.97,17.61,24.65,22.01c9.68,4.4,19.37,7.92,28.17,10.57
	c7.92,1.76,15.85,2.64,22.89,2.64c25.53,0,51.07-5.28,78.36-15.85c27.29-11.45,51.95-25.53,73.96-43.14
	c-6.16,284.39-9.68,478.09-10.57,579.34c-7.92-0.88-28.17-29.94-58.99-87.17c-31.7-57.23-47.54-90.69-47.54-100.37
	c0-7.92,7.92-17.61,22.89-30.82c4.4-4.4,4.4-6.16-0.88-6.16c-12.33,0-23.77,2.64-34.34,7.04s-18.49,10.57-24.65,17.61
	c-6.16,6.16-11.45,13.21-14.97,19.37c-3.52,6.16-5.28,10.57-5.28,13.21c0,10.57,11.45,43.14,35.22,96.85
	c23.77,53.71,49.31,105.65,76.6,156.72C542.91,938.47,561.4,964,571.09,964c6.16,0,18.49-9.68,35.22-29.06
	c16.73-20.25,25.53-34.34,25.53-42.26c0-9.68,0.88-79.24,3.52-209.55c1.76-131.19,3.52-257.09,5.28-377.72
	C641.52,183.92,642.4,123.17,641.52,123.17z"/>
</svg>
