<?xml version="1.0" encoding="utf-8"?>
<!-- Generator: Adobe Illustrator 23.0.2, SVG Export Plug-In . SVG Version: 6.00 Build 0)  -->
<svg version="1.1" id="Capa_1" xmlns="http://www.w3.org/2000/svg" xmlns:xlink="http://www.w3.org/1999/xlink" x="0px" y="0px"
	 viewBox="0 0 1000 1000" style="enable-background:new 0 0 1000 1000;" xml:space="preserve">
<path d="M837,139.85v120.56c-1,49.99-1,103.9-1,163.69c-1,59.79-1,119.58-2,179.38c-1,59.79-1,114.68-2,164.67
	c-1,49.01-1,89.2-1,121.54l-1,47.05c0,0.98-9,7.84-26,19.6S777,974,776,974s-1-30.39-1-91.16c-1-60.77-1-150.95,0-271.51V356.48
	c-19,24.5-46,44.11-81,59.79c-35,14.7-70,22.54-107,22.54c-19,0-35-1.96-49-4.9c-15-3.92-26-8.82-34-14.7c-9-5.88-16-12.74-21-19.6
	c-6-6.86-10-13.72-12-20.58c-3-6.86-5-13.72-6-19.6c-1-5.88-2-10.78-2-13.72c-1-3.92-1-5.88-2-5.88s-3,2.94-8,9.8
	c-5,5.88-12,13.72-21,22.54s-20,17.64-31,26.47c-12,8.82-26,15.68-43,22.54c-17,5.88-34,8.82-52,8.82c-38,0-67-10.78-86-33.33
	c-1,43.13-2,81.36-2,113.7c0,0.98-9,7.84-26,19.6c-17,10.78-27,16.66-28,16.66s-1-7.84-1-22.54v-57.83v-79.4v-88.22
	c1-28.43,1-54.89,1-79.4v-59.79l1-23.52c0-0.98,10-10.78,29-27.45S223,83,224,83s1,6.86,1,21.56v61.75c0,26.47-1,52.93-2,81.36
	c39-48.03,90-72.53,154-72.53c22,0,42,1.96,59,6.86s31,10.78,40,17.64c9,6.86,17,13.72,23,20.58c5,6.86,10,12.74,13,17.64
	c3,4.9,4,6.86,5,6.86s7-2.94,16-9.8s20-13.72,33-21.56c12-7.84,27-15.68,45-22.54c17-6.86,34-9.8,49-9.8c55,0,93,10.78,116,33.33
	c1-27.45,1-49.99,1-67.63c0-0.98,10-10.78,29-27.45s29-25.49,30-25.49S837,109.47,837,139.85z M414,348.63
	c27-15.68,41-32.35,41-49.99c0-18.62-12-34.31-35-45.09c-23-11.76-52-17.64-87-17.64c-25,0-46,5.88-63,18.62
	c-18,11.76-27,24.5-27,38.23c0,23.52,9,42.15,29,56.85c19,14.7,38,21.56,58,21.56C359,371.18,387,363.34,414,348.63z M714,360.4
	c29-12.74,43-28.43,43-47.05c0-16.66-11-33.33-33-49.99s-49-25.49-80-25.49c-33,0-61,6.86-84,20.58c-23,12.74-35,29.41-35,48.03
	c0,17.64,8,34.31,23,49.01s41,22.54,76,22.54C655,378.04,685,372.16,714,360.4z"/>
</svg>
