<?xml version="1.0" encoding="utf-8"?>
<!-- Generator: Adobe Illustrator 23.0.2, SVG Export Plug-In . SVG Version: 6.00 Build 0)  -->
<svg version="1.1" id="Capa_1" xmlns="http://www.w3.org/2000/svg" xmlns:xlink="http://www.w3.org/1999/xlink" x="0px" y="0px"
	 viewBox="0 0 1000 1000" style="enable-background:new 0 0 1000 1000;" xml:space="preserve">
<path d="M524.12,675.57c-46.39,0-100.21-22.27-163.31-66.81c-63.1-44.54-94.64-90.93-94.64-141.04c0-38.97,7.42-70.52,22.27-98.36
	c12.99-27.84,31.55-46.39,53.82-59.38s42.68-20.41,61.24-25.98c18.56-3.71,35.26-5.57,51.96-5.57c48.25,0,107.63,22.27,180.01,68.66
	c70.52,46.39,105.78,92.79,105.78,139.18c0,64.95-20.41,111.35-63.1,142.89C635.47,660.72,583.51,675.57,524.12,675.57z
	 M487.01,217.19c-89.08,0-172.59,25.98-252.38,77.94C154.83,348.95,114,408.34,114,477c0,83.51,33.4,148.46,98.36,193
	s146.61,66.81,246.82,66.81c63.1,0,126.19-11.13,191.14-33.4s120.62-55.67,167.02-98.36C863.73,560.51,886,512.26,886,458.44
	c0-42.68-12.99-81.65-38.97-113.2s-59.38-57.53-100.21-76.09c-42.68-16.7-85.37-29.69-128.05-38.97
	C574.23,220.9,529.69,217.19,487.01,217.19z"/>
</svg>
