<?xml version="1.0" encoding="utf-8"?>
<!-- Generator: Adobe Illustrator 23.0.2, SVG Export Plug-In . SVG Version: 6.00 Build 0)  -->
<svg version="1.1" id="Capa_1" xmlns="http://www.w3.org/2000/svg" xmlns:xlink="http://www.w3.org/1999/xlink" x="0px" y="0px"
	 viewBox="0 0 1000 1000" style="enable-background:new 0 0 1000 1000;" xml:space="preserve">
<path d="M488.44,237.06c-52.75,0-105.5,10.21-158.26,30.63c-52.75,22.12-97,51.05-132.73,88.49S143,434.46,143,477
	c0,76.58,30.63,134.43,91.89,176.97c59.56,42.54,136.13,62.96,228.02,62.96c57.86,0,117.42-10.21,176.97-30.63
	c59.56-22.12,110.61-52.75,153.15-93.59C835.58,551.87,856,507.63,856,458.28c0-39.14-11.91-73.17-35.74-103.8
	c-23.82-28.93-54.45-52.75-91.89-69.77c-39.14-15.32-78.28-27.23-117.42-35.74C570.12,240.47,529.28,237.06,488.44,237.06z"/>
</svg>
