<?xml version="1.0" encoding="utf-8"?>
<!-- Generator: Adobe Illustrator 23.0.2, SVG Export Plug-In . SVG Version: 6.00 Build 0)  -->
<svg version="1.1" id="Capa_1" xmlns="http://www.w3.org/2000/svg" xmlns:xlink="http://www.w3.org/1999/xlink" x="0px" y="0px"
	 viewBox="0 0 1000 1000" style="enable-background:new 0 0 1000 1000;" xml:space="preserve">
<path d="M945,849.9V742.59c-0.83-43.75-0.83-92.45-1.65-146.1c-0.83-52.83-0.83-105.66-1.65-159.31s-1.65-102.35-2.48-146.1
	s-0.83-79.24-0.83-107.31l-0.83-42.1c0-1.65-8.25-7.43-23.94-18.16c-16.51-10.73-25.59-15.68-26.41-15.68
	c-2.48,0-3.3,178.3-0.83,534.89c-18.16-16.51-38.8-30.54-61.91-41.27c-23.11-10.73-45.4-16.51-67.69-16.51
	c-23.94,0-43.75,1.65-61.08,4.95c-17.33,4.13-29.72,8.25-37.14,13.21c-8.25,4.95-14.03,9.91-18.16,14.86
	c-4.13,4.95-7.43,9.08-9.08,12.38c-1.65,4.13-3.3,5.78-4.95,5.78s-4.13-1.65-6.6-5.78l-13.21-13.21
	c-5.78-4.95-13.21-9.91-22.29-15.68c-9.08-4.95-22.29-9.08-39.62-13.21c-17.33-3.3-36.32-4.95-57.78-4.95
	c-18.16,0-34.67,1.65-49.53,4.95s-26.41,7.43-34.67,11.56c-8.25,4.95-14.86,9.91-20.64,14.03c-5.78,4.95-10.73,9.08-13.21,12.38
	s-4.13,4.95-4.95,4.95s-5.78-3.3-13.21-9.91c-8.25-6.6-17.33-14.03-28.07-21.46c-10.73-7.43-24.76-14.86-42.92-21.46
	c-18.99-6.6-37.97-9.91-58.61-9.91c-51.18,0-87.5,11.56-109.78,33.84c-0.83-7.43-0.83-15.68-0.83-23.11c0-7.43,0-14.03-0.83-19.81
	v-17.33v-14.86c0-4.13,0-7.43-0.83-10.73v-6.6v-2.48c0-0.83-4.13-4.13-12.38-9.91s-16.51-10.73-24.76-15.68s-12.38-7.43-13.21-7.43
	c-0.83,0-0.83,4.13-1.65,12.38c0,8.25,0,18.99-0.83,33.02v47.88v57.78v60.26c0.83,19.81,0.83,38.8,0.83,57.78
	c0.83,18.16,0.83,34.67,0.83,48.7v33.84c0.83,9.08,0.83,13.21,0.83,14.03c0,1.65,9.08,9.91,27.24,24.76
	c18.16,14.86,28.07,22.29,29.72,22.29v-54.48c0-19.81-0.83-61.08-1.65-122.99c17.33,23.94,41.27,45.4,71.81,62.73
	c30.54,17.33,58.61,25.59,85.02,25.59c20.64,0,39.62-2.48,55.3-6.6s27.24-9.08,33.84-14.86c6.6-5.78,12.38-11.56,16.51-15.68
	s7.43-6.6,9.08-6.6c0.83,0,4.13,1.65,9.08,4.95c4.13,3.3,10.73,7.43,18.99,12.38c7.43,4.95,17.33,9.91,28.06,14.86
	c10.73,4.95,23.94,9.08,41.27,12.38c17.33,3.3,35.49,4.95,54.48,4.95c25.59,0,47.88-3.3,66.86-9.08
	c18.99-6.6,33.02-14.03,41.27-21.46c7.43-7.43,14.03-14.86,19.81-20.64c5.78-6.6,9.08-9.91,10.73-9.91c2.48,0,7.43,3.3,13.21,9.08
	l19.81,19.81c7.43,7.43,18.99,14.03,36.32,19.81c17.33,5.78,37.14,8.25,60.26,8.25c33.84,0,61.08-4.95,81.72-14.03v19.81v15.68
	v12.38c0,3.3,0,5.78,0.83,8.25v2.48c0,0.83,4.95,4.95,14.03,13.21c9.08,7.43,18.16,15.68,27.24,23.11
	c9.08,7.43,14.03,10.73,14.86,10.73S945,877.14,945,849.9z M320.97,638.59c18.99,9.08,28.89,21.46,28.89,35.49
	c0,7.43-4.13,15.68-13.21,26.41c-9.08,9.91-21.46,18.99-38.8,28.07c-17.33,8.25-36.32,12.38-55.3,12.38
	c-34.67,0-62.73-7.43-83.37-23.11c-20.64-15.68-31.37-30.54-31.37-42.92c0-8.25,4.95-16.51,14.03-23.94s22.29-14.03,39.62-18.99
	c16.51-4.13,34.67-6.6,53.65-6.6C272.27,625.38,301.16,629.51,320.97,638.59z M598.31,655.92c14.86,4.95,22.29,14.03,22.29,28.07
	c0,7.43-5.78,15.68-17.33,26.41c-12.38,9.91-27.24,18.99-45.4,26.41c-18.16,7.43-34.67,11.56-49.53,11.56
	c-30.54,0-56.13-3.3-76.77-10.73c-20.64-7.43-30.54-15.68-30.54-24.76c0-14.86,14.86-29.72,43.75-43.75
	c28.89-14.03,55.3-20.64,80.89-20.64C559.52,648.49,583.46,650.97,598.31,655.92z M848.42,653.44
	c20.64,9.91,31.37,22.29,31.37,37.97c0,12.38-10.73,24.76-31.37,37.14c-21.46,11.56-45.4,17.33-71.81,17.33
	c-19.81,0-37.14-2.48-52-8.25c-14.86-5.78-25.59-13.21-31.37-20.64c-6.6-7.43-9.91-15.68-9.91-23.94c0-12.38,9.08-24.76,28.07-37.14
	c18.99-11.56,38.8-17.33,61.08-17.33C801.37,638.59,826.96,643.54,848.42,653.44z"/>
</svg>
