<?xml version="1.0" encoding="utf-8"?>
<!-- Generator: Adobe Illustrator 23.0.2, SVG Export Plug-In . SVG Version: 6.00 Build 0)  -->
<svg version="1.1" id="Capa_1" xmlns="http://www.w3.org/2000/svg" xmlns:xlink="http://www.w3.org/1999/xlink" x="0px" y="0px"
	 viewBox="0 0 1000 1000" style="enable-background:new 0 0 1000 1000;" xml:space="preserve">
<path d="M681.92,54.27c-4.27,0-28.17,25.61-61.47,63.18c-21.34-37.56-40.13-64.88-47.81-64.88c-4.27,0-56.35,16.22-56.35,27.32
	c0,2.56,0,66.59,0,154.53c-77.69,87.08-153.67,175.02-159.65,180.99c-3.42,4.27-3.42,40.13-1.71,40.13
	c1.71,0,78.54-76.84,161.36-163.92c0,181.85-1.71,413.21-2.56,413.21c-151.97,0-246.73,88.79-246.73,158.8
	c0,52.93,22.2,82.81,93.06,82.81c87.94,0,216.85-87.08,216.85-174.16c0,0-2.56-327.84-3.41-541.28c5.98-5.12,10.24-9.39,14.51-15.37
	c30.73,40.13,89.64,156.24,89.64,168.19c0,23.05-40.98,35.86-19.64,35.86c48.66,0,73.42-43.54,73.42-54.64
	c0-17.07-45.25-122.94-88.79-207.46C695.58,101.23,734,59.39,734,56.83C734,52.56,695.58,52.56,681.92,54.27z"/>
</svg>
