<?xml version="1.0" encoding="utf-8"?>
<!-- Generator: Adobe Illustrator 23.0.2, SVG Export Plug-In . SVG Version: 6.00 Build 0)  -->
<svg version="1.1" id="Capa_1" xmlns="http://www.w3.org/2000/svg" xmlns:xlink="http://www.w3.org/1999/xlink" x="0px" y="0px"
	 viewBox="0 0 1000 1000" style="enable-background:new 0 0 1000 1000;" xml:space="preserve">
<path d="M767.59,362.92c-21.89,0-41.34-5.67-59.98-17.02c-18.64-12.16-27.56-24.32-27.56-36.48c0-8.11,3.24-16.21,9.73-23.51
	c5.67-7.3,16.21-14.59,30.8-20.26c14.59-5.67,31.61-8.11,51.07-8.11c25.94,0,49.45,5.67,70.52,17.02
	c20.26,12.16,30.8,24.32,30.8,36.48c0,15.4-10.54,27.56-30.8,37.29C821.09,358.05,795.96,362.92,767.59,362.92z M525.22,353.19
	c-25.13,0-51.07-6.48-79.44-20.26c-28.37-13.78-42.96-28.37-42.96-42.96c0-8.92,9.73-17.02,29.99-24.32s45.39-10.54,75.38-10.54
	c14.59,0,30.8,4.05,48.64,11.35c17.83,7.3,32.42,16.21,44.58,25.94c11.35,10.54,17.02,18.64,17.02,25.94
	c0,13.78-7.3,22.7-21.89,27.56C581.96,350.76,558.46,353.19,525.22,353.19z M239.9,375.89c-18.64,0-36.48-2.43-52.69-6.48
	c-17.02-4.86-29.99-11.35-38.91-18.64c-8.92-7.3-13.78-15.4-13.78-23.51c0-12.16,10.54-26.75,30.8-42.15s47.82-22.7,81.87-22.7
	c18.64,0,37.29,4.05,54.31,12.16c17.02,8.92,29.18,17.83,38.1,27.56c8.92,10.54,12.97,18.64,12.97,25.94
	c0,13.78-9.73,25.94-28.37,34.86C304.74,371.83,276.37,375.89,239.9,375.89z M936.19,114.88c-0.81,0-5.67,3.24-14.59,10.54
	c-8.92,7.3-17.83,15.4-26.75,22.7c-8.92,8.11-13.78,12.16-13.78,12.97v2.43c-0.81,2.43-0.81,4.86-0.81,8.11v12.16v15.4v19.45
	c-20.26-8.92-47.01-13.78-80.25-13.78c-22.7,0-42.15,2.43-59.17,8.11c-17.02,5.67-28.37,12.16-35.67,19.45l-19.45,19.45
	c-5.67,5.67-10.54,8.92-12.97,8.92c-1.62,0-4.86-3.24-10.54-9.73c-5.67-5.67-12.16-12.97-19.45-20.26
	c-8.11-7.3-21.89-14.59-40.53-21.08c-18.64-5.67-40.53-8.92-65.66-8.92c-18.64,0-36.48,1.62-53.5,4.86s-29.99,7.3-40.53,12.16
	s-20.26,9.73-27.56,14.59c-8.11,4.86-14.59,8.92-18.64,12.16c-4.86,3.24-8.11,4.86-8.92,4.86c-1.62,0-4.86-2.43-8.92-6.48
	c-4.05-4.05-9.73-9.73-16.21-15.4c-6.48-5.67-17.83-10.54-33.23-14.59c-15.4-4.05-34.04-6.48-54.31-6.48
	c-25.94,0-53.5,8.11-83.49,25.13s-53.5,38.1-70.52,61.6c0.81-60.79,1.62-101.32,1.62-120.78v-53.5c-1.62,0-11.35,7.3-29.18,21.89
	s-26.75,22.7-26.75,24.32c0,0.81,0,4.86-0.81,13.78v33.23c0,13.78,0,29.99-0.81,47.82c0,18.64,0,37.29-0.81,56.74v59.17v56.74v47.01
	c0.81,13.78,0.81,24.32,0.81,32.42c0.81,8.11,0.81,12.16,1.62,12.16s4.86-2.43,12.97-7.3c8.11-4.86,16.21-9.73,24.32-15.4
	s12.16-8.92,12.16-9.73v-2.43v-6.48c0.81-3.24,0.81-6.48,0.81-10.54v-14.59v-17.02c0.81-5.67,0.81-12.16,0.81-19.45
	c0-7.3,0-15.4,0.81-22.7c21.89,21.89,57.55,33.23,107.81,33.23c20.26,0,38.91-3.24,57.55-9.73c17.83-6.48,31.61-13.78,42.15-21.08
	c10.54-7.3,19.45-14.59,27.56-21.08c7.3-6.48,12.16-9.73,12.97-9.73c0.81,0,2.43,1.62,4.86,4.86s7.3,7.3,12.97,12.16
	c5.67,4.05,12.16,8.92,20.26,13.78c8.11,4.05,19.45,8.11,34.04,11.35c14.59,3.24,30.8,4.86,48.64,4.86
	c21.08,0,39.72-1.62,56.74-4.86c17.02-4.05,29.99-8.11,38.91-12.97c8.92-5.67,16.21-10.54,21.89-15.4l12.97-12.97
	c2.43-4.05,4.86-5.67,6.48-5.67s3.24,1.62,4.86,5.67c1.62,3.24,4.86,7.3,8.92,12.16c4.05,4.86,9.73,9.73,17.83,14.59
	c7.3,4.86,19.45,8.92,36.48,12.97c17.02,3.24,36.48,4.86,59.98,4.86c21.89,0,43.77-5.67,66.47-16.21
	c22.7-10.54,42.96-24.32,60.79-40.53c-2.43,350.17-1.62,525.26,0.81,525.26c0.81,0,9.73-4.86,25.94-15.4
	c15.4-10.54,23.51-16.21,23.51-17.83l0.81-41.34c0-27.56,0-62.42,0.81-105.38c0.81-42.96,1.62-90.79,2.43-143.47
	c0.81-52.69,0.81-104.57,1.62-156.44c0.81-52.69,0.81-100.51,1.62-143.47V155.41C937,128.66,937,114.88,936.19,114.88z"/>
</svg>
