<?xml version="1.0" encoding="utf-8"?>
<!-- Generator: Adobe Illustrator 23.0.2, SVG Export Plug-In . SVG Version: 6.00 Build 0)  -->
<svg version="1.1" id="Capa_1" xmlns="http://www.w3.org/2000/svg" xmlns:xlink="http://www.w3.org/1999/xlink" x="0px" y="0px"
	 viewBox="0 0 1000 1000" style="enable-background:new 0 0 1000 1000;" xml:space="preserve">
<path d="M489.66,692.91c21.43-1.13,49.62,11.28,80.07,39.47s47.37,57.52,48.49,84.58c2.26,23.68-2.26,47.37-15.79,68.79
	c-13.53,20.3-29.32,30.45-47.37,32.71c-25.94,1.13-56.39-11.28-89.09-38.34c-34.96-29.32-53.01-58.64-55.26-92.48
	c-1.13-27.07,4.51-48.49,18.04-65.41C443.43,704.18,462.6,694.03,489.66,692.91z M665.6,806.81c0-4.51-2.26-28.19-5.64-69.92
	c-2.26-41.73-7.89-98.12-13.53-166.91s-11.28-133.08-16.92-198.49c-4.51-64.28-10.15-119.54-13.53-166.91
	c-3.38-48.49-6.77-72.18-6.77-73.31c0-7.89-6.77-23.68-15.79-47.37c-11.28-22.56-20.3-34.96-25.94-33.83
	c-4.51,0-3.38,108.27,5.64,325.93l11.28,323.67c-1.13,0-10.15-4.51-24.81-13.53c-16.92-9.02-38.34-19.17-67.67-25.94
	c-28.19-9.02-56.39-12.41-86.84-9.02c-20.3,1.13-37.22,11.28-49.62,29.32c-14.66,19.17-21.43,45.11-18.04,77.82
	c2.26,28.19,12.41,55.26,31.58,81.2c19.17,25.94,42.86,46.24,68.79,63.16c25.94,15.79,54.13,27.07,80.07,34.96
	c25.94,9.02,48.49,12.41,65.41,11.28c27.07-2.26,45.11-7.89,57.52-19.17c12.41-7.89,19.17-23.68,23.68-41.73
	C666.73,869.97,666.73,841.77,665.6,806.81z"/>
</svg>
