<?xml version="1.0" encoding="utf-8"?>
<!-- Generator: Adobe Illustrator 23.0.2, SVG Export Plug-In . SVG Version: 6.00 Build 0)  -->
<svg version="1.1" id="Capa_1" xmlns="http://www.w3.org/2000/svg" xmlns:xlink="http://www.w3.org/1999/xlink" x="0px" y="0px"
	 viewBox="0 0 1000 1000" style="enable-background:new 0 0 1000 1000;" xml:space="preserve">
<path d="M603.08,820.58l-12.46-105.5c-28.24-241.74-41.54-421.17-49.84-513.38c7.48,0.83,26.58,27.41,57.32,78.92
	c31.57,52.33,48.18,82.24,49.01,91.38c0,0.83,0,2.49,0,3.32c-0.83,6.65-6.65,15.78-16.61,27.41c-4.15,4.98-4.15,6.65,0.83,5.81
	c19.11-1.66,34.06-10.8,44.86-25.75c11.63-16.61,17.44-26.58,16.61-34.89c-1.66-9.97-14.12-39.87-39.04-88.89
	c-24.09-49.84-50.67-97.19-78.92-143.71c-27.41-45.69-44.86-68.12-52.33-67.29c-4.98,0.83-14.95,10.8-26.58,30.74
	c-11.63,20.77-17.44,34.89-16.61,42.37c0,4.98,1.66,21.6,4.98,52.33c1.66,30.74,5.81,67.29,9.14,110.48s7.48,90.55,11.63,142.05
	c4.15,52.33,9.14,103.84,13.29,152.85c4.15,45.69-5.81-45.69,12.46,137.07l5.81,55.66c-23.26-15.78-49.01-26.58-75.59-34.89
	c-26.58-8.31-52.33-9.97-76.43-7.48c-6.65,0.83-14.12,2.49-22.43,4.98c-7.48,3.32-16.61,7.48-24.92,12.46
	c-9.97,4.98-17.44,13.29-22.43,23.26c-5.81,9.97-7.48,22.43-6.65,36.55c2.49,20.77,12.46,39.04,30.74,58.98
	c17.44,19.94,38.21,34.89,62.3,47.35c23.26,13.29,46.52,22.43,69.78,29.07c23.26,7.48,41.54,9.97,54.83,9.14
	c10.8-0.83,22.43-4.98,35.72-10.8c11.63-7.48,23.26-17.44,32.4-31.57c9.14-14.95,14.12-30.74,11.63-49.01
	C606.4,857.96,605.57,844.67,603.08,820.58z"/>
</svg>
