<?xml version="1.0" encoding="utf-8"?>
<!-- Generator: Adobe Illustrator 23.0.2, SVG Export Plug-In . SVG Version: 6.00 Build 0)  -->
<svg version="1.1" id="Capa_1" xmlns="http://www.w3.org/2000/svg" xmlns:xlink="http://www.w3.org/1999/xlink" x="0px" y="0px"
	 viewBox="0 0 1000 1000" style="enable-background:new 0 0 1000 1000;" xml:space="preserve">
<path d="M657.13,84.84c-28.96-37-121.47-17.7-182.61,18.5c-45.05,28.15-73.2,74.01-76.42,112.62l0,0c0,4.83-9.65,565.51-9.65,580.8
	c0,18.5-92.51-99.75-92.51-119.06c0-10.46,37.81-45.05,49.07-51.48c9.65-4.83-15.28-5.63-32.98,1.61
	c-24.94,9.65-78.83,63.55-78.83,92.51c0,37.81,146.41,214.78,166.52,213.98c20.11-1.61,50.68-24.94,50.68-56.31
	c0-16.89-5.63-500.35-5.63-592.86c29.76,12.07,75.62,12.07,136.75-19.31C684.48,212.74,698.96,134.71,657.13,84.84z"/>
</svg>
