<?xml version="1.0" encoding="utf-8"?>
<!-- Generator: Adobe Illustrator 23.0.2, SVG Export Plug-In . SVG Version: 6.00 Build 0)  -->
<svg version="1.1" id="Capa_1" xmlns="http://www.w3.org/2000/svg" xmlns:xlink="http://www.w3.org/1999/xlink" x="0px" y="0px"
	 viewBox="0 0 1000 1000" style="enable-background:new 0 0 1000 1000;" xml:space="preserve">
<path d="M681,965c-1,0-61-51.65-61-54.52s-2-307.04-3-550.96c-23,20.09-57,34.43-95,34.43c-63,0-112-23.91-142-60.26
	c2,107.13,4,205.65,1,205.65c-2,0-61-50.7-61-54.52c0-4.78-6-420.87-1-420.87c3,0,55,33.48,55,38.26c0,0.96,1,24.87,2,61.22
	c19-22,50-38.26,102-38.26c70,0,114,26.78,139,62.17C617,111.78,618,63,620,63s55,33.48,55,37.3C675,104.13,686,965,681,965z"/>
</svg>
