<?xml version="1.0" encoding="utf-8"?>
<!-- Generator: Adobe Illustrator 23.0.2, SVG Export Plug-In . SVG Version: 6.00 Build 0)  -->
<svg version="1.1" id="Capa_1" xmlns="http://www.w3.org/2000/svg" xmlns:xlink="http://www.w3.org/1999/xlink" x="0px" y="0px"
	 viewBox="0 0 1000 1000" style="enable-background:new 0 0 1000 1000;" xml:space="preserve">
<path d="M805.11,63c-1.7,0-20.42,15.31-54.44,45.94c-35.73,32.33-52.74,49.34-52.74,51.04v8.51v22.12v32.33
	c-1.7,11.91-1.7,27.22-1.7,44.24v49.34c-52.74-40.83-112.29-61.25-182.05-61.25c-35.73,0-78.26,13.61-124.2,40.83
	s-83.37,59.55-110.59,95.28c1.7-86.77,3.4-163.33,5.1-229.69c0-66.35,0-98.68-1.7-98.68c-1.7,0-20.42,15.31-54.44,45.94
	c-35.73,32.33-52.74,49.34-52.74,51.04v44.24c0,28.92,0,66.35-1.7,108.89c0,44.24,0,93.58-1.7,146.32v159.93v144.62v107.19
	c1.7,27.22,1.7,40.83,3.4,40.83s18.72-10.21,49.34-30.63c30.63-22.12,45.94-34.03,45.94-37.43c0-27.22,1.7-105.49,5.1-236.49
	c32.33,68.06,96.98,102.08,195.66,102.08c90.17,0,163.33-30.63,222.88-90.17c0,195.66,0,292.64,1.7,292.64
	c3.4,0,20.42-10.21,51.04-30.63c30.63-22.12,45.94-34.03,45.94-37.43l1.7-83.37c1.7-56.15,3.4-120.8,5.1-193.96
	c1.7-73.16,1.7-151.42,3.4-231.39s1.7-142.92,3.4-192.26C806.81,93.63,806.81,68.1,805.11,63z"/>
</svg>
