<?xml version="1.0" encoding="utf-8"?>
<!-- Generator: Adobe Illustrator 23.0.2, SVG Export Plug-In . SVG Version: 6.00 Build 0)  -->
<svg version="1.1" id="Capa_1" xmlns="http://www.w3.org/2000/svg" xmlns:xlink="http://www.w3.org/1999/xlink" x="0px" y="0px"
	 viewBox="0 0 1000 1000" style="enable-background:new 0 0 1000 1000;" xml:space="preserve">
<path d="M492.62,572.99c-41.06,0-76.46-7.08-109.02-22.65s-59.47-35.4-79.29-58.05l2.83-97.7c32.57-21.24,87.78-31.15,167.07-31.15
	c35.4,0,72.21,5.66,110.44,18.41c38.23,12.74,66.55,29.73,87.78,48.14v110.44C642.71,561.67,581.82,572.99,492.62,572.99z
	 M768.72,110c-1.42,0-18.41,12.74-48.14,39.64s-45.31,42.48-45.31,45.31c0,32.57,0,70.79-1.42,117.52
	c-42.48-32.57-101.94-49.56-178.4-49.56c-26.9,0-59.47,7.08-94.86,19.82s-66.55,31.15-92.03,53.8c0-32.57,0-69.38,1.42-111.85v-89.2
	c0-16.99,0-25.49-1.42-25.49c-1.42,0-18.41,12.74-48.14,39.64s-45.31,42.48-45.31,45.31v39.64c-1.42,25.49-1.42,58.05-1.42,96.28
	c-1.42,38.23-1.42,82.12-1.42,128.84v141.59c-1.42,46.72-1.42,89.2-1.42,127.43c0,38.23,0,70.79,1.42,94.86
	c0,24.07,0,35.4,1.42,35.4c2.83,0,18.41-8.5,45.31-26.9c26.9-18.41,39.64-29.73,39.64-32.57l1.42-25.49c0-16.99,0-41.06,1.42-72.21
	v-96.28c38.23,38.23,94.86,56.64,169.91,56.64c83.54,0,150.08-26.9,199.64-82.12c0,185.48,1.42,278.93,4.25,278.93
	c1.42,0,16.99-9.91,43.89-28.32c26.9-18.41,39.64-29.73,39.64-31.15l1.42-73.63c1.42-49.56,2.83-107.61,4.25-171.32
	c1.42-65.13,2.83-133.09,4.25-203.89s1.42-127.43,1.42-171.32C770.14,136.9,770.14,114.25,768.72,110z"/>
</svg>
