<?xml version="1.0" encoding="utf-8"?>
<!-- Generator: Adobe Illustrator 23.0.2, SVG Export Plug-In . SVG Version: 6.00 Build 0)  -->
<svg version="1.1" id="Capa_1" xmlns="http://www.w3.org/2000/svg" xmlns:xlink="http://www.w3.org/1999/xlink" x="0px" y="0px"
	 viewBox="0 0 1000 1000" style="enable-background:new 0 0 1000 1000;" xml:space="preserve">
<path d="M336.71,225c0,25.34,12.2,45.98,36.6,60.06c23.46,14.08,53.49,20.65,89.15,20.65c22.52,0,45.05-3.75,68.51-11.26
	c23.46-8.45,42.23-15.95,57.25-23.46c14.08-7.51,22.52-11.26,23.46-11.26c0.94,0,0.94,3.75,1.88,12.2c0,8.45,0,19.71,0.94,33.78
	v47.86v56.31v60.06v57.25v47.86v34.72l-0.94,13.14c0,0.94-7.51-6.57-22.52-22.52c-15.95-15.95-30.97-32.85-45.98-50.68
	s-22.52-28.15-22.52-30.97v-6.57c0-3.75,0-7.51,0.94-11.26v-11.26v-10.32c-0.94-2.82-1.88-3.75-2.82-3.75
	c-3.75,0-12.2,10.32-26.28,30.03c-14.08,19.71-21.58,32.85-21.58,41.29c0,8.45,23.46,45.98,70.38,111.68
	c46.92,64.75,70.38,97.6,70.38,98.54v98.54c-3.75-0.94-30.03-33.78-78.83-98.54s-73.2-97.6-73.2-100.42c0-0.94,0.94-4.69,2.82-10.32
	c0.94-6.57,1.88-11.26,2.82-15.02c0.94-3.75,0-6.57-1.88-7.51c-3.75,0-12.2,7.51-25.34,22.52c-13.14,14.08-19.71,26.28-19.71,35.66
	c0,12.2,12.2,41.29,37.54,87.28c25.34,45.05,51.62,87.28,79.77,127.63c27.22,40.35,45.05,60.06,51.62,60.06
	c6.57,0,20.65-5.63,42.23-16.89c21.58-11.26,31.91-20.65,31.91-28.15c0-10.32-0.94-141.71-3.75-395.09s-4.69-381.95-4.69-385.71
	c0-9.38-0.94-17.83-1.88-26.28C643.58,62.65,613.55,42,561.94,42c-49.74,0.94-98.54,18.77-146.4,53.49
	C362.98,133.97,336.71,177.14,336.71,225z"/>
</svg>
