<?xml version="1.0" encoding="utf-8"?>
<!-- Generator: Adobe Illustrator 23.0.2, SVG Export Plug-In . SVG Version: 6.00 Build 0)  -->
<svg version="1.1" id="Capa_1" xmlns="http://www.w3.org/2000/svg" xmlns:xlink="http://www.w3.org/1999/xlink" x="0px" y="0px"
	 viewBox="0 0 1000 1000" style="enable-background:new 0 0 1000 1000;" xml:space="preserve">
<path d="M521.06,315.93c-86.16,36.92-152.62,18.46-179.7-25.85c-20.92-35.69,16-97.23,82.46-132.93
	c81.23-44.31,155.08-43.08,188.31-6.15C662.6,210.08,612.13,277.78,521.06,315.93z M692.14,110.39
	c-43.08-43.08-141.54-46.77-267.08,2.46c-123.08,44.31-169.85,123.08-166.16,179.7c0,91.08,12.31,670.79,25.85,668.33
	c12.31,0,72.62-29.54,80-54.16c6.15-18.46-16-412.32-23.39-532.94c52.92,13.54,126.77,7.38,226.47-33.23
	C721.68,277.78,747.52,163.31,692.14,110.39z"/>
</svg>
