<?xml version="1.0" encoding="utf-8"?>
<!-- Generator: Adobe Illustrator 23.0.2, SVG Export Plug-In . SVG Version: 6.00 Build 0)  -->
<svg version="1.1" id="Capa_1" xmlns="http://www.w3.org/2000/svg" xmlns:xlink="http://www.w3.org/1999/xlink" x="0px" y="0px"
	 viewBox="0 0 1000 1000" style="enable-background:new 0 0 1000 1000;" xml:space="preserve">
<path d="M541.52,935.83c120.47,0,142.86,29.85,142.86-105.55c0-72.5-5.33-166.32-13.86-282.53
	c-8.53-114.08-14.93-201.5-20.26-262.27c-4.26-59.7-9.6-117.28-14.93-173.78v-6.4v-1.07c0-4.26-12.79-15.99-36.25-37.32
	S560.71,36,557.51,36l41.58,675.94c0,1.07-1.07,0-2.13-1.07s-4.26-1.07-7.46-4.26c-3.2-2.13-7.46-5.33-11.73-8.53
	c-5.33-2.13-10.66-5.33-18.12-9.6c-6.4-2.13-12.79-6.4-20.26-10.66c-7.46-2.13-17.06-6.4-26.65-8.53l-28.79-8.53
	c-10.66-2.13-22.39-4.26-35.18-5.33c-12.79,0-25.59-1.07-38.38,0c-37.32,2.13-61.84,10.66-74.63,25.59
	c-13.86,15.99-19.19,37.32-18.12,66.1c1.07,11.73,3.2,23.46,7.46,36.25c4.26,12.79,10.66,27.72,20.26,44.78
	c8.53,14.93,22.39,29.85,40.51,44.78c17.06,12.79,38.38,25.59,62.9,36.25C472.22,920.9,503.14,935.83,541.52,935.83z"/>
</svg>
