<?xml version="1.0" encoding="utf-8"?>
<!-- Generator: Adobe Illustrator 23.0.2, SVG Export Plug-In . SVG Version: 6.00 Build 0)  -->
<svg version="1.1" id="Capa_1" xmlns="http://www.w3.org/2000/svg" xmlns:xlink="http://www.w3.org/1999/xlink" x="0px" y="0px"
	 viewBox="0 0 1000 1000" style="enable-background:new 0 0 1000 1000;" xml:space="preserve">
<path d="M424.23,817.98c0,7.57-10.09-0.84-22.7-15.97c8.41-8.41,15.97-16.81,24.38-26.06C424.23,801.17,424.23,817.14,424.23,817.98
	z M628.5,258.97c109.28-56.32,125.25-139.54,81.54-192.5c-30.26-37.83-128.61-19.33-194.18,20.17
	c-47.91,28.58-78.18,76.5-79.86,116.84v1.68c-1.68,4.2-6.72,334.56-10.09,508.57c-15.97,19.33-33.62,39.51-49.6,58
	c-24.38-31.94-48.76-68.09-48.76-78.18c0-11.77,38.67-47.91,52.12-53.8c10.09-5.88-15.97-6.72-36.15,0
	c-24.38,10.09-81.54,68.09-81.54,97.51c0,16.81,25.22,58,57.16,100.03c-42.03,47.91-73.13,84.06-77.34,86.58
	c-4.2,4.2-4.2,43.71-1.68,43.71c1.68,0,43.71-43.71,100.03-101.71c41.19,52.12,85.74,98.35,97.51,98.35
	c20.17-0.84,52.12-26.06,52.12-58.84c0-7.57,0-89.95-1.68-194.18c81.54-85.74,150.47-161.4,150.47-165.6c0-4.2-40.35-4.2-54.64-2.52
	c-4.2,1.68-44.55,44.55-97.51,102.55c-0.84-148.79-2.52-316.07-2.52-368.19C515.86,290.92,565.45,292.6,628.5,258.97z"/>
</svg>
