<?xml version="1.0" encoding="utf-8"?>
<!-- Generator: Adobe Illustrator 23.0.2, SVG Export Plug-In . SVG Version: 6.00 Build 0)  -->
<svg version="1.1" id="Capa_1" xmlns="http://www.w3.org/2000/svg" xmlns:xlink="http://www.w3.org/1999/xlink" x="0px" y="0px"
	 viewBox="0 0 1000 1000" style="enable-background:new 0 0 1000 1000;" xml:space="preserve">
<path d="M621,5c-1,0-61,54-61,57s-2,321-3,576c-23-21-57-36-95-36c-63,0-112,25-142,63c2-112,4-215,1-215c-2,0-61,53-61,57
	c0,5-6,440-1,440c3,0,55-35,55-40c0-1,1-26,2-64c19,23,50,40,102,40c70,0,114-28,139-65c0,79,1,130,3,130s55-35,55-39S626,5,621,5z"
	/>
</svg>
