<?xml version="1.0" encoding="utf-8"?>
<!-- Generator: Adobe Illustrator 23.0.2, SVG Export Plug-In . SVG Version: 6.00 Build 0)  -->
<svg version="1.1" id="Capa_1" xmlns="http://www.w3.org/2000/svg" xmlns:xlink="http://www.w3.org/1999/xlink" x="0px" y="0px"
	 viewBox="0 0 1000 1000" style="enable-background:new 0 0 1000 1000;" xml:space="preserve">
<path d="M502.54,185.99c-65.62,0-101.33,67.24-101.33,92.46c0,32.78,24.92,63.04,101.33,63.04c51.5,0,88.87-26.9,107.15-52.95
	v-72.29C593.91,195.24,563.18,185.99,502.54,185.99z M670.32,966c-2.49,0-58.14-50.43-58.14-54.63c0-2.52-2.49-305.11-2.49-546.34
	c-21.6,20.17-52.33,33.62-89.7,33.62c-58.97,0-102.99-24.38-131.23-58c2.49,103.38,3.32,202.57,1.66,202.57
	c-2.49,0-58.97-49.59-58.97-53.79c0-4.2-4.15-418.58,0-418.58c2.49,0,52.33,34.46,52.33,37.82c0,0.84,0,24.38,0.83,61.36
	c19.1-21.85,46.51-38.66,95.52-38.66c65.62,0,105.49,28.58,129.57,63.04c0-74.81,0.83-124.4,1.66-124.4
	c2.49,0,52.33,34.46,52.33,37.82S673.64,966,670.32,966z"/>
</svg>
