<?xml version="1.0" encoding="utf-8"?>
<!-- Generator: Adobe Illustrator 23.0.2, SVG Export Plug-In . SVG Version: 6.00 Build 0)  -->
<svg version="1.1" id="Capa_1" xmlns="http://www.w3.org/2000/svg" xmlns:xlink="http://www.w3.org/1999/xlink" x="0px" y="0px"
	 viewBox="0 0 1000 1000" style="enable-background:new 0 0 1000 1000;" xml:space="preserve">
<style type="text/css">
	.st0{stroke:#000000;stroke-width:4;stroke-miterlimit:10;}
</style>
<line class="st0" x1="128.5" y1="122.5" x2="887.5" y2="122.5"/>
<line class="st0" x1="129" y1="299.12" x2="888" y2="299.12"/>
<line class="st0" x1="129.5" y1="475.75" x2="888.5" y2="475.75"/>
<line class="st0" x1="130" y1="652.38" x2="889" y2="652.38"/>
<line class="st0" x1="130.5" y1="829" x2="889.5" y2="829"/>
<path d="M530.18,288c-29.2,11.46-45.12,17.18-46,17.18c-0.88,0.64,0,87.83,1.77,262.23S487.27,829,488.15,829s8.4-3.82,22.56-13.37
	c14.16-9.55,21.68-12.73,21.68-13.37c0,0,0-85.29-0.88-256.5S530.18,289.27,530.18,288z"/>
</svg>
