<?xml version="1.0" encoding="utf-8"?>
<!-- Generator: Adobe Illustrator 23.0.2, SVG Export Plug-In . SVG Version: 6.00 Build 0)  -->
<svg version="1.1" id="Capa_1" xmlns="http://www.w3.org/2000/svg" xmlns:xlink="http://www.w3.org/1999/xlink" x="0px" y="0px"
	 viewBox="0 0 1000 1000" style="enable-background:new 0 0 1000 1000;" xml:space="preserve">
<path d="M796.24,175.12c-7.26,0-154.86,140.34-166.96,159.7C488.94,271.91,140.5,121.89,140.5,129.15c0,0,0,4.84,96.79,164.54
	c268.59,133.08,389.57,193.58,389.57,193.58c0,16.94,0,36.3,0,55.65c-108.89-48.39-329.08-140.34-329.08-135.5
	c0,0,0,4.84,96.79,164.54c147.6,79.85,232.29,123.41,232.29,123.41c2.42,96.79,2.42,176.64,4.84,176.64
	c12.1,0,171.8-162.12,171.8-174.22C803.5,175.12,796.24,175.12,796.24,175.12z"/>
</svg>
