<?xml version="1.0" encoding="utf-8"?>
<!-- Generator: Adobe Illustrator 23.0.2, SVG Export Plug-In . SVG Version: 6.00 Build 0)  -->
<svg version="1.1" id="Capa_1" xmlns="http://www.w3.org/2000/svg" xmlns:xlink="http://www.w3.org/1999/xlink" x="0px" y="0px"
	 viewBox="0 0 1000 1000" style="enable-background:new 0 0 1000 1000;" xml:space="preserve">
<style type="text/css">
	.st0{stroke:#000000;stroke-width:4;stroke-miterlimit:10;}
</style>
<line class="st0" x1="128.5" y1="122.5" x2="887.5" y2="122.5"/>
<line class="st0" x1="129" y1="299.12" x2="888" y2="299.12"/>
<line class="st0" x1="129.5" y1="475.75" x2="888.5" y2="475.75"/>
<line class="st0" x1="130" y1="652.38" x2="889" y2="652.38"/>
<line class="st0" x1="130.5" y1="829" x2="889.5" y2="829"/>
<path d="M462,364.87c0,77.42,0,116.13,3.69,116.13c3.69,0,7.37-0.52,18.44-2.06l29.5-4.13l29.5-4.13
	c7.37-1.55,11.06-2.06,11.06-2.58c0-76.9,0-115.1-3.69-115.1c-3.69,0-18.44,2.06-44.25,5.68C476.75,362.29,462,364.35,462,364.87z"
	/>
</svg>
