<?xml version="1.0" encoding="utf-8"?>
<!-- Generator: Adobe Illustrator 23.0.2, SVG Export Plug-In . SVG Version: 6.00 Build 0)  -->
<svg version="1.1" id="Capa_1" xmlns="http://www.w3.org/2000/svg" xmlns:xlink="http://www.w3.org/1999/xlink" x="0px" y="0px"
	 viewBox="0 0 1000 1000" style="enable-background:new 0 0 1000 1000;" xml:space="preserve">
<path d="M782.69,171.81c-4.44,0-17.75,13.31-39.94,35.5c-26.63,22.19-53.26,48.82-79.88,75.44c-31.07,26.63-44.38,44.38-48.82,48.82
	C529.73,291.63,423.22,247.25,303.39,194c-119.82-48.82-181.95-71.01-181.95-66.57l97.63,164.2
	c181.95,88.76,310.65,155.33,394.97,195.27c0,257.4,0,386.1,4.44,386.1s35.5-26.63,93.2-84.32c53.26-53.26,79.88-84.32,79.88-88.76
	C791.56,349.33,787.12,171.81,782.69,171.81z"/>
</svg>
