<?xml version="1.0" encoding="utf-8"?>
<!-- Generator: Adobe Illustrator 23.0.2, SVG Export Plug-In . SVG Version: 6.00 Build 0)  -->
<svg version="1.1" id="Capa_1" xmlns="http://www.w3.org/2000/svg" xmlns:xlink="http://www.w3.org/1999/xlink" x="0px" y="0px"
	 viewBox="0 0 1000 1000" style="enable-background:new 0 0 1000 1000;" xml:space="preserve">
<style type="text/css">
	.st0{stroke:#000000;stroke-width:4;stroke-miterlimit:10;}
</style>
<line class="st0" x1="128.5" y1="122.5" x2="887.5" y2="122.5"/>
<line class="st0" x1="129" y1="299.12" x2="888" y2="299.12"/>
<line class="st0" x1="129.5" y1="475.75" x2="888.5" y2="475.75"/>
<line class="st0" x1="130" y1="652.38" x2="889" y2="652.38"/>
<line class="st0" x1="130.5" y1="829" x2="889.5" y2="829"/>
<path d="M530.18,293c-29.2,3.96-45.12,5.94-46,5.94c-0.88,0.22,0,30.36,1.77,90.64s1.33,90.42,2.21,90.42s8.4-1.32,22.56-4.62
	c14.16-3.3,21.68-4.4,21.68-4.62c0,0,0-29.48-0.88-88.66S530.18,293.44,530.18,293z"/>
</svg>
