<?xml version="1.0" encoding="utf-8"?>
<!-- Generator: Adobe Illustrator 23.0.2, SVG Export Plug-In . SVG Version: 6.00 Build 0)  -->
<svg version="1.1" id="Capa_1" xmlns="http://www.w3.org/2000/svg" xmlns:xlink="http://www.w3.org/1999/xlink" x="0px" y="0px"
	 viewBox="0 0 1000 1000" style="enable-background:new 0 0 1000 1000;" xml:space="preserve">
<style type="text/css">
	.st0{stroke:#000000;stroke-width:4;stroke-miterlimit:10;}
</style>
<line class="st0" x1="128.5" y1="122.5" x2="887.5" y2="122.5"/>
<line class="st0" x1="129" y1="299.12" x2="888" y2="299.12"/>
<line class="st0" x1="129.5" y1="475.75" x2="888.5" y2="475.75"/>
<line class="st0" x1="130" y1="652.38" x2="889" y2="652.38"/>
<line class="st0" x1="130.5" y1="829" x2="889.5" y2="829"/>
<path d="M530.18,288c-29.2,7.96-45.12,11.94-46,11.94c-0.88,0.44,0,61.04,1.77,182.25S487.27,664,488.15,664s8.4-2.65,22.56-9.29
	c14.16-6.64,21.68-8.85,21.68-9.29c0,0,0-59.28-0.88-178.27S530.18,288.88,530.18,288z"/>
</svg>
