<?xml version="1.0" encoding="utf-8"?>
<!-- Generator: Adobe Illustrator 23.0.2, SVG Export Plug-In . SVG Version: 6.00 Build 0)  -->
<svg version="1.1" id="Capa_1" xmlns="http://www.w3.org/2000/svg" xmlns:xlink="http://www.w3.org/1999/xlink" x="0px" y="0px"
	 viewBox="0 0 1000 1000" style="enable-background:new 0 0 1000 1000;" xml:space="preserve">
<path d="M605.09,130.53c-88.5,0-189.12,126.08-189.12,178.21c0,89.71,113.96,123.66,113.96,172.15c0,20.61-13.34,46.07-43.64,46.07
	c-50.92,0-64.25-55.77-64.25-95.77c0-19.4-96.99,81.23-96.99,101.84c0,25.46,30.31,77.59,121.23,77.59
	c87.29,0,177-116.38,177-190.34c0-67.89-103.05-134.57-103.05-179.43c0-20.61,24.25-36.37,44.86-36.37
	c43.64,0,38.79,90.93,43.64,90.93c6.06,0,66.68-49.71,66.68-59.4C675.41,229.94,685.11,130.53,605.09,130.53z M874.23,364.51
	c-30.31,0-55.77,23.03-55.77,55.77c0,30.31,25.46,54.56,55.77,54.56S930,450.59,930,420.28C930,387.54,904.54,364.51,874.23,364.51z
	 M140.77,364.51c-30.31,0-55.77,23.03-55.77,55.77c0,30.31,25.46,54.56,55.77,54.56s55.77-24.25,55.77-54.56
	C196.54,387.54,171.08,364.51,140.77,364.51z M528.72,722.15c-30.31,0-54.56,23.03-54.56,55.77c0,30.31,24.25,54.56,54.56,54.56
	c32.73,0,55.77-24.25,55.77-54.56C584.48,745.18,561.45,722.15,528.72,722.15z"/>
</svg>
