<?xml version="1.0" encoding="utf-8"?>
<!-- Generator: Adobe Illustrator 23.0.2, SVG Export Plug-In . SVG Version: 6.00 Build 0)  -->
<svg version="1.1" id="Capa_1" xmlns="http://www.w3.org/2000/svg" xmlns:xlink="http://www.w3.org/1999/xlink" x="0px" y="0px"
	 viewBox="0 0 1000 1000" style="enable-background:new 0 0 1000 1000;" xml:space="preserve">
<path d="M741.23,66.56C656,189.87,540.85,294.13,443.84,415.63c-97.92,116.06-175.9,244.81-228.49,380.81
	c-4.53,9.97,19.04,18.13,21.76,6.35c51.68-139.63,132.38-268.38,229.39-382.62c97.02-117.87,204.91-223.05,293.77-345.45
	C770.24,62.02,746.67,53.86,741.23,66.56z M267.94,114.61C329.59,241.55,412.1,354.88,506.4,462.78
	c95.2,111.52,192.22,229.39,289.23,340.01c8.16,8.16,25.39-2.72,17.23-13.6c-97.02-113.34-198.57-225.77-295.58-341.82
	c-86.14-108.8-171.36-216.7-232.11-340.92C280.63,93.76,263.4,101.92,267.94,114.61z M210.82,127.3
	c-25.39,267.47-30.83,540.39-18.13,812.4c0,12.69,22.67,12.69,22.67,0c8.16-232.11,34.45-468.76,79.79-698.15
	c-9.97,0-14.51-2.72-22.67-2.72c8.16,176.8,12.69,356.33,8.16,534.04c0,8.16,8.16,10.88,19.04,8.16
	c42.61-20.85,55.31-77.98,69.82-117.87c12.69-68,25.39-131.47,33.55-200.38c23.57-131.47,28.11-268.38,17.23-403.48
	c0-12.69-20.85-12.69-20.85,0c-21.76,255.69-25.39,511.37-17.23,767.97c0,12.69,17.23,15.41,20.85,4.53
	c53.49-213.07,84.32-429.77,93.39-645.56c0-12.69-21.76-12.69-21.76-4.53c-35.36,149.6-65.28,312.81,21.76,449.72
	c3.63,8.16,12.69,8.16,20.85,0c88.86-112.43,111.52-263.85,57.12-392.6c-2.72-8.16-21.76-12.69-21.76,0
	c-29.01,181.34-29.01,369.02,0,553.08c0,8.16,19.04,8.16,21.76,0C628.8,655,658.72,510.83,656,367.58
	c0-12.69-18.13-12.69-18.13-4.53c-36.27,107.9-45.33,215.79-23.57,323.69c0,8.16,17.23,12.69,17.23,5.44
	C703.15,550.73,724,399.31,751.2,246.99c-9.97,0-17.23,0-22.67,0C724,420.16,724,591.53,721.28,763.8c7.25,0,12.69,0,19.95,0
	c0-32.64,0-64.38,0-92.48c0-16.32-19.95-16.32-19.95,0c0,28.11,0,59.84,0,92.48c0,12.69,19.95,12.69,19.95,0
	c5.44-172.27,5.44-343.64,9.97-516.81c0-12.69-22.67-16.32-22.67-5.44c-21.76,149.6-47.15,301.02-114.24,437.93
	c9.97,4.53,14.51,4.53,23.57,4.53C614.29,578.84,624.27,470.94,656,370.3c-6.35-2.72-14.51-2.72-24.48-2.72
	c6.35,143.26-25.39,284.7-78.88,416.17c10.88,0,13.6,0,21.76,0c-29.92-175.9-29.92-360.86,0-542.2c-8.16,0-10.88,0-21.76,0
	c48.96,126.03,31.73,269.29-56.21,381.72c9.97,0,12.69,0,20.85,0c-86.14-133.28-57.12-291.95-20.85-433.4
	c-9.07-3.63-19.04-3.63-21.76-3.63c-8.16,215.79-39.89,428.86-92.48,635.59c4.53,5.44,12.69,5.44,20.85,5.44
	c-8.16-256.59-3.63-512.28,17.23-767.97c-2.72,0-10.88,0-20.85,0c9.97,122.4,3.63,251.15-12.69,376.28
	c-9.07,62.56-17.23,122.4-31.73,187.69c-12.69,44.43-17.23,116.06-69.82,140.54c3.63,0,9.97,4.53,17.23,9.07
	c5.44-177.71,0-357.24-7.25-534.04c0-8.16-18.13-12.69-22.67-4.53c-44.43,236.65-69.82,468.76-79.79,705.41c9.97,0,18.13,0,22.67,0
	c-12.69-272.01-9.97-544.92,19.04-812.4C237.11,114.61,215.35,114.61,210.82,127.3z"/>
</svg>
